<svg xmlns="http://www.w3.org/2000/svg" viewBox="0 0 135.69 116.3"><defs><style>.cls-1{fill:#ffaf1c;}.cls-2{fill:#212449;}</style></defs><title>Recurso 2</title><g id="Capa_2" data-name="Capa 2"><g id="Capa_1-2" data-name="Capa 1"><rect class="cls-1" x="92.07" width="29.08" height="103.21"/><rect class="cls-1" x="53.31" y="19.38" width="29.08" height="83.83"/><rect class="cls-1" x="14.54" y="38.77" width="29.08" height="64.44"/><path class="cls-2" d="M126,103.13a3.48,3.48,0,0,1,0,7H9.69a3.48,3.48,0,1,1,0-7H126m0-6.21H9.69a9.69,9.69,0,0,0,0,19.38H126a9.69,9.69,0,0,0,0-19.38Z"/><path class="cls-2" d="M37.4,45V97H20.75V45H37.4m6.21-6.21H14.54v64.44H43.61V38.77Z"/><path class="cls-2" d="M76.17,25.6V97H59.52V25.6H76.17m6.21-6.22H53.31v83.83H82.38V19.38Z"/><path class="cls-2" d="M114.94,6.21V97H98.29V6.21h16.65M121.15,0H92.07V103.21h29.08V0Z"/></g></g></svg>