<svg xmlns="http://www.w3.org/2000/svg" viewBox="0 0 70 70"><defs><style>.cls-1{fill:#141b4d;}.cls-2{fill:#fff;}.cls-3{fill:#ffaf1c;}</style></defs><title>Recurso 4</title><g id="Capa_2" data-name="Capa 2"><g id="Capa_1-2" data-name="Capa 1"><path class="cls-1" d="M70,35A35,35,0,1,1,35,0,35,35,0,0,1,70,35Z"/><circle class="cls-2" cx="35" cy="35" r="28.27" transform="translate(-14.5 35) rotate(-45)"/><path class="cls-3" d="M38.14,49.14,42,41.5l5.5,2.75v4.89Zm-15.6,0V44.25L28,41.5l3.82,7.64Z"/><path class="cls-1" d="M41.33,39.62l7.42,3.71a.57.57,0,0,1,.12.18v7h-13L37,48.36l1-2,3.4-6.79m-12.66,0,3.4,6.79,1,2,1.09,2.18h-13v-7a.44.44,0,0,1,.12-.18l7.42-3.71M41,37.17a1.44,1.44,0,0,0-1.29.79L36,45.43l-1,2-1-2L30.29,38A1.44,1.44,0,0,0,29,37.17a1.3,1.3,0,0,0-.63.15l-8.15,4.07a2.54,2.54,0,0,0-1.28,2.07v9.27H51.06V43.46a2.54,2.54,0,0,0-1.28-2.07l-8.15-4.07a1.3,1.3,0,0,0-.63-.15Z"/><path class="cls-1" d="M35,17.46a5.81,5.81,0,0,1,5.83,5.6v5.59a5.84,5.84,0,0,1-11.68,0,.91.91,0,0,1,0-.17v-5a.91.91,0,0,1,0-.17.86.86,0,0,1,0-.16v-.08h0A5.81,5.81,0,0,1,35,17.46m0-2.19A8,8,0,0,0,27,23h0v0c0,.1,0,.19,0,.28s0,.19,0,.29v4.78c0,.1,0,.19,0,.29a8,8,0,0,0,16.06,0V23h0a8,8,0,0,0-8-7.71Z"/><path class="cls-1" d="M45.71,48.48H40.35a1.1,1.1,0,0,1,0-2.19h5.36a1.1,1.1,0,0,1,0,2.19Z"/><polygon class="cls-1" points="37.68 39.35 35 39.35 32.32 39.35 33.19 42.03 32.74 42.87 35 47.38 37.26 42.87 36.81 42.03 37.68 39.35"/></g></g></svg>