<svg xmlns="http://www.w3.org/2000/svg" viewBox="0 0 105 70"><defs><style>.cls-1{fill:#ffb81c;}.cls-2{fill:#141b4d;}.cls-3{fill:#fff;}</style></defs><title>Recurso 1</title><g id="Capa_2" data-name="Capa 2"><g id="Capa_1-2" data-name="Capa 1"><circle class="cls-1" cx="35" cy="35" r="35"/><rect class="cls-1" x="35" width="35" height="70"/><circle class="cls-1" cx="70" cy="35" r="35"/><path class="cls-2" d="M81.75,36.67h-2V30.21a2.59,2.59,0,0,0-2.58-2.58H67.37v-2h9.81a4.58,4.58,0,0,1,4.57,4.57Z"/><rect class="cls-2" x="53.98" y="18.95" width="6.69" height="1.99"/><path class="cls-2" d="M79.25,43.37h-.49a11.39,11.39,0,1,1-18.08-9.22V31.78A13.38,13.38,0,1,0,80.74,44,2.14,2.14,0,0,0,79.25,43.37Z"/><path class="cls-3" d="M67.2,43.37a6.54,6.54,0,0,1-5.66-3.29,6.69,6.69,0,1,0,12.52,3.29H67.2Z"/><path class="cls-2" d="M65.25,15.24a.13.13,0,0,1,.13.12v19.2a4.11,4.11,0,0,0,4.1,4.11H84a.12.12,0,0,1,.12.08L86.73,46a4.11,4.11,0,0,0,3.86,2.72.13.13,0,0,1,.13.13v2.46a.12.12,0,0,1-.13.12H85.47a.12.12,0,0,1-.12-.08l-2.18-7.06a4.09,4.09,0,0,0-3.92-2.9h-12a4.53,4.53,0,0,1-4.53-4.53V15.36a.12.12,0,0,1,.12-.12h2.46m0-2H62.79a2.11,2.11,0,0,0-2.11,2.11V36.84a6.52,6.52,0,0,0,6.52,6.53h12a2.12,2.12,0,0,1,2,1.49l2.18,7a2.1,2.1,0,0,0,2,1.49h5.12a2.11,2.11,0,0,0,2.12-2.11V48.83a2.12,2.12,0,0,0-2.12-2.12,2.11,2.11,0,0,1-2-1.4L86,38.07a2.11,2.11,0,0,0-2-1.4H69.48a2.11,2.11,0,0,1-2.11-2.11V15.36a2.12,2.12,0,0,0-2.12-2.11Z"/></g></g></svg>