<svg xmlns="http://www.w3.org/2000/svg" viewBox="0 0 74.13 92.01"><defs><style>.cls-1{fill:#161b4e;}</style></defs><title>Recurso 1</title><g id="Capa_2" data-name="Capa 2"><g id="Capa_1-2" data-name="Capa 1"><path class="cls-1" d="M74.11,20.83a1.8,1.8,0,0,0-.09-.45,1,1,0,0,0-.06-.16,1.57,1.57,0,0,0-.34-.51L54.42.51a1.57,1.57,0,0,0-.51-.34.76.76,0,0,0-.16-.06A1.63,1.63,0,0,0,53.3,0l-.11,0H1.74A1.74,1.74,0,0,0,0,1.74V90.27A1.74,1.74,0,0,0,1.74,92H72.39a1.74,1.74,0,0,0,1.74-1.74V20.94S74.11,20.87,74.11,20.83ZM68.2,19.2H54.93V5.94ZM3.48,88.53v-85h48V20.94a1.73,1.73,0,0,0,1.73,1.74H70.66V88.53Z"/><rect class="cls-1" x="13" y="37.8" width="48.13" height="4.61"/><rect class="cls-1" x="13" y="49.07" width="48.13" height="4.61"/><rect class="cls-1" x="13" y="60.33" width="48.13" height="4.61"/></g></g></svg>