<svg xmlns="http://www.w3.org/2000/svg" viewBox="0 0 160.23 45"><defs><style>.cls-1{fill:#161b4e;}.cls-2{fill:#ee7269;}.cls-3{fill:#9b9b97;}.cls-4{fill:#77a5b6;}.cls-5{fill:#fdc400;}.cls-6{fill:#1d1f3f;}</style></defs><g id="Capa_2" data-name="Capa 2"><g id="Capa_1-2" data-name="Capa 1"><path class="cls-1" d="M0,22.41A22.42,22.42,0,0,0,21.34,44.77V.05A22.42,22.42,0,0,0,0,22.41"/><path class="cls-2" d="M32.3,44.8H44.77V32.33A24.65,24.65,0,0,1,32.3,44.8"/><path class="cls-2" d="M44.77,12.49V0H32.3A24.6,24.6,0,0,1,44.77,12.49"/><path class="cls-3" d="M44.77,22.41A22.41,22.41,0,0,0,23.44.05V44.77A22.41,22.41,0,0,0,44.77,22.41"/><path class="cls-4" d="M70.31,22.41V37h2.85a18.48,18.48,0,1,0,0-37H55.74A24.52,24.52,0,0,1,70.31,22.41"/><path class="cls-5" d="M46.87.05V44.8H68.21V22.41A22.42,22.42,0,0,0,46.87.05"/><path class="cls-6" d="M105.29,20.26a4.18,4.18,0,0,0,.12.71,2.31,2.31,0,0,0,1.7,1.72,2.25,2.25,0,0,0,2.3-.64,2.67,2.67,0,0,0,.7-2.41,2.4,2.4,0,0,0-3.51-1.82,2.54,2.54,0,0,0-1.31,2.44m-.77,0A3.2,3.2,0,0,1,106,17.33a3.15,3.15,0,0,1,3.28,0,3,3,0,0,1,1.6,2.67,3.29,3.29,0,0,1-1.12,2.76A3.19,3.19,0,0,1,104.62,21a5.27,5.27,0,0,1-.1-.74"/><path class="cls-6" d="M109.26,27.79H110v6.47a2.54,2.54,0,0,1-.26-.21l-3.78-4.32c-.08-.1-.17-.19-.25-.28l-.07,0v4.6h-.71V27.58a2.81,2.81,0,0,1,.29.26c.89,1,1.78,2,2.66,3,.39.43.77.87,1.15,1.3a2.88,2.88,0,0,0,.25.25Z"/><path class="cls-6" d="M126.47,34.08h-.67c0-.12,0-.22,0-.33,0-.81,0-1.63,0-2.45a2.9,2.9,0,0,0-.14-.76A1,1,0,0,0,124,30.2a1.7,1.7,0,0,0-.45,1,7,7,0,0,0,0,.92c0,.64,0,1.28,0,1.93h-.7a3,3,0,0,1,0-.31c0-.75,0-1.51,0-2.27a3.75,3.75,0,0,0-.14-.94,1,1,0,0,0-1.67-.31,1.68,1.68,0,0,0-.42,1.06c0,.58,0,1.16,0,1.73v1h-.68V29.42l.25,0h.27c0,.24.06.46.09.74a1.65,1.65,0,0,1,1.49-.86,1.55,1.55,0,0,1,1.42,1l.11-.16a1.59,1.59,0,0,1,1.91-.73,1.42,1.42,0,0,1,1,1.13,3.85,3.85,0,0,1,.11.83c0,.86,0,1.71,0,2.57a1.68,1.68,0,0,1,0,.2"/><path class="cls-6" d="M139,21.05a2.05,2.05,0,0,0-.33-1.23,1.5,1.5,0,0,0-2.61.17,2.12,2.12,0,0,0,0,2,1.44,1.44,0,0,0,1.33.86,1.46,1.46,0,0,0,1.34-.74,1.83,1.83,0,0,0,.28-1m0-1.69V17h.7V23.3h-.55c0-.26,0-.51-.09-.82a2.24,2.24,0,0,1-.85.75,2.13,2.13,0,0,1-2.91-1.13,2.84,2.84,0,0,1,.22-2.64,2.11,2.11,0,0,1,3.34-.25l.14.15"/><path class="cls-6" d="M105.64,41.69c.53,0,1,0,1.53,0a1.28,1.28,0,0,0,.32-.06,1.13,1.13,0,0,0,.84-1.16,1.09,1.09,0,0,0-.82-1.18,8.32,8.32,0,0,0-1.87-.08Zm0,.67v2.48h-.71V38.58a.27.27,0,0,1,.12,0c.75,0,1.49,0,2.24,0a2.51,2.51,0,0,1,.7.15,1.73,1.73,0,0,1,1.13,1.84,1.81,1.81,0,0,1-1.94,1.8h-1.54"/><path class="cls-6" d="M116.22,42.1a1.38,1.38,0,0,0-1.44-1.42,1.53,1.53,0,0,0-1.53,1.55,20.89,20.89,0,0,1,3-.13m.53,1.43v.71a2.19,2.19,0,0,1-1.54.73,3.21,3.21,0,0,1-1.07-.09,2.29,2.29,0,0,1-1.65-2.15,2.64,2.64,0,0,1,.58-1.89,2.27,2.27,0,0,1,3.38-.1,2,2,0,0,1,.5,1.31v.66h-3.34c-.26,0-.36.17-.32.44a1.17,1.17,0,0,0,.47.77,2.07,2.07,0,0,0,2,.28,1.74,1.74,0,0,0,.81-.49l.2-.19"/><path class="cls-6" d="M144.25,20.56a1.38,1.38,0,0,0-.74-1.25,1.51,1.51,0,0,0-1.61.11,1.47,1.47,0,0,0-.63,1.25,26.54,26.54,0,0,1,3-.11m.51,1.49v.65a2.27,2.27,0,0,1-1.54.73,3.14,3.14,0,0,1-1.06-.1,2.27,2.27,0,0,1-1.66-2.17,2.49,2.49,0,0,1,.93-2.19,2.16,2.16,0,0,1,3.47,1.12,6.13,6.13,0,0,1,.07,1.08h-3.25c-.37,0-.51.2-.4.55a1.41,1.41,0,0,0,1.1,1,2.18,2.18,0,0,0,2.18-.57l.11-.1h0"/><path class="cls-6" d="M143.09,42.5c-.28.07-.53.14-.78.18s-.44,0-.65,0a3.29,3.29,0,0,0-.69.16.67.67,0,0,0-.43.63.75.75,0,0,0,.4.69,1.45,1.45,0,0,0,2.14-1,4.92,4.92,0,0,0,0-.66m-2.94-1v-.71a2.42,2.42,0,0,1,1.36-.68,2.59,2.59,0,0,1,1.35.11,1.34,1.34,0,0,1,.94,1.26c0,1.09,0,2.18,0,3.26a.69.69,0,0,1,0,.13h-.54c0-.22-.06-.45-.09-.71l-.19.21a2,2,0,0,1-2.59.31,1.33,1.33,0,0,1-.54-1.28,1.21,1.21,0,0,1,.77-1.05,3.11,3.11,0,0,1,1.2-.22c.27,0,.54,0,.8,0,.52-.06.6-.58.35-.94a1,1,0,0,0-.65-.39,2.14,2.14,0,0,0-1.74.42c-.13.09-.25.2-.41.33"/><path class="cls-6" d="M142.75,31.66a1.88,1.88,0,0,1-1,.27c-.15,0-.3,0-.44,0a2.46,2.46,0,0,0-.61.14.7.7,0,0,0-.48.69.76.76,0,0,0,.48.7,1.45,1.45,0,0,0,2-.77,2.39,2.39,0,0,0,.09-1m-2.95-1V30a2.71,2.71,0,0,1,2.73-.56,1.34,1.34,0,0,1,.92,1.25c0,1.09,0,2.19,0,3.29a.84.84,0,0,1,0,.1h-.54c0-.22,0-.45-.08-.72a1.56,1.56,0,0,1-.15.17,2,2,0,0,1-2.43.49,1.33,1.33,0,0,1-.75-1.32,1.18,1.18,0,0,1,.84-1.15,6.66,6.66,0,0,1,1.17-.2c.27,0,.54,0,.8-.07a.51.51,0,0,0,.42-.71.77.77,0,0,0-.42-.48,1.86,1.86,0,0,0-1.7.07,8.22,8.22,0,0,0-.79.52"/><path class="cls-6" d="M130.49,31.74c-.33.07-.64.14-1,.18-.16,0-.32,0-.48,0a3,3,0,0,0-.66.16.67.67,0,0,0-.45.64.75.75,0,0,0,.43.7,1.44,1.44,0,0,0,2-.69,2.09,2.09,0,0,0,.11-1m.06,1.6-.14.17a2,2,0,0,1-2.48.48,1.33,1.33,0,0,1-.71-1.32,1.22,1.22,0,0,1,.8-1.12,3.07,3.07,0,0,1,1.2-.21,5.39,5.39,0,0,0,.8-.06.52.52,0,0,0,.4-.79,1,1,0,0,0-.38-.4,1.79,1.79,0,0,0-1.67,0,7.7,7.7,0,0,0-.82.54V30a2.48,2.48,0,0,1,1.21-.63,2.6,2.6,0,0,1,1.56.1,1.27,1.27,0,0,1,.86,1.19c0,1.13,0,2.27,0,3.43h-.56c0-.22,0-.45-.08-.73"/><path class="cls-6" d="M131.45,21l-.08,0a1.94,1.94,0,0,1-1.05.25c-.13,0-.26,0-.39,0a3.4,3.4,0,0,0-.63.15.68.68,0,0,0-.46.64.76.76,0,0,0,.44.72,1.43,1.43,0,0,0,2-.74,5.38,5.38,0,0,0,.16-1m.62,2.36h-.54c0-.24-.05-.47-.08-.73l-.2.24a2,2,0,0,1-2.54.33,1.35,1.35,0,0,1-.58-1.32,1.21,1.21,0,0,1,.78-1,3.43,3.43,0,0,1,1.23-.22,4,4,0,0,0,.77,0,.53.53,0,0,0,.39-.83.94.94,0,0,0-.37-.37,1.82,1.82,0,0,0-1.64,0,8.39,8.39,0,0,0-.83.54v-.67a2.65,2.65,0,0,1,2.8-.52,1.23,1.23,0,0,1,.82,1.18c0,1.1,0,2.21,0,3.31a1,1,0,0,1,0,.12"/><path class="cls-6" d="M131.89,40.68a1.52,1.52,0,0,0-1.39.84,2.1,2.1,0,0,0,0,2,1.45,1.45,0,0,0,1.43.84,1.48,1.48,0,0,0,1.38-.94,2.14,2.14,0,0,0,0-1.77,1.53,1.53,0,0,0-1.42-1m0-.62a2.47,2.47,0,1,1-2.38,2.43,2.33,2.33,0,0,1,2.38-2.43"/><path class="cls-6" d="M151.36,31.74a2.6,2.6,0,0,0,.29,1,1.5,1.5,0,0,0,1.38.8,1.45,1.45,0,0,0,1.34-.8,2.11,2.11,0,0,0,.09-1.88,1.55,1.55,0,0,0-2.9,0,5.58,5.58,0,0,0-.2.83M153,34.21a2.47,2.47,0,1,1,2.38-2.44A2.33,2.33,0,0,1,153,34.21"/><path class="cls-6" d="M111.67,31.71a2.09,2.09,0,0,0,.25,1,1.48,1.48,0,0,0,1.36.82,1.44,1.44,0,0,0,1.37-.8,2.08,2.08,0,0,0-.05-2.14,1.54,1.54,0,0,0-2.38-.3,1.93,1.93,0,0,0-.55,1.37m1.62-2.43a2.47,2.47,0,1,1-2.37,2.46,2.33,2.33,0,0,1,2.37-2.46"/><path class="cls-6" d="M135.74,44.85h-.69V40.2h.53c0,.23.06.47.1.76l.17-.23a1.83,1.83,0,0,1,2.05-.59,1.65,1.65,0,0,1,1.17,1.61c.05,1,0,2,0,3.09h-.71c0-.09,0-.2,0-.3,0-.84,0-1.68,0-2.51a1.52,1.52,0,0,0-.06-.42,1.09,1.09,0,0,0-.9-.92,1.24,1.24,0,0,0-1.29.51,2.15,2.15,0,0,0-.35,1.3c0,.67,0,1.34,0,2Z"/><path class="cls-6" d="M124.05,23.31h-.69V18.64h.52l.09.77a2,2,0,0,0,.16-.2,1.8,1.8,0,0,1,1.93-.65A1.66,1.66,0,0,1,127.35,20c0,.12,0,.25,0,.38v2.75a1,1,0,0,1,0,.16h-.69V23l0-2.52a2.07,2.07,0,0,0-.07-.41,1.09,1.09,0,0,0-.85-.86,1.21,1.21,0,0,0-1.25.4,2,2,0,0,0-.43,1.33v2.42Z"/><path class="cls-6" d="M160.22,34.08h-.69c0-.1,0-.21,0-.31,0-.84,0-1.68,0-2.51a2,2,0,0,0-.06-.42,1.09,1.09,0,0,0-.9-.92,1.23,1.23,0,0,0-1.27.48,2.12,2.12,0,0,0-.37,1.33c0,.67,0,1.34,0,2v.34h-.69V29.42h.52c0,.24.06.48.09.77L157,30a1.82,1.82,0,0,1,2-.63A1.66,1.66,0,0,1,160.21,31c0,1,0,2.05,0,3.11"/><path class="cls-6" d="M126.93,40.5v.68l-.3-.19a1.93,1.93,0,0,0-1.48-.27,1,1,0,0,0-.33.15.54.54,0,0,0,0,.92,3.15,3.15,0,0,0,.64.31c.34.15.7.25,1,.42a1.17,1.17,0,0,1,.73,1.28,1.33,1.33,0,0,1-1.06,1.12,2.79,2.79,0,0,1-2.18-.39l-.17-.12v-.7l.32.21a2.24,2.24,0,0,0,1.6.44,1.36,1.36,0,0,0,.52-.19.56.56,0,0,0,.08-.92,2.57,2.57,0,0,0-.65-.36c-.35-.16-.73-.27-1.08-.43a1.08,1.08,0,0,1-.7-1.11,1.2,1.2,0,0,1,.75-1.13,2.29,2.29,0,0,1,2.31.28"/><path class="cls-6" d="M135.31,34.07c.82-1.35,1.63-2.66,2.46-4h-2.2v-.62H139l-2.45,4h2.39v.64Z"/><path class="cls-6" d="M148.21,30.54a2,2,0,0,0-2.89-.07,2.1,2.1,0,0,0,.05,2.6,1.67,1.67,0,0,0,1.47.5,2.22,2.22,0,0,0,1.41-.75v.76a2.54,2.54,0,0,1-3.36,0,2.71,2.71,0,0,1-.15-3.55,2.6,2.6,0,0,1,3.47-.21Z"/><path class="cls-6" d="M120.29,19.07v.71l-.26-.19a2.17,2.17,0,0,0-1.72-.41,1.5,1.5,0,0,0-1.19,1,2.1,2.1,0,0,0-.05,1.52,1.7,1.7,0,0,0,2.32,1,7.24,7.24,0,0,0,.93-.54v.67a2.56,2.56,0,0,1-3.34,0,2.68,2.68,0,0,1-.19-3.54,2.58,2.58,0,0,1,3.5-.24"/><path class="cls-6" d="M112,23.3V19.24h-.74v-.59l.75,0c0-.17,0-.32,0-.48a1.3,1.3,0,0,1,2-1.06v.52c-1-.21-1.43.14-1.24,1h1.32v.6h-1.36V23.3Z"/><path class="cls-6" d="M119.54,44.9h-.21c-.72-1.56-1.45-3.12-2.19-4.71H118c.48,1.13,1,2.27,1.49,3.47.52-1.19,1-2.32,1.52-3.48h.8c-.73,1.6-1.48,3.15-2.22,4.71"/><path class="cls-6" d="M110.6,44.85h-.7V40.2h.53c0,.24.06.49.1.77.71-.93,1.23-1.12,2-.74v.62l-.28-.08a1.14,1.14,0,0,0-1.42.57,2.43,2.43,0,0,0-.27,1.15c0,.67,0,1.34,0,2Z"/><path class="cls-6" d="M117.09,30.23c.63-.94,1.25-1.17,2-.76v.61l-.25-.07a1.13,1.13,0,0,0-1.46.59,2.19,2.19,0,0,0-.26,1.09v2.38h-.69V29.42H117c0,.26.06.51.09.81"/><rect class="cls-6" x="144.78" y="38.57" width="0.68" height="6.29"/><rect class="cls-6" x="132.16" y="27.79" width="0.69" height="6.28"/><rect class="cls-6" x="133.95" y="29.42" width="0.67" height="4.65"/><rect class="cls-6" x="149.17" y="29.42" width="0.67" height="4.67"/><rect class="cls-6" x="128.04" y="40.19" width="0.67" height="4.67"/><rect class="cls-6" x="114.75" y="18.65" width="0.67" height="4.67"/><path class="cls-6" d="M123,44.85h-.67V40.17h.39l.28,0Z"/><polygon class="cls-6" points="121.91 23.31 121.25 23.31 121.25 18.63 121.58 18.63 121.91 18.63 121.91 23.31"/><path class="cls-6" d="M152.26,28.73v-.61l2-1.06v.73l-2,.94"/><path class="cls-6" d="M128.36,39a.51.51,0,1,1,0-1,.49.49,0,0,1,.52.49.5.5,0,0,1-.53.52"/><path class="cls-6" d="M149.49,27.26a.49.49,0,0,1,.54.47.5.5,0,0,1-.51.54.51.51,0,1,1,0-1"/><path class="cls-6" d="M115.07,16.49a.5.5,0,0,1,.53.49.51.51,0,0,1-.53.52.51.51,0,0,1-.53-.52.5.5,0,0,1,.53-.49"/><path class="cls-6" d="M123.12,38.53a.48.48,0,0,1-.52.51.51.51,0,1,1,0-1,.49.49,0,0,1,.51.5"/><path class="cls-6" d="M122.09,17a.52.52,0,0,1-1,0,.49.49,0,0,1,.53-.51.48.48,0,0,1,.51.5"/><path class="cls-6" d="M134.27,27.26a.51.51,0,1,1,0,1,.51.51,0,1,1,0-1"/><path class="cls-6" d="M112.38,5.17a8.65,8.65,0,0,0-.11-.89,3.11,3.11,0,0,0-3.17-2.61A3.12,3.12,0,0,0,106,3.94a4.23,4.23,0,0,0,0,2.34,3.13,3.13,0,0,0,1.74,2.17,3.27,3.27,0,0,0,2,.25,3,3,0,0,0,2.09-1.3,3.93,3.93,0,0,0,.68-2.23m1.88-.09A5.26,5.26,0,0,1,112.69,9a4.8,4.8,0,0,1-2.82,1.35,5.26,5.26,0,0,1-3.19-.51,4.85,4.85,0,0,1-2.53-3,5.31,5.31,0,0,1,.07-3.54A4.82,4.82,0,0,1,107.87.14,5.29,5.29,0,0,1,112,.83,4.9,4.9,0,0,1,114.2,4.4c0,.26,0,.53.06.68"/><path class="cls-6" d="M122.09,6.35V.24h1.83V10.37h-.3L117.45,4v6.17h-1.82V0h.31l6.15,6.31"/><path class="cls-6" d="M127.66,5c.62,0,1.21,0,1.8,0a1.64,1.64,0,0,0,1.28-.57,1.69,1.69,0,0,0,.31-1.27,1.37,1.37,0,0,0-1.26-1.3c-.4,0-.81,0-1.22-.06s-.6,0-.91,0Zm0,1.61v3.55h-1.84V.24h3.59a4.37,4.37,0,0,1,2.07.47,2.7,2.7,0,0,1,1.42,2,3.78,3.78,0,0,1-.15,2,2.81,2.81,0,0,1-2.06,1.79,4.64,4.64,0,0,1-1.23.13h-1.8Z"/></g></g></svg>