<svg xmlns="http://www.w3.org/2000/svg" xmlns:xlink="http://www.w3.org/1999/xlink" viewBox="0 0 85.3 82.39"><defs><style>.cls-1{fill:#e0e0e0;}.cls-2{fill:#e88d72;}.cls-3{fill:url(#Degradado_sin_nombre_1);}.cls-4{fill:url(#linear-gradient);}.cls-5{fill:none;stroke:#d98872;stroke-linecap:round;stroke-miterlimit:10;stroke-width:0.38px;}.cls-6{fill:#efb893;}.cls-7{fill:#1d1d1b;}.cls-8{fill:#3c3c3b;}.cls-9{fill:#d98872;}.cls-10{fill:url(#Degradado_sin_nombre_4);}.cls-11{fill:url(#Degradado_sin_nombre_1-2);}.cls-12{fill:#f2b900;}.cls-13{fill:#8fc6ba;}</style><linearGradient id="Degradado_sin_nombre_1" x1="25.21" y1="24.37" x2="28.97" y2="23.61" gradientUnits="userSpaceOnUse"><stop offset="0" stop-color="#f0c3a8"/><stop offset="1" stop-color="#ea9980"/></linearGradient><linearGradient id="linear-gradient" x1="60.99" y1="24.39" x2="56.83" y2="23.75" xlink:href="#Degradado_sin_nombre_1"/><linearGradient id="Degradado_sin_nombre_4" x1="41.37" y1="22.13" x2="41.37" y2="31.44" gradientUnits="userSpaceOnUse"><stop offset="0" stop-color="#f1ccac"/><stop offset="0.99" stop-color="#edae91"/></linearGradient><linearGradient id="Degradado_sin_nombre_1-2" x1="43.93" y1="21.77" x2="43.93" y2="31.09" xlink:href="#Degradado_sin_nombre_1"/></defs><title>Recurso 8</title><g id="Capa_2" data-name="Capa 2"><g id="Capa_1-2" data-name="Capa 1"><path class="cls-1" d="M62.36,54.49a11.38,11.38,0,0,1-3-3.27c-3.11,7-9.4,11.5-16.66,11.5S29.1,58.23,26,51.22a11.38,11.38,0,0,1-3,3.27C14.67,60.22,2.46,57.88,0,82.39H85.3C82.84,57.88,70.63,60.22,62.36,54.49Z"/><path class="cls-2" d="M59.31,51.22c-4.92-7.67-4.1-21.75-4.1-21.75l-12.56-.24-12.56.24s.82,14.08-4.1,21.75c3.11,7,9.4,11.5,16.66,11.5S56.2,58.23,59.31,51.22Z"/><path class="cls-3" d="M30.85,23.87c.2,3.08-.78,5.6-2.69,5.6S24.15,27,24,23.9s1.17-5.58,3.08-5.59S30.65,20.79,30.85,23.87Z"/><path class="cls-4" d="M54.45,23.87c-.2,3.08.79,5.6,2.69,5.6s4-2.49,4.22-5.57-1.18-5.58-3.09-5.59S54.66,20.79,54.45,23.87Z"/><path class="cls-5" d="M25.71,20.42A8,8,0,0,1,28,25.36"/><path class="cls-5" d="M59.59,20.42a8,8,0,0,0-2.24,4.94"/><path class="cls-6" d="M56.53,23c0,11.26-4.76,23.19-13.88,23.19S28.78,34.3,28.78,23s2.55-21,13.87-21S56.53,11.79,56.53,23Z"/><path class="cls-7" d="M37.44,22.3A1.45,1.45,0,1,1,36,20.86,1.45,1.45,0,0,1,37.44,22.3Z"/><path class="cls-8" d="M39.55,16.88A3.42,3.42,0,0,0,36.31,15a6,6,0,0,0-4.42,2.38c-.21.56.46.88,1.23.77s2.58-.81,3.36-.56,2.61.8,3,.58A.87.87,0,0,0,39.55,16.88Z"/><path class="cls-7" d="M36.31,15a6,6,0,0,0-4.42,2.38.49.49,0,0,0,0,.43,9.67,9.67,0,0,1,4.22-1.43,7.21,7.21,0,0,1,3.61,1.34,1,1,0,0,0-.2-.84A3.42,3.42,0,0,0,36.31,15Z"/><path class="cls-7" d="M47.87,22.3a1.45,1.45,0,1,0,1.44-1.44A1.44,1.44,0,0,0,47.87,22.3Z"/><path class="cls-8" d="M45.75,16.88A3.42,3.42,0,0,1,49,15a6,6,0,0,1,4.42,2.38c.21.56-.46.88-1.23.77s-2.57-.81-3.36-.56-2.61.8-3,.58A.87.87,0,0,1,45.75,16.88Z"/><path class="cls-7" d="M49,15a6,6,0,0,1,4.42,2.38.49.49,0,0,1,0,.43,9.67,9.67,0,0,0-4.22-1.43,7.21,7.21,0,0,0-3.61,1.34,1.05,1.05,0,0,1,.2-.84A3.42,3.42,0,0,1,49,15Z"/><path class="cls-9" d="M37.16,34.54a11,11,0,0,0,2.7,1.12,6.89,6.89,0,0,0,2.85.19c1-.16,2-.35,2.93-.56a10,10,0,0,0,1.41-.4c.44-.15.92-.38,1-.72v0a.2.2,0,0,1,.24-.13.2.2,0,0,1,.14.21A1.19,1.19,0,0,1,48,35a3.49,3.49,0,0,1-.69.41,10.69,10.69,0,0,1-1.47.51c-1,.27-2,.47-3,.64a7.19,7.19,0,0,1-3.13-.28,9,9,0,0,1-2.75-1.42.19.19,0,0,1,0-.27.19.19,0,0,1,.25,0Z"/><path class="cls-7" d="M42.65,6.22c10.89,0,13.66,8.15,13.86,17.84,0-.34,0-.68,0-1,0-11.25-2.56-21-13.88-21S28.78,11.79,28.78,23c0,.34,0,.68,0,1C29,14.37,31.77,6.22,42.65,6.22Z"/><path class="cls-7" d="M53.45,0s-.85,6.22-10.8,6.22V2.06S51.92,3,53.45,0Z"/><path class="cls-7" d="M42.65,30.13c-5,0-9.26,3.38-11.24,8.25,2.3,4.58,6.07,7.85,11.24,7.85S51.59,43,53.89,38.38C51.91,33.51,47.62,30.13,42.65,30.13Zm0,12.9c-3.73,0-6.45-2.36-8.11-5.66a9,9,0,0,1,8.11-6,9,9,0,0,1,8.11,6C49.1,40.67,46.38,43,42.65,43Z"/><path class="cls-10" d="M42.65,22.21c-1.14,0-1.44,2.55-1.44,4.94s-3.31,4.32,1.44,4.32Z"/><path class="cls-11" d="M42.65,22.21c1.14,0,1.45,2.55,1.45,4.94s3.3,4.32-1.45,4.32Z"/><path class="cls-1" d="M13,59.21c.52,4.42,1.51,13.87,1.83,23.18H70.44c.31-9.31,1.31-18.76,1.82-23.18-3.38-1.62-6.9-2.64-9.9-4.72a11.38,11.38,0,0,1-3-3.27c-3.11,7-9.4,11.5-16.66,11.5S29.1,58.23,26,51.22a11.38,11.38,0,0,1-3,3.27C19.94,56.57,16.43,57.59,13,59.21Z"/><rect class="cls-12" x="22.81" y="73.79" width="39.68" height="8.6"/><polygon class="cls-13" points="26.83 49.75 24.78 52.86 24.78 73.79 26.83 73.79 26.83 49.75"/><polygon class="cls-13" points="58.51 49.75 60.55 52.86 60.55 73.79 58.51 73.79 58.51 49.75"/></g></g></svg>