<svg xmlns="http://www.w3.org/2000/svg" xmlns:xlink="http://www.w3.org/1999/xlink" viewBox="0 0 420.2 471.64"><defs><style>.cls-1{fill:#432918;}.cls-10,.cls-2,.cls-20,.cls-21,.cls-26,.cls-27,.cls-28{fill:none;stroke-miterlimit:10;}.cls-2{stroke:#b17f4a;}.cls-3{fill:#a48a7b;}.cls-4{fill:#634e42;}.cls-5{fill:#77a5b6;}.cls-6{fill:#7b6a58;}.cls-7{fill:#fff;}.cls-8{fill:#f8b89c;}.cls-9{fill:url(#linear-gradient);}.cls-10,.cls-26{stroke:#e39372;}.cls-10,.cls-26,.cls-27{stroke-linecap:round;}.cls-10{stroke-width:0.67px;}.cls-11{fill:#facab2;}.cls-12{fill:#c6c6c6;}.cls-13{fill:#1d1d1b;}.cls-14{fill:#3c3c3b;}.cls-15{fill:#e39372;}.cls-16{fill:url(#Degradado_sin_nombre_9);}.cls-17{fill:url(#Degradado_sin_nombre_14);}.cls-18{fill:url(#Degradado_sin_nombre_14-2);}.cls-19{fill:#679db0;}.cls-20{stroke:#1d1d1b;}.cls-20,.cls-21{stroke-width:0.5px;}.cls-21{stroke:#a48a7b;}.cls-22{fill:#2f4d83;}.cls-23{fill:url(#Degradado_sin_nombre_14-3);}.cls-24{fill:url(#Degradado_sin_nombre_3);}.cls-25{fill:url(#Degradado_sin_nombre_14-4);}.cls-26,.cls-27{stroke-width:0.75px;}.cls-27{stroke:#683c11;}.cls-28{stroke:#9d9d9c;}.cls-29{fill:#fbbc33;}.cls-30{fill:#f7a833;}.cls-31{fill:#ed6c1f;}.cls-32{fill:#f9b233;}</style><linearGradient id="linear-gradient" x1="100.08" y1="52.04" x2="91.56" y2="50.74" gradientUnits="userSpaceOnUse"><stop offset="0" stop-color="#fbceb2"/><stop offset="1" stop-color="#f5a383"/></linearGradient><linearGradient id="Degradado_sin_nombre_9" x1="66.21" y1="42.81" x2="66.21" y2="61.89" gradientUnits="userSpaceOnUse"><stop offset="0" stop-color="#fcd7b7"/><stop offset="0.99" stop-color="#f8b99d"/></linearGradient><linearGradient id="Degradado_sin_nombre_14" x1="71.46" y1="42.07" x2="71.46" y2="61.17" xlink:href="#linear-gradient"/><linearGradient id="Degradado_sin_nombre_14-2" x1="29.92" y1="51.99" x2="37.62" y2="50.45" xlink:href="#linear-gradient"/><linearGradient id="Degradado_sin_nombre_14-3" x1="278.38" y1="99.92" x2="285.5" y2="98.49" xlink:href="#linear-gradient"/><linearGradient id="Degradado_sin_nombre_3" x1="361.13" y1="99.96" x2="353.26" y2="98.76" gradientUnits="userSpaceOnUse"><stop offset="0" stop-color="#f5a383"/><stop offset="1" stop-color="#fbceb2"/></linearGradient><linearGradient id="Degradado_sin_nombre_14-4" x1="298.86" y1="108.7" x2="317.45" y2="108.7" xlink:href="#linear-gradient"/></defs><g id="Capa_2" data-name="Capa 2"><g id="Capa_3" data-name="Capa 3"><path class="cls-1" d="M75.51,428.46l29.9,1.68s-.18,11.17,9.51,14.71,22.91,8.16,21,26.68H74.11S73.09,435.19,75.51,428.46Z"/><line class="cls-2" x1="119.82" y1="446.71" x2="96.94" y2="446.71"/><line class="cls-2" x1="110.15" y1="441.9" x2="96.32" y2="441.9"/><line class="cls-2" x1="106.79" y1="436.84" x2="98.33" y2="436.84"/><path class="cls-3" d="M135.88,464.5a29.62,29.62,0,0,1,.09,7H74.11s-.08-2.82-.14-7Z"/><path class="cls-1" d="M13.41,471.53S14.53,452.12,26,428.46H55s7,16.48,9.77,43.07Z"/><path class="cls-3" d="M64.78,471.53H13.41s.16-2.6.9-7H63.9C64.22,466.77,64.52,469.09,64.78,471.53Z"/><line class="cls-2" x1="52.59" y1="446.71" x2="32.4" y2="446.71"/><line class="cls-2" x1="51.56" y1="441.57" x2="33.14" y2="441.57"/><line class="cls-2" x1="50.73" y1="436.17" x2="33.79" y2="436.17"/><path class="cls-4" d="M107.57,431.13h-37L65.67,243.21h43.69S109.44,351.14,107.57,431.13Z"/><path class="cls-5" d="M105.7,157.82a250.67,250.67,0,0,1,4.14-42.71s-10.65-6.21-17.6-8.46S65.67,100,65.67,100s-19.62,4.37-26.58,6.62-17.6,8.46-17.6,8.46a250.67,250.67,0,0,1,4.14,42.71c0,21.79-2.37,61.72-2.66,70.6s-1,14.79-1,14.79h87.38s-.7-5.92-1-14.79S105.7,179.61,105.7,157.82Z"/><path class="cls-6" d="M22.6,243.21s-1.94,47.6-.45,86.4.71,86,.05,101.52H58.47s8.3-71.77,8.93-95.7,6.5-92.22,6.5-92.22Z"/><path class="cls-7" d="M92.24,106.65c-.73-.23-1.6-.49-2.57-.77-7,4.6-16.35,6-25.29,6s-17.62-2.41-25.29-5.18a61.21,61.21,0,0,0-6.57,2.68l5,1.79c6.51,2.35,16.37,5.46,26.9,5.46,11.74,0,21.13-2.26,27.91-6.73l3.08-2C94.28,107.37,93.22,107,92.24,106.65Z"/><path class="cls-8" d="M39.09,106.65c7.67,2.77,16.36,5.18,25.29,5.18s18.32-1.35,25.29-6c-9.48-15.3-12-44-12-44H51.07S48.58,91.35,39.09,106.65Z"/><path class="cls-9" d="M86.68,51c-.42,6.32,1.61,11.46,5.52,11.46s8.21-5.08,8.63-11.4S98.42,39.6,94.52,39.58,87.1,44.67,86.68,51Z"/><path class="cls-10" d="M97.22,43.9A16.31,16.31,0,0,0,92.62,54"/><path class="cls-11" d="M93,50.84c0,14.7-7.57,36-27.29,36s-27.3-21.3-27.3-36S39,9.42,65.67,9.42,93,36.13,93,50.84Z"/><path class="cls-12" d="M65.67,14.79c21.41,0,26.88,16.72,27.26,36.57,0-.69,0-1.39,0-2.08,0-23.06-5-43-27.29-43s-27.3,20-27.3,43c0,.69,0,1.39,0,2.08C38.79,31.51,44.25,14.79,65.67,14.79Z"/><path class="cls-12" d="M89.67,0s-5.33,6.94-24,6.27C71.48,12.24,91.77,21.86,89.67,0Z"/><path class="cls-13" d="M58.14,45.46a3,3,0,1,1-3-3A3,3,0,0,1,58.14,45.46Z"/><path class="cls-14" d="M62.49,34.35a7.08,7.08,0,0,0-6.65-3.86c-4.53.12-8.62,3.74-9.05,4.88s.94,1.81,2.52,1.58,5.27-1.66,6.88-1.15,5.35,1.63,6.06,1.19A1.78,1.78,0,0,0,62.49,34.35Z"/><path class="cls-13" d="M55.84,30.49c-4.53.12-8.62,3.74-9.05,4.88a.94.94,0,0,0,.06.89c1.93-1.11,5.56-2.93,8.63-2.93,2.72,0,5.6,1.55,7.41,2.75a2.16,2.16,0,0,0-.4-1.73A7.08,7.08,0,0,0,55.84,30.49Z"/><path class="cls-13" d="M79.52,45.46a3,3,0,1,0,3-3A3,3,0,0,0,79.52,45.46Z"/><path class="cls-14" d="M75.18,34.35a7.06,7.06,0,0,1,6.65-3.86c4.52.12,8.62,3.74,9,4.88s-.95,1.81-2.52,1.58-5.27-1.66-6.88-1.15S76.12,37.43,75.42,37A1.77,1.77,0,0,1,75.18,34.35Z"/><path class="cls-13" d="M81.83,30.49c4.52.12,8.62,3.74,9,4.88a1,1,0,0,1-.06.89c-1.93-1.11-5.57-2.93-8.64-2.93-2.72,0-5.6,1.55-7.41,2.75a2.21,2.21,0,0,1,.41-1.73A7.06,7.06,0,0,1,81.83,30.49Z"/><path class="cls-15" d="M56.51,64.73a24.2,24.2,0,0,0,6,2.57,22.16,22.16,0,0,0,3.22.57A14.45,14.45,0,0,0,69,67.75c2.17-.35,4.4-.78,6.56-1.27a23.59,23.59,0,0,0,3.17-.91c1-.36,2.07-.87,2.3-1.73v0a.33.33,0,0,1,.41-.24.34.34,0,0,1,.24.37,2.44,2.44,0,0,1-1.05,1.61,7.54,7.54,0,0,1-1.54.9,24.7,24.7,0,0,1-3.27,1.11c-2.21.57-4.39,1-6.65,1.4a15.7,15.7,0,0,1-6.92-.61,20.1,20.1,0,0,1-6.13-3.09.34.34,0,0,1-.07-.47.34.34,0,0,1,.44-.09Z"/><path class="cls-16" d="M68.83,43c-2.33,0-3,5.23-3,10.13S59.1,62,68.83,62Z"/><path class="cls-17" d="M68.83,43c2.33,0,3,5.23,3,10.13s6.77,8.86-3,8.86Z"/><path class="cls-18" d="M41.48,51C41.9,57.3,39.87,62.44,36,62.44S27.75,57.36,27.33,51s2.41-11.44,6.32-11.46S41.06,44.67,41.48,51Z"/><path class="cls-10" d="M30.94,43.9A16.31,16.31,0,0,1,35.54,54"/><path class="cls-12" d="M75.19,62.49h0a3.66,3.66,0,0,0-6.34-1.21,3.65,3.65,0,0,0-6.33,1.21h0c-2.32,4.07-7.09,2-7.09,2C60.14,69.7,66.62,67.54,68,66.74a3.43,3.43,0,0,0,.88-.83,3.47,3.47,0,0,0,.89.83c1.33.8,7.81,3,12.56-2.29C82.28,64.45,77.51,66.56,75.19,62.49Z"/><path class="cls-19" d="M131.57,160.62c1.3,17.79,2.16,45.81,2.16,45.81l-27.29,4.14L105,163.3s-1-41,4.82-48.19C125.22,124.9,130.27,142.83,131.57,160.62Z"/><circle class="cls-20" cx="53.2" cy="45.46" r="12.03" transform="translate(-13.35 23.82) rotate(-22.5)"/><circle class="cls-20" cx="84.46" cy="45.46" r="12.03" transform="translate(-10.97 35.78) rotate(-22.5)"/><path class="cls-20" d="M74,39.9a7.39,7.39,0,0,0-10.42,0"/><path class="cls-11" d="M288.78,270.49s1.46,9.75.18,15.64-3.38,11.72-5.06,17.67-7.72,6.38-9.76,4.79-6.68-14-6.46-21.74,5.24-14.66,7.79-17S285.22,266.56,288.78,270.49Z"/><path class="cls-11" d="M285.37,293.4a53.56,53.56,0,0,0,2.89,6.07c1.21,1.95,4.76-.8,4.09-5.29s-2.32-22.26-3.3-24.72S275.06,280.55,285.37,293.4Z"/><path class="cls-11" d="M265.2,222.23c.51,48.27,1.94,60,11.87,60.75s13.73-7.14,17.69-56.83,12.19-57.27-8.47-58.91S264.63,169.48,265.2,222.23Z"/><path class="cls-7" d="M287.93,150.84A24.94,24.94,0,0,0,263,175.78v6.88h49.89v-6.88C312.87,162,325.45,150.84,287.93,150.84Z"/><path class="cls-8" d="M300.61,438.94V424.19H326v26.37a38.13,38.13,0,0,1-12.7,2c-10.58,0-19.15-3.49-19.15-7.79C294.17,442.44,296.67,440.37,300.61,438.94Z"/><path class="cls-1" d="M287.54,444.85a13.4,13.4,0,0,0,7.42-6.54c4.84,5.17,14,8.66,24.49,8.66a45.06,45.06,0,0,0,9-.91c.25,12.05-.13,25.47-.13,25.47H266.48C264.62,453,277.85,448.4,287.54,444.85Z"/><path class="cls-3" d="M266.57,464.5a29.62,29.62,0,0,0-.09,7h61.86s.08-2.82.14-7Z"/><path class="cls-8" d="M392.89,442.23v-16.9H367.48v16.9c-3.94,1.43-6.44,3.5-6.44,5.81,0,4.3,8.57,7.79,19.14,7.79s19.15-3.49,19.15-7.79C399.33,445.73,396.83,443.66,392.89,442.23Z"/><path class="cls-1" d="M380.18,446.75a73.55,73.55,0,0,1-19.54-2.53c-5.46,16-6.14,27.42-6.14,27.42h51.36a192.71,192.71,0,0,0-4.93-27.77A72.74,72.74,0,0,1,380.18,446.75Z"/><path class="cls-3" d="M405.86,471.64H354.5s.16-2.6.9-7H405C405.31,466.88,405.61,469.2,405.86,471.64Z"/><path class="cls-21" d="M398.92,454.22c-4.27-4.22-11.07-6.94-18.74-6.94-8,0-15.06,3-19.28,7.51"/><path class="cls-22" d="M416.33,276.45c2.77-12.26,3.87-33.61,3.87-45.45,0-43.86-6.34-96.95-75.42-96.95S269.36,187.14,269.36,231c0,11.84,1.1,33.19,3.87,45.45Z"/><path class="cls-7" d="M305.28,142.85c8.16,7.29,22.82,19.9,23,20l2.31,2,2.64-1.51c.11-.06,10.65-6.1,38.21-22.93l3.35-2c-8.38-2.76-18.26-4.32-30-4.32-16.71,0-29.72,3.13-39.88,8.46Z"/><path class="cls-8" d="M318.21,101.72H352s2.7,32.12,17.16,35c-27.81,17-38.09,22.86-38.09,22.86s-14.68-12.62-22.9-20C314,129.94,319.46,108.44,318.21,101.72Z"/><path class="cls-23" d="M289.06,99c.39,5.84-1.48,10.6-5.09,10.6s-7.6-4.7-8-10.54,2.22-10.58,5.83-10.59S288.68,93.15,289.06,99Z"/><path class="cls-10" d="M279.32,92.44a15.08,15.08,0,0,1,4.26,9.36"/><path class="cls-11" d="M352,101.1c0,18.65,5.21,42.48-33.78,42.48s-33.77-23.83-33.77-42.48,4.39-41.23,33.77-41.23S352,82.45,352,101.1Z"/><path class="cls-12" d="M303.32,63.09s-15.06,8.58-18.74,32.58c.53-16.31,6.64-28.36,13-32.29S303.32,63.09,303.32,63.09Z"/><path class="cls-12" d="M348.65,99.05l3.43-4c0-15.84,4.56-39.18-33.87-39.18-20.92,0-29.31,6.81-32.5,16,4.75-5.59,13.36-9.29,28.76-9.29C348.31,62.55,349.37,82.36,348.65,99.05Z"/><path class="cls-24" d="M348.75,99c-.39,5.84,1.49,10.6,5.1,10.6s7.59-4.7,8-10.54S359.6,88.46,356,88.45,349.14,93.15,348.75,99Z"/><path class="cls-10" d="M358.49,92.44a15.1,15.1,0,0,0-4.25,9.36"/><path class="cls-12" d="M308.16,119.38a22.73,22.73,0,0,1-10.2-2.2,4.78,4.78,0,0,0-.55,2.2,4.81,4.81,0,0,0,7.79,3.81,4.75,4.75,0,0,0,5.91,0,4.82,4.82,0,0,0,7.8-3.81,4.67,4.67,0,0,0-.56-2.2A22.69,22.69,0,0,1,308.16,119.38Z"/><path class="cls-15" d="M316.11,109.57H300.2a4.7,4.7,0,0,0,0,9.4h15.91a4.7,4.7,0,0,0,0-9.4Z"/><path class="cls-25" d="M317.45,112.69c0,5.14-4.16,7.3-9.29,7.3s-9.3-2.16-9.3-7.3,4.16-15.27,9.3-15.27S317.45,107.56,317.45,112.69Z"/><path class="cls-26" d="M322.15,127.1a16.11,16.11,0,0,1-13.39,7.12"/><path class="cls-12" d="M301.14,91.76s0-.07,0-.11a2.11,2.11,0,0,0-.33-.7,6.52,6.52,0,0,0-6.15-3.56c-4.18.11-8,3.45-8.36,4.5a.91.91,0,0,0-.06.42s0,.07,0,.1a1.14,1.14,0,0,0,.09.26l0,0h0a2.3,2.3,0,0,0,2.26.64c1.45-.22,4.87-1.53,6.36-1.06s4.95,1.51,5.6,1.1a1.37,1.37,0,0,0,.58-.85h0v-.06a1,1,0,0,0,0-.17A1.79,1.79,0,0,0,301.14,91.76Z"/><path class="cls-12" d="M330.12,92.31a.93.93,0,0,0-.07-.42c-.4-1-4.18-4.39-8.36-4.5A6.51,6.51,0,0,0,315.55,91a2.49,2.49,0,0,0-.34.7l0,.11a1.55,1.55,0,0,0,0,.56c0,.06,0,.11,0,.17a.13.13,0,0,1,0,.06h0a1.37,1.37,0,0,0,.58.85c.66.41,4.11-.62,5.6-1.1s4.91.84,6.37,1.06a2.31,2.31,0,0,0,2.26-.64h0s0,0,0,0a.75.75,0,0,0,.09-.25A.43.43,0,0,0,330.12,92.31Z"/><path class="cls-27" d="M289.06,97.78a31.06,31.06,0,0,1,9.25,0"/><path class="cls-27" d="M318,97.78a31.06,31.06,0,0,1,9.25,0"/><path class="cls-15" d="M294.78,118.13a39.45,39.45,0,0,0-4.12,6.09,38.93,38.93,0,0,1,3.52-6.54.38.38,0,0,1,.63.41l0,0Z"/><path class="cls-15" d="M322.14,117.68a40,40,0,0,1,3.51,6.54,38.76,38.76,0,0,0-4.12-6.09h0a.37.37,0,0,1,.06-.53.38.38,0,0,1,.53.06Z"/><path class="cls-28" d="M315.62,101.8a8.15,8.15,0,0,0-14.93,0h-17a9,9,0,1,0,18.06,0h0a7.17,7.17,0,0,1,12.86,0h0a9,9,0,0,0,18.06,0Z"/><polygon class="cls-29" points="330.12 441.9 281.86 441.9 273.23 276.45 330.12 276.45 330.12 441.9"/><rect class="cls-29" x="279.16" y="276.45" width="63.15" height="32.61"/><polygon class="cls-30" points="354.5 441.9 402.76 441.9 411.4 276.45 354.5 276.45 354.5 441.9"/><rect class="cls-30" x="342.31" y="276.45" width="63.15" height="32.61" transform="translate(747.78 585.52) rotate(180)"/><rect class="cls-4" x="273.23" y="276.45" width="138.17" height="9.39"/><path class="cls-11" d="M380.21,271.79s-2.22,9.6-1.42,15.58,2.44,11.95,3.64,18,7.19,7,9.35,5.55,7.77-13.39,8.17-21.16-4.06-15-6.41-17.57S384.07,268.16,380.21,271.79Z"/><path class="cls-11" d="M381.8,294.9a53.56,53.56,0,0,1-3.37,5.82c-1.36,1.85-4.68-1.18-3.66-5.6s4.09-22,5.25-24.37S393.09,282.91,381.8,294.9Z"/><path class="cls-11" d="M407.55,225.56c-4.35,48.07-6.69,59.61-16.66,59.61s-13.12-8.21-13.12-58.05-7.61-58.06,13.12-58.06S412.3,173,407.55,225.56Z"/><path class="cls-7" d="M389.7,150.84a24.93,24.93,0,0,0-24.94,24.94v6.88h49.88v-6.88A24.94,24.94,0,0,0,389.7,150.84Z"/><path class="cls-19" d="M117.21,194s34.08-1.93,64.86,1.81a78.86,78.86,0,0,0,10.48.81l2.57,18s-58,16.46-88.68-4.06C114,199.84,117.21,194,117.21,194Z"/><path class="cls-11" d="M190.51,197.77s10.42-.18,16.42,1.59,11.83,4.23,17.83,6.35,5.65,7.42,3.71,9-15.54,4.24-23.66,3.18A29.42,29.42,0,0,1,188,209.24C185.92,206.77,185.92,200.42,190.51,197.77Z"/><path class="cls-11" d="M210.11,194.94a45.5,45.5,0,0,0,4.06-3.7c1.23-1.42-1.77-3.54-5.12-2s-16.85,7.13-18.54,8.48S202.52,206.06,210.11,194.94Z"/><path class="cls-31" d="M242.85,192.85a81.61,81.61,0,0,0-77.51-81.51l-13.51-.11a81.62,81.62,0,0,0,0,163.24c1.36,0,11.92-.11,11.92-.11C206.92,272.23,242.85,236.55,242.85,192.85Z"/><circle class="cls-32" cx="151.83" cy="192.85" r="81.62"/><circle class="cls-29" cx="151.83" cy="192.85" r="74.59" transform="translate(-70.75 296.31) rotate(-76.72)"/><path class="cls-31" d="M84,192.72a76.3,76.3,0,0,1,55.88-73.5,74.58,74.58,0,0,0,2.13,147.57A76.31,76.31,0,0,1,84,192.72Z"/><path class="cls-31" d="M121.83,204a17.89,17.89,0,0,0,2.46,8.76q4.11,6.3,14.5,6.3a24.85,24.85,0,0,0,8.48-1.38q7.39-2.69,7.4-9.58,0-5.17-3.14-7.38t-9.95-3.75L133.27,195q-8.16-1.91-11.54-4.19-5.85-4-5.85-11.86a18.55,18.55,0,0,1,5.75-14q5.76-5.47,16.29-5.47,9.71,0,16.48,4.81t6.78,15.38h-8.07a16.26,16.26,0,0,0-2.64-7.81q-3.76-5-12.78-5-7.29,0-10.47,3.19a10.21,10.21,0,0,0-3.19,7.42,7.3,7.3,0,0,0,3.77,6.82q2.46,1.38,11.16,3.45l8.61,2a25.7,25.7,0,0,1,9.61,4q5.87,4.44,5.86,12.9,0,10.53-7.47,15.06a32.82,32.82,0,0,1-17.36,4.53q-11.52,0-18.05-6T113.77,204Z"/><path class="cls-31" d="M188.56,161h6.56L175,224.41h-6.56Z"/><path class="cls-11" d="M89.59,197.77s10.42-.18,16.42,1.59,11.83,4.23,17.83,6.35,5.65,7.42,3.71,9S112,219,103.89,217.89a29.42,29.42,0,0,1-16.77-8.65C85,206.77,85,200.42,89.59,197.77Z"/><path class="cls-11" d="M109.19,194.94a45.5,45.5,0,0,0,4.06-3.7c1.24-1.42-1.77-3.54-5.12-2s-16.85,7.13-18.54,8.48S101.6,206.06,109.19,194.94Z"/><path class="cls-19" d="M.24,160.62c-1.48,23,4.41,53.78,4.41,53.78L31,210.81l-.32-47.12s-3.34-41.38-9.18-48.58C12.13,121.67,1.63,138.9.24,160.62Z"/><path class="cls-19" d="M18.07,192.85s32.3-.77,63.08,3c7.93.93,11.57.45,11.57.45l2,18.13s-57.55,16.13-90,0C3.53,200.28,18.07,192.85,18.07,192.85Z"/></g></g></svg>