<svg xmlns="http://www.w3.org/2000/svg" viewBox="0 0 105 70"><defs><style>.cls-1{fill:#141b4d;}.cls-2{fill:#fff;}.cls-3{fill:#ffb81c;}</style></defs><title>Recurso 1</title><g id="Capa_2" data-name="Capa 2"><g id="Capa_1-2" data-name="Capa 1"><path class="cls-1" d="M70,0H35a35,35,0,0,0,0,70H70A35,35,0,0,0,70,0Z"/><path class="cls-2" d="M35,63A28,28,0,0,1,35,7H70a28,28,0,0,1,0,56Z"/><polygon class="cls-3" points="68.14 41.24 77.27 32.12 71.75 47.96 68.14 41.24"/><path class="cls-1" d="M87.73,20.4s0,0,0,0,0,0,0,0a.58.58,0,0,0,0-.19.78.78,0,0,0,0-.14s0,0,0,0a.14.14,0,0,1,0-.06,1.63,1.63,0,0,0-.11-.17s-.06-.1-.1-.14,0,0,0,0,0,0,0,0a.67.67,0,0,0-.14-.09.82.82,0,0,0-.17-.11l0,0h0a.68.68,0,0,0-.14,0l-.19,0H86.6l-.19,0a.59.59,0,0,0-.13,0L51,31.6c-.06,0-.09,0-.14.08a1.05,1.05,0,0,0-.21.12,1,1,0,0,0-.16.19,1.27,1.27,0,0,0-.1.12,0,0,0,0,1,0,0,1,1,0,0,0-.07.24,1.09,1.09,0,0,0,0,.17c0,.05,0,.11,0,.17a1,1,0,0,0,0,.25v0a1.09,1.09,0,0,0,.17.32l0,0a1.33,1.33,0,0,0,.26.21l0,0,14.66,7.89L73.4,56.16a1.13,1.13,0,0,0,.22.27l.06,0a1.12,1.12,0,0,0,.28.16s0,0,.05,0h0a1.13,1.13,0,0,0,.32,0h0a1,1,0,0,0,.3,0l.09,0,.13,0,0,0a1.27,1.27,0,0,0,.25-.21l0,0a1.57,1.57,0,0,0,.18-.31L87.67,20.73a.78.78,0,0,0,0-.14A.65.65,0,0,0,87.73,20.4ZM54.09,32.85,82.47,23,66.12,39.33ZM74.25,34.3,84,24.53,74.15,52.92l-6.48-12Z"/></g></g></svg>