<svg xmlns="http://www.w3.org/2000/svg" viewBox="0 0 70 70"><defs><style>.cls-1{fill:#141b4d;}.cls-2{fill:#fff;}.cls-3{fill:#ffb81c;}</style></defs><title>Recurso 5</title><g id="Capa_2" data-name="Capa 2"><g id="Capa_1-2" data-name="Capa 1"><path class="cls-1" d="M70,35A35,35,0,1,1,35,0,35,35,0,0,1,70,35Z"/><circle class="cls-2" cx="35" cy="35" r="28.27" transform="translate(-5.15 63.94) rotate(-80.78)"/><polygon class="cls-3" points="33.14 41.24 42.27 32.12 36.75 47.96 33.14 41.24"/><path class="cls-1" d="M50.73,20.4v-.07c0-.07,0-.13,0-.19a.78.78,0,0,0,0-.14s0,0,0,0l0-.06a.86.86,0,0,0-.1-.16c0-.05-.06-.11-.1-.15s0,0,0,0,0,0,0,0a.67.67,0,0,0-.14-.09.82.82,0,0,0-.17-.11l0,0h0a.68.68,0,0,0-.14,0l-.19,0H49.6l-.19,0a.68.68,0,0,0-.14,0L14,31.6a.35.35,0,0,0-.13.08,1.05,1.05,0,0,0-.21.12,1,1,0,0,0-.16.19s-.08.07-.1.12a0,0,0,0,0,0,0,1,1,0,0,0-.07.24,1.09,1.09,0,0,0-.05.17c0,.05,0,.11,0,.17a1.9,1.9,0,0,0,0,.25s0,0,0,0a1.09,1.09,0,0,0,.17.32l.05,0a1.27,1.27,0,0,0,.25.21l0,0,14.67,7.89L36.4,56.16a1.39,1.39,0,0,0,.21.27l.07,0a1,1,0,0,0,.28.16s0,0,0,0h0a1.13,1.13,0,0,0,.32,0h0a1,1,0,0,0,.3,0l.09,0,.13,0,0,0a1.27,1.27,0,0,0,.25-.21l0,0A1.17,1.17,0,0,0,38.4,56L50.67,20.73a.78.78,0,0,0,0-.14C50.7,20.52,50.72,20.47,50.73,20.4ZM17.08,32.85,45.47,23,29.12,39.33ZM37.25,34.3,47,24.53,37.15,52.92l-6.48-12Z"/></g></g></svg>