<svg xmlns="http://www.w3.org/2000/svg" viewBox="0 0 66.71 84.91"><defs><style>.cls-1{fill:#141b4d;}.cls-2{fill:#ffaf1c;}</style></defs><title>Recurso 2</title><g id="Capa_2" data-name="Capa 2"><g id="Capa_1-2" data-name="Capa 1"><path class="cls-1" d="M62.83,3.89V81H3.89V3.89H62.83M63.47,0H3.24A3.25,3.25,0,0,0,0,3.24V81.67a3.25,3.25,0,0,0,3.24,3.24H63.47a3.25,3.25,0,0,0,3.24-3.24V3.24A3.25,3.25,0,0,0,63.47,0Z"/><path class="cls-2" d="M54.58,21.23a9.1,9.1,0,1,1-9.09-9.1A9.1,9.1,0,0,1,54.58,21.23Z"/><path class="cls-1" d="M54.58,38.33H15.16a1.94,1.94,0,0,1,0-3.88H54.58a1.94,1.94,0,1,1,0,3.88Z"/><path class="cls-1" d="M54.58,50.46H15.16a1.94,1.94,0,1,1,0-3.88H54.58a1.94,1.94,0,1,1,0,3.88Z"/><path class="cls-1" d="M54.58,62.6H15.16a1.95,1.95,0,0,1,0-3.89H54.58a1.95,1.95,0,1,1,0,3.89Z"/><path class="cls-1" d="M54.58,74.73H15.16a1.95,1.95,0,0,1,0-3.89H54.58a1.95,1.95,0,1,1,0,3.89Z"/></g></g></svg>