<svg xmlns="http://www.w3.org/2000/svg" viewBox="0 0 93.75 104.1"><defs><style>.cls-1{fill:#161b4e;}.cls-2{fill:#fff;}.cls-3{fill:#ededed;}.cls-4{fill:#dadada;}.cls-5{fill:#77a5b6;}</style></defs><g id="Capa_2" data-name="Capa 2"><g id="Capa_1-2" data-name="Capa 1"><polygon class="cls-1" points="64.52 94.42 0 104.1 0 9.68 64.52 0 64.52 94.42"/><polygon class="cls-2" points="28.49 7.5 28.49 92.17 93.75 92.17 93.75 20.62 80.63 7.5 28.49 7.5"/><polygon class="cls-3" points="80.63 7.5 80.63 20.62 93.75 20.62 80.63 7.5"/><polygon class="cls-4" points="19.56 16.43 19.56 101.1 84.81 101.1 84.81 29.55 71.69 16.43 19.56 16.43"/><polygon class="cls-3" points="71.69 16.43 71.69 29.55 84.81 29.55 71.69 16.43"/><path class="cls-5" d="M69.88,56.91V9.68H0V104.1H75V62.44A5.41,5.41,0,0,0,69.88,56.91Z"/></g></g></svg>