<svg xmlns="http://www.w3.org/2000/svg" viewBox="0 0 116.88 104.58"><defs><style>.cls-1{fill:#fdc400;}.cls-2{fill:#9b9b97;}.cls-3{fill:#ee7269;}.cls-4{fill:#161b4e;}.cls-5,.cls-6{fill:none;stroke:#fff;stroke-miterlimit:10;}.cls-6{stroke-width:0.5px;stroke-dasharray:2;}</style></defs><g id="Capa_2" data-name="Capa 2"><g id="Capa_1-2" data-name="Capa 1"><path class="cls-1" d="M38.79,28.86H67.65A28.86,28.86,0,1,1,18.2,8.63Z"/><path class="cls-2" d="M38.79,28.86,65.42,17.74A28.9,28.9,0,0,1,67.65,28.8Z"/><path class="cls-3" d="M38.79,28.86,18,8.81A28.93,28.93,0,0,1,32.79.63Z"/><path class="cls-4" d="M38.79,28.86,32.74.64A28.87,28.87,0,0,1,65.43,17.76Z"/><polyline class="cls-5" points="0.39 104.27 16.86 83.17 33.32 85.51 66.25 65.96 82.72 68.76 115.64 16.69"/><line class="cls-6" x1="16.86" y1="83.17" x2="16.86" y2="104.27"/><line class="cls-6" x1="33.32" y1="85.51" x2="33.32" y2="104.27"/><line class="cls-6" x1="49.79" y1="76.03" x2="49.79" y2="104.27"/><line class="cls-6" x1="66.25" y1="65.96" x2="66.25" y2="104.27"/><line class="cls-6" x1="82.72" y1="68.76" x2="82.72" y2="104.27"/><line class="cls-6" x1="99.18" y1="42.91" x2="99.18" y2="104.27"/><line class="cls-6" x1="115.64" y1="16.69" x2="115.64" y2="104.27"/><path class="cls-1" d="M15.63,83.17a1.23,1.23,0,1,1,1.23,1.23A1.23,1.23,0,0,1,15.63,83.17Z"/><path class="cls-1" d="M32.09,85.51a1.23,1.23,0,1,1,1.23,1.23A1.23,1.23,0,0,1,32.09,85.51Z"/><path class="cls-1" d="M48.56,76a1.23,1.23,0,1,1,1.23,1.23A1.24,1.24,0,0,1,48.56,76Z"/><path class="cls-1" d="M65,66a1.23,1.23,0,1,1,1.23,1.23A1.23,1.23,0,0,1,65,66Z"/><path class="cls-1" d="M81.49,68.76A1.23,1.23,0,1,1,82.72,70,1.23,1.23,0,0,1,81.49,68.76Z"/><path class="cls-1" d="M98,42.91a1.23,1.23,0,1,1,1.23,1.23A1.23,1.23,0,0,1,98,42.91Z"/><path class="cls-1" d="M114.41,16.69a1.24,1.24,0,1,1,1.23,1.23A1.23,1.23,0,0,1,114.41,16.69Z"/></g></g></svg>