<svg xmlns="http://www.w3.org/2000/svg" viewBox="0 0 121.9 110.43"><defs><style>.cls-1{fill:#161b4e;}.cls-2{fill:#ee7269;}.cls-3{fill:#9b9b97;}.cls-4{fill:none;stroke:#fff;stroke-miterlimit:10;}</style></defs><g id="Capa_2" data-name="Capa 2"><g id="Capa_1-2" data-name="Capa 1"><path class="cls-1" d="M40.93,104.49,37,108.94c-2.08,2.54-7.1,1.84-10.4-2.19A55.66,55.66,0,0,1,14.08,70.57c.08-5.21,3.59-8.88,6.8-8.16l5.81,1.08c3.23.7,5.27,4,5.23,7.38a37.85,37.85,0,0,0,8.54,24.58C42.57,98.07,43,101.94,40.93,104.49Z"/><rect class="cls-2" x="16.24" y="43.37" width="6.58" height="44.87" rx="3" transform="translate(-21.89 11.07) rotate(-20.59)"/><path class="cls-3" d="M16.12,49.28q3.38,7.63,6.3,15.44t5.42,15.76a535.2,535.2,0,0,1,70,4.26A362.32,362.32,0,0,0,84.58,41.37,362.22,362.22,0,0,0,66,0,532.83,532.83,0,0,1,16.12,49.28Z"/><path class="cls-2" d="M7.59,55,4.8,56l-2.16.81A4.07,4.07,0,0,0,.26,62.05L7.5,81.32a4.07,4.07,0,0,0,5.24,2.38l2.16-.81,2.79-1,3.81-1.43-1.43-3.82L12.83,57.33,11.4,53.52Z"/><path class="cls-4" d="M82.38,19c3.51-1.32,6.43,6.49,10,5.17s.59-9.11,4.11-10.43,6.43,6.49,10,5.17.6-9.11,4.11-10.43"/><path class="cls-4" d="M88,34c3.52-1.32,6.43,6.49,10,5.17s.6-9.11,4.11-10.43,6.43,6.49,10,5.18.6-9.12,4.12-10.44"/><path class="cls-4" d="M93.6,49c3.52-1.31,6.44,6.49,10,5.17s.6-9.11,4.11-10.43,6.44,6.49,10,5.18.6-9.12,4.12-10.43"/></g></g></svg>