<svg xmlns="http://www.w3.org/2000/svg" viewBox="0 0 70 70"><defs><style>.cls-1{fill:#ffb81c;}.cls-2{fill:#141b4d;}</style></defs><title>Recurso 4</title><g id="Capa_2" data-name="Capa 2"><g id="Capa_1-2" data-name="Capa 1"><path class="cls-1" d="M70,35A35,35,0,1,1,35,0,35,35,0,0,1,70,35Z"/><path class="cls-2" d="M50.22,18.36a5,5,0,1,1-5-5A5,5,0,0,1,50.22,18.36Z"/><path class="cls-2" d="M22,56.63a4,4,0,0,1-1.47-.3A2.68,2.68,0,0,1,19,54.84c-.75-1.8.34-4.35,1.22-6.4l.25-.58c.7-1.68,1.74-4.16,1.44-4.89l-.09-.22c-2-4.8-2.9-8.83-2.67-12,.38-5.24,7.22-11.26,11.8-13.41a6.18,6.18,0,0,1,2.67-.63c2.94,0,5.08,2.25,6.49,3.73.33.35.62.66.86.87,1.85,1.64,2.45,5.93,2.53,6.59.35,1.82.5,1.85,1.43,2l.68.12a15.15,15.15,0,0,1,4.23,1.22,2.52,2.52,0,0,1,1.31,2.88,3,3,0,0,1-2.36,2.49h-.19a27.94,27.94,0,0,1-8-1.91c-1.7-.85-3-3.36-3.85-5L36.38,29a12.73,12.73,0,0,0-1.51,1.35,12.49,12.49,0,0,0-2.58,3.1,15.71,15.71,0,0,0,1.8,2.31c.44.49.89,1,1.28,1.49.92,1.17,3.06,4.11,3.06,6.28,0,1.23,0,2.42.07,3.57.11,4.13.19,7.12-1.27,8.62a2.92,2.92,0,0,1-2.15.87,3,3,0,0,1-2.23-.91c-1.32-1.41-1.14-4-1-6.42.05-.71.09-1.38.09-1.94a17.81,17.81,0,0,0-.2-4.2c-.29-.45-2.59-3-4.23-4.81A20.3,20.3,0,0,1,29,43.16c0,.89-.67,2.9-1.77,6.1-.42,1.22-.82,2.38-1,3.1C25.18,55.89,23.37,56.63,22,56.63ZM33.64,19a4.08,4.08,0,0,0-1.71.41c-4.08,1.92-10.2,7.37-10.51,11.53-.2,2.81.64,6.5,2.51,11l.1.23c.66,1.6-.32,3.91-1.44,6.59-.09.23-.18.43-.27.63-.59,1.4-1.59,3.73-1.21,4.64a.44.44,0,0,0,.29.26,1.81,1.81,0,0,0,.64.14c1.1,0,1.76-1.85,2-2.64s.63-1.95,1.06-3.21a45.76,45.76,0,0,0,1.65-5.36,35.45,35.45,0,0,0-1.47-4.41,11.17,11.17,0,0,1-.94-3,1.46,1.46,0,0,1,1.45-1.56,3.19,3.19,0,0,1,2.14,1.23c.94,1,5.37,5.77,5.83,6.6s.48,2,.48,5.3c0,.64,0,1.35-.1,2.09-.11,1.7-.27,4,.38,4.72a.87.87,0,0,0,1.1,0c.8-.82.71-4,.63-7,0-1.16-.07-2.37-.07-3.63,0-1-1.06-3-2.58-4.87-.35-.44-.78-.93-1.2-1.41-1.64-1.87-2.56-3-2.35-4.11.12-.66.59-1.75,3.23-4.39,1.2-1.21,2.22-2.13,3.3-2.13a1.81,1.81,0,0,1,1.55.88c.17.27.37.65.62,1.14.63,1.23,1.81,3.51,2.86,4a26.84,26.84,0,0,0,7,1.68,1.37,1.37,0,0,0,.39-.88c0-.16,0-.18-.12-.22a13.2,13.2,0,0,0-3.62-1l-.7-.13c-2-.39-2.74-1.22-3.24-3.86l0-.08c-.18-1.56-.83-4.36-1.78-5.21a13.44,13.44,0,0,1-1-1C37.27,20.72,35.61,19,33.64,19Z"/><path class="cls-2" d="M48.68,55.84h-.19a2.2,2.2,0,0,1-2.19-2.19v-14a2.2,2.2,0,0,1,2.19-2.19h.19a2.19,2.19,0,0,1,2.19,2.19v14A2.19,2.19,0,0,1,48.68,55.84Zm-.19-16.53a.39.39,0,0,0-.38.38v14a.39.39,0,0,0,.38.38h.19a.39.39,0,0,0,.38-.38v-14a.39.39,0,0,0-.38-.38Z"/></g></g></svg>