<svg xmlns="http://www.w3.org/2000/svg" viewBox="0 0 105 70"><defs><style>.cls-1{fill:#ffb81c;}.cls-2,.cls-4{fill:#fff;}.cls-3{fill:#141b4d;}.cls-4,.cls-5{stroke:#141b4d;stroke-miterlimit:10;stroke-width:2.46px;}.cls-5{fill:none;}</style></defs><title>Recurso 2</title><g id="Capa_2" data-name="Capa 2"><g id="Capa_1-2" data-name="Capa 1"><circle class="cls-1" cx="35" cy="35" r="35"/><path class="cls-1" d="M105,35A35,35,0,1,1,70,0,35,35,0,0,1,105,35Z"/><rect class="cls-1" x="35" width="35" height="70"/><path class="cls-2" d="M13.27,56.7V53.91A21.73,21.73,0,0,1,56.71,53l-.05.91V56.7Z"/><path class="cls-3" d="M35,33.4A20.53,20.53,0,0,1,55.43,52.21v3.26H14.5V53.91A20.52,20.52,0,0,1,35,33.4M35,31a23,23,0,0,0-23,23v4H57.89v-4H58A23,23,0,0,0,35,31Z"/><path class="cls-4" d="M40.5,39.14a5.5,5.5,0,1,1-5.5-5.5A5.5,5.5,0,0,1,40.5,39.14Z"/><rect class="cls-2" x="21.84" y="19.84" width="11.82" height="12.81" rx="4.09"/><rect class="cls-5" x="21.84" y="19.84" width="11.82" height="12.81" rx="4.09"/><rect class="cls-2" x="36.34" y="19.84" width="11.82" height="12.81" rx="4.09"/><rect class="cls-5" x="36.34" y="19.84" width="11.82" height="12.81" rx="4.09"/><path class="cls-2" d="M35,41.09A10.12,10.12,0,0,1,24.89,31V23.82c0-.17,0-.28,0-.4V23A10.11,10.11,0,0,1,45.1,23v8A10.12,10.12,0,0,1,35,41.09Z"/><path class="cls-3" d="M35,14.53a8.85,8.85,0,0,1,8.87,8.53V31a8.89,8.89,0,0,1-17.77,0c0-.11,0-.21,0-.31V23.73c0-.11,0-.21,0-.31s0-.21,0-.32v0h0A8.86,8.86,0,0,1,35,14.53m0-2.46A11.34,11.34,0,0,0,23.67,23h0V23c0,.13,0,.26,0,.4s0,.26,0,.4v6.76c0,.13,0,.26,0,.4a11.34,11.34,0,0,0,22.68,0V23h0A11.35,11.35,0,0,0,35,12.07Z"/><path class="cls-5" d="M50.78,57.93V51.85a3.83,3.83,0,1,0-7.66,0"/></g></g></svg>