<svg xmlns="http://www.w3.org/2000/svg" viewBox="0 0 142.42 40"><defs><style>.cls-1{fill:#fff;}</style></defs><g id="Capa_2" data-name="Capa 2"><g id="Capa_1-2" data-name="Capa 1"><path class="cls-1" d="M0,19.92A19.92,19.92,0,0,0,19,39.8V.05A19.91,19.91,0,0,0,0,19.92"/><path class="cls-1" d="M28.71,39.82H39.8V28.74A21.9,21.9,0,0,1,28.71,39.82"/><path class="cls-1" d="M39.8,11.11V0H28.71A21.89,21.89,0,0,1,39.8,11.11"/><path class="cls-1" d="M39.8,19.92A19.91,19.91,0,0,0,20.83.05V39.8a19.93,19.93,0,0,0,19-19.88"/><path class="cls-1" d="M62.5,19.92v13H65A16.43,16.43,0,0,0,65,0H49.55a21.81,21.81,0,0,1,13,19.9"/><path class="cls-1" d="M41.66.05V39.82h19V19.92A19.91,19.91,0,0,0,41.66.05"/><path class="cls-1" d="M93.59,18a4.19,4.19,0,0,0,.11.63,2,2,0,0,0,1.51,1.53,2,2,0,0,0,2.05-.57,2.41,2.41,0,0,0,.62-2.14,2.14,2.14,0,0,0-3.12-1.62A2.25,2.25,0,0,0,93.59,18m-.68,0a2.83,2.83,0,0,1,1.34-2.58,2.79,2.79,0,0,1,2.92-.05,2.7,2.7,0,0,1,1.41,2.38,2.87,2.87,0,0,1-1,2.44A2.83,2.83,0,0,1,93,18.65a5.26,5.26,0,0,1-.08-.66"/><path class="cls-1" d="M97.12,24.7h.64v5.75a1.31,1.31,0,0,1-.23-.18l-3.36-3.85L94,26.18h-.06v4.1h-.63V24.52a2,2,0,0,1,.25.23l2.37,2.7,1,1.15c0,.07.12.12.22.23Z"/><path class="cls-1" d="M112.42,30.29h-.6a2.81,2.81,0,0,1,0-.29c0-.72,0-1.45,0-2.18a2.55,2.55,0,0,0-.12-.67.87.87,0,0,0-1.45-.31,1.52,1.52,0,0,0-.41.91,7.49,7.49,0,0,0,0,.82c0,.57,0,1.13,0,1.72h-.62a2.46,2.46,0,0,1,0-.28c0-.67,0-1.34,0-2a2.88,2.88,0,0,0-.13-.83.86.86,0,0,0-1.48-.28,1.48,1.48,0,0,0-.37.94c0,.52,0,1,0,1.54,0,.3,0,.6,0,.93h-.61V26.15l.22,0H107c0,.21.05.41.08.66a1.46,1.46,0,0,1,1.33-.76,1.38,1.38,0,0,1,1.26.85l.09-.14a1.41,1.41,0,0,1,1.7-.65,1.24,1.24,0,0,1,.92,1,3.06,3.06,0,0,1,.09.74c0,.76,0,1.52,0,2.29a1.28,1.28,0,0,1,0,.17"/><path class="cls-1" d="M123.58,18.71a1.84,1.84,0,0,0-.29-1.09,1.33,1.33,0,0,0-2.32.15,1.88,1.88,0,0,0,0,1.74,1.28,1.28,0,0,0,1.18.77,1.31,1.31,0,0,0,1.2-.67,1.65,1.65,0,0,0,.24-.9m0-1.5V15.13h.63v5.58h-.49c0-.23,0-.45-.08-.73a2,2,0,0,1-.76.67,1.88,1.88,0,0,1-2.58-1,2.54,2.54,0,0,1,.19-2.35,1.87,1.87,0,0,1,3-.22l.12.13"/><path class="cls-1" d="M93.9,37.06h1.36a.94.94,0,0,0,.28-.06,1,1,0,0,0,.75-1,1,1,0,0,0-.72-1,7.17,7.17,0,0,0-1.67-.08Zm0,.6v2.2h-.63V34.29l.1,0c.66,0,1.33,0,2,0a1.68,1.68,0,0,1,.62.13,1.54,1.54,0,0,1,1,1.63,1.61,1.61,0,0,1-1.73,1.6c-.35,0-.71,0-1.06,0h-.3"/><path class="cls-1" d="M103.31,37.42A1.24,1.24,0,0,0,102,36.16a1.36,1.36,0,0,0-1.36,1.38,19.22,19.22,0,0,1,2.64-.12m.47,1.28v.63a2,2,0,0,1-1.37.64,2.74,2.74,0,0,1-1-.08A2,2,0,0,1,100,38a2.39,2.39,0,0,1,.52-1.69,2,2,0,0,1,3-.09,1.76,1.76,0,0,1,.44,1.17V38h-3c-.24,0-.32.15-.29.39a1.07,1.07,0,0,0,.42.69,1.88,1.88,0,0,0,1.76.25,1.56,1.56,0,0,0,.72-.43l.18-.17"/><path class="cls-1" d="M128.22,18.27a1.21,1.21,0,0,0-.65-1.1,1.34,1.34,0,0,0-1.44.1,1.3,1.3,0,0,0-.56,1.11,21.12,21.12,0,0,1,2.65-.11m.45,1.33v.58a2,2,0,0,1-1.37.65,3,3,0,0,1-.94-.09,2,2,0,0,1-1.47-1.93,2.24,2.24,0,0,1,.82-1.95,1.92,1.92,0,0,1,3.09,1,5.69,5.69,0,0,1,.07,1h-2.71a1.2,1.2,0,0,0-.19,0c-.33,0-.45.17-.35.49a1.24,1.24,0,0,0,1,.88,2,2,0,0,0,1.93-.51l.1-.09h0"/><path class="cls-1" d="M127.19,37.78c-.25.06-.47.12-.69.16s-.39,0-.58,0a2.48,2.48,0,0,0-.61.15.57.57,0,0,0-.38.56.67.67,0,0,0,.35.61,1.29,1.29,0,0,0,1.91-.93,5.61,5.61,0,0,0,0-.58m-2.62-.91v-.63a2.19,2.19,0,0,1,1.21-.61,2.48,2.48,0,0,1,1.21.1,1.21,1.21,0,0,1,.83,1.13c0,1,0,1.93,0,2.89a.6.6,0,0,1,0,.12h-.47c0-.2-.06-.4-.09-.64l-.17.2a1.78,1.78,0,0,1-2.29.27,1.18,1.18,0,0,1-.49-1.14,1.12,1.12,0,0,1,.69-.94,2.76,2.76,0,0,1,1.06-.19c.24,0,.48,0,.72,0,.46-.05.52-.51.31-.83a.89.89,0,0,0-.58-.34,1.89,1.89,0,0,0-1.55.37l-.37.29"/><path class="cls-1" d="M126.89,28.14a1.6,1.6,0,0,1-.91.24c-.13,0-.26,0-.39,0a2.37,2.37,0,0,0-.54.13.62.62,0,0,0-.43.61.67.67,0,0,0,.43.62,1.29,1.29,0,0,0,1.76-.69,2.32,2.32,0,0,0,.08-.92m-2.62-.88v-.61a2.31,2.31,0,0,1,1.2-.59,2.35,2.35,0,0,1,1.23.1,1.19,1.19,0,0,1,.81,1.11c0,1,0,1.95,0,2.92a.58.58,0,0,1,0,.1H127l-.07-.64-.13.15a1.77,1.77,0,0,1-2.16.43,1.16,1.16,0,0,1-.66-1.18,1,1,0,0,1,.74-1,5.94,5.94,0,0,1,1-.17c.24,0,.48,0,.71-.06a.45.45,0,0,0,.37-.64.65.65,0,0,0-.37-.42,1.64,1.64,0,0,0-1.51.06,8.37,8.37,0,0,0-.7.46"/><path class="cls-1" d="M116,28.22l-.85.16c-.14,0-.29,0-.43,0a3,3,0,0,0-.59.14.61.61,0,0,0-.4.58.69.69,0,0,0,.38.62,1.29,1.29,0,0,0,1.79-.62,1.86,1.86,0,0,0,.1-.89m.06,1.41-.13.16a1.77,1.77,0,0,1-2.21.42,1.17,1.17,0,0,1-.62-1.17,1.08,1.08,0,0,1,.7-1,3,3,0,0,1,1.07-.19,3.35,3.35,0,0,0,.71-.05.45.45,0,0,0,.36-.69.79.79,0,0,0-.34-.36,1.58,1.58,0,0,0-1.48,0,7.73,7.73,0,0,0-.74.48v-.61a2.2,2.2,0,0,1,1.08-.56,2.28,2.28,0,0,1,1.39.09,1.12,1.12,0,0,1,.76,1.05c0,1,0,2,0,3.05h-.5c0-.19,0-.39-.06-.65"/><path class="cls-1" d="M116.84,18.62l-.06,0a1.75,1.75,0,0,1-.94.23c-.12,0-.23,0-.35,0a2.68,2.68,0,0,0-.56.13.6.6,0,0,0-.4.57.66.66,0,0,0,.39.64,1.27,1.27,0,0,0,1.78-.66,4.15,4.15,0,0,0,.14-.88m.55,2.1h-.47c0-.22,0-.42-.07-.65l-.18.21a1.8,1.8,0,0,1-2.26.3,1.21,1.21,0,0,1-.52-1.18,1.09,1.09,0,0,1,.7-.93,2.85,2.85,0,0,1,1.09-.19,5.06,5.06,0,0,0,.68-.05.47.47,0,0,0,.35-.74.85.85,0,0,0-.33-.32,1.57,1.57,0,0,0-1.46,0,6.66,6.66,0,0,0-.74.48v-.6a2.38,2.38,0,0,1,2.49-.46,1.12,1.12,0,0,1,.74,1.05c0,1,0,2,0,2.95a.84.84,0,0,1,0,.1"/><path class="cls-1" d="M117.24,36.16a1.35,1.35,0,0,0-1.24.75,1.86,1.86,0,0,0,0,1.76,1.38,1.38,0,0,0,2.5-.08,1.91,1.91,0,0,0,0-1.57,1.37,1.37,0,0,0-1.26-.86m0-.56a2.2,2.2,0,1,1-2.12,2.17,2.08,2.08,0,0,1,2.12-2.17"/><path class="cls-1" d="M134.54,28.22a2.38,2.38,0,0,0,.26.92,1.34,1.34,0,0,0,1.23.71,1.29,1.29,0,0,0,1.19-.71,1.92,1.92,0,0,0,.08-1.67,1.37,1.37,0,0,0-1.28-.88,1.38,1.38,0,0,0-1.3.88,6.3,6.3,0,0,0-.18.75M136,30.41a2.19,2.19,0,1,1,2.12-2.17A2.07,2.07,0,0,1,136,30.41"/><path class="cls-1" d="M99.26,28.18a1.89,1.89,0,0,0,.22.94,1.33,1.33,0,0,0,1.21.73,1.27,1.27,0,0,0,1.22-.71,1.83,1.83,0,0,0,0-1.9A1.36,1.36,0,0,0,99.75,27a1.7,1.7,0,0,0-.49,1.21M100.7,26a2.19,2.19,0,1,1-2.1,2.18A2.07,2.07,0,0,1,100.7,26"/><path class="cls-1" d="M120.66,39.87h-.61V35.73h.47c0,.21,0,.42.08.68a2.3,2.3,0,0,1,.16-.2,1.62,1.62,0,0,1,1.81-.53,1.46,1.46,0,0,1,1.05,1.43c0,.91,0,1.82,0,2.75H123v-.27c0-.75,0-1.49,0-2.23a1.5,1.5,0,0,0,0-.37,1,1,0,0,0-.81-.82,1.09,1.09,0,0,0-1.14.45,2,2,0,0,0-.32,1.16c0,.59,0,1.19,0,1.78Z"/><path class="cls-1" d="M110.27,20.72h-.62V16.57h.47l.08.68.14-.17a1.58,1.58,0,0,1,1.71-.58,1.47,1.47,0,0,1,1.15,1.28,2.07,2.07,0,0,1,0,.35v2.44c0,.05,0,.09,0,.15h-.62V20.4c0-.75,0-1.49,0-2.24a1.15,1.15,0,0,0-.07-.36,1,1,0,0,0-.75-.77,1.1,1.1,0,0,0-1.11.35,1.77,1.77,0,0,0-.38,1.19c0,.61,0,1.23,0,1.84Z"/><path class="cls-1" d="M142.41,30.29h-.6a2.45,2.45,0,0,1,0-.27c0-.75,0-1.49,0-2.24a2.23,2.23,0,0,0-.05-.36,1,1,0,0,0-.81-.82,1.07,1.07,0,0,0-1.12.43,1.83,1.83,0,0,0-.33,1.18c0,.59,0,1.18,0,1.78v.3h-.61V26.15h.47c0,.22.05.43.08.69l.15-.2a1.61,1.61,0,0,1,1.74-.56,1.48,1.48,0,0,1,1.13,1.44c0,.92,0,1.83,0,2.77"/><path class="cls-1" d="M112.83,36v.61l-.27-.17a1.66,1.66,0,0,0-1.32-.24.84.84,0,0,0-.29.13.48.48,0,0,0,0,.82,2.72,2.72,0,0,0,.57.27c.3.13.61.23.9.38a1,1,0,0,1,.64,1.13,1.15,1.15,0,0,1-.94,1,2.49,2.49,0,0,1-1.93-.35l-.15-.11v-.62l.28.19a2,2,0,0,0,1.42.39,1.16,1.16,0,0,0,.47-.17.5.5,0,0,0,.06-.82,2.27,2.27,0,0,0-.57-.32c-.32-.13-.65-.23-1-.38a1,1,0,0,1-.63-1,1.1,1.1,0,0,1,.67-1,2.07,2.07,0,0,1,2.06.25"/><path class="cls-1" d="M120.28,30.28c.73-1.19,1.44-2.36,2.19-3.57h-2v-.55h3l-2.18,3.56h2.13v.56Z"/><path class="cls-1" d="M131.74,27.15a1.83,1.83,0,0,0-2.57-.07,1.89,1.89,0,0,0,0,2.31,1.5,1.5,0,0,0,1.31.45,1.92,1.92,0,0,0,1.26-.67v.68a2.26,2.26,0,0,1-3,0,2.39,2.39,0,0,1-.13-3.15,2.32,2.32,0,0,1,3.08-.19Z"/><path class="cls-1" d="M106.92,17v.63l-.23-.17a1.94,1.94,0,0,0-1.53-.36,1.37,1.37,0,0,0-1.06.87,1.9,1.9,0,0,0,0,1.35,1.51,1.51,0,0,0,2.06.89,6.25,6.25,0,0,0,.82-.48v.6a2.28,2.28,0,0,1-3,0,2.38,2.38,0,0,1-.17-3.14,2.29,2.29,0,0,1,3.11-.22"/><path class="cls-1" d="M99.56,20.72V17.1h-.65v-.52l.66,0v-.42a1.16,1.16,0,0,1,1.77-1v.47c-.89-.19-1.27.12-1.1.92h1.17v.53H100.2v3.63Z"/><path class="cls-1" d="M106.26,39.91h-.19l-1.95-4.19h.72l1.33,3.09c.46-1.06.9-2.07,1.35-3.09h.71c-.65,1.41-1.32,2.79-2,4.18"/><path class="cls-1" d="M98.31,39.87h-.62V35.73h.47c0,.22.06.44.09.69.63-.83,1.09-1,1.81-.66v.55l-.25-.07a1,1,0,0,0-1.26.51,2.13,2.13,0,0,0-.24,1v2.1Z"/><path class="cls-1" d="M104.08,26.87c.56-.84,1.12-1,1.82-.68v.55l-.22-.07a1,1,0,0,0-1.3.53,2,2,0,0,0-.23,1v2.12h-.61V26.15H104c0,.23,0,.46.08.72"/><rect class="cls-1" x="128.7" y="34.28" width="0.6" height="5.59"/><rect class="cls-1" x="117.48" y="24.71" width="0.61" height="5.58"/><rect class="cls-1" x="119.07" y="26.15" width="0.6" height="4.14"/><rect class="cls-1" x="132.6" y="26.15" width="0.6" height="4.15"/><rect class="cls-1" x="113.81" y="35.72" width="0.6" height="4.15"/><rect class="cls-1" x="102" y="16.57" width="0.6" height="4.15"/><path class="cls-1" d="M109.29,39.87h-.6V35.71h.6Z"/><polygon class="cls-1" points="108.36 20.72 107.78 20.72 107.78 16.56 108.07 16.56 108.36 16.56 108.36 20.72"/><path class="cls-1" d="M135.34,25.54V25l1.78-.95v.65l-1.78.84"/><path class="cls-1" d="M114.1,34.71a.46.46,0,0,1-.47-.47.46.46,0,0,1,.47-.44.45.45,0,0,1,.47.44.46.46,0,0,1-.47.47"/><path class="cls-1" d="M132.88,24.23a.44.44,0,0,1,.48.42.47.47,0,1,1-.48-.42"/><path class="cls-1" d="M102.29,14.65a.46.46,0,1,1,0,.91.45.45,0,0,1-.46-.47.45.45,0,0,1,.47-.44"/><path class="cls-1" d="M109.44,34.25a.44.44,0,0,1-.47.46.46.46,0,0,1-.46-.45.45.45,0,0,1,.48-.46.44.44,0,0,1,.45.45"/><path class="cls-1" d="M108.52,15.1a.46.46,0,0,1-.92,0,.46.46,0,0,1,.92,0"/><path class="cls-1" d="M119.36,24.23a.44.44,0,0,1,.46.44.47.47,0,0,1-.93,0,.44.44,0,0,1,.47-.43"/><path class="cls-1" d="M99.9,4.59c0-.26-.05-.52-.1-.78a2.9,2.9,0,0,0-5.61-.31,3.77,3.77,0,0,0,0,2.08,2.79,2.79,0,0,0,1.54,1.93,2.83,2.83,0,0,0,1.74.22,2.67,2.67,0,0,0,1.86-1.15,3.51,3.51,0,0,0,.61-2m1.66-.08A4.68,4.68,0,0,1,100.17,8a4.33,4.33,0,0,1-2.51,1.2,4.77,4.77,0,0,1-2.83-.45,4.35,4.35,0,0,1-2.26-2.67,4.79,4.79,0,0,1,.07-3.15A4.28,4.28,0,0,1,95.88.13a4.65,4.65,0,0,1,3.63.61,4.33,4.33,0,0,1,2,3.17c0,.23,0,.47,0,.6"/><path class="cls-1" d="M108.52,5.65V.21h1.63v9h-.26L104.4,3.58V9.06h-1.62V0h.27l5.47,5.61"/><path class="cls-1" d="M113.48,4.47c.54,0,1.07,0,1.6,0A1.47,1.47,0,0,0,116.22,4a1.48,1.48,0,0,0,.27-1.12,1.23,1.23,0,0,0-1.12-1.16c-.36,0-.72,0-1.08-.05h-.81Zm0,1.43V9.06h-1.64V.21H115a3.76,3.76,0,0,1,1.84.41,2.44,2.44,0,0,1,1.27,1.79A3.4,3.4,0,0,1,118,4.2a2.47,2.47,0,0,1-1.83,1.58,4,4,0,0,1-1.09.13h-1.6Z"/></g></g></svg>