<svg xmlns="http://www.w3.org/2000/svg" viewBox="0 0 349.68 98.21"><defs><style>.cls-1{fill:#fff;}</style></defs><title>Recurso 4</title><g id="Capa_2" data-name="Capa 2"><g id="Layer_1" data-name="Layer 1"><path class="cls-1" d="M0,48.91a48.91,48.91,0,0,0,46.56,48.8V.11A48.91,48.91,0,0,0,0,48.91"/><path class="cls-1" d="M70.5,97.77H97.71V70.56A53.79,53.79,0,0,1,70.5,97.77"/><path class="cls-1" d="M97.71,27.27V.06H70.5A53.72,53.72,0,0,1,97.71,27.27"/><path class="cls-1" d="M97.71,48.91A48.91,48.91,0,0,0,51.15.11v97.6a48.91,48.91,0,0,0,46.56-48.8"/><path class="cls-1" d="M153.44,48.91V80.72h6.24a40.33,40.33,0,0,0,0-80.66h-38a53.51,53.51,0,0,1,31.79,48.85"/><path class="cls-1" d="M102.3.11V97.77h46.56V48.91A48.91,48.91,0,0,0,102.3.11"/><path class="cls-1" d="M229.78,44.21a11.55,11.55,0,0,0,.27,1.55,5.07,5.07,0,0,0,3.71,3.76,5,5,0,0,0,5-1.4,5.83,5.83,0,0,0,1.52-5.25,5.23,5.23,0,0,0-7.65-4c-2,1-2.8,2.87-2.88,5.32m-1.67,0c.07-2.86,1-5,3.31-6.35a6.86,6.86,0,0,1,7.15-.11A6.61,6.61,0,0,1,242,43.55a7.12,7.12,0,0,1-2.43,6,7,7,0,0,1-11.29-3.78,14.6,14.6,0,0,1-.21-1.61"/><path class="cls-1" d="M238.45,60.66H240V74.77a6,6,0,0,1-.56-.46l-8.25-9.43-.54-.62-.15,0v10H229V60.2a6.71,6.71,0,0,1,.63.56c1.94,2.2,3.87,4.42,5.81,6.63l2.49,2.84c.14.16.3.3.55.54Z"/><path class="cls-1" d="M276,74.38h-1.48c0-.26,0-.49,0-.72,0-1.78,0-3.56-.06-5.35a6.25,6.25,0,0,0-.31-1.65,2.13,2.13,0,0,0-3.56-.76,3.84,3.84,0,0,0-1,2.23,19.38,19.38,0,0,0-.1,2c0,1.39,0,2.78,0,4.21H268c0-.22,0-.44,0-.67,0-1.66,0-3.31,0-5a7.07,7.07,0,0,0-.31-2A2.11,2.11,0,0,0,264,66a3.71,3.71,0,0,0-.92,2.32c-.06,1.26-.06,2.52-.08,3.78,0,.74,0,1.48,0,2.27h-1.49V64.21l.54,0c.18,0,.35,0,.59,0,.06.51.13,1,.21,1.61a3.53,3.53,0,0,1,3.24-1.87A3.38,3.38,0,0,1,269.17,66c.1-.15.17-.25.23-.36a3.5,3.5,0,0,1,4.17-1.59,3.11,3.11,0,0,1,2.26,2.47,7.93,7.93,0,0,1,.22,1.81c0,1.87,0,3.74,0,5.61a4.2,4.2,0,0,1,0,.44"/><path class="cls-1" d="M303.43,45.94a4.44,4.44,0,0,0-.73-2.68,3.27,3.27,0,0,0-5.69.36,4.66,4.66,0,0,0,0,4.27,3.13,3.13,0,0,0,2.9,1.89,3.18,3.18,0,0,0,2.94-1.62,4,4,0,0,0,.61-2.22m0-3.69v-5.1h1.54v13.7h-1.2c-.06-.56-.12-1.11-.2-1.79a5,5,0,0,1-1.87,1.65,4.64,4.64,0,0,1-6.33-2.47,6.17,6.17,0,0,1,.47-5.76,4.6,4.6,0,0,1,7.3-.55l.29.32"/><path class="cls-1" d="M230.55,91h3.33a2.49,2.49,0,0,0,.71-.14,2.43,2.43,0,0,0,1.83-2.53,2.37,2.37,0,0,0-1.78-2.57,18,18,0,0,0-4.09-.18Zm0,1.45v5.42H229V84.19a1.29,1.29,0,0,1,.25-.06c1.63,0,3.26,0,4.89.05a5,5,0,0,1,1.52.32,3.76,3.76,0,0,1,2.47,4c-.15,2.42-1.66,3.83-4.24,3.92-.87,0-1.74,0-2.61,0h-.73"/><path class="cls-1" d="M253.64,91.87a3,3,0,0,0-3.13-3.09,3.35,3.35,0,0,0-3.35,3.39c2.12-.52,4.3-.07,6.48-.3M254.8,95v1.54a4.86,4.86,0,0,1-3.37,1.6,6.9,6.9,0,0,1-2.31-.21,4.94,4.94,0,0,1-3.61-4.68,5.76,5.76,0,0,1,1.26-4.13,5,5,0,0,1,7.38-.22,4.32,4.32,0,0,1,1.08,2.87v1.44h-6.69a3.84,3.84,0,0,0-.59,0c-.58.08-.79.36-.71,1a2.54,2.54,0,0,0,1,1.68,4.55,4.55,0,0,0,4.33.62,3.9,3.9,0,0,0,1.77-1.07c.11-.12.24-.23.43-.41"/><path class="cls-1" d="M314.82,44.86a3,3,0,0,0-1.61-2.71,3.32,3.32,0,0,0-3.52.24,3.19,3.19,0,0,0-1.37,2.73c2.12-.45,4.28,0,6.5-.26m1.11,3.25v1.43a4.85,4.85,0,0,1-3.37,1.59,6.65,6.65,0,0,1-2.31-.21,4.93,4.93,0,0,1-3.61-4.73,5.49,5.49,0,0,1,2-4.79c2.19-1.75,6.62-1.55,7.59,2.45a13.36,13.36,0,0,1,.16,2.35h-6.66c-.15,0-.3,0-.45,0-.8,0-1.11.44-.87,1.21a3.08,3.08,0,0,0,2.41,2.16,4.79,4.79,0,0,0,4.75-1.24l.24-.22h.11"/><path class="cls-1" d="M312.29,92.76c-.62.14-1.15.3-1.7.38s-1,0-1.43.08a7.15,7.15,0,0,0-1.5.37,1.42,1.42,0,0,0-.93,1.37,1.6,1.6,0,0,0,.87,1.5,3.17,3.17,0,0,0,4.68-2.27,11.43,11.43,0,0,0,0-1.43m-6.43-2.22V89a5.31,5.31,0,0,1,3-1.49,5.73,5.73,0,0,1,3,.24,2.93,2.93,0,0,1,2,2.76c0,2.37,0,4.75,0,7.12a1.6,1.6,0,0,1,0,.27h-1.17c-.06-.48-.13-1-.21-1.56-.17.21-.29.34-.41.48a4.38,4.38,0,0,1-5.64.67,2.89,2.89,0,0,1-1.19-2.8,2.66,2.66,0,0,1,1.69-2.29,6.86,6.86,0,0,1,2.61-.48c.59,0,1.17-.05,1.75-.11,1.13-.13,1.3-1.25.77-2a2.07,2.07,0,0,0-1.42-.85,4.65,4.65,0,0,0-3.81.9c-.28.2-.54.44-.9.74"/><path class="cls-1" d="M311.54,69.1a4.07,4.07,0,0,1-2.22.59c-.32,0-.65,0-1,0A6.58,6.58,0,0,0,307,70a1.52,1.52,0,0,0-1,1.51,1.66,1.66,0,0,0,1,1.53,3.17,3.17,0,0,0,4.33-1.69,5.28,5.28,0,0,0,.19-2.26m-6.43-2.16v-1.5A5.68,5.68,0,0,1,308.05,64a5.56,5.56,0,0,1,3,.25,2.89,2.89,0,0,1,2,2.71c0,2.39,0,4.79,0,7.18a1.59,1.59,0,0,1,0,.23h-1.18c-.05-.49-.11-1-.18-1.57-.15.19-.24.27-.31.37A4.35,4.35,0,0,1,306,74.22a2.85,2.85,0,0,1-1.62-2.88,2.55,2.55,0,0,1,1.83-2.51,14.45,14.45,0,0,1,2.55-.43c.58-.08,1.18,0,1.75-.15a1.11,1.11,0,0,0,.91-1.56,1.64,1.64,0,0,0-.92-1,4.06,4.06,0,0,0-3.7.15,17.7,17.7,0,0,0-1.73,1.14"/><path class="cls-1" d="M284.79,69.28c-.72.14-1.41.29-2.1.39-.34,0-.7,0-1,0a7.11,7.11,0,0,0-1.45.34,1.46,1.46,0,0,0-1,1.41,1.62,1.62,0,0,0,.94,1.53,3.17,3.17,0,0,0,4.39-1.52,4.54,4.54,0,0,0,.24-2.19m.13,3.48c-.14.18-.23.27-.3.37a4.33,4.33,0,0,1-5.42,1,2.86,2.86,0,0,1-1.54-2.86,2.67,2.67,0,0,1,1.73-2.46,6.9,6.9,0,0,1,2.62-.46,11.36,11.36,0,0,0,1.75-.13,1.11,1.11,0,0,0,.86-1.71,2,2,0,0,0-.81-.87,3.85,3.85,0,0,0-3.64.08,17.33,17.33,0,0,0-1.81,1.17V65.44a5.89,5.89,0,0,1,6.05-1.16,2.73,2.73,0,0,1,1.88,2.58c.06,2.48,0,5,0,7.49h-1.22c0-.48-.1-1-.17-1.59"/><path class="cls-1" d="M286.88,45.72l-.17-.1a4.32,4.32,0,0,1-2.3.57c-.28,0-.57,0-.84,0a7,7,0,0,0-1.38.33,1.48,1.48,0,0,0-1,1.4,1.65,1.65,0,0,0,1,1.57,3.1,3.1,0,0,0,4.36-1.62,11.08,11.08,0,0,0,.36-2.16m1.35,5.14h-1.17c-.05-.52-.1-1-.17-1.58-.18.2-.32.36-.44.52a4.39,4.39,0,0,1-5.54.72,2.89,2.89,0,0,1-1.27-2.89,2.65,2.65,0,0,1,1.7-2.28,7.18,7.18,0,0,1,2.68-.47,10.47,10.47,0,0,0,1.68-.12,1.15,1.15,0,0,0,.86-1.81,2.1,2.1,0,0,0-.82-.8,3.87,3.87,0,0,0-3.58.09,17.33,17.33,0,0,0-1.81,1.17V41.94a5.81,5.81,0,0,1,6.11-1.14,2.77,2.77,0,0,1,1.81,2.58c0,2.41,0,4.83,0,7.24a2.08,2.08,0,0,1,0,.24"/><path class="cls-1" d="M287.85,88.78a3.36,3.36,0,0,0-3.05,1.84,4.55,4.55,0,0,0,0,4.33,3.39,3.39,0,0,0,6.13-.2,4.67,4.67,0,0,0,0-3.87,3.36,3.36,0,0,0-3.09-2.1m0-1.36a5.39,5.39,0,0,1-.2,10.77,5.14,5.14,0,0,1-5-5.46,5.07,5.07,0,0,1,5.21-5.31"/><path class="cls-1" d="M330.33,69.27a5.71,5.71,0,0,0,.64,2.28,3.25,3.25,0,0,0,3,1.74,3.17,3.17,0,0,0,2.92-1.75,4.62,4.62,0,0,0,.2-4.1,3.38,3.38,0,0,0-6.32,0,12.28,12.28,0,0,0-.45,1.81m3.57,5.4a5.38,5.38,0,0,1,.1-10.76c3,0,5.08,2.28,5.09,5.44a5.07,5.07,0,0,1-5.19,5.32"/><path class="cls-1" d="M243.71,69.2a4.76,4.76,0,0,0,.54,2.3,3.26,3.26,0,0,0,3,1.79,3.13,3.13,0,0,0,3-1.75,4.51,4.51,0,0,0-.11-4.67,3.36,3.36,0,0,0-5.19-.65,4.26,4.26,0,0,0-1.2,3m3.54-5.29a5.38,5.38,0,1,1-5.17,5.36,5.09,5.09,0,0,1,5.17-5.36"/><path class="cls-1" d="M296.25,97.89h-1.51V87.73h1.16c.06.51.13,1,.21,1.66.17-.22.27-.36.38-.49A4,4,0,0,1,301,87.61a3.55,3.55,0,0,1,2.56,3.5c.11,2.24,0,4.48,0,6.76H302c0-.22,0-.44,0-.67,0-1.83,0-3.66,0-5.48a3.91,3.91,0,0,0-.13-.9,2.41,2.41,0,0,0-2-2,2.68,2.68,0,0,0-2.81,1.1,4.73,4.73,0,0,0-.78,2.85c0,1.46,0,2.92,0,4.37Z"/><path class="cls-1" d="M270.73,50.88h-1.5V40.69h1.13c.07.52.13,1.05.2,1.67l.35-.43a3.89,3.89,0,0,1,4.2-1.42,3.58,3.58,0,0,1,2.82,3.15,4.8,4.8,0,0,1,.08.85q0,3,0,6a2.5,2.5,0,0,1,0,.35h-1.51v-.78c0-1.83,0-3.66-.06-5.48a4,4,0,0,0-.16-.9,2.32,2.32,0,0,0-1.86-1.88,2.65,2.65,0,0,0-2.71.86,4.29,4.29,0,0,0-.94,2.92c0,1.5,0,3,0,4.5Z"/><path class="cls-1" d="M349.66,74.37h-1.49c0-.22,0-.45,0-.68,0-1.82,0-3.65-.05-5.48a4,4,0,0,0-.13-.9,2.37,2.37,0,0,0-2-2,2.65,2.65,0,0,0-2.77,1,4.69,4.69,0,0,0-.81,2.9c0,1.46,0,2.92,0,4.38v.74h-1.51V64.22H342c.06.51.12,1,.2,1.67l.36-.47A3.89,3.89,0,0,1,346.87,64a3.6,3.6,0,0,1,2.77,3.54c.08,2.24,0,4.48,0,6.79"/><path class="cls-1" d="M277,88.38v1.5l-.65-.41a4.15,4.15,0,0,0-3.25-.6,2.23,2.23,0,0,0-.7.32,1.18,1.18,0,0,0-.05,2,7.64,7.64,0,0,0,1.41.68c.73.31,1.51.54,2.22.91a2.53,2.53,0,0,1,1.57,2.8A2.83,2.83,0,0,1,275.26,98a6.06,6.06,0,0,1-4.74-.84c-.13-.08-.24-.18-.37-.27V95.39l.69.46a4.83,4.83,0,0,0,3.49,1,2.9,2.9,0,0,0,1.15-.42,1.23,1.23,0,0,0,.15-2,5.79,5.79,0,0,0-1.4-.78c-.78-.34-1.6-.58-2.36-.94a2.36,2.36,0,0,1-1.54-2.41A2.65,2.65,0,0,1,272,87.78a5.07,5.07,0,0,1,5,.6"/><path class="cls-1" d="M295.31,74.35c1.79-2.93,3.55-5.79,5.37-8.78h-4.8V64.22h7.47C301.57,67.14,299.81,70,298,73h5.21v1.39Z"/><path class="cls-1" d="M323.46,66.66c-2.45-2-5.13-1.55-6.3-.16a4.57,4.57,0,0,0,.1,5.67,3.61,3.61,0,0,0,3.2,1.09,4.74,4.74,0,0,0,3.09-1.64V73.3a5.54,5.54,0,0,1-7.33,0,5.85,5.85,0,0,1-.33-7.73,5.7,5.7,0,0,1,7.57-.48Z"/><path class="cls-1" d="M262.52,41.62v1.54l-.56-.4a4.7,4.7,0,0,0-3.76-.89A3.31,3.31,0,0,0,255.6,44a4.69,4.69,0,0,0-.09,3.32,3.7,3.7,0,0,0,5.06,2.17,14.26,14.26,0,0,0,2-1.17v1.47c-1.41,1.62-5.13,2-7.28.08a5.85,5.85,0,0,1-.43-7.72,5.63,5.63,0,0,1,7.64-.53"/><path class="cls-1" d="M244.45,50.86V42h-1.61V40.7l1.64-.08c0-.37,0-.71,0-1a2.85,2.85,0,0,1,4.34-2.33v1.15c-2.19-.46-3.12.31-2.7,2.26H249V42h-3v8.9Z"/><path class="cls-1" d="M260.9,98l-.47,0-4.78-10.29h1.77c1.05,2.46,2.13,5,3.25,7.58,1.13-2.59,2.22-5.07,3.31-7.59h1.75c-1.6,3.48-3.23,6.86-4.83,10.27"/><path class="cls-1" d="M241.37,97.88h-1.52V87.72H241c.07.55.14,1.09.21,1.7,1.56-2,2.69-2.45,4.45-1.62v1.36l-.6-.19A2.49,2.49,0,0,0,242,90.23a5.09,5.09,0,0,0-.61,2.51v5.14Z"/><path class="cls-1" d="M255.55,66c1.37-2.06,2.73-2.56,4.47-1.67v1.34l-.56-.16a2.48,2.48,0,0,0-3.18,1.29,5,5,0,0,0-.56,2.39v5.19h-1.51V64.21h1.14c.06.56.12,1.12.2,1.77"/><rect class="cls-1" x="315.98" y="84.17" width="1.47" height="13.73"/><rect class="cls-1" x="288.44" y="60.66" width="1.5" height="13.7"/><rect class="cls-1" x="292.34" y="64.2" width="1.46" height="10.16"/><rect class="cls-1" x="325.56" y="64.2" width="1.47" height="10.18"/><rect class="cls-1" x="279.44" y="87.71" width="1.47" height="10.19"/><rect class="cls-1" x="250.43" y="40.69" width="1.47" height="10.19"/><path class="cls-1" d="M268.34,97.89h-1.47V87.68c.3,0,.58,0,.86,0l.61,0Z"/><polygon class="cls-1" points="266.06 50.87 264.62 50.87 264.62 40.66 265.33 40.66 266.06 40.66 266.06 50.87"/><path class="cls-1" d="M332.3,62.7V61.37l4.36-2.32v1.6L332.3,62.7"/><path class="cls-1" d="M280.14,85.21a1.11,1.11,0,1,1,0-2.21,1.1,1.1,0,0,1,1.15,1.08,1.11,1.11,0,0,1-1.16,1.13"/><path class="cls-1" d="M326.25,59.49a1.07,1.07,0,0,1,1.17,1,1.09,1.09,0,0,1-1.11,1.17,1.11,1.11,0,1,1-.06-2.21"/><path class="cls-1" d="M251.14,36a1.11,1.11,0,1,1,0,2.21,1.11,1.11,0,1,1,0-2.21"/><path class="cls-1" d="M268.71,84.08A1.14,1.14,0,1,1,267.59,83a1.07,1.07,0,0,1,1.12,1.08"/><path class="cls-1" d="M266.46,37.07a1.09,1.09,0,0,1-1.16,1.12,1.07,1.07,0,0,1-1.12-1.09A1.08,1.08,0,0,1,265.34,36a1.06,1.06,0,0,1,1.12,1.09"/><path class="cls-1" d="M293.05,59.49a1.11,1.11,0,1,1-1.15,1.07,1.08,1.08,0,0,1,1.15-1.07"/><path class="cls-1" d="M245.27,11.27c-.07-.64-.11-1.29-.24-1.92a6.94,6.94,0,0,0-2-3.81,7,7,0,0,0-4.93-1.9,6.85,6.85,0,0,0-6.84,5,9.21,9.21,0,0,0-.1,5.1,6.87,6.87,0,0,0,3.8,4.75,7.18,7.18,0,0,0,4.27.53,6.6,6.6,0,0,0,4.56-2.82,8.64,8.64,0,0,0,1.48-4.89m4.09-.19A11.58,11.58,0,0,1,246,19.65a10.61,10.61,0,0,1-6.16,2.94,11.7,11.7,0,0,1-7-1.1,10.67,10.67,0,0,1-5.54-6.56,11.65,11.65,0,0,1,.17-7.73,10.47,10.47,0,0,1,8-6.89,11.45,11.45,0,0,1,8.9,1.5,10.66,10.66,0,0,1,4.91,7.79c.08.58.1,1.16.13,1.48"/><path class="cls-1" d="M266.45,13.86V.52h4V22.63h-.64L256.33,8.78V22.24h-4V.1H253l13.42,13.76"/><path class="cls-1" d="M278.62,11c1.34,0,2.63,0,3.93,0a3.53,3.53,0,0,0,2.79-1.25A3.59,3.59,0,0,0,286,7a3,3,0,0,0-2.74-2.84C282.38,4,281.49,4,280.61,4c-.66,0-1.32,0-2,0Zm0,3.51v7.75h-4V.52l.34,0c2.5,0,5,0,7.5,0a9.22,9.22,0,0,1,4.52,1,5.93,5.93,0,0,1,3.1,4.4,8.26,8.26,0,0,1-.33,4.38,6.12,6.12,0,0,1-4.5,3.89,10.16,10.16,0,0,1-2.68.3c-1.15,0-2.3,0-3.45,0Z"/></g></g></svg>