<svg xmlns="http://www.w3.org/2000/svg" xmlns:xlink="http://www.w3.org/1999/xlink" viewBox="0 0 165.56 92.19"><defs><style>.cls-1{fill:#ededed;}.cls-2{fill:#eea733;}.cls-3{fill:#f2b900;}.cls-4{fill:#422918;}.cls-5{fill:#e37269;}.cls-6{fill:url(#Degradado_sin_nombre_6);}.cls-7{fill:#1d1d1b;}.cls-8{fill:url(#Degradado_sin_nombre_6-2);}.cls-9{fill:url(#Degradado_sin_nombre_6-3);}.cls-10,.cls-13,.cls-24,.cls-30,.cls-31,.cls-32{fill:none;stroke-miterlimit:10;}.cls-10{stroke:#7e4e24;stroke-width:0.38px;}.cls-10,.cls-24,.cls-30,.cls-31{stroke-linecap:round;}.cls-11{fill:#a77f49;}.cls-12{fill:#3c3c3b;}.cls-13{stroke:#1d1d1b;stroke-width:0.57px;}.cls-14{fill:#7e4e24;}.cls-15{fill:url(#Degradado_sin_nombre_6-4);}.cls-16{fill:url(#Degradado_sin_nombre_6-5);}.cls-17{fill:url(#Degradado_sin_nombre_6-6);}.cls-18{fill:url(#Degradado_sin_nombre_6-7);}.cls-19{fill:#fff;}.cls-20{fill:#22416d;}.cls-21{fill:#2f4d82;}.cls-22{fill:#f7b79b;}.cls-23{fill:url(#Degradado_sin_nombre_14);}.cls-24,.cls-30{stroke:#e39272;}.cls-24{stroke-width:0.67px;}.cls-25{fill:#f9c9b1;}.cls-26{fill:#c6c6c5;}.cls-27{fill:url(#Degradado_sin_nombre_3);}.cls-28{fill:#e39272;}.cls-29{fill:url(#Degradado_sin_nombre_14-2);}.cls-30,.cls-31{stroke-width:0.75px;}.cls-31{stroke:#683b11;}.cls-32{stroke:#9c9b9b;}</style><linearGradient id="Degradado_sin_nombre_6" x1="40.74" y1="64.51" x2="40.74" y2="53.15" gradientUnits="userSpaceOnUse"><stop offset="0" stop-color="#a77f49"/><stop offset="1" stop-color="#885f36"/></linearGradient><linearGradient id="Degradado_sin_nombre_6-2" x1="22.04" y1="35.18" x2="26.05" y2="34.37" xlink:href="#Degradado_sin_nombre_6"/><linearGradient id="Degradado_sin_nombre_6-3" x1="60.4" y1="35.2" x2="55.95" y2="34.52" xlink:href="#Degradado_sin_nombre_6"/><linearGradient id="Degradado_sin_nombre_6-4" x1="38.5" y1="30.11" x2="38.5" y2="43.95" xlink:href="#Degradado_sin_nombre_6"/><linearGradient id="Degradado_sin_nombre_6-5" x1="42.98" y1="30.49" x2="42.98" y2="43.09" xlink:href="#Degradado_sin_nombre_6"/><linearGradient id="Degradado_sin_nombre_6-6" x1="36.26" y1="44.61" x2="45.21" y2="44.61" xlink:href="#Degradado_sin_nombre_6"/><linearGradient id="Degradado_sin_nombre_6-7" x1="39.08" y1="36.61" x2="42.37" y2="36.61" xlink:href="#Degradado_sin_nombre_6"/><linearGradient id="Degradado_sin_nombre_14" x1="85.84" y1="39.23" x2="90.03" y2="38.4" gradientUnits="userSpaceOnUse"><stop offset="0" stop-color="#facdb2"/><stop offset="1" stop-color="#f4a382"/></linearGradient><linearGradient id="Degradado_sin_nombre_3" x1="134.51" y1="39.26" x2="129.88" y2="38.55" gradientUnits="userSpaceOnUse"><stop offset="0" stop-color="#f4a382"/><stop offset="1" stop-color="#facdb2"/></linearGradient><linearGradient id="Degradado_sin_nombre_14-2" x1="103.8" y1="44.4" x2="114.74" y2="44.4" xlink:href="#Degradado_sin_nombre_14"/></defs><title>Recurso 6</title><g id="Capa_2" data-name="Capa 2"><g id="Capa_1-2" data-name="Capa 1"><path class="cls-1" d="M82.78,9.4A82.79,82.79,0,0,0,0,92.19H165.56A82.79,82.79,0,0,0,82.78,9.4Z"/><path class="cls-2" d="M18.16,92.19A99.6,99.6,0,0,0,13.4,78.06C9.77,82.54,7.93,88.2,7,92.19Z"/><path class="cls-2" d="M73.48,92.19c-.91-4-2.74-9.65-6.38-14.13a99.47,99.47,0,0,0-4.75,14.13Z"/><path class="cls-3" d="M63.27,92.19a133.63,133.63,0,0,1,3.8-14.13,32.73,32.73,0,0,0-2.95-5.24c-2.61-3.77-7.29-3.44-10.45-6.31H27.81c-3.16,2.87-7.84,2.54-10.46,6.31-1.2,1.75-3.17,3.52-4,5.24,1.54,4.77,3,9.31,4.16,14.13Z"/><path class="cls-4" d="M37.38,54c0,2.64-4.26,4.77-9.52,4.77S18.34,56.62,18.34,54s4.26-4.76,9.52-4.76S37.38,51.35,37.38,54Z"/><path class="cls-4" d="M27.62,48.38a3.45,3.45,0,1,1-3.44-3.23A3.34,3.34,0,0,1,27.62,48.38Z"/><path class="cls-4" d="M32.27,47.71c0,4.4-2,8-4.43,8s-4.43-3.56-4.43-8,2-8,4.43-8S32.27,43.31,32.27,47.71Z"/><path class="cls-4" d="M44.1,54c0,2.64,4.26,4.77,9.51,4.77s9.53-2.13,9.53-4.77-4.27-4.76-9.53-4.76S44.1,51.35,44.1,54Z"/><path class="cls-4" d="M53.85,48.38a3.46,3.46,0,1,0,3.45-3.23A3.35,3.35,0,0,0,53.85,48.38Z"/><path class="cls-4" d="M49.2,47.71c0,4.4,2,8,4.43,8s4.43-3.56,4.43-8-2-8-4.43-8S49.2,43.31,49.2,47.71Z"/><path class="cls-5" d="M40.74,82.14,53.67,66.51a9.82,9.82,0,0,1-2.75-3.73H30.56a9.93,9.93,0,0,1-2.75,3.73L40.74,82.14Z"/><path class="cls-6" d="M40.74,65.86a67.38,67.38,0,0,0,11.43-.93,7.84,7.84,0,0,1-1.61-3.36,123.17,123.17,0,0,1-1.17-13.81,72.2,72.2,0,0,0-17.3,0,125.58,125.58,0,0,1-1.17,13.81,7.85,7.85,0,0,1-1.62,3.36A67.59,67.59,0,0,0,40.74,65.86Z"/><path class="cls-4" d="M60.09,26.42A19.12,19.12,0,0,1,40.74,45.29,19.11,19.11,0,0,1,21.39,26.42,19.11,19.11,0,0,1,40.74,7.55,19.12,19.12,0,0,1,60.09,26.42Z"/><path class="cls-4" d="M56,9.17c0,5.06-4.37,9.16-9.75,9.16s-9.76-4.1-9.76-9.16S40.81,0,46.2,0,56,4.1,56,9.17Z"/><path class="cls-4" d="M36.77,16.61a3.74,3.74,0,0,1,7.46,0,3.74,3.74,0,0,1-7.46,0Z"/><path class="cls-4" d="M29.15,11.28a5.69,5.69,0,0,1,11.35,0,5.69,5.69,0,0,1-11.35,0Z"/><path class="cls-4" d="M33.06,15a4.36,4.36,0,0,1-8.71,0,4.36,4.36,0,0,1,8.71,0Z"/><path class="cls-4" d="M48,15.83a4.57,4.57,0,0,1,9.12,0,4.57,4.57,0,0,1-9.12,0Z"/><path class="cls-7" d="M30.39,39.47a2.84,2.84,0,1,1-2.84-2.66A2.75,2.75,0,0,1,30.39,39.47Z"/><path class="cls-7" d="M56.75,39.47a2.84,2.84,0,1,1-2.83-2.66A2.74,2.74,0,0,1,56.75,39.47Z"/><path class="cls-8" d="M28.08,34.65c.22,3.1-.84,5.64-2.89,5.64s-4.3-2.51-4.52-5.61S21.93,29.05,24,29,27.86,31.55,28.08,34.65Z"/><path class="cls-9" d="M53.4,34.65c-.23,3.1.84,5.64,2.88,5.64s4.3-2.51,4.52-5.61S59.54,29.05,57.49,29,53.61,31.55,53.4,34.65Z"/><path class="cls-10" d="M22.56,31.17a7.84,7.84,0,0,1,2.41,5"/><path class="cls-10" d="M58.91,31.17a7.9,7.9,0,0,0-2.41,5"/><path class="cls-11" d="M55.62,33.81c0,11.34-5.1,23.37-14.88,23.37s-14.89-12-14.89-23.37,2.74-21.15,14.89-21.15S55.62,22.48,55.62,33.81Z"/><path class="cls-12" d="M37.42,26.47a3.72,3.72,0,0,0-3.48-1.89A6.54,6.54,0,0,0,29.2,27c-.23.57.49.9,1.32.78s2.76-.81,3.6-.56,2.8.8,3.17.58A.84.84,0,0,0,37.42,26.47Z"/><path class="cls-7" d="M33.94,24.58A6.54,6.54,0,0,0,29.2,27a.45.45,0,0,0,0,.44A10.85,10.85,0,0,1,33.75,26a8,8,0,0,1,3.88,1.35,1,1,0,0,0-.21-.85A3.72,3.72,0,0,0,33.94,24.58Z"/><path class="cls-7" d="M35.14,31.93a1.55,1.55,0,1,1-1.55-1.45A1.5,1.5,0,0,1,35.14,31.93Z"/><path class="cls-7" d="M46.33,31.93a1.55,1.55,0,1,0,1.55-1.45A1.51,1.51,0,0,0,46.33,31.93Z"/><path class="cls-12" d="M44.06,26.47a3.7,3.7,0,0,1,3.48-1.89A6.49,6.49,0,0,1,52.27,27c.23.57-.49.9-1.31.78s-2.76-.81-3.61-.56-2.8.8-3.17.58S43.65,27,44.06,26.47Z"/><path class="cls-7" d="M47.54,24.58A6.49,6.49,0,0,1,52.27,27a.43.43,0,0,1,0,.44A10.85,10.85,0,0,0,47.72,26a8,8,0,0,0-3.87,1.35,1,1,0,0,1,.21-.85A3.7,3.7,0,0,1,47.54,24.58Z"/><path class="cls-7" d="M40.11,31.17a6.84,6.84,0,0,1-2.43,5,8,8,0,0,1-5.13,1.88,7.62,7.62,0,0,1-5.14-1.87,6.84,6.84,0,0,1-.21-10.26,8,8,0,0,1,5.35-2.14,7.73,7.73,0,0,1,5.36,2.13A7,7,0,0,1,40.11,31.17Zm-1.07,0A5.77,5.77,0,0,0,37,27a6.9,6.9,0,0,0-4.41-1.61A6.53,6.53,0,0,0,28.13,27a5.79,5.79,0,0,0-2.07,4.22,5.92,5.92,0,0,0,1.85,4.46,7,7,0,0,0,4.64,1.85,6.62,6.62,0,0,0,4.64-1.84A6,6,0,0,0,39,31.17Z"/><path class="cls-7" d="M56.48,31.17a6.81,6.81,0,0,1-2.43,5,7.94,7.94,0,0,1-5.13,1.88,7.6,7.6,0,0,1-5.13-1.87,6.83,6.83,0,0,1-2.42-5,7,7,0,0,1,2.2-5.25,8.05,8.05,0,0,1,5.36-2.14,7.76,7.76,0,0,1,5.36,2.13A7,7,0,0,1,56.48,31.17Zm-1.07,0A5.73,5.73,0,0,0,53.33,27a6.89,6.89,0,0,0-4.4-1.61A6.51,6.51,0,0,0,44.51,27a5.84,5.84,0,0,0-2.08,4.22,5.93,5.93,0,0,0,1.86,4.46,7,7,0,0,0,4.63,1.85,6.64,6.64,0,0,0,4.65-1.84A5.91,5.91,0,0,0,55.41,31.17Z"/><path class="cls-13" d="M43.1,27.45a4.56,4.56,0,0,0-2.36-.65,4.63,4.63,0,0,0-2.37.65"/><path class="cls-14" d="M36.91,47.89a7.07,7.07,0,0,0,1.85,1.2,3.11,3.11,0,0,0,2,.23c.72-.19,1.47-.41,2.17-.66s1.42-.58,1.56-1.2h0a.19.19,0,0,1,.38,0,1.58,1.58,0,0,1-.64,1.14,5.74,5.74,0,0,1-1.06.62A18.26,18.26,0,0,1,41,50a3.56,3.56,0,0,1-2.47-.34,5.84,5.84,0,0,1-1.86-1.52.18.18,0,0,1,0-.26.18.18,0,0,1,.24,0Z"/><polygon class="cls-15" points="40.74 29.45 36.26 43.77 37.94 43.77 40.74 29.45"/><polygon class="cls-16" points="40.74 29.45 45.22 43.77 43.54 43.77 40.74 29.45"/><path class="cls-17" d="M40.74,45.46c2.47,0,4.47-.76,4.47-1.69h-9C36.26,44.7,38.26,45.46,40.74,45.46Z"/><polygon class="cls-18" points="40.74 29.45 37.94 43.77 43.54 43.77 40.74 29.45"/><path class="cls-4" d="M35.41,17.68c-2.9,4.71-6.92,8.52-9,8.52S25.06,22.39,28,17.68s6.92-8.51,9-8.51S38.32,13,35.41,17.68Z"/><polygon class="cls-19" points="27.12 67.11 32.27 83.03 36.26 79.95 40.74 82.14 27.8 66.51 27.12 67.11"/><polygon class="cls-19" points="54.35 67.11 49.2 83.03 45.21 79.95 40.74 82.14 53.67 66.51 54.35 67.11"/><path class="cls-19" d="M25.74,40.71a1,1,0,1,1-1-1A1,1,0,0,1,25.74,40.71Z"/><path class="cls-19" d="M57.78,40.71a1,1,0,1,1-1-1A1,1,0,0,1,57.78,40.71Z"/><path class="cls-20" d="M158.53,92.19c-4.54-17-16.78-31.25-48.85-31.25S65.37,75.14,60.82,92.19Z"/><path class="cls-21" d="M148.7,92.19c-3.44-17.83-13-32.88-39-32.88s-35.58,15-39,32.88Z"/><path class="cls-19" d="M109.68,58A40.9,40.9,0,0,0,95,62.92l.22.23c4.8,4.74,13.42,12.94,13.51,13l1,1Z"/><path class="cls-22" d="M109.68,73.78V40.3h-6.9c.73,4-2.46,16.6-5.92,22.3C100.91,66.21,107.59,72,109.68,73.78Z"/><path class="cls-19" d="M109.68,58a41,41,0,0,1,14.73,4.88l-.23.23c-4.79,4.74-13.42,12.94-13.5,13l-1,1Z"/><path class="cls-22" d="M109.68,73.78V40.3h6.9c-.73,4,2.46,16.6,5.91,22.3C118.45,66.21,111.76,72,109.68,73.78Z"/><path class="cls-23" d="M92.12,38.69c.23,3.43-.87,6.23-3,6.23s-4.47-2.77-4.7-6.2,1.31-6.22,3.44-6.23S91.9,35.25,92.12,38.69Z"/><path class="cls-24" d="M86.4,34.84a8.91,8.91,0,0,1,2.5,5.5"/><path class="cls-25" d="M129.13,39.93c0,11,3.07,25-19.86,25s-19.87-14-19.87-25S92,15.68,109.27,15.68,129.13,29,129.13,39.93Z"/><path class="cls-26" d="M100.51,17.58s-8.86,5-11,19.16c.31-9.59,3.9-16.68,7.66-19S100.51,17.58,100.51,17.58Z"/><path class="cls-26" d="M127.17,38.73l2-2.35c0-9.32,2.68-23.05-19.92-23.05-12.31,0-17.24,4-19.12,9.39,2.79-3.29,7.86-5.46,16.92-5.46C127,17.26,127.6,28.91,127.17,38.73Z"/><path class="cls-27" d="M127.23,38.69c-.23,3.43.88,6.23,3,6.23s4.47-2.77,4.69-6.2-1.31-6.22-3.43-6.23S127.46,35.25,127.23,38.69Z"/><path class="cls-24" d="M133,34.84a8.85,8.85,0,0,0-2.5,5.5"/><path class="cls-26" d="M109.27,50.68a13.38,13.38,0,0,1-6-1.29,2.8,2.8,0,0,0-.32,1.29,2.85,2.85,0,0,0,2.84,2.85,2.79,2.79,0,0,0,1.74-.61,2.79,2.79,0,0,0,3.48,0,2.78,2.78,0,0,0,1.73.61,2.85,2.85,0,0,0,2.85-2.85,2.8,2.8,0,0,0-.32-1.29A13.41,13.41,0,0,1,109.27,50.68Z"/><path class="cls-28" d="M114,44.91h-9.36a2.77,2.77,0,0,0,0,5.53H114a2.77,2.77,0,0,0,0-5.53Z"/><path class="cls-29" d="M114.74,46.75c0,3-2.45,4.29-5.47,4.29s-5.47-1.27-5.47-4.29,2.45-9,5.47-9S114.74,43.73,114.74,46.75Z"/><path class="cls-30" d="M117.5,55.22a9.49,9.49,0,0,1-7.88,4.19"/><path class="cls-26" d="M105.14,34.44s0,0,0-.07a1.4,1.4,0,0,0-.2-.41,3.82,3.82,0,0,0-3.61-2.1,6.74,6.74,0,0,0-4.92,2.66.67.67,0,0,0,0,.24s0,0,0,.06a1,1,0,0,0,0,.16s0,0,0,0h0a1.35,1.35,0,0,0,1.33.37c.85-.13,2.87-.9,3.74-.62s2.91.89,3.3.65a.81.81,0,0,0,.34-.51h0s0,0,0,0a.28.28,0,0,0,0-.09A.92.92,0,0,0,105.14,34.44Z"/><path class="cls-26" d="M122.19,34.76a.67.67,0,0,0,0-.24,6.74,6.74,0,0,0-4.92-2.66,3.85,3.85,0,0,0-3.62,2.1,1.66,1.66,0,0,0-.19.41.25.25,0,0,0,0,.07.92.92,0,0,0,0,.33.28.28,0,0,0,0,.09v0h0a.81.81,0,0,0,.34.51c.39.24,2.42-.37,3.3-.65s2.88.49,3.74.62a1.36,1.36,0,0,0,1.33-.37h0v0a.25.25,0,0,0,0-.15A.14.14,0,0,0,122.19,34.76Z"/><path class="cls-31" d="M98,38a18,18,0,0,1,5.44,0"/><path class="cls-31" d="M115.06,38a18,18,0,0,1,5.44,0"/><path class="cls-28" d="M101.53,50A22.64,22.64,0,0,0,99,53.53a24,24,0,0,1,1.94-3.94.38.38,0,1,1,.65.39l0,.05Z"/><path class="cls-28" d="M117.62,49.59a24,24,0,0,1,1.94,3.94A22.64,22.64,0,0,0,117,50h0a.38.38,0,0,1,.57-.49Z"/><path class="cls-32" d="M113.66,40.34a4.79,4.79,0,0,0-8.78,0h-10a5.31,5.31,0,0,0,10.62,0h0a4.22,4.22,0,0,1,7.56,0h0a5.31,5.31,0,1,0,10.62,0Z"/></g></g></svg>