<svg xmlns="http://www.w3.org/2000/svg" viewBox="0 0 84.91 78.85"><defs><style>.cls-1{fill:#141b4d;}.cls-2{fill:#ffaf1c;}</style></defs><title>Recurso 1</title><g id="Capa_2" data-name="Capa 2"><g id="Capa_1-2" data-name="Capa 1"><path class="cls-1" d="M77.13,3.89A3.89,3.89,0,0,1,81,7.78V52.87a3.89,3.89,0,0,1-3.89,3.89H7.78a3.89,3.89,0,0,1-3.89-3.89V7.78A3.89,3.89,0,0,1,7.78,3.89H77.13m0-3.89H7.78A7.78,7.78,0,0,0,0,7.78V52.87a7.78,7.78,0,0,0,7.78,7.78H77.13a7.78,7.78,0,0,0,7.78-7.78V7.78A7.78,7.78,0,0,0,77.13,0Z"/><path class="cls-1" d="M65,70.61a3.89,3.89,0,0,1,3.89,3.88V75H16v-.47a3.89,3.89,0,0,1,3.89-3.88H65m0-3.89H19.91a7.77,7.77,0,0,0-7.78,7.77v4.36H72.78V74.49A7.77,7.77,0,0,0,65,66.72Z"/><rect class="cls-2" x="12.13" y="12.13" width="60.65" height="36.39" transform="translate(84.91 60.65) rotate(180)"/></g></g></svg>