<svg xmlns="http://www.w3.org/2000/svg" viewBox="0 0 80 81.35"><defs><style>.cls-1{fill:#f8bf00;}</style></defs><g id="Capa_2" data-name="Capa 2"><g id="Capa_3" data-name="Capa 3"><path class="cls-1" d="M61,0H6.78A6.79,6.79,0,0,0,0,6.78V50.17a6.77,6.77,0,0,0,5.09,6.56l.67-2.62a4.08,4.08,0,0,1-3-3.94V6.78A4.07,4.07,0,0,1,6.78,2.71H61a4.07,4.07,0,0,1,4.06,4.07V8.14H67.8V6.78A6.79,6.79,0,0,0,61,0Z"/><rect class="cls-1" x="5.42" y="5.42" width="2.71" height="2.71"/><rect class="cls-1" x="10.85" y="5.42" width="2.71" height="2.71"/><rect class="cls-1" x="16.27" y="5.42" width="2.71" height="2.71"/><path class="cls-1" d="M79.6,75,66.74,62.11a18,18,0,0,0,1.61-3.81h2.16V55.59H68.93a18.21,18.21,0,0,0-1.13-9.71V32.54H65.08v8.64a18.54,18.54,0,0,0-2.71-2.82V27.12H59.66v9.35A18.22,18.22,0,0,0,57,35.17V21.69H54.24V34.35A17.81,17.81,0,0,0,51.52,34V24.41H48.81V34a17.68,17.68,0,0,0-2.71.38V29.83H43.39v5.34a18.22,18.22,0,0,0-2.71,1.3v-8H38v9.89a19.1,19.1,0,0,0-2.72,2.82v-10H32.54V45.88a18.31,18.31,0,0,0-1.14,9.71H13.56V58.3H32A18.93,18.93,0,0,0,55.53,71.08a18.65,18.65,0,0,0,5.53-2.68L73.62,81a1.35,1.35,0,0,0,1.91,0l4.07-4.07A1.36,1.36,0,0,0,79.6,75ZM50.17,69.15A16.27,16.27,0,1,1,66.44,52.88,16.29,16.29,0,0,1,50.17,69.15Zm24.4,8.93-11.4-11.4a19.82,19.82,0,0,0,2-2.26L76.73,75.93Z"/><path class="cls-1" d="M50.17,39.32A13.56,13.56,0,1,0,63.73,52.88,13.56,13.56,0,0,0,50.17,39.32Zm0,24.41a10.84,10.84,0,0,1-9.38-5.43H59.55A10.85,10.85,0,0,1,50.17,63.73ZM39.68,55.59a10.73,10.73,0,0,1,3.71-11.16v8.45H46.1V42.83a10.6,10.6,0,0,1,2.71-.7V52.88h2.71V42.13a10.57,10.57,0,0,1,2.72.7V52.88H57V44.43a10.75,10.75,0,0,1,3.71,11.16Z"/><path class="cls-1" d="M69.15,10.85H14.91a6.77,6.77,0,0,0-6.77,6.78V61a6.78,6.78,0,0,0,6.77,6.78H32.54V65.08H14.91A4.06,4.06,0,0,1,10.85,61V17.63a4.07,4.07,0,0,1,4.06-4.07H69.15a4.07,4.07,0,0,1,4.07,4.07V61a4.06,4.06,0,0,1-1,2.69l2,1.79A6.78,6.78,0,0,0,75.93,61V17.63A6.78,6.78,0,0,0,69.15,10.85Z"/><rect class="cls-1" x="13.56" y="16.27" width="2.71" height="2.71"/><rect class="cls-1" x="18.98" y="16.27" width="2.71" height="2.71"/><rect class="cls-1" x="24.41" y="16.27" width="2.71" height="2.71"/><rect class="cls-1" x="16.27" y="44.74" width="2.71" height="8.14"/><rect class="cls-1" x="21.69" y="36.61" width="2.71" height="16.27"/><rect class="cls-1" x="27.12" y="40.68" width="2.71" height="12.2"/></g></g></svg>