<svg xmlns="http://www.w3.org/2000/svg" viewBox="0 0 100.8 78.96"><defs><style>.cls-1{fill:#fff;}</style></defs><g id="Capa_2" data-name="Capa 2"><g id="Capa_3" data-name="Capa 3"><path class="cls-1" d="M70.56,0a6.72,6.72,0,0,0-6.72,6.72V7.93L24.58,23.64a1.68,1.68,0,0,0-1.06,1.56V48.72a1.68,1.68,0,0,0,1.06,1.56L63.84,66V67.2a6.72,6.72,0,0,0,13.44,0V6.72A6.72,6.72,0,0,0,70.56,0Zm3.36,67.2a3.36,3.36,0,0,1-6.72,0V64.85a1.67,1.67,0,0,0-1.06-1.56L26.88,47.58V26.34L66.14,10.63A1.67,1.67,0,0,0,67.2,9.07V6.72a3.36,3.36,0,0,1,6.72,0Z"/><path class="cls-1" d="M25.2,23.52H13.44a13.44,13.44,0,0,0,0,26.88H25.2a1.68,1.68,0,0,0,1.68-1.68V25.2A1.68,1.68,0,0,0,25.2,23.52ZM23.52,47H13.44a10.08,10.08,0,0,1,0-20.16H23.52Z"/><path class="cls-1" d="M86.21,30.33,76.13,27a1.68,1.68,0,0,0-2.21,1.59v16.8A1.69,1.69,0,0,0,75.6,47a1.6,1.6,0,0,0,.53-.09l10.08-3.36A1.67,1.67,0,0,0,87.36,42V31.92A1.68,1.68,0,0,0,86.21,30.33ZM84,40.79,77.28,43V30.89L84,33.13Z"/><path class="cls-1" d="M33.44,69.71,31.76,68,26.83,48.31A1.69,1.69,0,0,0,25.2,47H11.76a1.7,1.7,0,0,0-1.32.64,1.68,1.68,0,0,0-.32,1.42l6.72,28.57A1.69,1.69,0,0,0,18.48,79l.32,0,12.61-2.44h.05a4,4,0,0,0,3.15-3.91A4,4,0,0,0,33.44,69.71ZM31.06,73a.7.7,0,0,1-.31.18l-11,2.12L13.88,50.4h10l4.72,18.89a1.84,1.84,0,0,0,.44.78l2,2a.68.68,0,0,1,.2.47A.71.71,0,0,1,31.06,73Z"/><rect class="cls-1" x="90.72" y="35.28" width="10.08" height="3.36"/><rect class="cls-1" x="90.02" y="17.64" width="9.8" height="3.36" transform="translate(3.59 51.6) rotate(-30.97)"/><rect class="cls-1" x="93.25" y="49.7" width="3.36" height="9.8" transform="translate(-0.73 107.91) rotate(-59.04)"/><rect class="cls-1" x="63.84" y="8.4" width="3.36" height="57.12"/><rect class="cls-1" x="16.8" y="30.24" width="3.36" height="6.72"/><rect class="cls-1" x="10.08" y="30.24" width="3.36" height="6.72"/></g></g></svg>