<svg xmlns="http://www.w3.org/2000/svg" viewBox="0 0 75.69 61.81"><defs><style>.cls-1{fill:#f8bf00;}</style></defs><g id="Capa_2" data-name="Capa 2"><g id="Capa_3" data-name="Capa 3"><path class="cls-1" d="M72.52,20.18h-4.4v-7.9a3.46,3.46,0,0,0-3.45-3.45H33.45L27.14,0H3.45A3.46,3.46,0,0,0,0,3.45V58.56H0a3.13,3.13,0,0,0,.66,2,3.19,3.19,0,0,0,2.57,1.27H59.7a3.2,3.2,0,0,0,3.09-2.29l12.9-35.36v-.23C75.69,21.76,74.36,20.18,72.52,20.18ZM2.52,3.45a.93.93,0,0,1,.93-.93H25.84l6.31,8.83H64.67a.93.93,0,0,1,.92.93v7.9H16.06a3.29,3.29,0,0,0-.54.05A3.16,3.16,0,0,0,13,22.47L2.52,51ZM60.38,58.76a.71.71,0,0,1-.68.53H3.24A.72.72,0,0,1,2.67,59a.66.66,0,0,1-.15-.52L15.37,23.23a.71.71,0,0,1,.69-.52H72.52c.48,0,.6.69.63,1Z"/></g></g></svg>