<svg xmlns="http://www.w3.org/2000/svg" viewBox="0 0 29.24 29.24"><defs><style>.cls-1{fill:#fff;}</style></defs><g id="Capa_2" data-name="Capa 2"><g id="Capa_3" data-name="Capa 3"><path class="cls-1" d="M21.59,0H7.65A7.67,7.67,0,0,0,0,7.65V21.59a7.67,7.67,0,0,0,7.65,7.65H21.59a7.67,7.67,0,0,0,7.65-7.65V7.65A7.67,7.67,0,0,0,21.59,0Zm1.18,9.63a.44.44,0,0,1-.09.25,6.12,6.12,0,0,1-1.27,1.32c-.08.06-.2.12-.2.22a9.83,9.83,0,0,1-2.59,7.17,9.64,9.64,0,0,1-9.37,2.19,8.58,8.58,0,0,1-1.81-.73,6.32,6.32,0,0,1-.56-.33s-.08-.07,0-.1.07,0,.21,0a6.4,6.4,0,0,0,2.71-.34,4.19,4.19,0,0,0,1.79-1l0,0c-.12,0-.24,0-.36,0A3.51,3.51,0,0,1,8.6,16.07c0-.08,0-.13.09-.11a3.51,3.51,0,0,0,1.24,0,1.57,1.57,0,0,1-.42-.13,3.38,3.38,0,0,1-2.08-2.68c0-.14,0-.26,0-.38s0-.12.13-.07A3.31,3.31,0,0,0,8.8,13c-.14-.11-.27-.24-.4-.36a3.32,3.32,0,0,1-.57-3.93c.07-.1.11-.1.18,0a10.24,10.24,0,0,0,6.57,3.34c.07,0,.08,0,.07-.07a3.56,3.56,0,0,1,0-1.38,3.54,3.54,0,0,1,.65-1.3,3.44,3.44,0,0,1,1.09-.88A3.56,3.56,0,0,1,17.77,8a3.29,3.29,0,0,1,1.42.23,3.37,3.37,0,0,1,.92.57,1.37,1.37,0,0,1,.17.17.13.13,0,0,0,.13,0,8.55,8.55,0,0,0,1.92-.73.06.06,0,0,1,.08,0s0,0,0,.08a3,3,0,0,1-.54,1c-.15.19-.53.66-.79.7a6.57,6.57,0,0,0,1.61-.46c.06,0,.07,0,.07,0Z"/></g></g></svg>