<svg xmlns="http://www.w3.org/2000/svg" viewBox="0 0 29.24 29.24"><defs><style>.cls-1{fill:#fff;}</style></defs><g id="Capa_2" data-name="Capa 2"><g id="Capa_3" data-name="Capa 3"><path class="cls-1" d="M17,14.48l-3.85-2.09c-.16-.09-.7,0-.7.2v4.09c0,.18.54.29.69.21l4-2C17.33,14.81,17.16,14.57,17,14.48Z"/><path class="cls-1" d="M29.24,7.65A7.67,7.67,0,0,0,21.59,0H7.65A7.67,7.67,0,0,0,0,7.65V21.59a7.67,7.67,0,0,0,7.65,7.65H21.59a7.67,7.67,0,0,0,7.65-7.65Zm-6.79,9a3.51,3.51,0,0,1-3.51,3.51H10a3.51,3.51,0,0,1-3.51-3.51V12.5A3.52,3.52,0,0,1,10,9h9a3.52,3.52,0,0,1,3.51,3.52Z"/></g></g></svg>