<svg xmlns="http://www.w3.org/2000/svg" viewBox="0 0 19.41 27.14"><defs><style>.cls-1{fill:#fff;}.cls-2{fill:#161b4e;}</style></defs><g id="Capa_2" data-name="Capa 2"><g id="Capa_1-2" data-name="Capa 1"><path class="cls-1" d="M6.94,4.18h5.53a.87.87,0,0,0,.87-.88V1.87H6.07V3.3A.87.87,0,0,0,6.94,4.18Z"/><path class="cls-1" d="M17.56,1.87H13.84V3.3a1.37,1.37,0,0,1-1.37,1.38H6.94A1.37,1.37,0,0,1,5.57,3.3V1.87H1.85A1.85,1.85,0,0,0,0,3.72V25.29a1.85,1.85,0,0,0,1.85,1.85H17.56a1.85,1.85,0,0,0,1.85-1.85V3.72A1.85,1.85,0,0,0,17.56,1.87Z"/><rect class="cls-2" x="5.49" y="8.1" width="8.42" height="8.43" rx="2.11"/><path class="cls-2" d="M16,21.5V19.39a2.1,2.1,0,0,0-2.1-2.1H5.49a2.11,2.11,0,0,0-2.11,2.1V21.5Z"/><rect class="cls-1" x="6.07" width="7.27" height="4.18" rx="0.87"/></g></g></svg>