<svg xmlns="http://www.w3.org/2000/svg" xmlns:xlink="http://www.w3.org/1999/xlink" viewBox="0 0 192.7 186.13"><defs><style>.cls-1{fill:#ff961c;}.cls-2{fill:#ce8072;}.cls-3{fill:url(#Degradado_sin_nombre_5);}.cls-4{fill:url(#linear-gradient);}.cls-5{fill:none;stroke:#bf8072;stroke-linecap:round;stroke-miterlimit:10;stroke-width:0.87px;}.cls-6{fill:#d59e80;}.cls-7{fill:#1d1d1b;}.cls-8{fill:#4c1d1b;}.cls-9{fill:#bf8072;}.cls-10{fill:url(#Degradado_sin_nombre_12);}.cls-11{fill:url(#Degradado_sin_nombre_5-2);}.cls-12{fill:#d68000;}</style><linearGradient id="Degradado_sin_nombre_5" x1="56.95" y1="55.04" x2="65.44" y2="53.34" gradientUnits="userSpaceOnUse"><stop offset="0" stop-color="#d6a98e"/><stop offset="1" stop-color="#d08080"/></linearGradient><linearGradient id="linear-gradient" x1="137.77" y1="55.1" x2="128.39" y2="53.66" xlink:href="#Degradado_sin_nombre_5"/><linearGradient id="Degradado_sin_nombre_12" x1="93.45" y1="50" x2="93.45" y2="71.03" gradientUnits="userSpaceOnUse"><stop offset="0" stop-color="#d7b292"/><stop offset="0.99" stop-color="#d39480"/></linearGradient><linearGradient id="Degradado_sin_nombre_5-2" x1="99.24" y1="49.19" x2="99.24" y2="70.24" xlink:href="#Degradado_sin_nombre_5"/></defs><title>Recurso 2</title><g id="Capa_2" data-name="Capa 2"><g id="Capa_1-2" data-name="Capa 1"><path class="cls-1" d="M140.86,123.09a25.77,25.77,0,0,1-6.88-7.38c-7,15.84-21.23,26-37.63,26s-30.62-10.13-37.63-26a25.8,25.8,0,0,1-6.89,7.38C33.15,136,5.56,130.76,0,186.13H192.7C187.13,130.76,159.55,136,140.86,123.09Z"/><path class="cls-2" d="M134,115.71c-11.12-17.34-9.26-49.15-9.26-49.15L96.35,66,68,66.56s1.85,31.81-9.26,49.15c7,15.84,21.23,26,37.63,26S127,131.55,134,115.71Z"/><path class="cls-3" d="M69.69,53.93c.46,7-1.77,12.63-6.08,12.63S54.56,61,54.1,54s2.65-12.62,7-12.64S69.23,47,69.69,53.93Z"/><path class="cls-4" d="M123,53.93c-.47,7,1.77,12.63,6.08,12.63s9-5.6,9.51-12.56-2.65-12.62-7-12.64S123.47,47,123,53.93Z"/><path class="cls-5" d="M58.08,46.13a18,18,0,0,1,5.07,11.16"/><path class="cls-5" d="M134.62,46.13a17.94,17.94,0,0,0-5.07,11.16"/><path class="cls-6" d="M127.69,52.06c0,25.41-10.75,52.38-31.34,52.38S65,77.47,65,52.06,70.78,4.64,96.35,4.64,127.69,26.64,127.69,52.06Z"/><path class="cls-7" d="M84.57,50.38a3.27,3.27,0,1,1-3.27-3.27A3.27,3.27,0,0,1,84.57,50.38Z"/><path class="cls-8" d="M89.35,38.13A7.77,7.77,0,0,0,82,33.89c-5,.13-9.49,4.11-10,5.37s1,2,2.77,1.74,5.82-1.82,7.59-1.26,5.9,1.8,6.68,1.31S90.22,39.4,89.35,38.13Z"/><path class="cls-7" d="M108.13,50.38a3.27,3.27,0,1,0,3.27-3.27A3.26,3.26,0,0,0,108.13,50.38Z"/><path class="cls-8" d="M103.34,38.13a7.78,7.78,0,0,1,7.33-4.24c5,.13,9.5,4.11,10,5.37s-1.05,2-2.78,1.74-5.81-1.82-7.59-1.26-5.9,1.8-6.68,1.31S102.48,39.4,103.34,38.13Z"/><path class="cls-9" d="M83.94,78A25.2,25.2,0,0,0,90,80.55a21.08,21.08,0,0,0,3.22.56A14.43,14.43,0,0,0,96.48,81c2.19-.35,4.45-.78,6.62-1.27a23.53,23.53,0,0,0,3.2-.88c1-.35,2.06-.86,2.28-1.64l0,0a.42.42,0,0,1,.53-.29.43.43,0,0,1,.31.46A2.61,2.61,0,0,1,108.35,79a8,8,0,0,1-1.58.93,24.52,24.52,0,0,1-3.31,1.15c-1.11.32-2.24.56-3.36.8s-2.21.48-3.39.64a16,16,0,0,1-7.06-.64,20.19,20.19,0,0,1-6.22-3.2.44.44,0,0,1-.08-.61.44.44,0,0,1,.56-.11Z"/><path class="cls-8" d="M96.35,14c24.59,0,30.87,18.43,31.31,40.31,0-.77,0-1.53,0-2.29,0-25.42-5.77-47.42-31.34-47.42S65,26.64,65,52.06c0,.76,0,1.52,0,2.29C65.48,32.47,71.76,14,96.35,14Z"/><path class="cls-8" d="M120.74,0s-1.92,14-24.39,14V4.64S117.29,6.86,120.74,0Z"/><path class="cls-10" d="M96.35,50.17c-2.57,0-3.27,5.76-3.27,11.16s-7.46,9.77,3.27,9.77Z"/><path class="cls-11" d="M96.35,50.17c2.57,0,3.26,5.76,3.26,11.16s7.46,9.77-3.26,9.77Z"/><path class="cls-1" d="M29.46,133.75c1.16,10,3.42,31.34,4.12,52.38H159.12c.7-21,2.95-42.4,4.12-52.38-7.65-3.66-15.6-6-22.38-10.66a25.77,25.77,0,0,1-6.88-7.38c-7,15.84-21.23,26-37.63,26s-30.62-10.13-37.64-26a25.63,25.63,0,0,1-6.88,7.38C45.05,127.79,37.11,130.09,29.46,133.75Z"/><polygon class="cls-12" points="27 186.13 32.08 160.43 33.58 186.13 27 186.13"/><polygon class="cls-12" points="165.7 186.13 160.63 160.43 159.12 186.13 165.7 186.13"/></g></g></svg>