<svg xmlns="http://www.w3.org/2000/svg" viewBox="0 0 278.02 112.27"><defs><style>.cls-1{fill:#013f7a;}</style></defs><title>Recurso 4</title><g id="Capa_2" data-name="Capa 2"><g id="Capa_1-2" data-name="Capa 1"><path class="cls-1" d="M168,57.15s-5.15,7.45-8.45,10.17h0A31.79,31.79,0,0,1,138,75.94c-12,0-23.49-13.92-23.49-31.08S122.16,13.77,138,13.77c9.32,0,19.15,8.62,24,21.78l12.85-2.79L170.61,17a44.84,44.84,0,1,0,5.75,46.29Z"/><path class="cls-1" d="M154.93,10.6l1.86-8.94h9.87L174.1,30s-15.63-9.67-15.82-10.79S154.93,10.6,154.93,10.6Z"/><rect class="cls-1" x="16.45" y="1.66" width="19.31" height="86.22"/><rect class="cls-1" x="5.21" y="1.66" width="68.34" height="12.48"/><path class="cls-1" d="M12.27,11.71v2.42a4.18,4.18,0,0,1,4.18,4.18h8.22v-6.6Z"/><path class="cls-1" d="M12.27,78V75.62a4.18,4.18,0,0,0,4.18-4.17h8.22V78Z"/><path class="cls-1" d="M39.93,78V75.62a4.17,4.17,0,0,1-4.17-4.17H27.53V78Z"/><rect class="cls-1" x="5.44" y="75.62" width="40.95" height="12.25"/><rect class="cls-1" x="26.1" y="38.58" width="34.05" height="13.69"/><rect class="cls-1" x="50.51" y="26.42" width="9.64" height="38.13"/><path class="cls-1" d="M50.51,33.9a4.68,4.68,0,0,1-4.68,4.68v2h7.68V33.9Z"/><path class="cls-1" d="M50.51,56.93a4.68,4.68,0,0,0-4.68-4.68v-2h7.68v6.63Z"/><path class="cls-1" d="M63.08,5.75,73.56,1.66,85.85,29.22,75.37,32.71S68.25,15,53.51,15C61.53,7,63.08,5.75,63.08,5.75Z"/><rect class="cls-1" x="195.14" y="1.66" width="19.55" height="86.22"/><rect class="cls-1" x="184.73" y="75.4" width="40.6" height="12.48"/><rect class="cls-1" x="251.62" y="75.4" width="26.4" height="12.48"/><rect class="cls-1" x="184.73" y="1.66" width="56.84" height="14.15"/><path class="cls-1" d="M241.57,1.66h-6.72V15.81h0c7,0,12.72,5.15,12.72,11.51s-5.7,11.5-12.72,11.5H213.15V49.24h28.42c15.09,0,27.33-10.65,27.33-23.79S256.66,1.66,241.57,1.66Z"/><polygon class="cls-1" points="268.9 81.64 268.9 75.4 239.61 43.74 218.25 43.74 251.62 87.88 268.9 81.64"/><rect class="cls-1" y="104.45" width="278.02" height="7.82"/></g></g></svg>