<svg xmlns="http://www.w3.org/2000/svg" viewBox="0 0 153.26 61.89"><defs><style>.cls-1{fill:#fff;}</style></defs><title>Recurso 5</title><g id="Capa_2" data-name="Capa 2"><g id="Capa_1-2" data-name="Capa 1"><path class="cls-1" d="M92.59,31.5a37.31,37.31,0,0,1-4.66,5.61h0a17.47,17.47,0,0,1-11.83,4.75c-6.59,0-13-7.67-13-17.13s4.21-17.14,13-17.14c5.13,0,10.55,4.75,13.22,12l7.08-1.54L94.05,9.37a24.73,24.73,0,1,0,3.17,25.52Z"/><path class="cls-1" d="M85.41,5.84l1-4.93h5.44L96,16.51s-8.61-5.33-8.72-6S85.41,5.84,85.41,5.84Z"/><rect class="cls-1" x="9.07" y="0.91" width="10.64" height="47.53"/><rect class="cls-1" x="2.87" y="0.91" width="37.67" height="6.88"/><path class="cls-1" d="M6.77,6.46V7.79a2.3,2.3,0,0,1,2.3,2.3H13.6V6.46Z"/><path class="cls-1" d="M6.77,43V41.69a2.3,2.3,0,0,0,2.3-2.3H13.6V43Z"/><path class="cls-1" d="M22,43V41.69a2.3,2.3,0,0,1-2.3-2.3H15.18V43Z"/><rect class="cls-1" x="3" y="41.69" width="22.57" height="6.76"/><rect class="cls-1" x="14.39" y="21.27" width="18.77" height="7.55"/><rect class="cls-1" x="27.84" y="14.57" width="5.31" height="21.02"/><path class="cls-1" d="M27.84,18.69a2.58,2.58,0,0,1-2.58,2.58v1.07H29.5V18.69Z"/><path class="cls-1" d="M27.84,31.38a2.57,2.57,0,0,0-2.58-2.57V27.73H29.5v3.65Z"/><path class="cls-1" d="M34.77,3.17,40.55.91l6.77,15.2L41.55,18s-3.93-9.76-12-9.76C33.92,3.86,34.77,3.17,34.77,3.17Z"/><rect class="cls-1" x="107.57" y="0.91" width="10.78" height="47.53"/><rect class="cls-1" x="101.83" y="41.56" width="22.38" height="6.88"/><rect class="cls-1" x="138.7" y="41.56" width="14.55" height="6.88"/><rect class="cls-1" x="101.83" y="0.91" width="31.33" height="7.8"/><path class="cls-1" d="M133.17.91h-3.71v7.8h0c3.88,0,7,2.84,7,6.34s-3.14,6.34-7,6.34h-12v5.75h15.67c8.31,0,15.06-5.87,15.06-13.11S141.48.91,133.17.91Z"/><polygon class="cls-1" points="148.23 45 148.23 41.56 132.09 24.11 120.31 24.11 138.7 48.44 148.23 45"/><rect class="cls-1" y="57.58" width="153.26" height="4.31"/></g></g></svg>