<svg xmlns="http://www.w3.org/2000/svg" xmlns:xlink="http://www.w3.org/1999/xlink" viewBox="0 0 858.15 223.32"><defs><style>.cls-1{fill:#ff9b1c;}.cls-2{fill:#d38072;}.cls-3{fill:url(#Degradado_sin_nombre_2);}.cls-4{fill:url(#linear-gradient);}.cls-5{fill:none;stroke:#c48072;stroke-linecap:round;stroke-miterlimit:10;stroke-width:0.53px;}.cls-6{fill:#daa380;}.cls-7{fill:#1d1d1b;}.cls-8{fill:#4c1d1b;}.cls-9{fill:#c48072;}.cls-10{fill:url(#Degradado_sin_nombre_5);}.cls-11{fill:url(#Degradado_sin_nombre_2-2);}.cls-12{fill:#db8000;}.cls-13{fill:#94bfdd;}.cls-14{fill:#6da5d3;}.cls-15{fill:#c8e3ff;}.cls-16{fill:#94c0e0;}.cls-17{fill:#cfe3ff;}.cls-18{fill:#c9e4ff;}.cls-19{fill:#96bfe2;}.cls-20{fill:#93c1e2;}.cls-21{fill:#cbe3ff;}.cls-22,.cls-23,.cls-25{fill:#fff;}.cls-23{font-size:51.89px;font-family:Helvetica-Bold, Helvetica;font-weight:700;}.cls-24{fill:#141b4d;}.cls-25{font-size:22.15px;font-family:Helvetica;}.cls-26{letter-spacing:-0.05em;}.cls-27{letter-spacing:-0.11em;}</style><linearGradient id="Degradado_sin_nombre_2" x1="64.83" y1="98.64" x2="70.06" y2="97.59" gradientUnits="userSpaceOnUse"><stop offset="0" stop-color="#dbae93"/><stop offset="1" stop-color="#d58480"/></linearGradient><linearGradient id="linear-gradient" x1="114.62" y1="98.67" x2="108.84" y2="97.79" xlink:href="#Degradado_sin_nombre_2"/><linearGradient id="Degradado_sin_nombre_5" x1="87.32" y1="95.53" x2="87.32" y2="108.49" gradientUnits="userSpaceOnUse"><stop offset="0" stop-color="#dcb797"/><stop offset="0.99" stop-color="#d89980"/></linearGradient><linearGradient id="Degradado_sin_nombre_2-2" x1="90.88" y1="95.03" x2="90.88" y2="108" xlink:href="#Degradado_sin_nombre_2"/></defs><title>Recurso 1</title><g id="Capa_2" data-name="Capa 2"><g id="Layer_1" data-name="Layer 1"><path class="cls-1" d="M116.53,140.56a15.68,15.68,0,0,1-4.24-4.55c-4.33,9.76-13.08,16-23.19,16s-18.86-6.24-23.18-16a16,16,0,0,1-4.24,4.55c-11.52,8-28.51,4.72-31.93,38.84H148.46C145,145.28,128,148.54,116.53,140.56Z"/><path class="cls-2" d="M112.29,136c-6.86-10.68-5.71-30.27-5.71-30.27L89.1,105.4l-17.48.34s1.15,19.59-5.7,30.27c4.32,9.76,13.08,16,23.18,16S108,145.77,112.29,136Z"/><path class="cls-3" d="M72.68,98c.28,4.29-1.09,7.79-3.75,7.79s-5.57-3.46-5.86-7.75,1.64-7.77,4.29-7.78S72.39,93.66,72.68,98Z"/><path class="cls-4" d="M105.53,98c-.29,4.29,1.09,7.79,3.74,7.79s5.58-3.46,5.86-7.75-1.63-7.77-4.29-7.78S105.81,93.66,105.53,98Z"/><path class="cls-5" d="M65.52,93.14A11.1,11.1,0,0,1,68.65,100"/><path class="cls-5" d="M112.68,93.14a11.16,11.16,0,0,0-3.13,6.88"/><path class="cls-6" d="M108.41,96.8c0,15.66-6.62,32.27-19.31,32.27S69.79,112.46,69.79,96.8,73.35,67.59,89.1,67.59,108.41,81.14,108.41,96.8Z"/><path class="cls-7" d="M81.85,95.76a2,2,0,1,1-2-2A2,2,0,0,1,81.85,95.76Z"/><path class="cls-8" d="M84.79,88.22a4.78,4.78,0,0,0-4.51-2.62c-3.08.08-5.85,2.54-6.15,3.32s.64,1.23,1.71,1.06,3.58-1.12,4.68-.77,3.63,1.11,4.11.81A1.22,1.22,0,0,0,84.79,88.22Z"/><path class="cls-7" d="M96.36,95.76a2,2,0,1,0,2-2A2,2,0,0,0,96.36,95.76Z"/><path class="cls-8" d="M93.41,88.22a4.78,4.78,0,0,1,4.52-2.62c3.07.08,5.85,2.54,6.14,3.32s-.64,1.23-1.71,1.06-3.58-1.12-4.67-.77-3.64,1.11-4.12.81A1.22,1.22,0,0,1,93.41,88.22Z"/><path class="cls-9" d="M81.45,112.79l.62.34a17,17,0,0,0,1.69.75c.36.15.76.25,1.17.39s.88.18,1.34.3,1,.08,1.44.14a12.12,12.12,0,0,0,1.47-.11c.49,0,1-.16,1.53-.25l1.48-.28c1-.21,1.84-.38,2.57-.62a8.41,8.41,0,0,0,.95-.35,2.57,2.57,0,0,0,.62-.38.87.87,0,0,0,.31-.44l.52.1h0a1.45,1.45,0,0,1-.39.8,4.71,4.71,0,0,1-1.76,1,20.27,20.27,0,0,1-2.63.77l-1.5.32a14.89,14.89,0,0,1-1.56.28,11.54,11.54,0,0,1-1.65.08,13.15,13.15,0,0,1-1.58-.18,12.66,12.66,0,0,1-1.42-.39c-.43-.17-.86-.3-1.22-.48a13.2,13.2,0,0,1-1.71-1c-.4-.27-.6-.43-.6-.43a.27.27,0,0,1,.3-.44Z"/><path class="cls-8" d="M89.1,73.38c15.15,0,19,11.35,19.29,24.83,0-.47,0-.94,0-1.41,0-15.66-3.55-29.21-19.31-29.21S69.79,81.14,69.79,96.8c0,.47,0,.94,0,1.41C70.09,84.73,74,73.38,89.1,73.38Z"/><path class="cls-8" d="M104.13,64.73s-1.18,8.65-15,8.65V67.59S102,69,104.13,64.73Z"/><path class="cls-10" d="M89.1,95.64c-1.58,0-2,3.55-2,6.87s-4.59,6,2,6Z"/><path class="cls-11" d="M89.1,95.64c1.58,0,2,3.55,2,6.87s4.6,6-2,6Z"/><path class="cls-1" d="M47.9,147.13c.71,6.14,2.1,19.31,2.53,32.27h77.34c.43-13,1.82-26.13,2.54-32.27-4.71-2.26-9.61-3.68-13.78-6.57a15.68,15.68,0,0,1-4.24-4.55c-4.33,9.76-13.08,16-23.19,16s-18.86-6.24-23.18-16a16,16,0,0,1-4.24,4.55C57.5,143.45,52.6,144.87,47.9,147.13Z"/><polygon class="cls-12" points="46.38 179.4 49.51 163.56 50.43 179.4 46.38 179.4"/><polygon class="cls-12" points="131.83 179.4 128.7 163.56 127.77 179.4 131.83 179.4"/><rect class="cls-13" x="301.05" y="112.16" width="16.88" height="55.22"/><rect class="cls-14" x="297.85" y="103.95" width="23.28" height="8.21"/><rect class="cls-14" x="297.85" y="167.38" width="23.28" height="4.11"/><rect class="cls-15" x="303.77" y="117.28" width="4.06" height="45.37" rx="1.29"/><rect class="cls-15" x="311.15" y="117.28" width="4.06" height="45.37" rx="1.29"/><rect class="cls-13" x="334.62" y="112.16" width="16.88" height="55.22"/><rect class="cls-14" x="331.42" y="103.95" width="23.27" height="8.21"/><rect class="cls-14" x="331.42" y="167.38" width="23.27" height="4.11"/><rect class="cls-15" x="337.35" y="117.28" width="4.06" height="45.37" rx="1.29"/><rect class="cls-15" x="344.72" y="117.28" width="4.06" height="45.37" rx="1.29"/><rect class="cls-13" x="267.48" y="112.16" width="16.89" height="55.22"/><rect class="cls-14" x="264.28" y="103.95" width="23.28" height="8.21"/><rect class="cls-14" x="264.28" y="167.38" width="23.28" height="4.11"/><rect class="cls-15" x="270.2" y="117.28" width="4.06" height="45.37" rx="1.29"/><rect class="cls-15" x="277.58" y="117.28" width="4.06" height="45.37" rx="1.29"/><rect class="cls-13" x="233.91" y="112.16" width="16.88" height="55.22"/><rect class="cls-14" x="230.71" y="103.95" width="23.27" height="8.21"/><rect class="cls-14" x="230.71" y="167.38" width="23.27" height="4.11"/><rect class="cls-15" x="236.63" y="117.28" width="4.06" height="45.37" rx="1.29"/><rect class="cls-15" x="244.01" y="117.28" width="4.06" height="45.37" rx="1.29"/><rect class="cls-16" x="223.11" y="98.32" width="139.19" height="5.63"/><rect class="cls-17" x="223.11" y="95.85" width="139.19" height="2.46"/><rect class="cls-18" x="223.11" y="171.49" width="139.19" height="2.59"/><rect class="cls-19" x="223.11" y="174.07" width="139.19" height="5.32"/><polygon class="cls-20" points="355.15 95.85 230.26 95.85 230.26 87.06 292.71 67.59 355.15 87.06 355.15 95.85"/><polygon class="cls-21" points="332.46 85.11 292.83 72.86 252.95 85.11 252.95 90.99 332.46 90.99 332.46 85.11"/><path class="cls-14" d="M287.54,85.7a2.16,2.16,0,0,0,.42,1.12,2.4,2.4,0,0,0,2,.68,4.13,4.13,0,0,0,1.34-.18,1.28,1.28,0,0,0,1-1.27.94.94,0,0,0-.48-.84,5.28,5.28,0,0,0-1.52-.51L289,84.44a7.4,7.4,0,0,1-2.39-.84,2.66,2.66,0,0,1-1.11-2.37,3.15,3.15,0,0,1,1.08-2.44,4.6,4.6,0,0,1,3.18-1,4.89,4.89,0,0,1,3,.91,3.29,3.29,0,0,1,1.3,2.67h-2.2A1.58,1.58,0,0,0,291,80a3.05,3.05,0,0,0-1.36-.27,2.62,2.62,0,0,0-1.45.36,1.11,1.11,0,0,0-.54,1,1,1,0,0,0,.54.88,6.41,6.41,0,0,0,1.45.45l1.92.45a4.78,4.78,0,0,1,1.89.8,2.65,2.65,0,0,1,1,2.23,3.12,3.12,0,0,1-1.16,2.49,4.88,4.88,0,0,1-3.27,1,5.37,5.37,0,0,1-3.4-1,3.23,3.23,0,0,1-1.24-2.69Z"/><path class="cls-14" d="M298.29,77.8h1.76l-4.26,11.28h-1.74Z"/><path class="cls-22" d="M534,135.85s-3.17,4.59-5.21,6.26h0a19.54,19.54,0,0,1-13.23,5.31c-7.36,0-14.48-8.58-14.48-19.16s4.71-19.14,14.48-19.14c5.74,0,11.79,5.3,14.78,13.41l7.91-1.72-2.61-9.71a27.63,27.63,0,1,0,3.54,28.52Z"/><path class="cls-22" d="M526,107.17l1.15-5.51h6.08l4.58,17.43s-9.63-6-9.75-6.64S526,107.17,526,107.17Z"/><rect class="cls-22" x="440.67" y="101.66" width="11.9" height="53.12"/><rect class="cls-22" x="433.75" y="101.66" width="42.1" height="7.69"/><path class="cls-22" d="M438.1,107.86v1.49a2.57,2.57,0,0,1,2.57,2.57h5.07v-4.06Z"/><path class="cls-22" d="M438.1,148.72v-1.49a2.57,2.57,0,0,0,2.57-2.57h5.07v4.06Z"/><path class="cls-22" d="M455.14,148.72v-1.49a2.57,2.57,0,0,1-2.57-2.57H447.5v4.06Z"/><rect class="cls-22" x="433.89" y="147.23" width="25.23" height="7.55"/><rect class="cls-22" x="446.62" y="124.41" width="20.98" height="8.43"/><rect class="cls-22" x="461.66" y="116.92" width="5.94" height="23.49"/><path class="cls-22" d="M461.66,121.52a2.89,2.89,0,0,1-2.89,2.89v1.2h4.74v-4.09Z"/><path class="cls-22" d="M461.66,135.72a2.89,2.89,0,0,0-2.89-2.89v-1.2h4.74v4.09Z"/><path class="cls-22" d="M469.4,104.19l6.45-2.53,7.57,17L477,120.79s-4.39-10.9-13.46-10.9C468.44,105,469.4,104.19,469.4,104.19Z"/><rect class="cls-22" x="550.76" y="101.66" width="12.05" height="53.12"/><rect class="cls-22" x="544.34" y="147.09" width="25.01" height="7.69"/><rect class="cls-22" x="585.55" y="147.09" width="16.27" height="7.69"/><rect class="cls-22" x="544.34" y="101.66" width="35.02" height="8.72"/><path class="cls-22" d="M579.36,101.66h-4.14v8.72h0c4.32,0,7.84,3.17,7.84,7.08s-3.52,7.09-7.84,7.09H561.85V131h17.51c9.3,0,16.84-6.56,16.84-14.65S588.66,101.66,579.36,101.66Z"/><polygon class="cls-22" points="596.2 150.94 596.2 147.09 578.16 127.59 564.99 127.59 585.55 154.78 596.2 150.94"/><rect class="cls-22" x="430.54" y="164.99" width="171.28" height="4.82"/><text class="cls-23" transform="translate(29.97 44.61)">50 %</text><text class="cls-23" transform="translate(233.57 44.61)">31 %</text><text class="cls-23" transform="translate(457.05 44.61)">19 %</text><text class="cls-23" transform="translate(702.13 44.61)">100 %</text><text class="cls-23" transform="translate(166.67 138.47)">+</text><text class="cls-23" transform="translate(382.49 138.47)">+</text><text class="cls-23" transform="translate(641.26 138.47)">=</text><path class="cls-1" d="M769.05,176.21a45.87,45.87,0,1,1,45.87-45.87A45.92,45.92,0,0,1,769.05,176.21Z"/><path class="cls-24" d="M769.05,87.66a42.68,42.68,0,1,1-42.68,42.68,42.73,42.73,0,0,1,42.68-42.68m0-6.38a49.06,49.06,0,1,0,49.05,49.06,49.06,49.06,0,0,0-49.05-49.06Z"/><path class="cls-24" d="M749.07,138.55a8.6,8.6,0,0,0,1.61,4.34q2.21,2.61,7.54,2.61a16.27,16.27,0,0,0,5.2-.69q3.78-1.32,3.78-4.91a3.63,3.63,0,0,0-1.85-3.25,20,20,0,0,0-5.89-2l-4.58-1q-6.76-1.5-9.29-3.25-4.29-2.92-4.29-9.17a12.18,12.18,0,0,1,4.19-9.45q4.2-3.77,12.31-3.77a18.88,18.88,0,0,1,11.57,3.55q4.78,3.56,5,10.3h-8.51a6.08,6.08,0,0,0-3.42-5.43,11.67,11.67,0,0,0-5.27-1.06,10,10,0,0,0-5.6,1.38,4.35,4.35,0,0,0-2.09,3.85,3.63,3.63,0,0,0,2.06,3.39,25.47,25.47,0,0,0,5.63,1.75l7.43,1.76a19.06,19.06,0,0,1,7.33,3.07q3.79,3,3.79,8.66a12.16,12.16,0,0,1-4.49,9.64q-4.49,3.84-12.68,3.84-8.37,0-13.16-3.78a12.51,12.51,0,0,1-4.8-10.39Z"/><path class="cls-24" d="M790.66,108h6.82L781,151.63h-6.75Z"/><polygon class="cls-1" points="757.26 84.47 744.26 58.47 794.04 58.47 779.85 84.47 757.26 84.47"/><path class="cls-24" d="M788.67,61.66,778,81.28H759.24l-9.81-19.62h39.24m10.75-6.38H739.1l4.62,9.23,9.81,19.63,1.76,3.52h26.45l1.82-3.32,10.7-19.62,5.16-9.44Z"/><text class="cls-25" transform="translate(7.82 212.67)">Afiliada /<tspan class="cls-26" x="84.97" y="0"> </tspan><tspan x="89.91" y="0">Afiliado</tspan></text><text class="cls-25" transform="translate(717.32 212.67)">Pensiones</text><text class="cls-25" transform="translate(220.05 212.67)"><tspan class="cls-27">T</tspan><tspan x="11.08" y="0">esoro Público</tspan></text><text class="cls-25" transform="translate(493.41 212.67)">FCR</text></g></g></svg>