<svg xmlns="http://www.w3.org/2000/svg" xmlns:xlink="http://www.w3.org/1999/xlink" viewBox="0 0 790.88 205.82"><defs><style>.cls-1{fill:#ff9b1c;}.cls-2{fill:#d38072;}.cls-3{fill:url(#Degradado_sin_nombre_2);}.cls-4{fill:url(#linear-gradient);}.cls-5{fill:none;stroke:#c48072;stroke-linecap:round;stroke-miterlimit:10;stroke-width:0.49px;}.cls-6{fill:#daa380;}.cls-7{fill:#1d1d1b;}.cls-8{fill:#4c1d1b;}.cls-9{fill:#c48072;}.cls-10{fill:url(#Degradado_sin_nombre_5);}.cls-11{fill:url(#Degradado_sin_nombre_2-2);}.cls-12{fill:#db8000;}.cls-13{fill:#94bfdd;}.cls-14{fill:#6da5d3;}.cls-15{fill:#c8e3ff;}.cls-16{fill:#94c0e0;}.cls-17{fill:#cfe3ff;}.cls-18{fill:#c9e4ff;}.cls-19{fill:#96bfe2;}.cls-20{fill:#93c1e2;}.cls-21{fill:#cbe3ff;}.cls-22,.cls-23,.cls-25{fill:#fff;}.cls-23{font-size:47.82px;font-family:Helvetica-Bold, Helvetica;font-weight:700;}.cls-24{fill:#141b4d;}.cls-25{font-size:20.42px;font-family:Helvetica, Helvetica;}.cls-26{letter-spacing:-0.05em;}.cls-27{letter-spacing:-0.11em;}</style><linearGradient id="Degradado_sin_nombre_2" x1="59.75" y1="90.91" x2="64.57" y2="89.94" gradientUnits="userSpaceOnUse"><stop offset="0" stop-color="#dbae93"/><stop offset="1" stop-color="#d58480"/></linearGradient><linearGradient id="linear-gradient" x1="105.64" y1="90.94" x2="100.31" y2="90.12" xlink:href="#Degradado_sin_nombre_2"/><linearGradient id="Degradado_sin_nombre_5" x1="80.47" y1="88.04" x2="80.47" y2="99.98" gradientUnits="userSpaceOnUse"><stop offset="0" stop-color="#dcb797"/><stop offset="0.99" stop-color="#d89980"/></linearGradient><linearGradient id="Degradado_sin_nombre_2-2" x1="83.76" y1="87.58" x2="83.76" y2="99.53" xlink:href="#Degradado_sin_nombre_2"/></defs><title>formula-ingresos</title><g id="Capa_2" data-name="Capa 2"><g id="Capa_2-2" data-name="Capa 2"><path class="cls-1" d="M107.39,129.54a14.69,14.69,0,0,1-3.91-4.19c-4,9-12,14.75-21.36,14.75s-17.39-5.75-21.37-14.75a14.55,14.55,0,0,1-3.91,4.19c-10.61,7.36-26.27,4.36-29.43,35.79H136.82C133.66,133.9,118,136.9,107.39,129.54Z"/><path class="cls-2" d="M103.48,125.35c-6.31-9.84-5.25-27.9-5.25-27.9l-16.11-.31L66,97.45s1,18.06-5.26,27.9c4,9,12,14.75,21.37,14.75S99.5,134.35,103.48,125.35Z"/><path class="cls-3" d="M67,90.28c.26,4-1,7.17-3.45,7.17s-5.14-3.19-5.4-7.14,1.5-7.16,3.95-7.17S66.72,86.32,67,90.28Z"/><path class="cls-4" d="M97.25,90.28c-.26,4,1,7.17,3.46,7.17s5.14-3.19,5.4-7.14-1.51-7.16-4-7.17S97.52,86.32,97.25,90.28Z"/><path class="cls-5" d="M60.39,85.84a10.23,10.23,0,0,1,2.88,6.34"/><path class="cls-5" d="M103.85,85.84A10.23,10.23,0,0,0,101,92.18"/><path class="cls-6" d="M99.91,89.21c0,14.43-6.1,29.74-17.79,29.74s-17.8-15.31-17.8-29.74,3.28-26.92,17.8-26.92S99.91,74.78,99.91,89.21Z"/><path class="cls-7" d="M75.43,88.26a1.86,1.86,0,1,1-1.86-1.86A1.85,1.85,0,0,1,75.43,88.26Z"/><path class="cls-8" d="M78.14,81.31A4.38,4.38,0,0,0,74,78.89c-2.83.08-5.39,2.34-5.66,3.06s.59,1.13,1.58,1,3.3-1,4.3-.71,3.35,1,3.8.74A1.11,1.11,0,0,0,78.14,81.31Z"/><path class="cls-7" d="M88.8,88.26a1.86,1.86,0,1,0,1.86-1.86A1.86,1.86,0,0,0,88.8,88.26Z"/><path class="cls-8" d="M86.09,81.31a4.41,4.41,0,0,1,4.16-2.42c2.83.08,5.39,2.34,5.66,3.06s-.59,1.13-1.57,1-3.3-1-4.31-.71-3.35,1-3.79.74A1.1,1.1,0,0,1,86.09,81.31Z"/><path class="cls-9" d="M75.07,104a13.84,13.84,0,0,0,3.47,1.44,8.86,8.86,0,0,0,3.65.25c1.24-.21,2.53-.45,3.77-.72a13.43,13.43,0,0,0,1.81-.51c.56-.19,1.18-.48,1.29-.93h0a.24.24,0,0,1,.48.09,1.5,1.5,0,0,1-.62,1,4.54,4.54,0,0,1-.89.53,15,15,0,0,1-1.88.66c-1.28.34-2.53.59-3.84.82a9.21,9.21,0,0,1-4-.37,11.5,11.5,0,0,1-3.53-1.82.25.25,0,0,1,.28-.41Z"/><path class="cls-8" d="M82.12,67.63c14,0,17.52,10.46,17.78,22.88,0-.43,0-.87,0-1.3,0-14.43-3.27-26.92-17.79-26.92s-17.8,12.49-17.8,26.92c0,.43,0,.87,0,1.3C64.59,78.09,68.16,67.63,82.12,67.63Z"/><path class="cls-8" d="M96,59.66s-1.08,8-13.84,8V62.29S94,63.55,96,59.66Z"/><path class="cls-10" d="M82.12,88.14c-1.46,0-1.86,3.27-1.86,6.34S76,100,82.12,100Z"/><path class="cls-11" d="M82.12,88.14c1.46,0,1.85,3.27,1.85,6.34S88.21,100,82.12,100Z"/><path class="cls-1" d="M44.14,135.6c.66,5.66,1.94,17.79,2.34,29.73h71.27c.41-11.94,1.69-24.07,2.34-29.73-4.34-2.08-8.85-3.39-12.7-6.06a14.69,14.69,0,0,1-3.91-4.19c-4,9-12,14.75-21.36,14.75s-17.39-5.75-21.37-14.75a14.55,14.55,0,0,1-3.91,4.19C53,132.21,48.48,133.52,44.14,135.6Z"/><polygon class="cls-12" points="42.74 165.33 45.63 150.74 46.48 165.33 42.74 165.33"/><polygon class="cls-12" points="121.5 165.33 118.61 150.74 117.76 165.33 121.5 165.33"/><rect class="cls-13" x="277.45" y="103.37" width="15.56" height="50.89"/><rect class="cls-14" x="274.51" y="95.8" width="21.45" height="7.57"/><rect class="cls-14" x="274.51" y="154.26" width="21.45" height="3.79"/><rect class="cls-15" x="279.96" y="108.09" width="3.74" height="41.81" rx="1.19" ry="1.19"/><rect class="cls-15" x="286.76" y="108.09" width="3.74" height="41.81" rx="1.19" ry="1.19"/><rect class="cls-13" x="308.39" y="103.37" width="15.56" height="50.89"/><rect class="cls-14" x="305.45" y="95.8" width="21.45" height="7.57"/><rect class="cls-14" x="305.45" y="154.26" width="21.45" height="3.79"/><rect class="cls-15" x="310.9" y="108.09" width="3.74" height="41.81" rx="1.19" ry="1.19"/><rect class="cls-15" x="317.7" y="108.09" width="3.74" height="41.81" rx="1.19" ry="1.19"/><rect class="cls-13" x="246.51" y="103.37" width="15.56" height="50.89"/><rect class="cls-14" x="243.57" y="95.8" width="21.45" height="7.57"/><rect class="cls-14" x="243.57" y="154.26" width="21.45" height="3.79"/><rect class="cls-15" x="249.02" y="108.09" width="3.74" height="41.81" rx="1.19" ry="1.19"/><rect class="cls-15" x="255.82" y="108.09" width="3.74" height="41.81" rx="1.19" ry="1.19"/><rect class="cls-13" x="215.57" y="103.37" width="15.56" height="50.89"/><rect class="cls-14" x="212.63" y="95.8" width="21.45" height="7.57"/><rect class="cls-14" x="212.63" y="154.26" width="21.45" height="3.79"/><rect class="cls-15" x="218.08" y="108.09" width="3.74" height="41.81" rx="1.19" ry="1.19"/><rect class="cls-15" x="224.88" y="108.09" width="3.74" height="41.81" rx="1.19" ry="1.19"/><rect class="cls-16" x="205.62" y="90.61" width="128.28" height="5.19"/><rect class="cls-17" x="205.62" y="88.34" width="128.28" height="2.27"/><rect class="cls-18" x="205.62" y="158.04" width="128.28" height="2.38"/><rect class="cls-19" x="205.62" y="160.43" width="128.28" height="4.91"/><polygon class="cls-20" points="327.31 88.34 212.21 88.34 212.21 80.24 269.76 62.29 327.31 80.24 327.31 88.34"/><polygon class="cls-21" points="306.4 78.44 269.88 67.15 233.12 78.44 233.12 83.86 306.4 83.86 306.4 78.44"/><path class="cls-14" d="M265,79a2.1,2.1,0,0,0,.39,1,2.22,2.22,0,0,0,1.79.62,3.89,3.89,0,0,0,1.24-.16,1.17,1.17,0,0,0,.9-1.17.89.89,0,0,0-.44-.78,5.09,5.09,0,0,0-1.4-.47l-1.09-.24a6.61,6.61,0,0,1-2.21-.77,2.46,2.46,0,0,1-1-2.18,2.86,2.86,0,0,1,1-2.25,4.22,4.22,0,0,1,2.92-.9,4.52,4.52,0,0,1,2.76.84A3,3,0,0,1,271,75h-2a1.46,1.46,0,0,0-.82-1.3,2.87,2.87,0,0,0-1.25-.25,2.36,2.36,0,0,0-1.33.33,1,1,0,0,0-.5.92.84.84,0,0,0,.49.8,5.87,5.87,0,0,0,1.34.42l1.77.42a4.45,4.45,0,0,1,1.74.73,2.48,2.48,0,0,1,.91,2.06,2.91,2.91,0,0,1-1.07,2.3,4.52,4.52,0,0,1-3,.91,5,5,0,0,1-3.14-.9A3,3,0,0,1,263,79Z"/><path class="cls-14" d="M274.91,71.71h1.62L272.6,82.1H271Z"/><path class="cls-22" d="M492.16,125.2a39,39,0,0,1-4.8,5.78h0a18,18,0,0,1-12.19,4.89c-6.79,0-13.34-7.9-13.34-17.65s4.33-17.65,13.34-17.65c5.29,0,10.87,4.89,13.62,12.37l7.29-1.59-2.41-8.95a25.47,25.47,0,1,0,3.26,26.29Z"/><path class="cls-22" d="M484.76,98.77l1.06-5.08h5.6l4.22,16.07s-8.87-5.49-9-6.13S484.76,98.77,484.76,98.77Z"/><rect class="cls-22" x="406.13" y="93.69" width="10.96" height="48.95"/><rect class="cls-22" x="399.75" y="93.69" width="38.8" height="7.08"/><path class="cls-22" d="M403.76,99.4v1.38a2.37,2.37,0,0,1,2.37,2.37h4.67V99.4Z"/><path class="cls-22" d="M403.76,137.06v-1.37a2.37,2.37,0,0,0,2.37-2.37h4.67v3.74Z"/><path class="cls-22" d="M419.47,137.06v-1.37a2.37,2.37,0,0,1-2.37-2.37h-4.67v3.74Z"/><rect class="cls-22" x="399.88" y="135.69" width="23.25" height="6.96"/><rect class="cls-22" x="411.61" y="114.65" width="19.33" height="7.77"/><rect class="cls-22" x="425.47" y="107.76" width="5.47" height="21.65"/><path class="cls-22" d="M425.47,112a2.65,2.65,0,0,1-2.66,2.65v1.12h4.37V112Z"/><path class="cls-22" d="M425.47,125.08a2.66,2.66,0,0,0-2.66-2.66v-1.11h4.37v3.77Z"/><path class="cls-22" d="M432.61,96l5.95-2.33,7,15.65-5.94,2s-4-10-12.41-10C431.73,96.73,432.61,96,432.61,96Z"/><rect class="cls-22" x="507.59" y="93.69" width="11.1" height="48.95"/><rect class="cls-22" x="501.68" y="135.56" width="23.05" height="7.08"/><rect class="cls-22" x="539.65" y="135.56" width="14.99" height="7.08"/><rect class="cls-22" x="501.68" y="93.69" width="32.27" height="8.03"/><path class="cls-22" d="M534,93.69h-3.82v8h0c4,0,7.22,2.92,7.22,6.53s-3.23,6.53-7.22,6.53H517.81v5.92H534c8.57,0,15.52-6,15.52-13.51S542.52,93.69,534,93.69Z"/><polygon class="cls-22" points="549.47 139.1 549.47 135.56 532.84 117.59 520.71 117.59 539.65 142.65 549.47 139.1"/><rect class="cls-22" x="396.79" y="152.06" width="157.85" height="4.44"/><text class="cls-23" transform="translate(34.26 41.12)">50%</text><text class="cls-23" transform="translate(221.91 41.12)">31%</text><text class="cls-23" transform="translate(427.87 41.12)">19%</text><text class="cls-23" transform="translate(653.74 41.12)">100%</text><text class="cls-23" transform="translate(153.61 127.62)">+</text><text class="cls-23" transform="translate(352.51 127.62)">+</text><text class="cls-23" transform="translate(591 127.62)">=</text><path class="cls-1" d="M708.77,162.4A42.28,42.28,0,1,1,751,120.12,42.32,42.32,0,0,1,708.77,162.4Z"/><path class="cls-24" d="M708.77,80.79a39.34,39.34,0,1,1-39.34,39.33,39.38,39.38,0,0,1,39.34-39.33m0-5.88A45.21,45.21,0,1,0,754,120.12a45.21,45.21,0,0,0-45.21-45.21Z"/><path class="cls-24" d="M690.35,127.69a7.93,7.93,0,0,0,1.49,4c1.35,1.6,3.67,2.41,6.95,2.41a14.79,14.79,0,0,0,4.79-.64c2.32-.81,3.49-2.32,3.49-4.53a3.33,3.33,0,0,0-1.71-3,18.54,18.54,0,0,0-5.42-1.83l-4.23-.93q-6.24-1.37-8.56-3-3.95-2.7-3.95-8.45a11.25,11.25,0,0,1,3.86-8.72c2.57-2.31,6.36-3.46,11.34-3.46a17.38,17.38,0,0,1,10.66,3.26q4.41,3.29,4.63,9.5h-7.84a5.59,5.59,0,0,0-3.15-5,10.74,10.74,0,0,0-4.86-1,9.21,9.21,0,0,0-5.16,1.27,4,4,0,0,0-1.93,3.55,3.34,3.34,0,0,0,1.9,3.12,23.45,23.45,0,0,0,5.19,1.62l6.85,1.61a17.54,17.54,0,0,1,6.75,2.84c2.33,1.84,3.5,4.49,3.5,8a11.2,11.2,0,0,1-4.14,8.89q-4.14,3.54-11.69,3.54-7.71,0-12.13-3.49a11.53,11.53,0,0,1-4.42-9.57Z"/><path class="cls-24" d="M728.69,99.5H735l-15.2,40.24h-6.23Z"/><polygon class="cls-1" points="697.91 77.85 685.93 53.89 731.8 53.89 718.73 77.85 697.91 77.85"/><path class="cls-24" d="M726.85,56.83,717,74.91H699.73l-9.05-18.08h36.17M736.76,51H681.17l4.26,8.51,9,18.08,1.62,3.25h24.38l1.67-3.06L732,59.64,736.76,51Z"/><text class="cls-25" transform="translate(7.2 196)">Afiliada /<tspan class="cls-26" x="78.31" y="0"> </tspan><tspan x="82.87" y="0">Afiliado</tspan></text><text class="cls-25" transform="translate(661.09 196)">Pensiones</text><text class="cls-25" transform="translate(202.8 196)"><tspan class="cls-27">T</tspan><tspan x="10.21" y="0">esoro Público</tspan></text><text class="cls-25" transform="translate(454.74 196)">FCR</text></g></g></svg>