<svg xmlns="http://www.w3.org/2000/svg" xmlns:xlink="http://www.w3.org/1999/xlink" viewBox="0 0 882.14 264.72"><defs><style>.cls-1{fill:#ff961c;}.cls-2{fill:#ce8072;}.cls-3{fill:url(#Degradado_sin_nombre_5);}.cls-4{fill:url(#linear-gradient);}.cls-5{fill:none;stroke:#bf8072;stroke-linecap:round;stroke-miterlimit:10;stroke-width:0.48px;}.cls-6{fill:#d59e80;}.cls-7{fill:#1d1d1b;}.cls-8{fill:#4c1d1b;}.cls-9{fill:#bf8072;}.cls-10{fill:url(#Degradado_sin_nombre_12);}.cls-11{fill:url(#Degradado_sin_nombre_5-2);}.cls-12{fill:#d68000;}.cls-13{fill:#8fbad8;}.cls-14{fill:#6da0ce;}.cls-15{fill:#c3deff;}.cls-16{fill:#8fbbdb;}.cls-17{fill:#cadeff;}.cls-18{fill:#c4dfff;}.cls-19{fill:#91badd;}.cls-20{fill:#8ebcdd;}.cls-21{fill:#c6deff;}.cls-22,.cls-23,.cls-24,.cls-26{fill:#fff;}.cls-23{font-size:60px;}.cls-23,.cls-24{font-family:Helvetica-Bold, Helvetica;font-weight:700;}.cls-24{font-size:46.43px;}.cls-25{fill:#141b4d;}.cls-26{font-size:35px;font-family:Helvetica;}.cls-27{letter-spacing:-0.11em;}</style><linearGradient id="Degradado_sin_nombre_5" x1="58.01" y1="99.93" x2="62.69" y2="98.99" gradientUnits="userSpaceOnUse"><stop offset="0" stop-color="#d6a98e"/><stop offset="1" stop-color="#d08080"/></linearGradient><linearGradient id="linear-gradient" x1="102.56" y1="99.96" x2="97.39" y2="99.17" xlink:href="#Degradado_sin_nombre_5"/><linearGradient id="Degradado_sin_nombre_12" x1="78.13" y1="97.15" x2="78.13" y2="108.74" gradientUnits="userSpaceOnUse"><stop offset="0" stop-color="#d7b292"/><stop offset="0.99" stop-color="#d39480"/></linearGradient><linearGradient id="Degradado_sin_nombre_5-2" x1="81.32" y1="96.7" x2="81.32" y2="108.31" xlink:href="#Degradado_sin_nombre_5"/></defs><title>Recurso 9</title><g id="Capa_2" data-name="Capa 2"><g id="Capa_1-2" data-name="Capa 1"><path class="cls-1" d="M104.27,137.44a14.26,14.26,0,0,1-3.8-4.07c-3.86,8.74-11.7,14.32-20.74,14.32S62.85,142.11,59,133.37a14.09,14.09,0,0,1-3.79,4.07c-10.3,7.14-25.51,4.23-28.57,34.75H132.84C129.77,141.67,114.57,144.58,104.27,137.44Z"/><path class="cls-2" d="M100.47,133.37c-6.13-9.55-5.1-27.09-5.1-27.09L79.73,106l-15.64.3s1,17.54-5.11,27.09c3.87,8.74,11.71,14.32,20.75,14.32S96.61,142.11,100.47,133.37Z"/><path class="cls-3" d="M65,99.32c.26,3.83-1,7-3.35,7s-5-3.09-5.24-6.93,1.46-6.95,3.83-7S64.78,95.48,65,99.32Z"/><path class="cls-4" d="M94.42,99.32c-.25,3.83,1,7,3.36,7s5-3.09,5.24-6.93-1.46-6.95-3.84-7S94.68,95.48,94.42,99.32Z"/><path class="cls-5" d="M58.63,95a9.88,9.88,0,0,1,2.8,6.15"/><path class="cls-5" d="M100.83,95a9.88,9.88,0,0,0-2.8,6.15"/><path class="cls-6" d="M97,98.28c0,14-5.92,28.88-17.27,28.88S62.45,112.29,62.45,98.28s3.18-26.13,17.28-26.13S97,84.27,97,98.28Z"/><path class="cls-7" d="M73.23,97.36a1.8,1.8,0,1,1-1.8-1.8A1.8,1.8,0,0,1,73.23,97.36Z"/><path class="cls-8" d="M75.87,90.61a4.28,4.28,0,0,0-4-2.34,7.52,7.52,0,0,0-5.5,3c-.26.69.58,1.1,1.53,1s3.21-1,4.19-.7,3.25,1,3.68.73A1.08,1.08,0,0,0,75.87,90.61Z"/><path class="cls-7" d="M86.22,97.36a1.8,1.8,0,1,0,1.8-1.8A1.81,1.81,0,0,0,86.22,97.36Z"/><path class="cls-8" d="M83.58,90.61a4.3,4.3,0,0,1,4-2.34,7.5,7.5,0,0,1,5.5,3c.27.69-.57,1.1-1.53,1s-3.2-1-4.18-.7-3.25,1-3.68.73A1.09,1.09,0,0,1,83.58,90.61Z"/><path class="cls-9" d="M72.89,112.6A13.7,13.7,0,0,0,76.25,114a8.55,8.55,0,0,0,3.55.24c1.21-.19,2.45-.43,3.65-.7a12.69,12.69,0,0,0,1.76-.49c.54-.19,1.15-.46,1.26-.9v0a.24.24,0,0,1,.29-.17.24.24,0,0,1,.18.26,1.49,1.49,0,0,1-.61.94,4.09,4.09,0,0,1-.87.52,14.08,14.08,0,0,1-1.82.64c-1.24.33-2.45.58-3.72.79a8.85,8.85,0,0,1-3.9-.35A11.24,11.24,0,0,1,72.61,113a.23.23,0,0,1,0-.33.23.23,0,0,1,.31-.06Z"/><path class="cls-8" d="M79.73,77.33c13.55,0,17,10.15,17.26,22.22,0-.42,0-.84,0-1.27,0-14-3.17-26.13-17.27-26.13S62.45,84.27,62.45,98.28c0,.43,0,.85,0,1.27C62.71,87.48,66.17,77.33,79.73,77.33Z"/><path class="cls-8" d="M93.17,69.59s-1,7.74-13.44,7.74V72.15S91.27,73.37,93.17,69.59Z"/><path class="cls-10" d="M79.73,97.24c-1.42,0-1.8,3.18-1.8,6.16s-4.11,5.38,1.8,5.38Z"/><path class="cls-11" d="M79.73,97.24c1.41,0,1.8,3.18,1.8,6.16s4.11,5.38-1.8,5.38Z"/><path class="cls-1" d="M42.86,143.32c.64,5.5,1.88,17.28,2.27,28.87h69.2c.39-11.59,1.63-23.37,2.27-28.87-4.21-2-8.6-3.29-12.33-5.88a14.26,14.26,0,0,1-3.8-4.07c-3.86,8.74-11.7,14.32-20.74,14.32S62.85,142.1,59,133.37a14.09,14.09,0,0,1-3.79,4.07C51.45,140,47.07,141.3,42.86,143.32Z"/><polygon class="cls-12" points="41.5 172.19 44.3 158.02 45.13 172.19 41.5 172.19"/><polygon class="cls-12" points="117.96 172.19 115.16 158.02 114.33 172.19 117.96 172.19"/><rect class="cls-13" x="323.49" y="112.03" width="15.11" height="49.41"/><rect class="cls-14" x="320.63" y="104.68" width="20.83" height="7.35"/><rect class="cls-14" x="320.63" y="161.44" width="20.83" height="3.68"/><rect class="cls-15" x="325.93" y="116.61" width="3.63" height="40.6" rx="1.16"/><rect class="cls-15" x="332.53" y="116.61" width="3.63" height="40.6" rx="1.16"/><rect class="cls-13" x="353.53" y="112.03" width="15.11" height="49.41"/><rect class="cls-14" x="350.67" y="104.68" width="20.83" height="7.35"/><rect class="cls-14" x="350.67" y="161.44" width="20.83" height="3.68"/><rect class="cls-15" x="355.97" y="116.61" width="3.63" height="40.6" rx="1.16"/><rect class="cls-15" x="362.57" y="116.61" width="3.63" height="40.6" rx="1.16"/><rect class="cls-13" x="293.45" y="112.03" width="15.11" height="49.41"/><rect class="cls-14" x="290.59" y="104.68" width="20.83" height="7.35"/><rect class="cls-14" x="290.59" y="161.44" width="20.83" height="3.68"/><rect class="cls-15" x="295.89" y="116.61" width="3.63" height="40.6" rx="1.16"/><rect class="cls-15" x="302.49" y="116.61" width="3.63" height="40.6" rx="1.16"/><rect class="cls-13" x="263.41" y="112.03" width="15.11" height="49.41"/><rect class="cls-14" x="260.55" y="104.68" width="20.83" height="7.35"/><rect class="cls-14" x="260.55" y="161.44" width="20.83" height="3.68"/><rect class="cls-15" x="265.85" y="116.61" width="3.63" height="40.6" rx="1.16"/><rect class="cls-15" x="272.45" y="116.61" width="3.63" height="40.6" rx="1.16"/><rect class="cls-16" x="253.75" y="99.64" width="124.54" height="5.04"/><rect class="cls-17" x="253.75" y="97.44" width="124.54" height="2.21"/><rect class="cls-18" x="253.75" y="165.11" width="124.54" height="2.31"/><rect class="cls-19" x="253.75" y="167.43" width="124.54" height="4.76"/><polygon class="cls-20" points="371.9 97.44 260.15 97.44 260.15 89.57 316.02 72.15 371.9 89.57 371.9 97.44"/><polygon class="cls-21" points="351.59 87.83 316.14 76.87 280.45 87.83 280.45 93.09 351.59 93.09 351.59 87.83"/><path class="cls-14" d="M311.4,88.36a2,2,0,0,0,.38,1,2.18,2.18,0,0,0,1.74.6,4,4,0,0,0,1.2-.15,1.16,1.16,0,0,0,.88-1.14.86.86,0,0,0-.43-.75,4.69,4.69,0,0,0-1.36-.46l-1.06-.23a6.64,6.64,0,0,1-2.15-.75,2.4,2.4,0,0,1-1-2.12,2.81,2.81,0,0,1,1-2.19,4.11,4.11,0,0,1,2.84-.87,4.36,4.36,0,0,1,2.68.82,3,3,0,0,1,1.16,2.38h-2a1.4,1.4,0,0,0-.79-1.25,2.63,2.63,0,0,0-1.22-.25,2.32,2.32,0,0,0-1.29.32,1,1,0,0,0-.49.89A.83.83,0,0,0,312,85a5.32,5.32,0,0,0,1.3.41l1.72.41a4.18,4.18,0,0,1,1.69.71,2.37,2.37,0,0,1,.88,2,2.84,2.84,0,0,1-1,2.23,4.38,4.38,0,0,1-2.93.88,4.8,4.8,0,0,1-3-.87,2.88,2.88,0,0,1-1.11-2.4Z"/><path class="cls-14" d="M321,81.29h1.57l-3.81,10.09h-1.56Z"/><path class="cls-22" d="M574.23,133.23a37.78,37.78,0,0,1-4.65,5.6h0a17.55,17.55,0,0,1-11.84,4.74c-6.59,0-13-7.67-13-17.13s4.21-17.14,13-17.14c5.13,0,10.55,4.75,13.22,12l7.08-1.54-2.34-8.69a24.73,24.73,0,1,0,3.17,25.52Z"/><path class="cls-22" d="M567.05,107.56l1-4.92h5.44l4.11,15.59s-8.62-5.33-8.72-5.94S567.05,107.56,567.05,107.56Z"/><rect class="cls-22" x="490.71" y="102.64" width="10.64" height="47.53"/><rect class="cls-22" x="484.52" y="102.64" width="37.67" height="6.88"/><path class="cls-22" d="M488.41,108.18v1.33a2.3,2.3,0,0,1,2.3,2.3h4.53v-3.63Z"/><path class="cls-22" d="M488.41,144.74v-1.33a2.3,2.3,0,0,0,2.3-2.3h4.53v3.63Z"/><path class="cls-22" d="M503.66,144.74v-1.33a2.29,2.29,0,0,1-2.3-2.3h-4.54v3.63Z"/><rect class="cls-22" x="484.64" y="143.41" width="22.57" height="6.76"/><rect class="cls-22" x="496.03" y="122.99" width="18.77" height="7.55"/><rect class="cls-22" x="509.49" y="116.29" width="5.31" height="21.02"/><path class="cls-22" d="M509.49,120.41a2.59,2.59,0,0,1-2.58,2.58v1.07h4.23v-3.65Z"/><path class="cls-22" d="M509.49,133.11a2.58,2.58,0,0,0-2.58-2.58v-1.08h4.23v3.66Z"/><path class="cls-22" d="M516.42,104.9l5.77-2.26L529,117.83l-5.77,1.92S519.26,110,511.14,110C515.56,105.58,516.42,104.9,516.42,104.9Z"/><rect class="cls-22" x="589.21" y="102.64" width="10.78" height="47.53"/><rect class="cls-22" x="583.47" y="143.29" width="22.38" height="6.88"/><rect class="cls-22" x="620.35" y="143.29" width="14.55" height="6.88"/><rect class="cls-22" x="583.47" y="102.64" width="31.33" height="7.8"/><path class="cls-22" d="M614.81,102.64H611.1v7.8h0c3.88,0,7,2.84,7,6.34s-3.14,6.35-7,6.35h-12v5.74h15.67c8.32,0,15.06-5.87,15.06-13.11S623.13,102.64,614.81,102.64Z"/><polygon class="cls-22" points="629.87 146.72 629.87 143.29 613.73 125.83 601.95 125.83 620.35 150.16 629.87 146.72"/><rect class="cls-22" x="481.64" y="159.3" width="153.26" height="4.31"/><text class="cls-23" transform="translate(19.68 51.59)">77%</text><text class="cls-23" transform="translate(255.98 51.59)">16%</text><text class="cls-23" transform="translate(514.91 51.59)">7%</text><text class="cls-23" transform="translate(720.77 51.59)">100%</text><text class="cls-23" transform="translate(177.84 135.57)">+</text><text class="cls-24" transform="translate(417.32 135.57)">+</text><text class="cls-24" transform="translate(663.18 135.57)">=</text><path class="cls-1" d="M797.5,174.3a41.64,41.64,0,1,1,41.63-41.64A41.69,41.69,0,0,1,797.5,174.3Z"/><path class="cls-25" d="M797.5,93.92a38.74,38.74,0,1,1-38.75,38.74A38.79,38.79,0,0,1,797.5,93.92m0-5.79A44.53,44.53,0,1,0,842,132.66,44.54,44.54,0,0,0,797.5,88.13Z"/><path class="cls-25" d="M779.36,140.11a7.7,7.7,0,0,0,1.46,3.94q2,2.38,6.85,2.38a14.65,14.65,0,0,0,4.71-.63q3.43-1.2,3.44-4.46a3.3,3.3,0,0,0-1.68-3,18.32,18.32,0,0,0-5.34-1.8l-4.17-.91q-6.14-1.37-8.43-3-3.88-2.67-3.89-8.32a11.07,11.07,0,0,1,3.8-8.59q3.81-3.42,11.18-3.42a17.2,17.2,0,0,1,10.5,3.22q4.34,3.22,4.55,9.36h-7.72a5.51,5.51,0,0,0-3.1-4.93,10.56,10.56,0,0,0-4.79-1,9.14,9.14,0,0,0-5.08,1.25,4,4,0,0,0-1.9,3.5,3.29,3.29,0,0,0,1.87,3.08,23.54,23.54,0,0,0,5.11,1.59l6.75,1.59a17.32,17.32,0,0,1,6.65,2.79q3.43,2.72,3.44,7.86a11,11,0,0,1-4.07,8.75Q795.42,153,788,153q-7.59,0-11.94-3.44a11.32,11.32,0,0,1-4.36-9.43Z"/><path class="cls-25" d="M817.12,112.35h6.18l-15,39.63H802.2Z"/><polygon class="cls-1" points="786.8 91.03 775 67.42 820.18 67.42 807.3 91.03 786.8 91.03"/><path class="cls-25" d="M815.31,70.32l-9.73,17.81h-17l-8.91-17.81h35.63m9.75-5.79H770.32l4.18,8.38,8.91,17.81,1.6,3.2h24l1.65-3,9.72-17.82,4.67-8.56Z"/><text class="cls-26" transform="translate(12.61 212.89)">Afiliada / <tspan x="9.72" y="35">Afiliado</tspan></text><text class="cls-26" transform="translate(715.77 212.89)">Pensiones</text><text class="cls-26" transform="translate(263.5 212.89)"><tspan class="cls-27">T</tspan><tspan x="17.5" y="0">esoro </tspan><tspan x="-4.87" y="35">Público</tspan></text><text class="cls-26" transform="translate(522.31 212.89)">FCR</text></g></g></svg>