<svg xmlns="http://www.w3.org/2000/svg" viewBox="0 0 131 112.64"><defs><style>.cls-1{fill:#141b4d;}.cls-2{fill:#ffaa1c;}</style></defs><title>Recurso 6</title><g id="Capa_2" data-name="Capa 2"><g id="Capa_2-2" data-name="Capa 2"><path class="cls-1" d="M119,18.52a6,6,0,0,1,6,6v76.12a6,6,0,0,1-6,6H12a6,6,0,0,1-6-6V24.52a6,6,0,0,1,6-6H119m0-6H12a12,12,0,0,0-12,12v76.12a12,12,0,0,0,12,12H119a12,12,0,0,0,12-12V24.52a12,12,0,0,0-12-12Z"/><path class="cls-1" d="M28.07,28.78a10.6,10.6,0,0,1-10.59-10.6V10.59a10.59,10.59,0,1,1,21.18,0v3.8h-6v-3.8a4.59,4.59,0,1,0-9.18,0v7.59a4.6,4.6,0,0,0,4.59,4.6Z"/><path class="cls-1" d="M65.5,28.78a10.6,10.6,0,0,1-10.59-10.6V10.59a10.59,10.59,0,0,1,21.18,0v3.8h-6v-3.8a4.59,4.59,0,0,0-9.18,0v7.59a4.6,4.6,0,0,0,4.59,4.6Z"/><path class="cls-1" d="M102.93,28.78a10.6,10.6,0,0,1-10.59-10.6V10.59a10.59,10.59,0,1,1,21.18,0v3.8h-6v-3.8a4.59,4.59,0,1,0-9.18,0v7.59a4.6,4.6,0,0,0,4.59,4.6Z"/><rect class="cls-2" x="18.71" y="37.78" width="93.57" height="56.14"/><rect class="cls-1" y="34.78" width="131" height="6"/><path class="cls-1" d="M40.06,75.1V69h9.57V59.44h6.14V69h9.57V75.1H55.77v9.62H49.63V75.1Z"/><path class="cls-1" d="M69.33,78.06q1.42-3.37,6.72-7.16a49,49,0,0,0,6-4.72,7,7,0,0,0,2.08-4.85,5.41,5.41,0,0,0-1.19-3.58,4.22,4.22,0,0,0-3.41-1.42,4.16,4.16,0,0,0-4.13,2.27,11.22,11.22,0,0,0-.75,4.15H68.14a16.41,16.41,0,0,1,1.56-7q2.67-5.07,9.47-5.06a12,12,0,0,1,8.55,3,10.29,10.29,0,0,1,3.18,7.88,10.65,10.65,0,0,1-2.25,6.68,22.26,22.26,0,0,1-4.84,4.31l-2.67,1.89c-1.67,1.19-2.81,2-3.42,2.57a7.67,7.67,0,0,0-1.55,1.85H90.94v5.86H67.76A16.07,16.07,0,0,1,69.33,78.06Z"/></g></g></svg>