<svg xmlns="http://www.w3.org/2000/svg" viewBox="0 0 131.19 131.19"><defs><style>.cls-1{fill:#fff;}.cls-2{fill:#141b4d;}.cls-3{fill:#ffaa1c;stroke:#141b4d;stroke-miterlimit:10;stroke-width:6px;}</style></defs><title>Recurso 2</title><g id="Capa_2" data-name="Capa 2"><g id="Capa_2-2" data-name="Capa 2"><path class="cls-1" d="M131.19,65.59A65.6,65.6,0,1,1,65.59,0,65.6,65.6,0,0,1,131.19,65.59Z"/><path class="cls-2" d="M65.59.6a65,65,0,1,0,65,65A65,65,0,0,0,65.59.6ZM6.69,67.77h15.2a91.11,91.11,0,0,0,4.19,25.72H13.66A58.39,58.39,0,0,1,6.69,67.77Zm77.44-6a204.64,204.64,0,0,0-1.76-24h16.4a84,84,0,0,1,4.45,24ZM65.59,124.53c-2.35-1-6.83-9.18-9.75-25h19.5C72.43,115.35,68,123.56,65.59,124.53Zm-10.73-31a197.06,197.06,0,0,1-1.78-25.72h25a197.06,197.06,0,0,1-1.78,25.72ZM53.09,61.74a197.06,197.06,0,0,1,1.77-24H76.33a197.06,197.06,0,0,1,1.77,24ZM65.59,6.66c2.36,1,6.84,9.19,9.75,25H55.84C58.76,15.85,63.24,7.63,65.59,6.66Zm15.85,25c-1.73-9.83-4.17-17.93-7.09-23.4C80.7,10.69,86.61,15.71,91.52,23a60.39,60.39,0,0,1,4.82,8.67ZM56.84,8.27c-2.92,5.47-5.36,13.57-7.09,23.4H34.85A60.39,60.39,0,0,1,39.67,23C44.58,15.71,50.48,10.69,56.84,8.27Zm-8,29.43a204.64,204.64,0,0,0-1.76,24H28a84,84,0,0,1,4.45-24Zm-26.89,24H6.77a58.58,58.58,0,0,1,6.89-24H26.08A90.67,90.67,0,0,0,21.93,61.74Zm6,6H47a207,207,0,0,0,1.78,25.72H32.42A84.34,84.34,0,0,1,27.92,67.77ZM49.75,99.52c1.73,9.83,4.17,17.93,7.09,23.4-6.36-2.42-12.26-7.44-17.17-14.73a60.39,60.39,0,0,1-4.82-8.67Zm24.6,23.4c2.92-5.47,5.36-13.57,7.09-23.4h14.9a60.39,60.39,0,0,1-4.82,8.67C86.61,115.48,80.7,120.5,74.35,122.92Zm8-29.43a207,207,0,0,0,1.78-25.72h19.12a84,84,0,0,1-4.51,25.72ZM109.3,67.77h15.2a58.66,58.66,0,0,1-7,25.72H105.11A91.11,91.11,0,0,0,109.3,67.77Zm0-6a90.67,90.67,0,0,0-4.15-24h12.42a58.58,58.58,0,0,1,6.89,24Zm4.51-30.07H102.91A61.61,61.61,0,0,0,90.5,12.17,59.16,59.16,0,0,1,113.77,31.67ZM40.69,12.17a61.61,61.61,0,0,0-12.41,19.5H17.41A59.26,59.26,0,0,1,40.69,12.17ZM17.41,99.52H28.28A61.61,61.61,0,0,0,40.69,119,59.26,59.26,0,0,1,17.41,99.52ZM90.5,119a61.61,61.61,0,0,0,12.41-19.5h10.86A59.16,59.16,0,0,1,90.5,119Z"/><path class="cls-3" d="M107.62,34.11a8.95,8.95,0,1,1-8.94-8.95A8.94,8.94,0,0,1,107.62,34.11Z"/></g></g></svg>