<svg xmlns="http://www.w3.org/2000/svg" viewBox="0 0 131.19 131.19"><defs><style>.cls-1{fill:#fff;}.cls-2{fill:#141b4d;}.cls-3{fill:#ffaa1c;}</style></defs><title>Recurso 4</title><g id="Capa_2" data-name="Capa 2"><g id="Capa_2-2" data-name="Capa 2"><circle class="cls-1" cx="65.59" cy="65.6" r="65.6" transform="translate(-8.85 120.95) rotate(-81.63)"/><path class="cls-2" d="M88,82.85l29.62,14a3.25,3.25,0,0,1,1.3,1.82v26.48H65.66l5.24-9.94,3.6-6.82L88,82.85m-44.79,0,13.49,25.58,3.6,6.82,5.24,9.94H12.28V98.74a3.22,3.22,0,0,1,1.3-1.85l29.62-14m44.54-6.17A5.36,5.36,0,0,0,83,79.44L69.19,105.63l-3.6,6.82L62,105.63,48.19,79.44a5.46,5.46,0,0,0-7.09-2.23L11,91.47a8.85,8.85,0,0,0-4.73,7.24v32.48H124.91V98.71a8.85,8.85,0,0,0-4.73-7.24L90.09,77.21a5.41,5.41,0,0,0-2.35-.53Z"/><path class="cls-2" d="M65.6,6c12.76,0,23.14,9.33,23.63,21.25l0,.53V46.85C89.25,59.05,78.64,69,65.6,69S41.94,59.05,41.94,46.85c0-.21,0-.42,0-.63V28.75c0-.21,0-.42,0-.64s0-.42,0-.64V27.2C42.48,15.31,52.85,6,65.6,6m0-6c-16,0-29,12-29.63,27h0v.12c0,.33,0,.66,0,1s0,.67,0,1V45.86c0,.33,0,.66,0,1C35.94,62.38,49.22,75,65.6,75S95.25,62.38,95.25,46.85V27h0C94.61,12,81.58,0,65.6,0Z"/><polygon class="cls-2" points="75.48 84.34 65.59 84.34 55.71 84.34 58.93 93.71 57.27 96.66 65.59 112.45 73.92 96.66 72.27 93.71 75.48 84.34"/><path class="cls-2" d="M26.05,49.85a3,3,0,0,1-3-3V28.11a3,3,0,0,1,6,0V46.85A3,3,0,0,1,26.05,49.85Z"/><path class="cls-2" d="M105.14,49.85a3,3,0,0,1-3-3V28.11a3,3,0,0,1,6,0V46.85A3,3,0,0,1,105.14,49.85Z"/><path class="cls-3" d="M56.83,117.24a1.48,1.48,0,0,1-.08-.13l-15.3-29L16.28,100v21.16H58.92Z"/><path class="cls-3" d="M89.74,88.11l-11.45,21.7h0v0l-3.84,7.28a.7.7,0,0,1-.06.09l-2.1,4h42.63V100Z"/></g></g></svg>