<svg xmlns="http://www.w3.org/2000/svg" viewBox="0 0 137.19 131.19"><defs><style>.cls-1,.cls-5{fill:none;}.cls-2{fill:#fff;}.cls-3{fill:#141b4d;}.cls-4{fill:#ffaa1c;}.cls-5{stroke:#141b4d;stroke-linecap:round;stroke-linejoin:round;stroke-width:6px;}</style></defs><title>Recurso 10</title><g id="Capa_2" data-name="Capa 2"><g id="Capa_1-2" data-name="Capa 1"><path class="cls-1" d="M134.19,65.59A65.6,65.6,0,1,1,68.59,0,65.6,65.6,0,0,1,134.19,65.59Z"/><circle class="cls-2" cx="68.59" cy="77.18" r="36.39"/><path class="cls-3" d="M68.59,43.58A33.6,33.6,0,1,1,35,77.18a33.64,33.64,0,0,1,33.6-33.6m0-5.58a39.18,39.18,0,1,0,39.18,39.18A39.18,39.18,0,0,0,68.59,38Z"/><path class="cls-4" d="M96.48,77.36a28,28,0,1,1-28-28A28,28,0,0,1,96.48,77.36Z"/><path class="cls-3" d="M57.1,82A5,5,0,0,0,58,84.52c.84,1,2.27,1.49,4.31,1.49a9.35,9.35,0,0,0,3-.39,2.81,2.81,0,0,0,2.16-2.8A2.07,2.07,0,0,0,66.39,81,11.65,11.65,0,0,0,63,79.83l-2.62-.57a16.51,16.51,0,0,1-5.3-1.85,5.9,5.9,0,0,1-2.44-5.24,6.92,6.92,0,0,1,2.39-5.39q2.38-2.15,7-2.15a10.74,10.74,0,0,1,6.59,2,7.21,7.21,0,0,1,2.87,5.88H66.7a3.45,3.45,0,0,0-2-3.1,6.62,6.62,0,0,0-3-.61,5.7,5.7,0,0,0-3.2.79,2.48,2.48,0,0,0-1.19,2.19,2.07,2.07,0,0,0,1.18,1.94,14.56,14.56,0,0,0,3.21,1l4.24,1a10.88,10.88,0,0,1,4.18,1.75,5.92,5.92,0,0,1,2.16,4.94,7,7,0,0,1-2.56,5.5q-2.57,2.19-7.24,2.19A11.78,11.78,0,0,1,55,88,7.12,7.12,0,0,1,52.28,82Z"/><path class="cls-3" d="M80.83,64.6h3.89L75.31,89.5H71.46Z"/><polyline class="cls-5" points="3 51.54 68.59 4.69 134.19 51.54"/><polyline class="cls-5" points="12.37 51.54 12.37 126.5 124.82 126.5 124.82 51.54"/></g></g></svg>