<svg xmlns="http://www.w3.org/2000/svg" viewBox="0 0 130 107.06"><defs><style>.cls-1{fill:#ffad1c;}.cls-2{fill:#141b4d;}.cls-3{fill:#fff;}</style></defs><title>Recurso 7</title><g id="Capa_2" data-name="Capa 2"><g id="Capa_2-2" data-name="Capa 2"><rect class="cls-1" x="22.94" y="15.29" width="15.29" height="15.29"/><rect class="cls-1" x="38.23" y="30.59" width="15.29" height="15.29"/><rect class="cls-1" x="38.23" y="45.88" width="15.29" height="15.29"/><rect class="cls-1" x="53.53" y="61.18" width="15.29" height="15.29"/><rect class="cls-1" x="22.94" y="76.6" width="15.29" height="15.29"/><rect class="cls-1" x="31.35" y="91.76" width="15.29" height="15.29"/><path class="cls-2" d="M79.15,96.74v5.35H12.62V96.74H79.15m5-5H7.65v15.3H84.12V91.76Z"/><path class="cls-2" d="M71.5,81.44v5.35H5V81.44H71.5m5-5H0V91.76H76.47V76.47Z"/><path class="cls-2" d="M86.79,66.15V71.5H20.27V66.15H86.79m5-5H15.29V76.47H91.77V61.18Z"/><path class="cls-2" d="M79.15,50.85v5.36H12.62V50.85H79.15m5-5H7.65v15.3H84.12V45.88Z"/><path class="cls-2" d="M86.79,35.56v5.35H20.27V35.56H86.79m5-5H15.29V45.88H91.77V30.59Z"/><rect class="cls-1" x="38.23" width="15.29" height="15.29"/><path class="cls-2" d="M86.79,5v5.35H20.27V5H86.79m5-5H15.29V15.29H91.77V0Z"/><path class="cls-2" d="M71.5,20.26v5.36H5V20.26H71.5m5-5H0v15.3H76.47V15.29Z"/><path class="cls-3" d="M91.77,104.57a35.75,35.75,0,1,1,35.74-35.75A35.79,35.79,0,0,1,91.77,104.57Z"/><path class="cls-2" d="M91.77,35.56A33.27,33.27,0,1,1,58.5,68.82,33.3,33.3,0,0,1,91.77,35.56m0-5A38.24,38.24,0,1,0,130,68.82,38.24,38.24,0,0,0,91.77,30.59Z"/><circle class="cls-1" cx="91.67" cy="69.01" r="27.31" transform="translate(20.4 158.93) rotate(-88.57)"/><path class="cls-2" d="M80.55,73.57a4.72,4.72,0,0,0,.9,2.42c.81,1,2.21,1.46,4.2,1.46a8.92,8.92,0,0,0,2.89-.39,2.75,2.75,0,0,0,2.11-2.73,2,2,0,0,0-1-1.81,11,11,0,0,0-3.27-1.11l-2.55-.56a15.92,15.92,0,0,1-5.18-1.8,5.75,5.75,0,0,1-2.38-5.11,6.78,6.78,0,0,1,2.33-5.26q2.34-2.1,6.85-2.1a10.47,10.47,0,0,1,6.44,2,7,7,0,0,1,2.8,5.73H89.91a3.38,3.38,0,0,0-1.9-3,6.47,6.47,0,0,0-2.94-.59,5.63,5.63,0,0,0-3.12.76,2.46,2.46,0,0,0-1.16,2.15,2,2,0,0,0,1.15,1.89,14.45,14.45,0,0,0,3.13,1l4.14,1a10.65,10.65,0,0,1,4.08,1.71A5.77,5.77,0,0,1,95.4,74a6.77,6.77,0,0,1-2.5,5.37q-2.5,2.13-7.06,2.13a11.56,11.56,0,0,1-7.33-2.1,7,7,0,0,1-2.67-5.79Z"/><path class="cls-2" d="M103.71,56.55h3.79L98.32,80.86H94.56Z"/></g></g></svg>