<svg xmlns="http://www.w3.org/2000/svg" viewBox="0 0 132.56 131.19"><defs><style>.cls-1{fill:#fff;}.cls-2{fill:#141b4d;}.cls-3,.cls-5{fill:none;stroke:#141b4d;stroke-linejoin:round;stroke-width:6.02px;}.cls-4{fill:#ffad1c;}.cls-5{stroke-linecap:round;}</style></defs><title>Recurso 4</title><g id="Capa_2" data-name="Capa 2"><g id="Capa_2-2" data-name="Capa 2"><circle class="cls-1" cx="65.59" cy="65.6" r="65.6" transform="translate(-8.77 121.06) rotate(-81.72)"/><path class="cls-2" d="M28.06,34.08,42.8,39.27A6.06,6.06,0,0,0,47.43,39,49.64,49.64,0,0,1,69,34.14c25.82,0,48.47,19.08,48.47,40.83,0,11.42-5.14,22-14.48,29.84a6,6,0,0,0-1.84,6.52l4.61,13.84h-16l-3.39-6.77a6,6,0,0,0-5.38-3.33,6.2,6.2,0,0,0-1,.07,93.85,93.85,0,0,1-11,.66,50.26,50.26,0,0,1-8.06-.66,6.16,6.16,0,0,0-.95-.07,6,6,0,0,0-5.39,3.33l-3.38,6.77h-16l4.62-13.84a6,6,0,0,0-1.85-6.52A41.24,41.24,0,0,1,27.16,91.1a6,6,0,0,0-5.43-3.42H7.66V68.16H19.4a6,6,0,0,0,5.75-4.23,38.6,38.6,0,0,1,6.69-12.5,6,6,0,0,0,.85-6L28.06,34.08M17.43,24l9.68,23.73A45,45,0,0,0,19.4,62.13H7.18a5.54,5.54,0,0,0-5.54,5.54v20.5a5.54,5.54,0,0,0,5.54,5.54H21.73a47.3,47.3,0,0,0,12.32,15.71L26.8,131.19H54.91L60,121.09a56.76,56.76,0,0,0,9,.73,100.28,100.28,0,0,0,12-.73l5,10.1h28.11l-7.26-21.77c10.22-8.56,16.63-20.82,16.63-34.45,0-25.88-26-46.86-54.49-46.86A55.39,55.39,0,0,0,44.8,33.59L17.43,24Z"/><path class="cls-3" d="M121.74,51.41A12.19,12.19,0,0,1,117.37,75"/><path class="cls-2" d="M50.78,62.05A5.83,5.83,0,1,1,45,56.22,5.83,5.83,0,0,1,50.78,62.05Z"/><path class="cls-4" d="M54.69,48.22a88.24,88.24,0,0,1,39.25,0,28.11,28.11,0,1,0-39.25,0Z"/><path class="cls-2" d="M62.87,32.81a4.87,4.87,0,0,0,.92,2.49q1.26,1.5,4.32,1.5a9.4,9.4,0,0,0,3-.39,2.83,2.83,0,0,0,2.17-2.82,2.07,2.07,0,0,0-1.06-1.86,11.47,11.47,0,0,0-3.37-1.14L66.2,30a16.57,16.57,0,0,1-5.33-1.87,5.93,5.93,0,0,1-2.45-5.25,7,7,0,0,1,2.4-5.42q2.4-2.16,7.05-2.16a10.8,10.8,0,0,1,6.63,2,7.22,7.22,0,0,1,2.88,5.9H72.5a3.46,3.46,0,0,0-2-3.11,6.63,6.63,0,0,0-3-.61,5.74,5.74,0,0,0-3.21.79,2.5,2.5,0,0,0-1.2,2.21,2.09,2.09,0,0,0,1.19,1.94,14.55,14.55,0,0,0,3.22,1l4.26,1A10.91,10.91,0,0,1,76,28.25a5.94,5.94,0,0,1,2.17,5,7,7,0,0,1-2.57,5.53c-1.71,1.46-4.14,2.2-7.27,2.2a11.91,11.91,0,0,1-7.54-2.17,7.17,7.17,0,0,1-2.75-6Z"/><path class="cls-2" d="M86.71,15.29h3.9l-9.45,25H77.29Z"/><path class="cls-5" d="M54.69,48.22a88.24,88.24,0,0,1,39.25,0"/></g></g></svg>