<svg xmlns="http://www.w3.org/2000/svg" viewBox="0 0 130 130"><defs><style>.cls-1{fill:#141b4d;}</style></defs><title>Recurso 10</title><g id="Capa_2" data-name="Capa 2"><g id="Capa_2-2" data-name="Capa 2"><path class="cls-1" d="M65,0a65,65,0,1,0,65,65A65,65,0,0,0,65,0ZM6.09,67.18h15.2a91.34,91.34,0,0,0,4.19,25.71H13.07A58.49,58.49,0,0,1,6.09,67.18Zm77.45-6a206.63,206.63,0,0,0-1.76-24H98.17a83.35,83.35,0,0,1,4.45,24ZM65,123.93c-2.36-1-6.83-9.18-9.75-25h19.5C71.83,114.75,67.36,123,65,123.93Zm-10.73-31a198.62,198.62,0,0,1-1.79-25.71h25a198.62,198.62,0,0,1-1.79,25.71ZM52.5,61.14a193,193,0,0,1,1.77-24H75.73a194.9,194.9,0,0,1,1.77,24ZM65,6.07c2.36,1,6.83,9.18,9.75,25H55.25C58.17,15.25,62.64,7,65,6.07Zm15.84,25c-1.72-9.83-4.17-17.93-7.08-23.39C80.11,10.09,86,15.12,90.92,22.41a60.32,60.32,0,0,1,4.83,8.66ZM56.24,7.68c-2.91,5.46-5.36,13.56-7.08,23.39H34.25a60.32,60.32,0,0,1,4.83-8.66C44,15.12,49.89,10.09,56.24,7.68Zm-8,29.43a206.63,206.63,0,0,0-1.76,24H27.38a83.35,83.35,0,0,1,4.45-24Zm-26.88,24H6.18a58.39,58.39,0,0,1,6.89-24H25.48A90.2,90.2,0,0,0,21.34,61.14Zm6,6H46.44a208.59,208.59,0,0,0,1.78,25.71H31.83A84.22,84.22,0,0,1,27.33,67.18ZM49.16,98.93c1.72,9.83,4.17,17.93,7.08,23.39-6.35-2.41-12.26-7.44-17.16-14.73a60.32,60.32,0,0,1-4.83-8.66Zm24.6,23.39c2.91-5.46,5.36-13.56,7.08-23.39H95.75a60.32,60.32,0,0,1-4.83,8.66C86,114.88,80.11,119.91,73.76,122.32Zm8-29.43a208.59,208.59,0,0,0,1.78-25.71h19.12a84.23,84.23,0,0,1-4.51,25.71Zm26.93-25.71h15.2a58.49,58.49,0,0,1-7,25.71H104.52A91.34,91.34,0,0,0,108.71,67.18Zm0-6a90.2,90.2,0,0,0-4.14-24h12.41a58.55,58.55,0,0,1,6.9,24Zm4.52-30.07H102.32A62,62,0,0,0,89.9,11.57,59.36,59.36,0,0,1,113.18,31.07ZM40.1,11.57a62,62,0,0,0-12.42,19.5H16.82A59.36,59.36,0,0,1,40.1,11.57ZM16.82,98.93H27.68a62,62,0,0,0,12.42,19.5A59.36,59.36,0,0,1,16.82,98.93Zm73.08,19.5a62,62,0,0,0,12.42-19.5h10.86A59.36,59.36,0,0,1,89.9,118.43Z"/></g></g></svg>