<svg xmlns="http://www.w3.org/2000/svg" viewBox="0 0 131.19 131.19"><defs><style>.cls-1{fill:#fff;}.cls-2{fill:#141b4d;}.cls-3{fill:none;stroke:#141b4d;stroke-miterlimit:10;stroke-width:6.04px;}.cls-4{fill:#ffad1c;}</style></defs><title>Recurso 2</title><g id="Capa_2" data-name="Capa 2"><g id="Capa_1-2" data-name="Capa 1"><path class="cls-1" d="M131.19,65.59A65.6,65.6,0,1,1,65.59,0,65.6,65.6,0,0,1,131.19,65.59Z"/><path class="cls-2" d="M65.59,6.63a59,59,0,1,1-59,59,59,59,0,0,1,59-59m0-6a65,65,0,1,0,65,65,65,65,0,0,0-65-65Z"/><path class="cls-2" d="M65.59,6.63c9.62,0,18.82,5.82,25.93,16.37,7.6,11.29,11.78,26.42,11.78,42.6s-4.18,31.3-11.78,42.59c-7.11,10.56-16.31,16.37-25.93,16.37s-18.82-5.81-25.92-16.37C32.07,96.9,27.88,81.77,27.88,65.6S32.07,34.29,39.67,23C46.77,12.45,56,6.63,65.59,6.63m0-6c-24.16,0-43.74,29.1-43.74,65s19.58,65,43.74,65,43.75-29.11,43.75-65S89.75.6,65.59.6Z"/><path class="cls-2" d="M65.6,6.67c1.17.56,4.66,4.44,7.82,16.44,3,11.54,4.71,26.63,4.71,42.49s-1.67,30.94-4.71,42.48c-3.16,12-6.65,15.89-7.82,16.44-1-.5-4.15-3.83-7.14-14-2.91-9.85-4.78-23.09-5.27-37.27-.09-2.54-.13-5.13-.13-7.7,0-5.51.2-11,.6-16.24C54.58,37.17,56.59,26,59.3,17.94S64.69,7.11,65.6,6.67m0-6.07c-8.6,0-15.84,20.49-18,48.3-.4,5.33-.62,10.92-.62,16.7q0,4,.14,7.91c1.12,32.16,8.94,57.09,18.43,57.09,10.26,0,18.58-29.11,18.58-65S75.85.6,65.59.6Z"/><line class="cls-3" x1="1.88" y1="64.76" x2="129.3" y2="64.76"/><line class="cls-3" x1="11.99" y1="34.68" x2="119.2" y2="34.68"/><line class="cls-3" x1="11.99" y1="96.51" x2="119.2" y2="96.51"/><polygon class="cls-4" points="72.66 118.97 104.96 26.11 51.47 79.61 72.66 118.97"/><path class="cls-2" d="M72.66,122A3,3,0,0,1,70,120.4L48.81,81a3,3,0,0,1,.52-3.57L102.83,24a3,3,0,0,1,5,3.13L75.51,120a3,3,0,0,1-2.61,2ZM55.19,80.15,72.06,111.5,97.78,37.56Z"/><polygon class="cls-4" points="104.96 26.11 51.47 79.61 12.1 58.41 104.96 26.11"/><path class="cls-2" d="M51.47,82.62A2.92,2.92,0,0,1,50,82.26L10.67,61.07a3,3,0,0,1,.44-5.51L104,23.26a3,3,0,0,1,3.12,5L53.6,81.74A3,3,0,0,1,51.47,82.62ZM19.57,59,50.92,75.89l42.6-42.6Z"/></g></g></svg>