<svg xmlns="http://www.w3.org/2000/svg" viewBox="0 0 131.37 108"><defs><style>.cls-1{fill:#212449;}.cls-2{fill:#ffaf1c;}.cls-3{fill:#fff;}</style></defs><g id="Capa_2" data-name="Capa 2"><g id="Capa_2-2" data-name="Capa 2"><path class="cls-1" d="M52.41,5.13a.78.78,0,0,1,.56.23L95.27,47.6H89.91a11.06,11.06,0,0,0-11,11v43.43a.81.81,0,0,1-.79.79H26.74a.81.81,0,0,1-.79-.79V58.65a11.05,11.05,0,0,0-11-11H9.54L51.84,5.36a.78.78,0,0,1,.57-.23m0-5.13a5.91,5.91,0,0,0-4.19,1.73L1.33,48.54C-1,50.85-.2,52.73,3.06,52.73H14.9a5.93,5.93,0,0,1,5.92,5.92v43.43A5.94,5.94,0,0,0,26.74,108H78.07A5.93,5.93,0,0,0,84,102.08V58.65a5.94,5.94,0,0,1,5.92-5.92h11.85c3.25,0,4-1.88,1.73-4.19L56.6,1.73A5.91,5.91,0,0,0,52.41,0Z"/><path class="cls-2" d="M74.91,40a11.8,11.8,0,0,0-3-7.22L55.4,16.31a4.26,4.26,0,0,0-6,0L32.84,32.86a11.72,11.72,0,0,0-3,7.22V93.52a4.24,4.24,0,0,0,4.23,4.23h36.6a4.24,4.24,0,0,0,4.23-4.23Z"/><path class="cls-3" d="M91.89,105.43A36.91,36.91,0,1,1,128.8,68.52,37,37,0,0,1,91.89,105.43Z"/><path class="cls-1" d="M91.89,34.17A34.35,34.35,0,1,1,57.54,68.52,34.38,34.38,0,0,1,91.89,34.17m0-5.13a39.48,39.48,0,1,0,39.48,39.48A39.48,39.48,0,0,0,91.89,29Z"/><path class="cls-1" d="M75.81,75.13a7,7,0,0,0,1.29,3.49q1.79,2.1,6.07,2.1a13.17,13.17,0,0,0,4.19-.55,4,4,0,0,0,3-4,2.91,2.91,0,0,0-1.49-2.61A16.17,16.17,0,0,0,84.18,72l-3.7-.81c-3.62-.8-6.12-1.67-7.47-2.61-2.3-1.57-3.45-4-3.45-7.38a9.78,9.78,0,0,1,3.37-7.61q3.38-3,9.91-3a15.24,15.24,0,0,1,9.31,2.85,10.21,10.21,0,0,1,4,8.3H89.34a4.89,4.89,0,0,0-2.75-4.37,9.46,9.46,0,0,0-4.25-.86,8.06,8.06,0,0,0-4.5,1.11,3.5,3.5,0,0,0-1.69,3.1,2.93,2.93,0,0,0,1.66,2.73,20.67,20.67,0,0,0,4.53,1.41l6,1.41a15.15,15.15,0,0,1,5.89,2.48,8.31,8.31,0,0,1,3,7,9.78,9.78,0,0,1-3.61,7.76Q90,86.53,83.45,86.53t-10.59-3A10.08,10.08,0,0,1,69,75.13Z"/><path class="cls-1" d="M109.28,50.51h5.49L101.49,85.65H96.06Z"/><polygon class="cls-3" points="82.41 31.61 71.94 10.68 112 10.68 100.58 31.61 82.41 31.61"/><path class="cls-1" d="M107.68,13.25,99.06,29H84l-7.9-15.79h31.59m8.65-5.13H67.79l3.71,7.42,7.9,15.8,1.42,2.83H102.1l1.46-2.67,8.62-15.79,4.15-7.59Z"/></g></g></svg>