<svg xmlns="http://www.w3.org/2000/svg" viewBox="0 0 131 112.64"><defs><style>.cls-1{fill:#141b4d;}.cls-2{fill:#ffaa1c;}</style></defs><title>Recurso 5</title><g id="Capa_2" data-name="Capa 2"><g id="Capa_2-2" data-name="Capa 2"><path class="cls-1" d="M119,18.52a6,6,0,0,1,6,6v76.12a6,6,0,0,1-6,6H12a6,6,0,0,1-6-6V24.52a6,6,0,0,1,6-6H119m0-6H12a12,12,0,0,0-12,12v76.12a12,12,0,0,0,12,12H119a12,12,0,0,0,12-12V24.52a12,12,0,0,0-12-12Z"/><path class="cls-1" d="M28.07,28.78a10.6,10.6,0,0,1-10.59-10.6V10.59a10.59,10.59,0,1,1,21.18,0v3.8h-6v-3.8a4.59,4.59,0,1,0-9.18,0v7.59a4.6,4.6,0,0,0,4.59,4.6Z"/><path class="cls-1" d="M65.5,28.78a10.6,10.6,0,0,1-10.59-10.6V10.59a10.59,10.59,0,0,1,21.18,0v3.8h-6v-3.8a4.59,4.59,0,0,0-9.18,0v7.59a4.6,4.6,0,0,0,4.59,4.6Z"/><path class="cls-1" d="M102.93,28.78a10.6,10.6,0,0,1-10.59-10.6V10.59a10.59,10.59,0,1,1,21.18,0v3.8h-6v-3.8a4.59,4.59,0,1,0-9.18,0v7.59a4.6,4.6,0,0,0,4.59,4.6Z"/><rect class="cls-2" x="18.71" y="37.78" width="93.57" height="56.14"/><rect class="cls-1" y="34.78" width="131" height="6"/><path class="cls-1" d="M51.16,73.76A7.37,7.37,0,0,0,51.8,77a4.35,4.35,0,0,0,4.29,2.39,4.78,4.78,0,0,0,3.33-1.31,4.86,4.86,0,0,0,1.42-3.77A4.25,4.25,0,0,0,58.21,70a13.36,13.36,0,0,0-4.73-.62V64.74a12.21,12.21,0,0,0,4.41-.62q2.14-1,2.15-3.87a4.32,4.32,0,0,0-1.1-3.08A4.05,4.05,0,0,0,55.84,56a3.92,3.92,0,0,0-3.37,1.46,6.19,6.19,0,0,0-1,3.89H45.37a16.35,16.35,0,0,1,.84-4.67,10.58,10.58,0,0,1,2.51-3.57,8.64,8.64,0,0,1,3-1.78,13.05,13.05,0,0,1,4.3-.61,11.44,11.44,0,0,1,7.63,2.44,8.17,8.17,0,0,1,2.9,6.58,7.3,7.3,0,0,1-1.73,4.92,5.91,5.91,0,0,1-2.28,1.7,4.66,4.66,0,0,1,2.55,1.53,8.15,8.15,0,0,1,2.49,6.29,10.63,10.63,0,0,1-2.9,7.37c-1.94,2.12-4.8,3.18-8.6,3.18q-7,0-9.73-4.58a13.61,13.61,0,0,1-1.6-6.38Z"/><path class="cls-1" d="M71.8,61.12V56.7a30.11,30.11,0,0,0,4.29-.41,6.11,6.11,0,0,0,3.19-1.73,6.64,6.64,0,0,0,1.52-3.7h5.42v33H79.57V61.12Z"/></g></g></svg>