<svg xmlns="http://www.w3.org/2000/svg" viewBox="0 0 109.82 108"><defs><style>.cls-1{fill:#141b4d;}.cls-2{fill:#fff;}.cls-3{fill:#212449;}.cls-4{fill:#ffa91c;}</style></defs><title>Recurso 11</title><g id="Capa_2" data-name="Capa 2"><g id="Capa_2-2" data-name="Capa 2"><path class="cls-1" d="M101.57,65.38a8,8,0,0,0-3.32.74,8.12,8.12,0,0,0-10.19-2.28L88,63.9l-3.38,2a8.12,8.12,0,0,0-10-2.06l-.13.08-12.92,7.9C58.6,71,55.36,70,52.23,69.13c-3.3-.94-6.47-1.81-9-2.45-1.28-.32-2.39-.58-3.3-.77-.46-.1-.86-.17-1.22-.23a7.27,7.27,0,0,0-1-.09,6.32,6.32,0,0,0-.76.06c-1,.12-2.3.41-3.9.79-3.26.76-7.42,1.88-9.72,2.5V65.05a4.92,4.92,0,0,0-4.9-4.91H4.91A4.93,4.93,0,0,0,0,65.05v38A4.93,4.93,0,0,0,4.91,108h13.5a4.92,4.92,0,0,0,4.9-4.91v-3c2.92.63,9.38,2,16.2,3.43,4.61.94,9.37,1.89,13.31,2.61,2,.35,3.73.65,5.17.86a28.1,28.1,0,0,0,3.36.35,7.47,7.47,0,0,0,1.91-.31,25.91,25.91,0,0,0,4.21-1.7C73,102.67,81,97.61,88.5,92.59s14.52-10,18-12.32a8,8,0,0,0,3.36-6.64A8.25,8.25,0,0,0,101.57,65.38ZM19.63,103.09a1.25,1.25,0,0,1-1.22,1.23H4.91a1.25,1.25,0,0,1-1.23-1.23v-38a1.24,1.24,0,0,1,1.23-1.23h13.5a1.24,1.24,0,0,1,1.22,1.23Zm84.75-25.85c-4.23,2.91-13.7,9.59-22.85,15.54-4.58,3-9.08,5.76-12.77,7.78a50.71,50.71,0,0,1-4.8,2.37,14.57,14.57,0,0,1-1.69.61,4.53,4.53,0,0,1-.92.17,27.06,27.06,0,0,1-2.83-.31c-4.83-.71-13.88-2.52-21.67-4.14-3.9-.82-7.49-1.58-10.11-2.15l-3.42-.74V72.76l1.39-.38c1.94-.53,4.9-1.32,7.56-2,1.32-.33,2.58-.62,3.57-.83l1.26-.24c.33,0,.58-.07.59-.07a3.68,3.68,0,0,1,.46.06c1,.15,3.1.63,5.63,1.3,7.65,2,19.7,5.6,24.57,7.08a11,11,0,0,1,4.21,2.2,4.9,4.9,0,0,1,1.13,1.5,4.08,4.08,0,0,1,.4,1.83,5.19,5.19,0,0,1-5.16,5.21L64.18,88,48,85.9a1.84,1.84,0,1,0-.46,3.66l16.26,2.08,5,.5h.09a8.9,8.9,0,0,0,8.89-8.89A7.87,7.87,0,0,0,77,79.83a9.29,9.29,0,0,0-3.23-3.62,16.21,16.21,0,0,0-4.37-2l-3.16-1,10-6.11a4.49,4.49,0,0,1,2-.5,4.56,4.56,0,0,1,3.08,1.2L76.4,70.75a1.84,1.84,0,1,0,1.88,3.16l11.46-6.79A4.46,4.46,0,0,1,95,68L81.66,75.89a1.84,1.84,0,0,0,1.88,3.17L98,70.51a2.21,2.21,0,0,0,.42-.12,2,2,0,0,0,.72-.56l.45-.27a4.53,4.53,0,0,1,2-.5,4.56,4.56,0,0,1,4.57,4.57A4.39,4.39,0,0,1,104.38,77.24Z"/><circle class="cls-2" cx="57.42" cy="32.43" r="30.32"/><path class="cls-3" d="M57.42,4.22A28.21,28.21,0,1,1,29.21,32.43,28.24,28.24,0,0,1,57.42,4.22m0-4.22A32.43,32.43,0,1,0,89.85,32.43,32.43,32.43,0,0,0,57.42,0Z"/><path class="cls-4" d="M80.51,32.58A23.17,23.17,0,1,1,57.35,9.42,23.16,23.16,0,0,1,80.51,32.58Z"/><path class="cls-1" d="M47.91,36.46a4.06,4.06,0,0,0,.76,2,4.47,4.47,0,0,0,3.57,1.23,7.91,7.91,0,0,0,2.45-.32,2.34,2.34,0,0,0,1.79-2.32,1.74,1.74,0,0,0-.88-1.54,9.52,9.52,0,0,0-2.78-.93l-2.16-.48a13.49,13.49,0,0,1-4.39-1.53,4.87,4.87,0,0,1-2-4.33,5.79,5.79,0,0,1,2-4.47A8.48,8.48,0,0,1,52,22a8.91,8.91,0,0,1,5.46,1.68,6,6,0,0,1,2.37,4.87h-4A2.86,2.86,0,0,0,54.24,26a5.61,5.61,0,0,0-2.49-.5,4.79,4.79,0,0,0-2.65.65,2.08,2.08,0,0,0-1,1.82,1.7,1.7,0,0,0,1,1.6,12,12,0,0,0,2.66.83l3.51.83a8.85,8.85,0,0,1,3.46,1.45,4.9,4.9,0,0,1,1.79,4.09,5.76,5.76,0,0,1-2.12,4.55,9,9,0,0,1-6,1.81,9.87,9.87,0,0,1-6.22-1.78,5.91,5.91,0,0,1-2.26-4.91Z"/><path class="cls-1" d="M67.55,22h3.22L63,42.63H59.79Z"/><rect class="cls-4" x="6.9" y="67.32" width="8.97" height="33.5"/></g></g></svg>