<svg xmlns="http://www.w3.org/2000/svg" viewBox="0 0 131.41 131.9"><defs><style>.cls-1,.cls-5{fill:#fff;}.cls-2{fill:#ffad1c;}.cls-3{fill:#141b4d;}.cls-4{fill:none;}.cls-4,.cls-5{stroke:#141b4d;stroke-linejoin:round;stroke-width:6.03px;}</style></defs><title>Recurso 3</title><g id="Capa_2" data-name="Capa 2"><g id="Capa_1-2" data-name="Capa 1"><circle class="cls-1" cx="65.59" cy="65.7" r="65.6" transform="translate(-8.69 121.39) rotate(-81.91)"/><rect class="cls-2" x="32.1" y="50.04" width="67.22" height="31.34"/><path class="cls-3" d="M106.6,43.58V87.83H24.81V43.58H106.6m6-6H18.77V93.86h93.87V37.55Z"/><path class="cls-3" d="M125.38,93.58v31.8h-6.71V93.58h6.71m6-6H112.64v43.86h18.77V87.55Z"/><path class="cls-3" d="M12.74,6v38H6V6h6.71m6-6H0V50.09H18.77V0Z"/><polyline class="cls-4" points="115.15 118.05 75.09 128.88 28.16 112.64 37.55 103.25 68.05 110.41 91.59 104.11"/><polyline class="cls-4" points="112.64 93.86 82.05 93.86 67.02 100.16 61.91 108.97"/><path class="cls-3" d="M54.43,70.33a4.9,4.9,0,0,0,.91,2.45c.83,1,2.25,1.48,4.26,1.48a9.14,9.14,0,0,0,2.93-.39,2.78,2.78,0,0,0,2.13-2.77,2.05,2.05,0,0,0-1-1.84,11.4,11.4,0,0,0-3.32-1.11l-2.59-.57a16.07,16.07,0,0,1-5.24-1.83,5.85,5.85,0,0,1-2.42-5.18,6.84,6.84,0,0,1,2.37-5.33c1.57-1.42,3.89-2.13,6.94-2.13a10.63,10.63,0,0,1,6.53,2,7.11,7.11,0,0,1,2.83,5.81h-4.8A3.4,3.4,0,0,0,62,57.87a6.62,6.62,0,0,0-3-.6,5.63,5.63,0,0,0-3.15.77,2.47,2.47,0,0,0-1.18,2.18,2,2,0,0,0,1.16,1.91,14.72,14.72,0,0,0,3.17,1l4.2,1a10.62,10.62,0,0,1,4.13,1.73,5.84,5.84,0,0,1,2.14,4.88A6.84,6.84,0,0,1,67,76.16c-1.69,1.45-4.07,2.17-7.16,2.17a11.7,11.7,0,0,1-7.42-2.13,7.08,7.08,0,0,1-2.71-5.87Z"/><path class="cls-3" d="M77.9,53.08h3.85L72.44,77.71H68.63Z"/><polyline class="cls-5" points="18.77 40.81 30.06 40.81 64.36 58.76 75.09 58.76 75.09 48.89 58.33 40.92 103.25 40.92 63.25 12.65 18.77 12.65"/></g></g></svg>