<svg xmlns="http://www.w3.org/2000/svg" viewBox="0 0 131.19 131.19"><defs><style>.cls-1{fill:none;}.cls-2{fill:#141b4d;}.cls-3{fill:#ff6d6a;}</style></defs><title>Recurso 8</title><g id="Capa_2" data-name="Capa 2"><g id="Capa_2-2" data-name="Capa 2"><path class="cls-1" d="M131.19,65.59A65.6,65.6,0,1,1,65.59,0,65.6,65.6,0,0,1,131.19,65.59Z"/><path class="cls-2" d="M92.73,13.79a32.38,32.38,0,0,1,23,55.13h0l-.15.15L68.42,116.24a4,4,0,0,1-5.65,0L15.58,69.05A32.37,32.37,0,1,1,61.35,23.27l4.24,4.24,4.25-4.24a32.16,32.16,0,0,1,22.89-9.48m0-6A38.29,38.29,0,0,0,65.59,19h0A38.37,38.37,0,0,0,11.33,73.29l47.19,47.19a10,10,0,0,0,14.15,0l47.17-47.17,0,0A38.37,38.37,0,0,0,92.73,7.79Z"/><path class="cls-3" d="M20.52,64.1A25.37,25.37,0,0,1,56.4,28.22l9.19,9.19,9.2-9.19a25.37,25.37,0,0,1,36,35.79L65.59,109.17Z"/><path class="cls-2" d="M79.63,93.12h-.12a3,3,0,0,1-2.79-2.27L69.86,63.42l-6.1,18.3A3,3,0,0,1,58,81.5L50.62,51.93,44.89,63.39a3,3,0,0,1-2.69,1.66H23.49a3,3,0,1,1,0-6H40.35l8.53-17a3,3,0,0,1,5.59.61L61.33,70l6.1-18.29a3,3,0,0,1,5.75.22L80,79.4l6.1-18.3A3,3,0,0,1,89,59.05H107.7a3,3,0,0,1,0,6H91.15l-8.67,26A3,3,0,0,1,79.63,93.12Z"/></g></g></svg>