<svg xmlns="http://www.w3.org/2000/svg" viewBox="0 0 167.8 167.8"><defs><style>.cls-1{fill:#ff971c;}.cls-2{fill:#141b4d;}.cls-3{fill:#5ca583;}.cls-4{fill:#eae8ac;}.cls-5{fill:#fff;}.cls-6{fill:#528676;}.cls-7{fill:#bfc081;}.cls-8{fill:#c5c3c4;}.cls-9{fill:#f3b849;}.cls-10{fill:#f1ae38;}.cls-11{fill:#f2b031;}.cls-12{fill:#f5d292;}.cls-13{fill:#f3b74c;}.cls-14{fill:#e79c0d;}</style></defs><title>Recurso 2</title><g id="Capa_2" data-name="Capa 2"><g id="Capa_2-2" data-name="Capa 2"><path class="cls-1" d="M25.58,84.83A58.32,58.32,0,1,1,83.9,143.14,58.32,58.32,0,0,1,25.58,84.83Z"/><path class="cls-2" d="M83.9,6.94a77,77,0,1,1-77,77,77,77,0,0,1,77-77M83.9,0a83.9,83.9,0,1,0,83.9,83.9A83.9,83.9,0,0,0,83.9,0Z"/><rect class="cls-3" x="45.23" y="119.72" width="25.27" height="14.46"/><rect class="cls-3" x="90.37" y="119.72" width="25.27" height="14.46"/><rect class="cls-4" x="70.5" y="119.72" width="19.86" height="14.46"/><rect class="cls-5" x="72.85" y="119.72" width="15.17" height="14.46"/><rect class="cls-6" x="45.23" y="117.37" width="25.27" height="2.35"/><rect class="cls-6" x="90.37" y="117.37" width="25.27" height="2.35"/><rect class="cls-7" x="70.5" y="117.37" width="19.86" height="2.35"/><rect class="cls-8" x="72.85" y="117.37" width="15.17" height="2.35"/><rect class="cls-3" x="43.95" y="51.09" width="25.27" height="14.46"/><rect class="cls-3" x="89.08" y="51.09" width="25.27" height="14.46"/><rect class="cls-4" x="69.22" y="51.09" width="19.87" height="14.46"/><rect class="cls-5" x="71.57" y="51.09" width="15.17" height="14.46"/><rect class="cls-6" x="43.95" y="48.74" width="25.27" height="2.35"/><rect class="cls-6" x="89.08" y="48.74" width="25.27" height="2.35"/><rect class="cls-7" x="69.22" y="48.74" width="19.87" height="2.35"/><rect class="cls-8" x="71.57" y="48.74" width="15.17" height="2.35"/><rect class="cls-3" x="53.91" y="136.53" width="25.27" height="14.46"/><rect class="cls-3" x="99.05" y="136.53" width="25.27" height="14.46"/><rect class="cls-4" x="79.18" y="136.53" width="19.86" height="14.46"/><rect class="cls-5" x="81.53" y="136.53" width="15.17" height="14.46"/><rect class="cls-6" x="53.91" y="134.18" width="25.27" height="2.35"/><rect class="cls-6" x="99.05" y="134.18" width="25.27" height="2.35"/><rect class="cls-7" x="79.18" y="134.18" width="19.86" height="2.35"/><rect class="cls-8" x="81.53" y="134.18" width="15.17" height="2.35"/><rect class="cls-3" x="51.53" y="153.34" width="25.27" height="14.46"/><rect class="cls-3" x="96.67" y="153.34" width="25.27" height="14.46"/><rect class="cls-4" x="76.8" y="153.34" width="19.86" height="14.46"/><rect class="cls-5" x="79.15" y="153.34" width="15.17" height="14.46"/><rect class="cls-6" x="51.53" y="150.99" width="25.27" height="2.35"/><rect class="cls-6" x="96.67" y="150.99" width="25.27" height="2.35"/><rect class="cls-7" x="76.8" y="150.99" width="19.86" height="2.35"/><rect class="cls-8" x="79.15" y="150.99" width="15.17" height="2.35"/><rect class="cls-9" x="38.22" y="162.21" width="4.49" height="5.11"/><rect class="cls-10" x="42.71" y="162.21" width="1.72" height="5.11"/><rect class="cls-11" x="46.89" y="162.21" width="11.69" height="5.11"/><rect class="cls-11" x="61.03" y="162.21" width="11" height="5.11"/><rect class="cls-12" x="44.43" y="162.21" width="1.42" height="5.11"/><rect class="cls-12" x="46.36" y="162.21" width="0.52" height="5.11"/><rect class="cls-13" x="45.85" y="162.21" width="0.51" height="5.11"/><rect class="cls-12" x="58.57" y="162.21" width="1.42" height="5.11"/><rect class="cls-12" x="60.51" y="162.21" width="0.52" height="5.11"/><rect class="cls-13" x="60" y="162.21" width="0.51" height="5.11"/><rect class="cls-14" x="38.22" y="167.31" width="33.82" height="0.48"/><rect class="cls-9" x="38.22" y="156.61" width="4.49" height="5.11"/><rect class="cls-10" x="42.71" y="156.61" width="1.72" height="5.11"/><rect class="cls-11" x="46.89" y="156.61" width="11.69" height="5.11"/><rect class="cls-11" x="61.03" y="156.61" width="11" height="5.11"/><rect class="cls-12" x="44.43" y="156.61" width="1.42" height="5.11"/><rect class="cls-12" x="46.36" y="156.61" width="0.52" height="5.11"/><rect class="cls-13" x="45.85" y="156.61" width="0.51" height="5.11"/><rect class="cls-12" x="58.57" y="156.61" width="1.42" height="5.11"/><rect class="cls-12" x="60.51" y="156.61" width="0.52" height="5.11"/><rect class="cls-13" x="60" y="156.61" width="0.51" height="5.11"/><rect class="cls-14" x="38.22" y="161.72" width="33.82" height="0.48"/><rect class="cls-9" x="38.22" y="151.02" width="4.49" height="5.11"/><rect class="cls-10" x="42.71" y="151.02" width="1.72" height="5.11"/><rect class="cls-11" x="46.89" y="151.02" width="11.69" height="5.11"/><rect class="cls-11" x="61.03" y="151.02" width="11" height="5.11"/><rect class="cls-12" x="44.43" y="151.02" width="1.42" height="5.11"/><rect class="cls-12" x="46.36" y="151.02" width="0.52" height="5.11"/><rect class="cls-13" x="45.85" y="151.02" width="0.51" height="5.11"/><rect class="cls-12" x="58.57" y="151.02" width="1.42" height="5.11"/><rect class="cls-12" x="60.51" y="151.02" width="0.52" height="5.11"/><rect class="cls-13" x="60" y="151.02" width="0.51" height="5.11"/><rect class="cls-14" x="38.22" y="156.13" width="33.82" height="0.48"/><rect class="cls-9" x="38.22" y="145.43" width="4.49" height="5.11"/><rect class="cls-10" x="42.71" y="145.43" width="1.72" height="5.11"/><rect class="cls-11" x="46.89" y="145.43" width="11.69" height="5.11"/><rect class="cls-11" x="61.03" y="145.43" width="11" height="5.11"/><rect class="cls-12" x="44.43" y="145.43" width="1.42" height="5.11"/><rect class="cls-12" x="46.36" y="145.43" width="0.52" height="5.11"/><rect class="cls-13" x="45.85" y="145.43" width="0.51" height="5.11"/><rect class="cls-12" x="58.57" y="145.43" width="1.42" height="5.11"/><rect class="cls-12" x="60.51" y="145.43" width="0.52" height="5.11"/><rect class="cls-13" x="60" y="145.43" width="0.51" height="5.11"/><rect class="cls-14" x="38.22" y="150.54" width="33.82" height="0.48"/><rect class="cls-9" x="38.22" y="139.84" width="4.49" height="5.11"/><rect class="cls-10" x="42.71" y="139.84" width="1.72" height="5.11"/><rect class="cls-11" x="46.89" y="139.84" width="11.69" height="5.11"/><rect class="cls-11" x="61.03" y="139.84" width="11" height="5.11"/><rect class="cls-12" x="44.43" y="139.84" width="1.42" height="5.11"/><rect class="cls-12" x="46.36" y="139.84" width="0.52" height="5.11"/><rect class="cls-13" x="45.85" y="139.84" width="0.51" height="5.11"/><rect class="cls-12" x="58.57" y="139.84" width="1.42" height="5.11"/><rect class="cls-12" x="60.51" y="139.84" width="0.52" height="5.11"/><rect class="cls-13" x="60" y="139.84" width="0.51" height="5.11"/><rect class="cls-14" x="38.22" y="144.95" width="33.82" height="0.48"/><polygon class="cls-5" points="99.07 84.75 88.56 84.75 88.56 74.25 79.24 74.25 79.24 84.75 68.73 84.75 68.73 94.07 79.24 94.07 79.24 104.58 88.56 104.58 88.56 94.07 99.07 94.07 99.07 84.75"/></g></g></svg>