<svg xmlns="http://www.w3.org/2000/svg" xmlns:xlink="http://www.w3.org/1999/xlink" viewBox="0 0 194.53 180.65"><defs><style>.cls-1{fill:#ff971c;}.cls-2{fill:#141b4d;}.cls-3{fill:#cb6c6c;}.cls-4{fill:#422918;}.cls-5{fill:url(#Degradado_sin_nombre_6);}.cls-6{fill:#1d1d1b;}.cls-7{fill:url(#Degradado_sin_nombre_6-2);}.cls-8{fill:url(#Degradado_sin_nombre_6-3);}.cls-12,.cls-9{fill:none;stroke-miterlimit:10;}.cls-9{stroke:#7e4e24;stroke-linecap:round;stroke-width:0.44px;}.cls-10{fill:#8f7f49;}.cls-11{fill:#3c3c3b;}.cls-12{stroke:#1d1d1b;stroke-width:0.66px;}.cls-13{fill:#7e4e24;}.cls-14{fill:url(#Degradado_sin_nombre_6-4);}.cls-15{fill:url(#Degradado_sin_nombre_6-5);}.cls-16{fill:url(#Degradado_sin_nombre_6-6);}.cls-17{fill:url(#Degradado_sin_nombre_6-7);}.cls-18{fill:#fff;}.cls-19{fill:#5ca583;}.cls-20{fill:#eae8ac;}.cls-21{fill:#528676;}.cls-22{fill:#bfc081;}.cls-23{fill:#c5c3c4;}.cls-24{fill:#f3b849;}.cls-25{fill:#f1ae38;}.cls-26{fill:#f2b031;}.cls-27{fill:#f5d292;}.cls-28{fill:#f3b74c;}.cls-29{fill:#e79c0d;}</style><linearGradient id="Degradado_sin_nombre_6" x1="84.85" y1="156.01" x2="84.85" y2="114.27" gradientUnits="userSpaceOnUse"><stop offset="0" stop-color="#8f7f49"/><stop offset="1" stop-color="#805f36"/></linearGradient><linearGradient id="Degradado_sin_nombre_6-2" x1="48.2" y1="68.93" x2="56.07" y2="67.36" xlink:href="#Degradado_sin_nombre_6"/><linearGradient id="Degradado_sin_nombre_6-3" x1="123.38" y1="68.98" x2="114.66" y2="67.65" xlink:href="#Degradado_sin_nombre_6"/><linearGradient id="Degradado_sin_nombre_6-4" x1="80.46" y1="59" x2="80.46" y2="86.13" xlink:href="#Degradado_sin_nombre_6"/><linearGradient id="Degradado_sin_nombre_6-5" x1="89.24" y1="59.75" x2="89.24" y2="84.44" xlink:href="#Degradado_sin_nombre_6"/><linearGradient id="Degradado_sin_nombre_6-6" x1="76.07" y1="87.43" x2="93.62" y2="87.43" xlink:href="#Degradado_sin_nombre_6"/><linearGradient id="Degradado_sin_nombre_6-7" x1="81.6" y1="71.75" x2="88.04" y2="71.75" xlink:href="#Degradado_sin_nombre_6"/></defs><title>Recurso 1</title><g id="Capa_2" data-name="Capa 2"><g id="Capa_2-2" data-name="Capa 2"><path class="cls-1" d="M25.58,97.68A58.32,58.32,0,1,1,83.9,156,58.32,58.32,0,0,1,25.58,97.68Z"/><path class="cls-2" d="M83.9,19.79a77,77,0,1,1-77,77,77,77,0,0,1,77-77m0-6.94a83.9,83.9,0,1,0,83.9,83.9,83.9,83.9,0,0,0-83.9-83.9Z"/><path class="cls-3" d="M40.6,180.65A195.91,195.91,0,0,0,31.29,153c-7.12,8.79-10.73,19.86-12.5,27.68Z"/><path class="cls-3" d="M149,180.65c-1.77-7.82-5.38-18.89-12.49-27.68a196,196,0,0,0-9.32,27.68Z"/><path class="cls-3" d="M129,180.65A260.51,260.51,0,0,1,136.46,153a64.11,64.11,0,0,0-5.8-10.27c-5.11-7.39-14.29-6.75-20.47-12.36H59.51c-6.19,5.61-15.36,5-20.48,12.36-2.37,3.42-6.23,6.9-7.74,10.27,3,9.34,5.83,18.23,8.15,27.68Z"/><path class="cls-4" d="M78.27,105.79c0,5.16-8.36,9.34-18.66,9.34S41,111,41,105.79s8.35-9.34,18.65-9.34S78.27,100.63,78.27,105.79Z"/><path class="cls-4" d="M59.15,94.82a6.77,6.77,0,1,1-6.75-6.35A6.56,6.56,0,0,1,59.15,94.82Z"/><path class="cls-4" d="M68.26,93.49c0,8.62-3.89,15.6-8.68,15.6s-8.68-7-8.68-15.6,3.88-15.6,8.68-15.6S68.26,84.87,68.26,93.49Z"/><path class="cls-4" d="M91.43,105.79c0,5.16,8.35,9.34,18.65,9.34s18.66-4.18,18.66-9.34-8.36-9.34-18.66-9.34S91.43,100.63,91.43,105.79Z"/><path class="cls-4" d="M110.55,94.82a6.77,6.77,0,1,0,6.75-6.35A6.56,6.56,0,0,0,110.55,94.82Z"/><path class="cls-4" d="M101.44,93.49c0,8.62,3.89,15.6,8.68,15.6s8.68-7,8.68-15.6-3.89-15.6-8.68-15.6S101.44,84.87,101.44,93.49Z"/><path class="cls-5" d="M107.18,127.15c-.33-.42-.63-.86-.92-1.3-.07-.1-.13-.2-.19-.3-.24-.39-.46-.78-.67-1.18l-.15-.29a14,14,0,0,1-1.16-3.43c-1.15-5.78-1.89-18.3-2.29-27.06a141.43,141.43,0,0,0-33.91,0c-.39,8.76-1.13,21.28-2.28,27.06a14.38,14.38,0,0,1-1.17,3.44l-.13.25c-.21.42-.45.83-.7,1.24l-.16.26c-.3.45-.62.9-1,1.33a25.31,25.31,0,0,1-3,3.17L84.85,161l25.34-30.63A25.68,25.68,0,0,1,107.18,127.15Z"/><path class="cls-4" d="M122.77,51.77c0,20.43-17,37-37.92,37s-37.92-16.55-37.92-37,17-37,37.92-37S122.77,31.35,122.77,51.77Z"/><path class="cls-4" d="M114.66,18c0,9.92-8.55,18-19.11,18s-19.12-8-19.12-18S85,0,95.55,0,114.66,8,114.66,18Z"/><path class="cls-4" d="M77.08,32.55a7.32,7.32,0,0,1,14.61,0,7.32,7.32,0,0,1-14.61,0Z"/><path class="cls-4" d="M62.14,22.1c0-5.77,5-10.45,11.12-10.45S84.38,16.33,84.38,22.1s-5,10.45-11.12,10.45S62.14,27.87,62.14,22.1Z"/><path class="cls-4" d="M69.8,29.31a8.55,8.55,0,0,1-17.07,0,8.55,8.55,0,0,1,17.07,0Z"/><path class="cls-4" d="M99.09,31A9,9,0,0,1,117,31a9,9,0,0,1-17.88,0Z"/><path class="cls-6" d="M64.56,77.35A5.56,5.56,0,1,1,59,72.13,5.38,5.38,0,0,1,64.56,77.35Z"/><path class="cls-6" d="M116.23,77.35a5.56,5.56,0,1,1-5.55-5.22A5.38,5.38,0,0,1,116.23,77.35Z"/><path class="cls-7" d="M60,67.9c.43,6.08-1.65,11-5.65,11S46,74,45.53,68s2.47-11,6.48-11S59.61,61.82,60,67.9Z"/><path class="cls-8" d="M109.65,67.9c-.43,6.08,1.65,11,5.66,11s8.42-4.91,8.85-11-2.47-11-6.47-11S110.08,61.82,109.65,67.9Z"/><path class="cls-9" d="M49.23,61.08A15.45,15.45,0,0,1,54,70.84"/><path class="cls-9" d="M120.46,61.08a15.41,15.41,0,0,0-4.72,9.76"/><path class="cls-10" d="M114,66.26c0,22.22-10,45.8-29.16,45.8S55.68,88.48,55.68,66.26s5.37-41.44,29.17-41.44S114,44,114,66.26Z"/><path class="cls-11" d="M78.34,51.87a7.29,7.29,0,0,0-6.82-3.71c-4.64.11-8.84,3.6-9.28,4.7s1,1.75,2.58,1.52,5.41-1.6,7.06-1.1,5.49,1.57,6.22,1.14A1.65,1.65,0,0,0,78.34,51.87Z"/><path class="cls-6" d="M71.52,48.16c-4.64.11-8.84,3.6-9.28,4.7a.89.89,0,0,0,.06.86c2-1.07,5.71-2.83,8.85-2.83,2.8,0,5.75,1.5,7.6,2.65a2,2,0,0,0-.41-1.67A7.29,7.29,0,0,0,71.52,48.16Z"/><path class="cls-6" d="M73.89,62.58a3,3,0,1,1-3-2.86A2.95,2.95,0,0,1,73.89,62.58Z"/><path class="cls-6" d="M95.81,62.58a3,3,0,1,0,3-2.86A2.95,2.95,0,0,0,95.81,62.58Z"/><path class="cls-11" d="M91.36,51.87a7.27,7.27,0,0,1,6.82-3.71c4.64.11,8.83,3.6,9.28,4.7s-1,1.75-2.58,1.52-5.41-1.6-7.07-1.1-5.48,1.57-6.21,1.14S90.55,53,91.36,51.87Z"/><path class="cls-6" d="M98.18,48.16c4.64.11,8.83,3.6,9.28,4.7a.89.89,0,0,1-.06.86c-2-1.07-5.71-2.83-8.86-2.83-2.79,0-5.74,1.5-7.6,2.65a2,2,0,0,1,.42-1.67A7.27,7.27,0,0,1,98.18,48.16Z"/><path class="cls-6" d="M83.19,61.08a13.1,13.1,0,0,1-4.53,9.59,15.06,15.06,0,0,1-9.86,3.67,14.7,14.7,0,0,1-9.86-3.66,13.09,13.09,0,0,1-4.52-9.6,13.24,13.24,0,0,1,4.27-9.88,15.12,15.12,0,0,1,10.11-4,15.39,15.39,0,0,1,5.45,1,14.64,14.64,0,0,1,4.68,2.94A13.29,13.29,0,0,1,83.19,61.08Zm-1.24,0a11.84,11.84,0,0,0-4.12-8.68,13.91,13.91,0,0,0-9-3.35,13.45,13.45,0,0,0-9,3.34A11.76,11.76,0,0,0,59.52,70a13.9,13.9,0,0,0,9.28,3.64,14.26,14.26,0,0,0,5-.93,13.26,13.26,0,0,0,4.29-2.7A12,12,0,0,0,82,61.08Z"/><path class="cls-6" d="M115.27,61.08a13,13,0,0,1-4.52,9.59,15.06,15.06,0,0,1-9.86,3.67A14.75,14.75,0,0,1,91,70.68a13,13,0,0,1-.24-19.48,15.1,15.1,0,0,1,10.11-4,15.39,15.39,0,0,1,5.45,1A14.64,14.64,0,0,1,111,51.19,13.28,13.28,0,0,1,115.27,61.08Zm-1.23,0a11.84,11.84,0,0,0-4.12-8.68,13.91,13.91,0,0,0-9-3.35,13.43,13.43,0,0,0-9,3.34A11.74,11.74,0,0,0,91.61,70a13.9,13.9,0,0,0,9.28,3.64,14.26,14.26,0,0,0,5-.93,13.26,13.26,0,0,0,4.29-2.7A12,12,0,0,0,114,61.08Z"/><path class="cls-12" d="M89.48,53.8a9,9,0,0,0-9.26,0"/><path class="cls-13" d="M77.24,94a13.32,13.32,0,0,0,3.62,2.48,8.4,8.4,0,0,0,2.06.61A5.65,5.65,0,0,0,85,96.92a41.3,41.3,0,0,0,4.26-1.34,8.66,8.66,0,0,0,2-1A2.46,2.46,0,0,0,92.4,93h0a.22.22,0,0,1,.25-.18.24.24,0,0,1,.19.24,2.74,2.74,0,0,1-.41,1.17,3.75,3.75,0,0,1-.84.89,9.79,9.79,0,0,1-2,1.15,36.77,36.77,0,0,1-4.34,1.44,6.93,6.93,0,0,1-4.66-.62,11.78,11.78,0,0,1-3.64-2.85.22.22,0,0,1,0-.31.23.23,0,0,1,.3,0Z"/><polygon class="cls-14" points="84.85 57.72 76.07 85.78 79.36 85.78 84.85 57.72"/><polygon class="cls-15" points="84.85 57.72 93.62 85.78 90.33 85.78 84.85 57.72"/><path class="cls-16" d="M84.85,89.08c4.84,0,8.77-1.48,8.77-3.3H76.07C76.07,87.6,80,89.08,84.85,89.08Z"/><polygon class="cls-17" points="84.85 57.72 79.36 85.78 90.33 85.78 84.85 57.72"/><path class="cls-4" d="M74.41,34.65c-5.69,9.22-13.57,16.69-17.6,16.69s-2.68-7.47,3-16.69S73.39,18,77.42,18,80.1,25.43,74.41,34.65Z"/><polygon class="cls-18" points="58.17 131.5 68.25 162.71 76.07 156.66 84.85 160.97 59.51 130.34 58.17 131.5"/><polygon class="cls-18" points="111.53 131.5 101.44 162.71 93.62 156.66 84.85 160.97 110.19 130.34 111.53 131.5"/><path class="cls-18" d="M55.46,79.77a2,2,0,1,1-2-1.88A1.94,1.94,0,0,1,55.46,79.77Z"/><path class="cls-18" d="M118.24,79.77a2,2,0,1,1-2-1.88A1.95,1.95,0,0,1,118.24,79.77Z"/><rect class="cls-19" x="115.45" y="132.57" width="25.27" height="14.46"/><rect class="cls-19" x="160.58" y="132.57" width="25.27" height="14.46"/><rect class="cls-20" x="140.72" y="132.57" width="19.86" height="14.46"/><rect class="cls-18" x="143.07" y="132.57" width="15.16" height="14.46"/><rect class="cls-21" x="115.45" y="130.22" width="25.27" height="2.35"/><rect class="cls-21" x="160.58" y="130.22" width="25.27" height="2.35"/><rect class="cls-22" x="140.72" y="130.22" width="19.86" height="2.35"/><rect class="cls-23" x="143.07" y="130.22" width="15.16" height="2.35"/><rect class="cls-19" x="124.13" y="149.38" width="25.27" height="14.46"/><rect class="cls-19" x="169.26" y="149.38" width="25.27" height="14.46"/><rect class="cls-20" x="149.4" y="149.38" width="19.86" height="14.46"/><rect class="cls-18" x="151.75" y="149.38" width="15.17" height="14.46"/><rect class="cls-21" x="124.13" y="147.03" width="25.27" height="2.35"/><rect class="cls-21" x="169.26" y="147.03" width="25.27" height="2.35"/><rect class="cls-22" x="149.4" y="147.03" width="19.86" height="2.35"/><rect class="cls-23" x="151.75" y="147.03" width="15.17" height="2.35"/><rect class="cls-19" x="121.75" y="166.19" width="25.27" height="14.46"/><rect class="cls-19" x="166.88" y="166.19" width="25.27" height="14.46"/><rect class="cls-20" x="147.02" y="166.19" width="19.86" height="14.46"/><rect class="cls-18" x="149.37" y="166.19" width="15.16" height="14.46"/><rect class="cls-21" x="121.75" y="163.84" width="25.27" height="2.35"/><rect class="cls-21" x="166.88" y="163.84" width="25.27" height="2.35"/><rect class="cls-22" x="147.02" y="163.84" width="19.86" height="2.35"/><rect class="cls-23" x="149.37" y="163.84" width="15.16" height="2.35"/><rect class="cls-24" x="108.43" y="175.06" width="4.49" height="5.11"/><rect class="cls-25" x="112.92" y="175.06" width="1.72" height="5.11"/><rect class="cls-26" x="117.1" y="175.06" width="11.69" height="5.11"/><rect class="cls-26" x="131.25" y="175.06" width="11.01" height="5.11"/><rect class="cls-27" x="114.65" y="175.06" width="1.42" height="5.11"/><rect class="cls-27" x="116.58" y="175.06" width="0.52" height="5.11"/><rect class="cls-28" x="116.07" y="175.06" width="0.51" height="5.11"/><rect class="cls-27" x="128.79" y="175.06" width="1.42" height="5.11"/><rect class="cls-27" x="130.72" y="175.06" width="0.52" height="5.11"/><rect class="cls-28" x="130.21" y="175.06" width="0.51" height="5.11"/><rect class="cls-29" x="108.43" y="180.16" width="33.82" height="0.48"/><rect class="cls-24" x="108.43" y="169.46" width="4.49" height="5.11"/><rect class="cls-25" x="112.92" y="169.46" width="1.72" height="5.11"/><rect class="cls-26" x="117.1" y="169.46" width="11.69" height="5.11"/><rect class="cls-26" x="131.25" y="169.46" width="11.01" height="5.11"/><rect class="cls-27" x="114.65" y="169.46" width="1.42" height="5.11"/><rect class="cls-27" x="116.58" y="169.46" width="0.52" height="5.11"/><rect class="cls-28" x="116.07" y="169.46" width="0.51" height="5.11"/><rect class="cls-27" x="128.79" y="169.46" width="1.42" height="5.11"/><rect class="cls-27" x="130.72" y="169.46" width="0.52" height="5.11"/><rect class="cls-28" x="130.21" y="169.46" width="0.51" height="5.11"/><rect class="cls-29" x="108.43" y="174.57" width="33.82" height="0.48"/><rect class="cls-24" x="108.43" y="163.87" width="4.49" height="5.11"/><rect class="cls-25" x="112.92" y="163.87" width="1.72" height="5.11"/><rect class="cls-26" x="117.1" y="163.87" width="11.69" height="5.11"/><rect class="cls-26" x="131.25" y="163.87" width="11.01" height="5.11"/><rect class="cls-27" x="114.65" y="163.87" width="1.42" height="5.11"/><rect class="cls-27" x="116.58" y="163.87" width="0.52" height="5.11"/><rect class="cls-28" x="116.07" y="163.87" width="0.51" height="5.11"/><rect class="cls-27" x="128.79" y="163.87" width="1.42" height="5.11"/><rect class="cls-27" x="130.72" y="163.87" width="0.52" height="5.11"/><rect class="cls-28" x="130.21" y="163.87" width="0.51" height="5.11"/><rect class="cls-29" x="108.43" y="168.98" width="33.82" height="0.48"/><rect class="cls-24" x="108.43" y="158.28" width="4.49" height="5.11"/><rect class="cls-25" x="112.92" y="158.28" width="1.72" height="5.11"/><rect class="cls-26" x="117.1" y="158.28" width="11.69" height="5.11"/><rect class="cls-26" x="131.25" y="158.28" width="11.01" height="5.11"/><rect class="cls-27" x="114.65" y="158.28" width="1.42" height="5.11"/><rect class="cls-27" x="116.58" y="158.28" width="0.52" height="5.11"/><rect class="cls-28" x="116.07" y="158.28" width="0.51" height="5.11"/><rect class="cls-27" x="128.79" y="158.28" width="1.42" height="5.11"/><rect class="cls-27" x="130.72" y="158.28" width="0.52" height="5.11"/><rect class="cls-28" x="130.21" y="158.28" width="0.51" height="5.11"/><rect class="cls-29" x="108.43" y="163.39" width="33.82" height="0.48"/><rect class="cls-24" x="108.43" y="152.69" width="4.49" height="5.11"/><rect class="cls-25" x="112.92" y="152.69" width="1.72" height="5.11"/><rect class="cls-26" x="117.1" y="152.69" width="11.69" height="5.11"/><rect class="cls-26" x="131.25" y="152.69" width="11.01" height="5.11"/><rect class="cls-27" x="114.65" y="152.69" width="1.42" height="5.11"/><rect class="cls-27" x="116.58" y="152.69" width="0.52" height="5.11"/><rect class="cls-28" x="116.07" y="152.69" width="0.51" height="5.11"/><rect class="cls-27" x="128.79" y="152.69" width="1.42" height="5.11"/><rect class="cls-27" x="130.72" y="152.69" width="0.52" height="5.11"/><rect class="cls-28" x="130.21" y="152.69" width="0.51" height="5.11"/><rect class="cls-29" x="108.43" y="157.8" width="33.82" height="0.48"/></g></g></svg>