<svg xmlns="http://www.w3.org/2000/svg" viewBox="0 0 137 131.19"><defs><style>.cls-1{fill:#fff;}.cls-2{fill:#141b4d;}.cls-3{fill:#212449;}.cls-4{fill:#ffaa1c;}</style></defs><title>Recurso 9</title><g id="Capa_2" data-name="Capa 2"><g id="Capa_2-2" data-name="Capa 2"><path class="cls-1" d="M134.1,65.59A65.6,65.6,0,1,1,68.5,0,65.6,65.6,0,0,1,134.1,65.59Z"/><path class="cls-2" d="M134,56.06a3,3,0,0,1-1.74-.56L68.5,10,4.74,55.5a3,3,0,0,1-3.48-4.88L66.76,3.83a3,3,0,0,1,3.48,0l65.5,46.79A3,3,0,0,1,134,56.06Z"/><path class="cls-3" d="M77.86,96.49A12.72,12.72,0,0,1,90.57,109.2v12.72H46.43V109.2A12.72,12.72,0,0,1,59.14,96.49H77.86m0-6H59.14A18.71,18.71,0,0,0,40.43,109.2v18.72H96.57V109.2A18.71,18.71,0,0,0,77.86,90.49Z"/><path class="cls-4" d="M77.86,100.49H59.14a8.72,8.72,0,0,0-8.71,8.71v8.72H86.57V109.2a8.72,8.72,0,0,0-8.71-8.71Z"/><path class="cls-3" d="M68.5,55.7A12.72,12.72,0,1,1,55.79,68.42,12.74,12.74,0,0,1,68.5,55.7m0-6A18.72,18.72,0,1,0,87.22,68.42,18.71,18.71,0,0,0,68.5,49.7Z"/><polygon class="cls-2" points="118.64 53.06 118.64 59.06 118.64 77.17 118.64 121.92 18.36 121.92 18.36 77.17 18.36 59.06 18.36 53.06 12.36 53.06 12.36 127.92 124.64 127.92 124.64 53.06 118.64 53.06"/></g></g></svg>