<svg xmlns="http://www.w3.org/2000/svg" viewBox="0 0 131.31 131.19"><defs><style>.cls-1{fill:none;}.cls-2{fill:#141b4d;}.cls-3{fill:#ffad1c;}.cls-4{fill:#fff;}</style></defs><title>Recurso 5</title><g id="Capa_2" data-name="Capa 2"><g id="Capa_2-2" data-name="Capa 2"><circle class="cls-1" cx="65.65" cy="65.6" r="65.6" transform="translate(-8.55 121.34) rotate(-81.89)"/><path class="cls-2" d="M120.78,79.27a10.24,10.24,0,0,0-3.69.71,10.41,10.41,0,0,0-12.66-2.42l-3.58,2.12a10.44,10.44,0,0,0-12.37-2.12L73.34,86.82c-3.36-1-7.06-2.07-10.64-3.08-4.36-1.24-8-2.22-10.67-2.9-1.61-.41-2.89-.71-3.93-.92-.55-.12-1.05-.21-1.49-.28a8.4,8.4,0,0,0-2.3,0c-1,.13-2.47.42-4.68.94-3.5.83-7.78,2-10.52,2.7V79.67a6.59,6.59,0,0,0-6.58-6.58H6.58A6.59,6.59,0,0,0,0,79.67v44.94a6.59,6.59,0,0,0,6.58,6.58h16a6.59,6.59,0,0,0,6.58-6.58v-2.52c3.11.68,10.4,2.25,18.19,3.85C53.84,127.28,59,128.29,63,129c2.52.46,4.53.8,6.14,1a32.06,32.06,0,0,0,4.09.42,9.58,9.58,0,0,0,2.46-.39A31.72,31.72,0,0,0,80.84,128c5.53-2.7,13.69-7.65,24.93-15.15,6.69-4.47,12.94-8.81,17.51-12L127,98.29a10.23,10.23,0,0,0,4.31-8.49A10.56,10.56,0,0,0,120.78,79.27Zm-47.5,45.28h0a29.4,29.4,0,0,1-3.2-.35c-6-.88-17.22-3.14-25.57-4.88-4.6-1-8.84-1.87-11.93-2.54L29.11,116V89.37l1.07-.29c2.34-.64,5.79-1.55,8.91-2.33,1.59-.39,3-.72,4.19-1,.58-.12,1.08-.22,1.46-.28l.55-.07.44,0c1.12.17,3.51.72,6.58,1.52,10,2.62,25.91,7.43,29,8.37A12.1,12.1,0,0,1,86,97.8a5.08,5.08,0,0,1,1.17,1.53,4.12,4.12,0,0,1,.39,1.83,5.38,5.38,0,0,1-5.24,5.38L76.7,106l-19.16-2.46a3,3,0,0,0-.75,5.87L76,111.86l6,.59h.11a11.31,11.31,0,0,0,11.29-11.28,10.31,10.31,0,0,0-1-4.38,11.7,11.7,0,0,0-4.09-4.59,20.23,20.23,0,0,0-5.45-2.51l-2-.6,10.26-6.28a4.43,4.43,0,0,1,4.24.06l-4.8,2.86a2.93,2.93,0,0,0-1.36,1.81,3,3,0,0,0,2.87,3.69,2.93,2.93,0,0,0,1.5-.42l13.49-8a4.47,4.47,0,0,1,4.51.22l-14.8,8.78a2.93,2.93,0,0,0-1,4,2.94,2.94,0,0,0,4,1l16.92-10a3.14,3.14,0,0,0,.52-.17,2.87,2.87,0,0,0,1.06-.77l.36-.22a4.48,4.48,0,0,1,5.31.83,4.62,4.62,0,0,1,1.35,3.27,4.39,4.39,0,0,1-1.75,3.62L120,96c-5.84,4.06-14.66,10.19-23.32,15.82-6,3.92-11.1,7-15,9.15A58.85,58.85,0,0,1,76,123.7a15.66,15.66,0,0,1-1.9.68A4.06,4.06,0,0,1,73.28,124.55ZM5.91,79.67A.68.68,0,0,1,6.58,79h16a.68.68,0,0,1,.66.67v44.94a.68.68,0,0,1-.66.67H6.58a.68.68,0,0,1-.67-.67Z"/><rect class="cls-3" x="8.94" y="82.35" width="10.6" height="39.58"/><path class="cls-4" d="M65.81,91A33.64,33.64,0,1,1,99.45,57.31,33.67,33.67,0,0,1,65.81,91Z"/><path class="cls-2" d="M65.81,26.69A30.63,30.63,0,1,1,35.19,57.31,30.66,30.66,0,0,1,65.81,26.69m0-6a36.65,36.65,0,1,0,36.65,36.64A36.65,36.65,0,0,0,65.81,20.67Z"/><path class="cls-2" d="M50.89,63.44a6.49,6.49,0,0,0,1.2,3.25q1.65,1.95,5.64,2a12,12,0,0,0,3.88-.52,3.68,3.68,0,0,0,2.83-3.67A2.71,2.71,0,0,0,63.05,62a14.94,14.94,0,0,0-4.39-1.49l-3.43-.75q-5.05-1.11-6.94-2.42c-2.13-1.46-3.2-3.75-3.2-6.85a9.06,9.06,0,0,1,3.13-7.06q3.14-2.82,9.2-2.82a14.12,14.12,0,0,1,8.63,2.65A9.41,9.41,0,0,1,69.8,51H63.45a4.54,4.54,0,0,0-2.56-4.06A8.68,8.68,0,0,0,57,46.14a7.49,7.49,0,0,0-4.19,1,3.27,3.27,0,0,0-1.56,2.88,2.71,2.71,0,0,0,1.54,2.53A19.15,19.15,0,0,0,57,53.89l5.55,1.31A14,14,0,0,1,68,57.5,7.73,7.73,0,0,1,70.81,64a9.09,9.09,0,0,1-3.35,7.2Q64.1,74,58,74t-9.83-2.82a9.35,9.35,0,0,1-3.58-7.77Z"/><path class="cls-2" d="M82,40.6h5.09L74.73,73.21h-5Z"/><polygon class="cls-4" points="57.37 23.68 46.09 3.01 85.34 3.01 75 23.68 57.37 23.68"/><path class="cls-2" d="M80.47,6,73.14,20.67h-14L51.16,6H80.47M90.2,0H41l4.86,8.9,8,14.65,1.71,3.14H76.86l1.66-3.33L85.85,8.7,90.2,0Z"/><polygon class="cls-4" points="82.96 93.05 47.39 82.42 38.98 82.42 29.11 85.52 29.11 105.89 54.24 105.89 82.96 109.88 90.04 106.19 90.93 97.77 82.96 93.05"/><path class="cls-2" d="M92.48,96.8a11.64,11.64,0,0,0-4.09-4.59,19.93,19.93,0,0,0-5.45-2.51S54.75,81.53,52,80.84c-1.61-.4-2.89-.71-3.93-.92-.55-.11-1.05-.2-1.49-.27a8.39,8.39,0,0,0-2.3-.05c-1,.14-2.47.43-4.68,1-3.5.82-7.78,2-10.52,2.7v6.13l1.07-.3c2.34-.63,5.79-1.55,8.91-2.32,1.59-.39,3-.73,4.19-1l1.46-.28.55-.07c.07,0,.23,0,.44.06,1.12.16,3.51.72,6.58,1.52,10,2.62,25.91,7.42,29,8.36A12.11,12.11,0,0,1,86,97.81a5.18,5.18,0,0,1,1.17,1.52,4.19,4.19,0,0,1,.39,1.84,5.36,5.36,0,0,1-5.24,5.37L76.7,106l-19.16-2.45a3,3,0,0,0-.75,5.86L76,111.87l6,.58h.11a11.31,11.31,0,0,0,11.29-11.28A10.27,10.27,0,0,0,92.48,96.8Z"/></g></g></svg>