<svg xmlns="http://www.w3.org/2000/svg" viewBox="0 0 131.19 131.19"><defs><style>.cls-1{fill:#fff;}.cls-2{fill:#141b4d;}</style></defs><title>Recurso 6</title><g id="Capa_2" data-name="Capa 2"><g id="Capa_2-2" data-name="Capa 2"><circle class="cls-1" cx="65.59" cy="65.6" r="65.6" transform="translate(-8.6 121.28) rotate(-81.89)"/><path class="cls-2" d="M21.12,57.45c0,2,.2,3.87.51,17.52H89.54c.31-13.65.51-15.56.51-17.52V33.1h0a34.46,34.46,0,0,0-68.87,0h0v.15c0,.4,0,.81,0,1.22s0,.81,0,1.22V56.23C21.13,56.63,21.12,57,21.12,57.45Z"/><path class="cls-2" d="M55.59,84.57a29.33,29.33,0,0,1,10.3,1.64L96.4,98.42c4.1,1.63,7.87,6.66,8.6,11.44,0,.24.09.47.15.7v14.61H6V110.56a4.15,4.15,0,0,0,.15-.7c.73-4.78,4.51-9.81,8.61-11.44l30.5-12.21a29.39,29.39,0,0,1,10.31-1.64m0-6a35.15,35.15,0,0,0-12.54,2.07L12.54,92.82C6.37,95.29,1.24,102.21.22,109H0v22.23H111.17V109H111c-1-6.75-6.16-13.67-12.33-16.14l-30.5-12.2a35.19,35.19,0,0,0-12.54-2.07Z"/><path class="cls-1" d="M55.59,98.8A30.28,30.28,0,0,1,32.47,88.09L43.21,83.8V67.5H68V83.8L78.7,88.09A30.27,30.27,0,0,1,55.59,98.8Z"/><path class="cls-2" d="M65,70.51V85.84l3.78,1.51,4.63,1.85a27.27,27.27,0,0,1-35.55,0l4.63-1.85,3.78-1.51V70.51H65m6-6H40.2V81.76l-12.48,5a33.32,33.32,0,0,0,55.74,0L71,81.76V64.49Z"/><path class="cls-1" d="M55.59,80A24.81,24.81,0,0,1,30.8,55.22c0-.27,0-.53,0-.8V37.57c0-.34,0-.61,0-.88s0-.53,0-.8v-.18a24.77,24.77,0,0,1,49.51,0l0,.67V55.22A24.81,24.81,0,0,1,55.59,80Z"/><path class="cls-2" d="M55.59,14.92A21.69,21.69,0,0,1,77.33,35.83l0,.54V55.22a21.77,21.77,0,0,1-43.54,0c0-.23,0-.47,0-.7V37.4c0-.24,0-.47,0-.71s0-.46,0-.7v-.21A21.69,21.69,0,0,1,55.59,14.92m0-6A27.79,27.79,0,0,0,27.82,35.59h0v.12c0,.33,0,.65,0,1s0,.66,0,1V54.24c0,.33,0,.65,0,1a27.8,27.8,0,1,0,55.59,0V35.59h0A27.78,27.78,0,0,0,55.59,8.9Z"/><path class="cls-1" d="M40.49,128.18v-14.7a2.74,2.74,0,0,0,.15-.58c.73-4.76,4.39-9.6,8.53-11.25L74.89,91.36a26.78,26.78,0,0,1,9.45-1.53,26.86,26.86,0,0,1,9.45,1.53l25.71,10.29c4.14,1.65,7.81,6.49,8.53,11.25a2.74,2.74,0,0,0,.15.58v14.7Z"/><path class="cls-2" d="M84.34,92.84a23.65,23.65,0,0,1,8.33,1.32l25.71,10.28c3.12,1.25,6.11,5.25,6.67,8.91a4.78,4.78,0,0,0,.12.57v11.25H43.51V113.92c0-.18.08-.37.11-.57.56-3.66,3.55-7.66,6.67-8.91L76,94.16a23.67,23.67,0,0,1,8.34-1.32m0-6a29.65,29.65,0,0,0-10.57,1.74L48.05,98.85c-5.2,2.08-9.52,7.91-10.38,13.6h-.19v18.74h93.71V112.45H131c-.87-5.69-5.19-11.52-10.39-13.6L94.9,88.56a29.63,29.63,0,0,0-10.56-1.74Z"/><path class="cls-1" d="M84.34,103.41a25,25,0,0,1-18.69-8.35l8.73-3.5V78H94.29V91.56l8.73,3.5A25,25,0,0,1,84.34,103.41Z"/><path class="cls-2" d="M91.28,81V93.6l3.79,1.52,2.39.95a22.06,22.06,0,0,1-26.25,0l2.39-.95,3.79-1.52V81H91.28m6-6H71.37V89.52L60.84,93.73a28.08,28.08,0,0,0,47,0L97.3,89.52V75Z"/><path class="cls-2" d="M66.5,11.14A27.77,27.77,0,0,0,27.82,35.59h0v.12c0,.33,0,.65,0,1,0,.05,0,.09,0,.14a32.65,32.65,0,0,0,6.53.65A32.82,32.82,0,0,0,66.5,11.14Z"/><path class="cls-2" d="M66.5,11.14A27.77,27.77,0,0,0,27.82,35.59h0v.12c0,.33,0,.65,0,1,0,.05,0,.09,0,.14a32.65,32.65,0,0,0,6.53.65A32.82,32.82,0,0,0,66.5,11.14Z"/><path class="cls-1" d="M84.34,87.57A20.44,20.44,0,0,1,63.92,67.16c0-.19,0-.38,0-.56V52.1c0-.18,0-.37,0-.56s0-.38,0-.56v-.25a20.41,20.41,0,0,1,40.79,0l0,.54V67.16A20.44,20.44,0,0,1,84.34,87.57Z"/><path class="cls-2" d="M84.34,34.14a17.34,17.34,0,0,1,17.38,16.71l0,.44V67.16a17.41,17.41,0,0,1-34.81,0c0-.16,0-.31,0-.47V52c0-.15,0-.31,0-.46s0-.31,0-.46v-.27h0A17.34,17.34,0,0,1,84.34,34.14m0-6a23.43,23.43,0,0,0-23.41,22.5h0v.1c0,.28,0,.55,0,.83s0,.55,0,.83v14c0,.27,0,.55,0,.83a23.43,23.43,0,0,0,46.85,0V50.61h0a23.43,23.43,0,0,0-23.4-22.5Z"/><path class="cls-2" d="M56.27,8.93c0,.28-.05.56-.05.84A21.65,21.65,0,0,0,77.88,31.42a21.53,21.53,0,0,0,4.85-.57A27.77,27.77,0,0,0,56.27,8.93Z"/></g></g></svg>