<svg xmlns="http://www.w3.org/2000/svg" xmlns:xlink="http://www.w3.org/1999/xlink" viewBox="0 0 477.55 201.72"><defs><style>.cls-1{fill:#6f8082;}.cls-2{fill:#683c11;}.cls-3{fill:#ff6d6a;}.cls-17,.cls-18,.cls-4{fill:#fff;}.cls-5{fill:url(#Degradado_sin_nombre_8);}.cls-6{fill:url(#Degradado_sin_nombre_8-2);}.cls-7{fill:none;stroke:#dd8c72;stroke-linecap:round;stroke-miterlimit:10;stroke-width:0.43px;}.cls-8{fill:url(#Degradado_sin_nombre_8-3);}.cls-9{fill:#f2bda0;}.cls-10{fill:url(#Degradado_sin_nombre_10);}.cls-11{fill:url(#Degradado_sin_nombre_8-4);}.cls-12{fill:#e59a80;}.cls-13{fill:url(#Degradado_sin_nombre_8-5);}.cls-14{fill:#ee9f81;}.cls-15{fill:#1d1d1b;}.cls-16{fill:#432918;}.cls-17{font-size:36.26px;}.cls-17,.cls-19{font-family:Helvetica-Bold, Helvetica;font-weight:700;}.cls-18{font-size:29.01px;font-family:Helvetica;}</style><linearGradient id="Degradado_sin_nombre_8" x1="354.06" y1="68.27" x2="363.33" y2="66.42" gradientUnits="userSpaceOnUse"><stop offset="0" stop-color="#f4c7ac"/><stop offset="1" stop-color="#ee9d80"/></linearGradient><linearGradient id="Degradado_sin_nombre_8-2" x1="442.68" y1="68.33" x2="432.41" y2="66.77" xlink:href="#Degradado_sin_nombre_8"/><linearGradient id="Degradado_sin_nombre_8-3" x1="397.26" y1="164.8" x2="397.26" y2="98.7" xlink:href="#Degradado_sin_nombre_8"/><linearGradient id="Degradado_sin_nombre_10" x1="393.55" y1="56.21" x2="393.55" y2="81.02" gradientUnits="userSpaceOnUse"><stop offset="0" stop-color="#f5d0b0"/><stop offset="0.99" stop-color="#f1b295"/></linearGradient><linearGradient id="Degradado_sin_nombre_8-4" x1="400.97" y1="56.9" x2="400.97" y2="79.48" xlink:href="#Degradado_sin_nombre_8"/><linearGradient id="Degradado_sin_nombre_8-5" x1="397.26" y1="60.08" x2="397.26" y2="80.5" xlink:href="#Degradado_sin_nombre_8"/></defs><title>Recurso 7</title><g id="Capa_2" data-name="Capa 2"><g id="Capa_1-2" data-name="Capa 1"><rect class="cls-1" y="37.91" width="384.44" height="163.82" rx="29.01"/><path class="cls-2" d="M408.36,4.93c-9.59-1.34-23.21-10.39-35.82,0-13.29,10.94-19.18,37.51-26,46.84s-21.44,28-13.87,42.39,2,26.49-1,33.8S348.7,163,393.92,163,452,142.09,449.23,120.9,457.3,96.93,452,79s-10.34-25.48-10.84-37.59S430.07,8,408.36,4.93Z"/><path class="cls-3" d="M459.76,152.69c-16.45-19-59.76-18.6-62.66-18.55s-46.2-.47-62.66,18.55c-17,19.67-17.78,49-17.78,49H477.55S476.79,172.36,459.76,152.69Z"/><path class="cls-4" d="M424.25,147.94V136.42a162.65,162.65,0,0,0-54,0v11.57a27,27,0,1,0,54,0Z"/><path class="cls-5" d="M368,67.06c.5,7-1.95,12.65-6.67,12.65s-9.94-5.61-10.44-12.58,2.91-12.63,7.63-12.65S367.51,60.1,368,67.06Z"/><path class="cls-6" d="M426.5,67.06c-.5,7,1.95,12.65,6.67,12.65s9.93-5.61,10.44-12.58S440.7,54.5,436,54.48,427,60.1,426.5,67.06Z"/><path class="cls-7" d="M355.27,59.25a17.52,17.52,0,0,1,5.57,11.18"/><path class="cls-7" d="M439.25,59.25a17.52,17.52,0,0,0-5.57,11.18"/><path class="cls-8" d="M397.26,168.5h0a20.55,20.55,0,0,1-20.56-20.56V107.09a20.56,20.56,0,0,1,20.56-20.56h0a20.57,20.57,0,0,1,20.56,20.56v40.85A20.56,20.56,0,0,1,397.26,168.5Z"/><path class="cls-9" d="M433.46,64.26c0,27.94-8.2,50.58-36.2,50.58s-36.2-22.64-36.2-50.58,7.69-53.15,36.2-53.15S433.46,36.33,433.46,64.26Z"/><path class="cls-2" d="M407.79,11.66s-12.94-3.79-17.72,11.53-10.28,41.06-40,39.74C358.6,32.65,363.42,9.19,378,5.78S407.79,11.66,407.79,11.66Z"/><path class="cls-2" d="M437.25,56.31a14.45,14.45,0,0,1-7.7-6.43c-2.52-4.79-2.28-30.86-15.77-35C428.29,20.36,435.23,31.21,437.25,56.31Z"/><polygon class="cls-10" points="397.26 55.05 389.83 80.7 392.62 80.7 397.26 55.05"/><polygon class="cls-11" points="397.26 55.05 404.68 80.7 401.9 80.7 397.26 55.05"/><path class="cls-12" d="M397.26,83.72c4.1,0,7.42-1.35,7.42-3H389.83C389.83,82.37,393.16,83.72,397.26,83.72Z"/><polygon class="cls-13" points="397.26 55.05 392.62 80.7 401.9 80.7 397.26 55.05"/><path class="cls-14" d="M385.88,94a9.23,9.23,0,0,0,2.65,1.08,21,21,0,0,0,2.86.59,43.27,43.27,0,0,0,11.74,0,21,21,0,0,0,2.86-.59A9.35,9.35,0,0,0,408.64,94h0a.27.27,0,0,1,.39.09.29.29,0,0,1-.06.38,13.35,13.35,0,0,1-5.69,2.22,32.85,32.85,0,0,1-12.08,0,13.35,13.35,0,0,1-5.69-2.22.31.31,0,0,1,0-.41.29.29,0,0,1,.38-.06Z"/><path class="cls-15" d="M384.42,58.05a4,4,0,1,1-3.95-3.95A4,4,0,0,1,384.42,58.05Z"/><path class="cls-15" d="M418,58.05a3.95,3.95,0,1,1-3.95-3.95A4,4,0,0,1,418,58.05Z"/><path class="cls-16" d="M369.36,49.22a8.05,8.05,0,0,1,2.92-3.55,10.63,10.63,0,0,1,4.25-1.77,11.42,11.42,0,0,1,4.55.07,12.78,12.78,0,0,1,2.12.68,11.9,11.9,0,0,1,1.91,1.14.91.91,0,0,1-.39,1.62l-.12,0c-.7.12-1.34.11-2,.17s-1.23.06-1.83.16a27.8,27.8,0,0,0-3.4.5,33.76,33.76,0,0,0-3.27.88c-1.09.34-2.25.79-3.45,1.2l-.19.06a.9.9,0,0,1-1.14-.56A.91.91,0,0,1,369.36,49.22Z"/><path class="cls-16" d="M423.85,50.35a35.61,35.61,0,0,0-3.31-1.47,22.28,22.28,0,0,0-3.34-1,24.84,24.84,0,0,0-3.49-.42c-.61-.06-1.22,0-1.85,0s-1.26,0-1.94,0h-.12a.89.89,0,0,1-.81-1,.88.88,0,0,1,.42-.68,10.71,10.71,0,0,1,4-1.55c.37-.06.73-.13,1.1-.16l1.12,0a6,6,0,0,1,1.12.05,8.39,8.39,0,0,1,1.12.16,11.41,11.41,0,0,1,4.17,1.68,8.81,8.81,0,0,1,3.07,3.28.88.88,0,0,1-.37,1.19.89.89,0,0,1-.78,0Z"/><text class="cls-17" transform="translate(70.89 93.88)">¡Jubílate ya!</text><text class="cls-18" transform="translate(32.53 140.69)">Entérate del préstamo <tspan x="39.52" y="26.1">previsional </tspan><tspan class="cls-19" x="186.23" y="26.1">aquí</tspan></text></g></g></svg>