<svg xmlns="http://www.w3.org/2000/svg" xmlns:xlink="http://www.w3.org/1999/xlink" viewBox="0 0 183.36 113.78"><defs><style>.cls-1{fill:#22416d;}.cls-2{fill:#2f4d80;}.cls-3{fill:#fff;}.cls-4{fill:#e3a387;}.cls-5{fill:url(#Degradado_sin_nombre_14);}.cls-12,.cls-13,.cls-14,.cls-19,.cls-6{fill:none;stroke-miterlimit:10;}.cls-12,.cls-19,.cls-6{stroke:#cf8072;}.cls-12,.cls-13,.cls-19,.cls-6{stroke-linecap:round;}.cls-6{stroke-width:0.88px;}.cls-7{fill:#e5b59d;}.cls-8{fill:#b2b2b1;}.cls-9{fill:url(#Degradado_sin_nombre_7);}.cls-10{fill:#cf8072;}.cls-11{fill:url(#Degradado_sin_nombre_14-2);}.cls-12,.cls-13{stroke-width:0.99px;}.cls-13{stroke:#683b11;}.cls-14{stroke:#888787;stroke-width:1.32px;}.cls-15{fill:#d97269;}.cls-16{fill:#9d9d9d;}.cls-17{fill:url(#Degradado_sin_nombre_14-3);}.cls-18{fill:url(#linear-gradient);}.cls-19{stroke-width:0.24px;}.cls-20{fill:url(#linear-gradient-2);}.cls-21{fill:url(#Degradado_sin_nombre_9);}.cls-22{fill:url(#Degradado_sin_nombre_14-4);}.cls-23{fill:#d78c80;}.cls-24{fill:url(#Degradado_sin_nombre_14-5);}.cls-25{fill:#e09180;}.cls-26{fill:#dd8074;}.cls-27{fill:#888787;}.cls-28{fill:#3c3c3b;}.cls-29{fill:#1d1d1b;}.cls-30{fill:#d5515e;}.cls-31{fill:url(#linear-gradient-3);}.cls-32{fill:#e8af00;}</style><linearGradient id="Degradado_sin_nombre_14" x1="33.06" y1="34.23" x2="38.59" y2="33.13" gradientUnits="userSpaceOnUse"><stop offset="0" stop-color="#e6b99e"/><stop offset="1" stop-color="#e08f80"/></linearGradient><linearGradient id="Degradado_sin_nombre_7" x1="97.38" y1="34.27" x2="91.26" y2="33.33" gradientUnits="userSpaceOnUse"><stop offset="0" stop-color="#e08f80"/><stop offset="1" stop-color="#e6b99e"/></linearGradient><linearGradient id="Degradado_sin_nombre_14-2" x1="56.8" y1="41.07" x2="71.25" y2="41.07" xlink:href="#Degradado_sin_nombre_14"/><linearGradient id="Degradado_sin_nombre_14-3" x1="104.68" y1="52.18" x2="111.73" y2="50.77" xlink:href="#Degradado_sin_nombre_14"/><linearGradient id="linear-gradient" x1="172.11" y1="52.23" x2="164.3" y2="51.04" xlink:href="#Degradado_sin_nombre_14"/><linearGradient id="linear-gradient-2" x1="137.55" y1="37.67" x2="137.55" y2="89.24" gradientUnits="userSpaceOnUse"><stop offset="0" stop-color="#e3a480"/><stop offset="1" stop-color="#e5b59d"/></linearGradient><linearGradient id="Degradado_sin_nombre_9" x1="134.6" y1="41.39" x2="134.6" y2="60.83" gradientUnits="userSpaceOnUse"><stop offset="0" stop-color="#e7c2a2"/><stop offset="0.99" stop-color="#e3a487"/></linearGradient><linearGradient id="Degradado_sin_nombre_14-4" x1="140.5" y1="41.93" x2="140.5" y2="59.62" xlink:href="#Degradado_sin_nombre_14"/><linearGradient id="Degradado_sin_nombre_14-5" x1="137.55" y1="44.42" x2="137.55" y2="60.42" xlink:href="#Degradado_sin_nombre_14"/><linearGradient id="linear-gradient-3" x1="114.71" y1="105.94" x2="114.71" y2="85.98" gradientUnits="userSpaceOnUse"><stop offset="0" stop-color="#e8af00"/><stop offset="1" stop-color="#e49d33"/></linearGradient></defs><title>Recurso 7</title><g id="Capa_2" data-name="Capa 2"><g id="Capa_1-2" data-name="Capa 1"><path class="cls-1" d="M129.12,113.78c-6-22.53-22.17-50.86-64.56-50.86S6,91.25,0,113.78Z" transform="translate(0 0)"/><path class="cls-2" d="M116.13,113.78c-4.55-23.56-17.23-53-51.57-53s-47,29.45-51.57,53Z" transform="translate(0 0)"/><path class="cls-3" d="M64.56,59.09a53.94,53.94,0,0,0-19.47,6.45l.3.29c6.34,6.27,17.74,17.11,17.85,17.22l1.32,1.25Z" transform="translate(0 0)"/><path class="cls-4" d="M64.56,79.88V35.64H55.44c1,5.22-3.25,21.93-7.81,29.47C53,69.88,61.81,77.5,64.56,79.88Z" transform="translate(0 0)"/><path class="cls-3" d="M64.56,59.09A53.81,53.81,0,0,1,84,65.54l-.3.29C77.39,72.1,66,82.94,65.88,83.05L64.56,84.3Z" transform="translate(0 0)"/><path class="cls-4" d="M64.56,79.88V35.64h9.12c-1,5.22,3.25,21.93,7.82,29.47C76.15,69.88,67.32,77.5,64.56,79.88Z" transform="translate(0 0)"/><path class="cls-5" d="M41.37,33.51c.3,4.54-1.16,8.23-4,8.23s-5.9-3.65-6.2-8.19,1.73-8.22,4.54-8.23S41.07,29,41.37,33.51Z" transform="translate(0 0)"/><path class="cls-6" d="M33.8,28.42a11.71,11.71,0,0,1,3.3,7.28" transform="translate(0 0)"/><path class="cls-7" d="M90.27,35.15c0,14.5,4.06,33-26.25,33s-26.25-18.52-26.25-33S41.19,3.1,64,3.1,90.27,20.66,90.27,35.15Z" transform="translate(0 0)"/><path class="cls-8" d="M52.44,5.61s-11.7,6.67-14.56,25.32C38.29,18.26,43,8.89,48,5.83S52.44,5.61,52.44,5.61Z" transform="translate(0 0)"/><path class="cls-8" d="M87.68,33.56l2.67-3.1C90.35,18.15,93.89,0,64,0,47.76,0,41.24,5.3,38.76,12.41c3.69-4.35,10.38-7.22,22.35-7.22C87.42,5.19,88.24,20.59,87.68,33.56Z" transform="translate(0 0)"/><path class="cls-9" d="M87.76,33.51c-.3,4.54,1.15,8.23,4,8.23s5.9-3.65,6.2-8.19-1.73-8.22-4.54-8.23S88.06,29,87.76,33.51Z" transform="translate(0 0)"/><path class="cls-6" d="M95.33,28.42A11.75,11.75,0,0,0,92,35.7" transform="translate(0 0)"/><path class="cls-8" d="M64,49.36a17.6,17.6,0,0,1-7.92-1.71,3.67,3.67,0,0,0-.43,1.71,3.76,3.76,0,0,0,3.76,3.76,3.71,3.71,0,0,0,2.3-.8,3.66,3.66,0,0,0,2.29.8,3.71,3.71,0,0,0,2.3-.8,3.68,3.68,0,0,0,2.29.8A3.73,3.73,0,0,0,72,47.65,17.65,17.65,0,0,1,64,49.36Z" transform="translate(0 0)"/><path class="cls-10" d="M70.2,41.74H57.84a3.65,3.65,0,0,0,0,7.3H70.2a3.65,3.65,0,0,0,0-7.3Z" transform="translate(0 0)"/><path class="cls-11" d="M71.25,44.17c0,4-3.24,5.67-7.23,5.67s-7.22-1.68-7.22-5.67S60,32.29,64,32.29,71.25,40.18,71.25,44.17Z" transform="translate(0 0)"/><path class="cls-12" d="M74.9,55.36A12.55,12.55,0,0,1,64.49,60.9" transform="translate(0 0)"/><path class="cls-8" d="M58.57,27.9l0-.09a1.82,1.82,0,0,0-.26-.55,5.08,5.08,0,0,0-4.78-2.77c-3.25.09-6.19,2.69-6.5,3.51a1,1,0,0,0,0,.32.24.24,0,0,0,0,.08.58.58,0,0,0,.07.21,0,0,0,0,0,0,0h0a1.79,1.79,0,0,0,1.76.5c1.13-.17,3.79-1.19,4.95-.82s3.84,1.17,4.35.85a1,1,0,0,0,.45-.66h0s0,0,0-.05a.53.53,0,0,0,0-.13A1.26,1.26,0,0,0,58.57,27.9Z" transform="translate(0 0)"/><path class="cls-8" d="M81.09,28.32A.74.74,0,0,0,81,28c-.31-.82-3.25-3.42-6.5-3.51a5.09,5.09,0,0,0-4.78,2.77,2.26,2.26,0,0,0-.26.55.19.19,0,0,1,0,.08,1.34,1.34,0,0,0,0,.44.51.51,0,0,0,0,.13v.05h0a1.09,1.09,0,0,0,.45.66c.51.32,3.2-.48,4.36-.85s3.81.65,4.94.82a1.79,1.79,0,0,0,1.76-.5h0a.06.06,0,0,1,0,0,.93.93,0,0,0,.07-.2S81.09,28.35,81.09,28.32Z" transform="translate(0 0)"/><path class="cls-13" d="M49.18,32.57a24.56,24.56,0,0,1,7.19,0" transform="translate(0 0)"/><path class="cls-13" d="M71.67,32.57a24.56,24.56,0,0,1,7.19,0" transform="translate(0 0)"/><path class="cls-10" d="M53.79,48.51a30.11,30.11,0,0,0-3.37,4.61A31,31,0,0,1,53,47.92a.5.5,0,0,1,.68-.17.49.49,0,0,1,.18.68l-.05.07Z" transform="translate(0 0)"/><path class="cls-10" d="M75.05,47.92a31,31,0,0,1,2.57,5.2,30.11,30.11,0,0,0-3.37-4.61h0a.5.5,0,0,1,.75-.65Z" transform="translate(0 0)"/><path class="cls-14" d="M69.83,35.7a6.33,6.33,0,0,0-11.61,0H45a7,7,0,1,0,14,0h0a5.57,5.57,0,0,1,10,0h0a7,7,0,1,0,14,0Z" transform="translate(0 0)"/><path class="cls-15" d="M172.86,87.51c-11.17-5.75-35-13.41-35-13.41h-.68s-23.8,7.66-35,13.41-10.49,26.27-10.49,26.27h91.6S184,93.27,172.86,87.51Z" transform="translate(0 0)"/><path class="cls-16" d="M118.4,67.45c0,4.83,1.87,8.75-8.76,8.75-4.83,0-8.75-1.23-8.75-6.07s4.68-11.82,9.52-11.82S118.4,62.61,118.4,67.45Z" transform="translate(0 0)"/><path class="cls-16" d="M156.7,67.45c0,4.83-1.87,8.75,8.76,8.75,4.83,0,8.75-1.23,8.75-6.07s-4.68-11.82-9.52-11.82S156.7,62.61,156.7,67.45Z" transform="translate(0 0)"/><path class="cls-16" d="M165.56,41.51c0,16.06-12.54,29.07-28,29.07s-28-13-28-29.07,12.54-29.08,28-29.08S165.56,25.45,165.56,41.51Z" transform="translate(0 0)"/><path class="cls-17" d="M115.3,51.26c.38,5.22-1.48,9.48-5.08,9.48s-7.56-4.21-7.94-9.43,2.22-9.47,5.81-9.48S114.91,46,115.3,51.26Z" transform="translate(0 0)"/><path class="cls-18" d="M159.8,51.26c-.38,5.22,1.48,9.48,5.08,9.48s7.55-4.21,7.94-9.43-2.22-9.47-5.81-9.48S160.19,46,159.8,51.26Z" transform="translate(0 0)"/><path class="cls-19" d="M105.6,45.4a13.08,13.08,0,0,1,4.24,8.38" transform="translate(0 0)"/><path class="cls-19" d="M169.5,45.4a13.08,13.08,0,0,0-4.24,8.38" transform="translate(0 0)"/><path class="cls-20" d="M164.58,47.84c0,17.53,4.64,34.15-27,34.15s-27-16.62-27-34.15,12.1-31.73,27-31.73S164.58,30.32,164.58,47.84Z" transform="translate(0 0)"/><polygon class="cls-21" points="137.55 40.47 131.64 60.58 133.86 60.58 137.55 40.47"/><polygon class="cls-22" points="137.55 40.47 143.46 60.58 141.24 60.58 137.55 40.47"/><path class="cls-23" d="M137.55,62.94c3.26,0,5.91-1.06,5.91-2.36H131.64C131.64,61.88,134.29,62.94,137.55,62.94Z" transform="translate(0 0)"/><polygon class="cls-24" points="137.55 40.47 133.86 60.58 141.24 60.58 137.55 40.47"/><path class="cls-25" d="M128.46,69.91a7.38,7.38,0,0,0,2.12.89,17.54,17.54,0,0,0,2.29.47,33.35,33.35,0,0,0,9.36,0,17.88,17.88,0,0,0,2.29-.47,7.63,7.63,0,0,0,2.12-.89h0a.17.17,0,0,1,.23,0,.17.17,0,0,1,0,.24,10.72,10.72,0,0,1-4.51,1.69,27.41,27.41,0,0,1-9.56,0,10.82,10.82,0,0,1-4.52-1.69.17.17,0,0,1,0-.24.17.17,0,0,1,.23,0Z" transform="translate(0 0)"/><path class="cls-26" d="M132.82,50.73c0,2.33-2.51,4.21-5.6,4.21s-5.6-1.55-5.6-4.21,2.51-4.22,5.6-4.22S132.82,48.4,132.82,50.73Z" transform="translate(0 0)"/><path class="cls-26" d="M142.28,50.73c0,2.33,2.51,4.21,5.6,4.21s5.59-1.55,5.59-4.21-2.5-4.22-5.59-4.22S142.28,48.4,142.28,50.73Z" transform="translate(0 0)"/><path class="cls-27" d="M140.17,38.54c0-1,2.92-1.88,6.53-1.88s6.52.3,6.52,1.88-2.92,1.89-6.52,1.89S140.17,39.58,140.17,38.54Z" transform="translate(0 0)"/><path class="cls-27" d="M134.93,38.54c0-1-2.92-1.88-6.53-1.88s-6.53.3-6.53,1.88,2.93,1.89,6.53,1.89S134.93,39.58,134.93,38.54Z" transform="translate(0 0)"/><path class="cls-28" d="M161.56,37.31a38,38,0,0,0-10.82-1.75c-5.52,0-7.08.27-10,1.26a.84.84,0,0,0,.33,1.63,2.67,2.67,0,0,0-.23.82,11.68,11.68,0,0,0-2.79-.35h-1a11.63,11.63,0,0,0-2.79.35,2.67,2.67,0,0,0-.23-.82.84.84,0,0,0,.32-1.63c-2.89-1-4.46-1.26-10-1.26a37.78,37.78,0,0,0-10.82,1.75.84.84,0,0,0,.27,1.63.84.84,0,0,0,.27,0l.37-.12v8.63c0,1.84.74,7.84,10.3,7.84,4.34,0,9.51-1.49,9.51-8.56V40.83a8.76,8.76,0,0,1,2.77-.44h1a8.68,8.68,0,0,1,2.77.44v5.86c0,7.07,5.18,8.56,9.52,8.56,9.56,0,10.3-6,10.3-7.84V38.78l.37.12a.84.84,0,0,0,.54-1.59Zm-28.25,9.38c0,5-2.88,7.6-8.56,7.6-8.67,0-9.34-5.27-9.34-6.88V38.6a.19.19,0,0,1,0-.1,36,36,0,0,1,8.92-1.27c4.32,0,6.06.18,7.84.67a2,2,0,0,1,1.11,1.72Zm26.38.72c0,1.61-.67,6.88-9.34,6.88-5.68,0-8.56-2.56-8.56-7.6V39.62a2,2,0,0,1,1.11-1.72c1.77-.49,3.52-.67,7.84-.67a36,36,0,0,1,8.92,1.27.38.38,0,0,1,0,.1Z" transform="translate(0 0)"/><path class="cls-29" d="M130,44.07a1.34,1.34,0,1,1-1.33-1.33A1.33,1.33,0,0,1,130,44.07Z" transform="translate(0 0)"/><path class="cls-29" d="M147.74,44.07a1.33,1.33,0,1,1-1.33-1.33A1.32,1.32,0,0,1,147.74,44.07Z" transform="translate(0 0)"/><path class="cls-16" d="M159.58,14.92A14.13,14.13,0,1,1,145.45.8,14.13,14.13,0,0,1,159.58,14.92Z" transform="translate(0 0)"/><path class="cls-16" d="M131.81,26.39a5.4,5.4,0,1,1,5.4,5.4A5.4,5.4,0,0,1,131.81,26.39Z" transform="translate(0 0)"/><path class="cls-16" d="M120.77,18.18A8.22,8.22,0,1,1,129,26.39,8.22,8.22,0,0,1,120.77,18.18Z" transform="translate(0 0)"/><path class="cls-16" d="M126.43,23.85a6.31,6.31,0,1,1-6.3-6.31A6.3,6.3,0,0,1,126.43,23.85Z" transform="translate(0 0)"/><path class="cls-16" d="M148.07,25.19a6.61,6.61,0,1,1,6.6,6.6A6.6,6.6,0,0,1,148.07,25.19Z" transform="translate(0 0)"/><polygon class="cls-30" points="167.6 104.39 167.6 113.78 163.89 113.78 167.6 104.39"/><polygon class="cls-30" points="107.5 104.39 107.5 113.78 111.21 113.78 107.5 104.39"/><path class="cls-31" d="M122.19,107.72a3.27,3.27,0,0,1-3.53,3.08c-2.64-.09-5.27-.09-7.91,0a3.27,3.27,0,0,1-3.53-3.08c-.08-5.19-.15-15.36-.22-20.55a3.59,3.59,0,0,1,3.58-3.43q4.13-.13,8.25,0a3.6,3.6,0,0,1,3.59,3.43C122.34,92.36,122.27,102.53,122.19,107.72Z" transform="translate(0 0)"/><path class="cls-32" d="M167.59,84.75c1.45,2.92-.29,5.93-3.89,6.52a160.66,160.66,0,0,1-52.24,0c-3.59-.59-5.34-3.61-3.89-6.52.69-1.46,1.39-2.91,2.08-4.37,1.45-2.92,4.84-4.84,7.55-4.39A125.56,125.56,0,0,0,158,76c2.72-.45,6.11,1.47,7.55,4.39C166.21,81.84,166.9,83.29,167.59,84.75Z" transform="translate(0 0)"/></g></g></svg>