<svg xmlns="http://www.w3.org/2000/svg" viewBox="0 0 89.06 112.66"><defs><style>.cls-1{fill:#ff961c;}.cls-2{fill:#141b4d;}</style></defs><title>Recurso 6</title><g id="Capa_2" data-name="Capa 2"><g id="Capa_1-2" data-name="Capa 1"><path class="cls-1" d="M44.53,109.77A41.64,41.64,0,1,1,86.17,68.13,41.69,41.69,0,0,1,44.53,109.77Z"/><path class="cls-2" d="M44.53,29.39A38.75,38.75,0,1,1,5.79,68.13,38.79,38.79,0,0,1,44.53,29.39m0-5.79A44.53,44.53,0,1,0,89.06,68.13,44.53,44.53,0,0,0,44.53,23.6Z"/><path class="cls-2" d="M26.39,75.58a7.79,7.79,0,0,0,1.47,3.94q2,2.39,6.84,2.38a14.67,14.67,0,0,0,4.72-.63c2.29-.8,3.44-2.28,3.44-4.46a3.3,3.3,0,0,0-1.69-3,18.11,18.11,0,0,0-5.34-1.8l-4.16-.91q-6.14-1.37-8.44-3-3.89-2.65-3.88-8.32a11,11,0,0,1,3.8-8.59Q27,47.87,34.32,47.87a17.16,17.16,0,0,1,10.5,3.22c2.9,2.16,4.42,5.27,4.56,9.36H41.66a5.51,5.51,0,0,0-3.11-4.93,10.65,10.65,0,0,0-4.78-1,9.17,9.17,0,0,0-5.09,1.25,4,4,0,0,0-1.9,3.5,3.3,3.3,0,0,0,1.88,3.08A23.34,23.34,0,0,0,33.77,64l6.75,1.59a17.23,17.23,0,0,1,6.65,2.8q3.44,2.7,3.44,7.85A11,11,0,0,1,46.53,85Q42.45,88.46,35,88.45q-7.59,0-12-3.44a11.34,11.34,0,0,1-4.35-9.43Z"/><path class="cls-2" d="M64.15,47.82h6.19l-15,39.64H49.24Z"/><polygon class="cls-1" points="33.84 26.5 22.04 2.9 67.22 2.9 54.34 26.5 33.84 26.5"/><path class="cls-2" d="M62.34,5.79,52.62,23.6h-17L26.72,5.79H62.34M72.1,0H17.35l4.19,8.38,8.91,17.81,1.6,3.2h24l1.64-3L67.42,8.56,72.1,0Z"/></g></g></svg>