<svg xmlns="http://www.w3.org/2000/svg" xmlns:xlink="http://www.w3.org/1999/xlink" viewBox="0 0 303.76 300.79"><defs><style>.cls-1{fill:#ff921c;}.cls-2{fill:#141b4d;}.cls-3{fill:#cb8072;}.cls-4{fill:#575756;}.cls-5{fill:#1d1d1b;}.cls-6{fill:url(#Degradado_sin_nombre_1);}.cls-7{fill:url(#linear-gradient);}.cls-8{fill:none;stroke:#bc8072;stroke-linecap:round;stroke-miterlimit:10;stroke-width:0.64px;}.cls-9{fill:#d29b80;}.cls-10{fill:#3c3c3b;}.cls-11{fill:#bc8072;}.cls-12{fill:url(#Degradado_sin_nombre_4);}.cls-13{fill:url(#Degradado_sin_nombre_1-2);}.cls-14{fill:#d18a33;}.cls-15{fill:#cd8033;}.cls-16{fill:url(#linear-gradient-2);}.cls-17{fill:url(#linear-gradient-3);}.cls-18{fill:#ffd1a0;}.cls-19{fill:#fff;}</style><linearGradient id="Degradado_sin_nombre_1" x1="89.77" y1="94.15" x2="103.15" y2="91.48" gradientUnits="userSpaceOnUse"><stop offset="0" stop-color="#d3a68b"/><stop offset="1" stop-color="#cd8080"/></linearGradient><linearGradient id="linear-gradient" x1="217.17" y1="94.24" x2="202.38" y2="91.98" xlink:href="#Degradado_sin_nombre_1"/><linearGradient id="Degradado_sin_nombre_4" x1="147.32" y1="78.2" x2="147.32" y2="111.35" gradientUnits="userSpaceOnUse"><stop offset="0" stop-color="#d4af8f"/><stop offset="0.99" stop-color="#d09180"/></linearGradient><linearGradient id="Degradado_sin_nombre_1-2" x1="156.44" y1="76.92" x2="156.44" y2="110.11" xlink:href="#Degradado_sin_nombre_1"/><linearGradient id="linear-gradient-2" x1="151.88" y1="0.91" x2="151.88" y2="26.98" gradientUnits="userSpaceOnUse"><stop offset="0" stop-color="#d5c30d"/><stop offset="1" stop-color="#cb8000"/></linearGradient><linearGradient id="linear-gradient-3" x1="151.88" y1="47.94" x2="151.88" y2="16.39" gradientUnits="userSpaceOnUse"><stop offset="0" stop-color="#d5c30d"/><stop offset="1" stop-color="#c46608"/></linearGradient></defs><title>Recurso 8</title><g id="Capa_2" data-name="Capa 2"><g id="Capa_1-2" data-name="Capa 1"><path class="cls-1" d="M51,157a100.89,100.89,0,1,1,100.89,100.9A100.89,100.89,0,0,1,51,157Z"/><path class="cls-2" d="M151.88,22.49A133.15,133.15,0,0,1,246,249.79,133.15,133.15,0,1,1,57.73,61.49a132.27,132.27,0,0,1,94.15-39m0-12A145.15,145.15,0,1,0,297,155.64,145.16,145.16,0,0,0,151.88,10.49Z"/><path class="cls-3" d="M211.2,189.79c-17.52-27.33-14.6-77.47-14.6-77.47l-44.72-.86-44.72.86s2.92,50.14-14.6,77.47c11.06,25,33.46,40.93,59.32,40.93S200.14,214.76,211.2,189.79Z"/><path class="cls-4" d="M222.05,201.42a40.47,40.47,0,0,1-10.85-11.63c-11.06,25-33.46,40.93-59.32,40.93s-48.26-16-59.32-40.93a40.47,40.47,0,0,1-10.85,11.63C52.25,221.84,8.77,213.51,0,300.79H303.76C295,213.51,251.51,221.84,222.05,201.42Z"/><path class="cls-5" d="M113.51,73A10.5,10.5,0,1,1,103,62.53,10.5,10.5,0,0,1,113.51,73Z"/><path class="cls-5" d="M211.24,73a10.5,10.5,0,1,1-10.5-10.5A10.5,10.5,0,0,1,211.24,73Z"/><path class="cls-5" d="M117.51,109.43a9.4,9.4,0,1,1-9.4-9.4A9.4,9.4,0,0,1,117.51,109.43Z"/><path class="cls-5" d="M205.06,109.43a9.41,9.41,0,1,1-9.41-9.4A9.41,9.41,0,0,1,205.06,109.43Z"/><path class="cls-6" d="M109.86,92.4c.73,11-2.8,19.92-9.59,19.92s-14.27-8.84-15-19.81,4.19-19.89,11-19.92S109.13,81.43,109.86,92.4Z"/><path class="cls-7" d="M193.9,92.4c-.73,11,2.8,19.92,9.58,19.92s14.28-8.84,15-19.81-4.19-19.89-11-19.92S194.63,81.43,193.9,92.4Z"/><path class="cls-8" d="M91.55,80.1a28.36,28.36,0,0,1,8,17.59"/><path class="cls-8" d="M212.21,80.1a28.4,28.4,0,0,0-8,17.59"/><path class="cls-9" d="M201.29,89.45c0,40.06-16.95,82.57-49.41,82.57s-49.41-42.51-49.41-82.57,9.1-74.74,49.41-74.74S201.29,49.38,201.29,89.45Z"/><path class="cls-5" d="M133.31,82.8a5.15,5.15,0,1,1-5.15-5.15A5.15,5.15,0,0,1,133.31,82.8Z"/><path class="cls-10" d="M140.85,63.5c-1-1.45-3.69-6.9-11.55-6.7s-15,6.5-15.72,8.48S115.22,68.42,118,68s9.16-2.87,12-2,9.3,2.83,10.53,2.07S142.22,65.5,140.85,63.5Z"/><path class="cls-5" d="M129.3,56.8c-7.86.21-15,6.5-15.72,8.48a1.64,1.64,0,0,0,.1,1.54c3.35-1.92,9.67-5.1,15-5.1,4.73,0,9.73,2.71,12.88,4.78a3.74,3.74,0,0,0-.71-3C139.85,62.05,137.16,56.6,129.3,56.8Z"/><path class="cls-5" d="M170.45,82.8a5.15,5.15,0,1,0,5.15-5.15A5.14,5.14,0,0,0,170.45,82.8Z"/><path class="cls-10" d="M162.91,63.5c1-1.45,3.69-6.9,11.55-6.7s15,6.5,15.72,8.48-1.64,3.14-4.37,2.73-9.16-2.87-12-2-9.29,2.83-10.52,2.07S161.54,65.5,162.91,63.5Z"/><path class="cls-5" d="M174.46,56.8c7.86.21,15,6.5,15.72,8.48a1.64,1.64,0,0,1-.1,1.54c-3.35-1.92-9.67-5.1-15-5.1-4.72,0-9.72,2.71-12.87,4.78a3.71,3.71,0,0,1,.71-3C163.91,62.05,166.6,56.6,174.46,56.8Z"/><path class="cls-11" d="M130.31,116.49a34.66,34.66,0,0,0,5.1,2.73,36.8,36.8,0,0,0,5.44,2,27.38,27.38,0,0,0,11.37.85c3.81-.66,7.67-1.38,11.44-2.27a42.8,42.8,0,0,0,5.55-1.65,13,13,0,0,0,2.53-1.27,3.39,3.39,0,0,0,1.58-2,.32.32,0,0,1,.63.1,4.06,4.06,0,0,1-1.75,2.58,13.26,13.26,0,0,1-2.64,1.48,41.25,41.25,0,0,1-5.64,1.84c-3.82,1-7.64,1.72-11.53,2.41a27.67,27.67,0,0,1-11.83-1A36.25,36.25,0,0,1,129.94,117a.31.31,0,0,1-.08-.44.33.33,0,0,1,.44-.09Z"/><path class="cls-12" d="M151.88,78.47c-4,0-5.15,9.09-5.15,17.59s-11.76,15.4,5.15,15.4Z"/><path class="cls-13" d="M151.88,78.47c4.05,0,5.14,9.09,5.14,17.59s11.76,15.4-5.14,15.4Z"/><path class="cls-5" d="M151.88,29.53c38.76,0,48.66,29,49.36,63.53,0-1.2,0-2.41,0-3.61,0-40.07-9.1-74.74-49.41-74.74s-49.41,34.67-49.41,74.74c0,1.2,0,2.41,0,3.61C103.22,58.57,113.12,29.53,151.88,29.53Z"/><path class="cls-14" d="M196,42c-1.38-23.45-20.61-42-44.14-42s-42.76,18.59-44.15,42Z"/><path class="cls-15" d="M198.34,54.63a244.49,244.49,0,0,0-92.92,0c.92-6.27,1.86-12.53,2.78-18.81a230,230,0,0,1,87.36,0Q196.94,45.24,198.34,54.63Z"/><path class="cls-16" d="M151.88,0A43.76,43.76,0,0,0,139,1.93l1.36,27.6h23l1.36-27.6A43.76,43.76,0,0,0,151.88,0Z"/><path class="cls-17" d="M166.8,31.64a14.93,14.93,0,1,1-14.92-15.13A15,15,0,0,1,166.8,31.64Z"/><path class="cls-18" d="M164.73,31.64a12.85,12.85,0,1,1-12.85-13A12.93,12.93,0,0,1,164.73,31.64Z"/><path class="cls-19" d="M161.94,26.66h0a11.26,11.26,0,0,0-3.57-4.27l-6.49,9.25Z"/><path class="cls-10" d="M218,198.11a44.34,44.34,0,0,1-6.79-8.32c-11.06,25-33.46,40.93-59.32,40.93s-48.26-16-59.32-40.93a44.34,44.34,0,0,1-6.79,8.32c13.09,26.37,37.78,43,66.11,43S204.9,224.48,218,198.11Z"/><path class="cls-14" d="M38,222.67v78.12h72S90.6,260,80,202.63A107.15,107.15,0,0,0,38,222.67Z"/><path class="cls-14" d="M265.75,222.62v78.13h-72s19.44-40.81,30.06-98.17A107.15,107.15,0,0,1,265.75,222.62Z"/></g></g></svg>