<svg xmlns="http://www.w3.org/2000/svg" xmlns:xlink="http://www.w3.org/1999/xlink" viewBox="0 0 290.3 290.3"><defs><style>.cls-1{fill:#ff971c;}.cls-2{fill:#141b4d;}.cls-3{fill:#d08072;}.cls-4{fill:#80aea2;}.cls-5{fill:url(#Degradado_sin_nombre_7);}.cls-6{fill:none;stroke:#c18072;stroke-linecap:round;stroke-miterlimit:10;stroke-width:0.64px;}.cls-7{fill:url(#linear-gradient);}.cls-8{fill:#d7a080;}.cls-9{fill:#1d1d1b;}.cls-10{fill:url(#linear-gradient-2);}.cls-11{fill:url(#linear-gradient-3);}.cls-12{fill:url(#Degradado_sin_nombre_7-2);}.cls-13{fill:#c18072;}.cls-14{fill:#3c3c3b;}.cls-15{fill:#c8c8c8;}.cls-16{fill:#b5b5b5;}.cls-17{fill:#a1a1a1;}</style><linearGradient id="Degradado_sin_nombre_7" x1="78.28" y1="107.67" x2="91.67" y2="104.99" gradientUnits="userSpaceOnUse"><stop offset="0" stop-color="#d8ab90"/><stop offset="1" stop-color="#d28180"/></linearGradient><linearGradient id="linear-gradient" x1="213.49" y1="107.75" x2="198.7" y2="105.49" xlink:href="#Degradado_sin_nombre_7"/><linearGradient id="linear-gradient-2" x1="127.28" y1="125.21" x2="154.64" y2="125.21" gradientUnits="userSpaceOnUse"><stop offset="0" stop-color="#d28180"/><stop offset="1" stop-color="#d8ab90"/></linearGradient><linearGradient id="linear-gradient-3" x1="-1004.09" y1="125.21" x2="-976.73" y2="125.21" gradientTransform="matrix(-1, 0, 0, 1, -842.78, 0)" xlink:href="#linear-gradient-2"/><linearGradient id="Degradado_sin_nombre_7-2" x1="133.95" y1="110.13" x2="154.64" y2="110.13" xlink:href="#Degradado_sin_nombre_7"/></defs><title>Recurso 9</title><g id="Capa_2" data-name="Capa 2"><g id="Capa_1-2" data-name="Capa 1"><path class="cls-1" d="M44.26,146.75a100.9,100.9,0,1,1,100.89,100.9A100.89,100.89,0,0,1,44.26,146.75Z"/><path class="cls-2" d="M145.15,12a133.16,133.16,0,0,1,94.16,227.3A133.15,133.15,0,1,1,51,51a132.28,132.28,0,0,1,94.15-39m0-12A145.15,145.15,0,1,0,290.3,145.15,145.16,145.16,0,0,0,145.15,0Z"/><path class="cls-3" d="M289,290.3s-3.48-91.72-34.67-106.41c-8.23-3.87-13.28,10.32-14.61,15.45-5.77,22.13-9.65,50-9.65,91Z"/><path class="cls-3" d="M1.29,290.3S4.77,198.58,36,183.89c8.24-3.87,13.28,10.32,14.62,15.45,5.76,22.13,9.65,50,9.65,91Z"/><path class="cls-4" d="M217.8,174.41c-18.19-6.93-27.88-43.57-27.88-43.57H100.38S90.7,167.48,72.5,174.41a161.88,161.88,0,0,1-35.18,8.86s15.6,57.63,15.6,97.5v9.53H237.39v-9.53c0-39.87,15.6-97.5,15.6-97.5A161.89,161.89,0,0,1,217.8,174.41Z"/><path class="cls-3" d="M145.15,199.07c31.22,0,59.28-8.7,78.66-22.53-2-.66-4-1.35-6-2.13-18.19-6.93-27.88-43.57-27.88-43.57H100.38S90.7,167.48,72.5,174.41c-2,.78-4,1.47-6,2.13C85.87,190.37,113.93,199.07,145.15,199.07Z"/><path class="cls-5" d="M98.37,105.92c.73,11-2.8,19.91-9.58,19.91S74.52,117,73.79,106s4.18-19.89,11-19.91S97.64,94.94,98.37,105.92Z"/><path class="cls-6" d="M80.06,93.61a28.41,28.41,0,0,1,8,17.6"/><path class="cls-7" d="M190.22,105.92c-.73,11,2.79,19.91,9.58,19.91s14.28-8.84,15-19.81-4.18-19.89-11-19.91S191,94.94,190.22,105.92Z"/><path class="cls-6" d="M208.53,93.61a28.41,28.41,0,0,0-8,17.6"/><path class="cls-8" d="M200.08,98c-2.88-40.12-23.36-67.73-54.85-67.73l-.94,0-.93,0c-31.49,0-52,27.61-54.85,67.73-2.68,37.31,13,76.39,54.85,76.39l.93,0,.94,0C187.09,174.41,202.76,135.33,200.08,98Z"/><path class="cls-9" d="M144.29,134.47c-7.17,0-11.38-2.63-16.93-6.93-.18.36-1.16-1.21-3.1,1.14s.39,9.18,4.23,10.73a5.21,5.21,0,0,0,5.62-1,6.48,6.48,0,0,0,4.87,3.82,5.62,5.62,0,0,0,5.31-2.48,5.64,5.64,0,0,0,5.33,2.48,6.5,6.5,0,0,0,4.86-3.82,5.17,5.17,0,0,0,5.62,1c3.84-1.55,6.21-8.17,4.23-10.73s-2.92-.77-3.1-1.14C155.68,131.83,151.47,134.48,144.29,134.47Z"/><path class="cls-10" d="M154.64,125.21c0,5.35-6.12,9.68-13.68,9.68s-13.68-2.08-13.68-7.42,6.13-11.94,13.68-11.94S154.64,119.86,154.64,125.21Z"/><path class="cls-11" d="M134,125.21c0,5.35,6.12,9.68,13.68,9.68s13.68-2.08,13.68-7.42-6.13-11.94-13.68-11.94S134,119.86,134,125.21Z"/><path class="cls-12" d="M153.6,107.87c0,14.92,5.64,27-9.31,27s-9.3-12.1-9.3-27,4.16-22.5,9.3-22.5S153.6,93,153.6,107.87Z"/><path class="cls-13" d="M129.68,152.51c1.61.41,3.23.79,4.86,1.06s3.26.56,4.89.72a40.57,40.57,0,0,0,9.79-.09,22.47,22.47,0,0,0,9.06-3.3,19.94,19.94,0,0,0,3.76-3.11,18.84,18.84,0,0,0,3-3.95,17.7,17.7,0,0,1-6.19,7.81,20.91,20.91,0,0,1-9.41,3.72,34,34,0,0,1-10.07-.18A42.56,42.56,0,0,1,129.68,152.51Z"/><path class="cls-9" d="M123.12,95.78A5.15,5.15,0,1,1,118,90.63,5.14,5.14,0,0,1,123.12,95.78Z"/><path class="cls-14" d="M130.67,81.69c-1-1.46-3.7-6.91-11.56-6.7s-15,6.49-15.72,8.47,1.64,3.15,4.38,2.74,9.16-2.87,12-2,9.3,2.83,10.53,2.06S132,83.68,130.67,81.69Z"/><path class="cls-9" d="M119.11,75c-7.86.2-15,6.49-15.72,8.47A1.67,1.67,0,0,0,103.5,85c3.35-1.93,9.67-5.1,15-5.1,4.72,0,9.73,2.71,12.87,4.78a3.73,3.73,0,0,0-.7-3C129.67,80.23,127,74.78,119.11,75Z"/><path class="cls-9" d="M165.46,95.78a5.16,5.16,0,1,0,5.16-5.15A5.15,5.15,0,0,0,165.46,95.78Z"/><path class="cls-14" d="M157.93,81.69c1-1.46,3.69-6.91,11.55-6.7s15,6.49,15.72,8.47-1.64,3.15-4.38,2.74-9.15-2.87-12-2-9.3,2.83-10.52,2.06S156.56,83.68,157.93,81.69Z"/><path class="cls-9" d="M169.48,75c7.86.2,15,6.49,15.72,8.47a1.67,1.67,0,0,1-.1,1.55c-3.35-1.93-9.67-5.1-15-5.1-4.72,0-9.72,2.71-12.87,4.78a3.7,3.7,0,0,1,.71-3C158.93,80.23,161.62,74.78,169.48,75Z"/><path class="cls-13" d="M141,168.31a10.79,10.79,0,0,0,4.63,1.26,3.57,3.57,0,0,0,3.47-2.16,2.93,2.93,0,0,0,.07-2,2.43,2.43,0,0,0-1.31-1.43,6.41,6.41,0,0,0-4.42.21l.27-.33c-.13.54-.26,1.08-.4,1.61l-.14-.35a3.81,3.81,0,0,0,1.75.94,1.51,1.51,0,0,0,1-.19c.31-.14.59-.45,1-.47-.35.09-.53.46-.85.66a1.85,1.85,0,0,1-1.09.41,3.81,3.81,0,0,1-2.17-.78l-.17-.11,0-.25c.07-.55.16-1.09.24-1.64l0-.22.24-.11a9.42,9.42,0,0,1,2.49-.73,5,5,0,0,1,2.72.3,3.47,3.47,0,0,1,2,2.11,4.08,4.08,0,0,1-.14,2.82,4.19,4.19,0,0,1-1.9,2,4.94,4.94,0,0,1-2.65.48A9.2,9.2,0,0,1,141,168.31Z"/><path class="cls-9" d="M100.38,67.63S88,91.43,88.54,113.35c-1.84-19.31.31-27.16-6-26.89C86.09,79.21,82.91,68.24,100.38,67.63Z"/><path class="cls-9" d="M188.21,67.63s12.43,23.8,11.84,45.72c1.84-19.31-.31-27.16,5.95-26.89C202.5,79.21,205.68,68.24,188.21,67.63Z"/><path class="cls-15" d="M184.66,26.13c-13.34-12.36-30.1-18.21-40.37-18.21s-27,5.85-40.36,18.21S91.27,49.19,91.27,49.19c4.11,16.25,53,9.75,53,9.75s48.92,6.5,53-9.75C197.31,49.19,198,38.49,184.66,26.13Z"/><path class="cls-16" d="M130.48,65.37s-2.56-8,7.4-14.78S183.79,45,188.24,41s11.64-4,11,2.82-.53,20.45,0,24.44,7.33,5.11-15.5,3.41S130,72,130.48,65.37Z"/><path class="cls-17" d="M158.1,70.68s2.57-13.27-7.39-20.09S104.8,45,100.35,41s-11.64-4-11,2.82.53,20.45,0,24.44-7.33,5.11,15.5,3.41A454.88,454.88,0,0,1,158.1,70.68Z"/></g></g></svg>