<svg xmlns="http://www.w3.org/2000/svg" xmlns:xlink="http://www.w3.org/1999/xlink" viewBox="0 0 290.3 290.3"><defs><style>.cls-1{fill:#ff971c;}.cls-2{fill:#141b4d;}.cls-3{fill:#6f8087;}.cls-4{fill:#778293;}.cls-5{fill:#d59680;}.cls-6{fill:#c64e1b;}.cls-7{fill:#903f11;}.cls-8{fill:url(#Degradado_sin_nombre_7);}.cls-9{fill:url(#linear-gradient);}.cls-10,.cls-14{fill:none;stroke-linecap:round;}.cls-10{stroke:#c18072;stroke-miterlimit:10;stroke-width:0.78px;}.cls-11{fill:#c79180;}.cls-12{fill:#683b11;}.cls-13{fill:#1d1d1b;}.cls-14{stroke:#1d1d1b;stroke-linejoin:round;stroke-width:2.71px;}.cls-15{fill:#a18080;}.cls-16{fill:#808071;}</style><linearGradient id="Degradado_sin_nombre_7" x1="68.55" y1="110.71" x2="84.97" y2="107.42" gradientUnits="userSpaceOnUse"><stop offset="0" stop-color="#d8ab90"/><stop offset="1" stop-color="#d28180"/></linearGradient><linearGradient id="linear-gradient" x1="225.7" y1="110.82" x2="207.5" y2="108.04" xlink:href="#Degradado_sin_nombre_7"/></defs><title>Recurso 10</title><g id="Capa_2" data-name="Capa 2"><g id="Capa_1-2" data-name="Capa 1"><circle class="cls-1" cx="145.15" cy="146.75" r="100.89" transform="translate(-61.26 145.62) rotate(-45)"/><path class="cls-2" d="M145.15,12a133.16,133.16,0,0,1,94.16,227.3A133.15,133.15,0,1,1,51,51a132.28,132.28,0,0,1,94.15-39m0-12A145.15,145.15,0,1,0,290.3,145.15,145.15,145.15,0,0,0,145.15,0Z"/><path class="cls-3" d="M54.55,290.3h181.2c-5.28-62.67-11.63-100.42-15.36-118.89-3-1.88-5.91-3.54-8.66-5-25.76-13.49-59.45-21.64-66-23.16V143l-.58.13-.57-.13v.26c-6.55,1.52-40.24,9.67-66,23.16-2.76,1.44-5.66,3.1-8.67,5C66.19,189.88,59.84,227.63,54.55,290.3Z"/><path class="cls-4" d="M235.75,290.3h49.91c0-63.92-37-101.23-65.27-118.89C224.12,189.88,230.47,227.63,235.75,290.3Z"/><path class="cls-4" d="M69.91,171.41c-28.27,17.66-65.26,55-65.26,118.89h49.9C59.84,227.63,66.19,189.88,69.91,171.41Z"/><path class="cls-5" d="M185.9,166.43a40.75,40.75,0,1,1-40.75-40.75A40.74,40.74,0,0,1,185.9,166.43Z"/><rect class="cls-6" x="64.86" y="228.75" width="160.6" height="61.55"/><path class="cls-7" d="M94.55,228.75H81.74L83.38,164s3.87-1.8,6.91-3.16,6-2.5,6-2.5Z"/><path class="cls-7" d="M195.76,228.75h12.81L206.92,164s-3.87-1.8-6.9-3.16-6-2.5-6-2.5Z"/><path class="cls-8" d="M93.3,108.56c.9,12.17-3.46,22.1-11.84,22.1s-17.61-9.81-18.51-22,5.17-22.07,13.55-22.1S92.39,96.39,93.3,108.56Z"/><path class="cls-9" d="M197,108.56c-.9,12.17,3.44,22.1,11.82,22.1s17.62-9.81,18.52-22-5.17-22.07-13.55-22.1S197.92,96.39,197,108.56Z"/><path class="cls-10" d="M70.7,94.91s9,7.48,9.87,19.52"/><path class="cls-10" d="M219.61,94.91s-9,7.48-9.86,19.52"/><path class="cls-5" d="M209.25,93.14c0,36.66-9.66,85.25-64.1,85.25S81.06,129.8,81.06,93.14,98.7,26.76,145.15,26.76,209.25,56.48,209.25,93.14Z"/><path class="cls-11" d="M145.15,111.91c-29.22,0-47,11.76-56.23,29.61,8.34,20.71,24.84,36.87,56.23,36.87s47.89-16.16,56.24-36.87C192.19,123.67,174.38,111.91,145.15,111.91Z"/><path class="cls-12" d="M145.15,41c45,0,62.92,25.19,64,56.91,0-1.63.06-3.23.06-4.81,0-36.66-17.63-66.38-64.1-66.38S81.06,56.48,81.06,93.14c0,1.58,0,3.18.06,4.81C82.23,66.23,100.21,41,145.15,41Z"/><path class="cls-13" d="M145.15,7C90.72,7,92.69,45.68,86.51,62.83c28.2-3.52,58.64-3.65,58.64-3.65s30.45.13,58.65,3.65C197.62,45.68,199.59,7,145.15,7Z"/><path class="cls-13" d="M203,41.64a455.24,455.24,0,0,0-115.69,0l-4,25.62a486.58,486.58,0,0,1,123.67,0Z"/><path class="cls-13" d="M126.13,102a5.86,5.86,0,1,1-5.85-5.77A5.81,5.81,0,0,1,126.13,102Z"/><path class="cls-13" d="M175.89,102A5.86,5.86,0,1,1,170,96.18,5.81,5.81,0,0,1,175.89,102Z"/><path class="cls-14" d="M104.79,89.88s7.76-8.94,22-4.63"/><path class="cls-14" d="M185.53,89.88s-7.77-8.94-22-4.63"/><path class="cls-15" d="M138.68,105.25A3.3,3.3,0,0,1,142,102a39,39,0,0,0,6.3,0,3.29,3.29,0,0,1,3.32,3.28q1.15,15.31,2.3,30.62c.17,2-1.71,4-4.17,4.18a56.28,56.28,0,0,1-9.18,0c-2.47-.19-4.34-2.18-4.18-4.18Q137.53,120.56,138.68,105.25Z"/><path class="cls-16" d="M124,145.12a25.36,25.36,0,0,0,2.17,6.26,14.18,14.18,0,0,0,4,5,12.4,12.4,0,0,0,5.88,2.33,23.84,23.84,0,0,0,6.62-.25.37.37,0,0,1,.41.29.36.36,0,0,1-.24.39,18,18,0,0,1-6.93,1,12.42,12.42,0,0,1-6.79-2.4,14,14,0,0,1-4.36-5.7,17.81,17.81,0,0,1-1.43-6.88.34.34,0,0,1,.34-.35.35.35,0,0,1,.35.28Z"/></g></g></svg>