<svg xmlns="http://www.w3.org/2000/svg" xmlns:xlink="http://www.w3.org/1999/xlink" viewBox="0 0 290.3 312.53"><defs><style>.cls-1{fill:#ff971c;}.cls-2{fill:#141b4d;}.cls-3{fill:#d68f33;}.cls-4{fill:#daa100;}.cls-5{fill:#422918;}.cls-6{fill:#cb7269;}.cls-7{fill:url(#Degradado_sin_nombre_11);}.cls-8{fill:#1d1d1b;}.cls-9{fill:url(#Degradado_sin_nombre_11-2);}.cls-10{fill:url(#Degradado_sin_nombre_11-3);}.cls-11,.cls-14{fill:none;stroke-miterlimit:10;}.cls-11{stroke:#7e4e24;stroke-linecap:round;stroke-width:0.76px;}.cls-12{fill:#8f7f49;}.cls-13{fill:#3c3c3b;}.cls-14{stroke:#1d1d1b;stroke-width:1.14px;}.cls-15{fill:#7e4e24;}.cls-16{fill:url(#Degradado_sin_nombre_11-4);}.cls-17{fill:url(#Degradado_sin_nombre_11-5);}.cls-18{fill:url(#Degradado_sin_nombre_11-6);}.cls-19{fill:url(#Degradado_sin_nombre_11-7);}.cls-20{fill:#fff;}.cls-21{fill:#a1a1a1;}.cls-22{fill:#b5b5b5;}</style><linearGradient id="Degradado_sin_nombre_11" x1="146.79" y1="218.72" x2="146.79" y2="180.19" gradientUnits="userSpaceOnUse"><stop offset="0" stop-color="#8f7f49"/><stop offset="1" stop-color="#805f36"/></linearGradient><linearGradient id="Degradado_sin_nombre_11-2" x1="83.39" y1="119.25" x2="97.01" y2="116.53" xlink:href="#Degradado_sin_nombre_11"/><linearGradient id="Degradado_sin_nombre_11-3" x1="213.45" y1="119.34" x2="198.37" y2="117.04" xlink:href="#Degradado_sin_nombre_11"/><linearGradient id="Degradado_sin_nombre_11-4" x1="139.2" y1="102.07" x2="139.2" y2="149" xlink:href="#Degradado_sin_nombre_11"/><linearGradient id="Degradado_sin_nombre_11-5" x1="154.38" y1="103.37" x2="154.38" y2="146.09" xlink:href="#Degradado_sin_nombre_11"/><linearGradient id="Degradado_sin_nombre_11-6" x1="131.61" y1="151.25" x2="161.97" y2="151.25" xlink:href="#Degradado_sin_nombre_11"/><linearGradient id="Degradado_sin_nombre_11-7" x1="141.17" y1="124.13" x2="152.32" y2="124.13" xlink:href="#Degradado_sin_nombre_11"/></defs><title>Recurso 11</title><g id="Capa_2" data-name="Capa 2"><g id="Capa_1-2" data-name="Capa 1"><path class="cls-1" d="M44.26,169A100.9,100.9,0,1,1,145.15,269.88,100.9,100.9,0,0,1,44.26,169Z"/><path class="cls-2" d="M145.15,34.23a133.16,133.16,0,0,1,94.16,227.3A133.15,133.15,0,1,1,51,73.23a132.28,132.28,0,0,1,94.15-39m0-12A145.15,145.15,0,1,0,290.3,167.38,145.16,145.16,0,0,0,145.15,22.23Z"/><path class="cls-3" d="M70.24,312.53c-3.51-13.25-9.09-32-16.12-47.89C41.81,279.85,35.58,299,32.5,312.53Z"/><path class="cls-3" d="M257.8,312.53c-3.07-13.52-9.31-32.68-21.62-47.89-7,15.84-12.61,34.64-16.12,47.89Z"/><path class="cls-4" d="M223.19,312.53a449.93,449.93,0,0,1,12.89-47.89,111.49,111.49,0,0,0-10-17.76c-8.85-12.79-24.73-11.68-35.43-21.38H103c-10.7,9.7-26.58,8.59-35.43,21.38-4.09,5.92-10.78,11.93-13.4,17.76,5.2,16.16,10.09,31.55,14.11,47.89Z"/><path class="cls-5" d="M135.4,183c0,8.93-14.44,16.16-32.27,16.16S70.86,192,70.86,183s14.45-16.16,32.27-16.16S135.4,174.1,135.4,183Z"/><path class="cls-5" d="M102.33,164c0,6.06-5.23,11-11.68,11S79,170.1,79,164s5.23-11,11.69-11S102.33,158,102.33,164Z"/><path class="cls-5" d="M118.09,161.74c0,14.91-6.72,27-15,27s-15-12.09-15-27,6.72-27,15-27S118.09,146.83,118.09,161.74Z"/><path class="cls-5" d="M158.18,183c0,8.93,14.45,16.16,32.27,16.16S222.73,192,222.73,183s-14.46-16.16-32.28-16.16S158.18,174.1,158.18,183Z"/><path class="cls-5" d="M191.25,164c0,6.06,5.23,11,11.69,11s11.69-4.92,11.69-11-5.24-11-11.69-11S191.25,158,191.25,164Z"/><ellipse class="cls-5" cx="190.51" cy="161.74" rx="15.02" ry="27"/><path class="cls-6" d="M146.79,278.48l43.84-53c-4.1-3.72-7.44-7.79-9.33-12.64h-69c-1.9,4.85-5.23,8.92-9.34,12.64l43.84,53h0Z"/><path class="cls-7" d="M146.79,223.3a229,229,0,0,0,38.76-3.17,26.53,26.53,0,0,1-5.47-11.4c-2-10-3.27-31.66-4-46.81a243.89,243.89,0,0,0-58.66,0c-.69,15.15-2,36.81-4,46.81a26.53,26.53,0,0,1-5.47,11.4A229,229,0,0,0,146.79,223.3Z"/><path class="cls-5" d="M212.39,89.57c0,35.33-29.37,64-65.6,64s-65.6-28.64-65.6-64,29.37-64,65.6-64S212.39,54.23,212.39,89.57Z"/><path class="cls-5" d="M198.37,31.08c0,17.15-14.8,31.06-33.07,31.06s-33.07-13.91-33.07-31.06S147,0,165.3,0,198.37,13.91,198.37,31.08Z"/><path class="cls-5" d="M133.35,56.31c0-6.56,5.66-11.88,12.64-11.88s12.64,5.32,12.64,11.88S153,68.19,146,68.19,133.35,62.87,133.35,56.31Z"/><path class="cls-5" d="M107.5,38.23c0-10,8.62-18.08,19.25-18.08S146,28.24,146,38.23s-8.62,18.08-19.24,18.08S107.5,48.21,107.5,38.23Z"/><ellipse class="cls-5" cx="105.99" cy="50.71" rx="14.77" ry="13.87"/><path class="cls-5" d="M171.44,53.66c0-8,6.92-14.52,15.45-14.52s15.47,6.5,15.47,14.52-6.92,14.53-15.47,14.53S171.44,61.68,171.44,53.66Z"/><path class="cls-8" d="M111.7,133.81c0,5-4.3,9-9.61,9s-9.6-4-9.6-9,4.3-9,9.6-9S111.7,128.83,111.7,133.81Z"/><path class="cls-8" d="M201.09,133.81c0,5-4.3,9-9.6,9s-9.6-4-9.6-9,4.3-9,9.6-9S201.09,128.83,201.09,133.81Z"/><path class="cls-9" d="M103.88,117.47c.74,10.53-2.85,19.11-9.78,19.11s-14.58-8.48-15.33-19S83.05,98.49,90,98.46,103.13,107,103.88,117.47Z"/><path class="cls-10" d="M189.71,117.47c-.75,10.53,2.85,19.11,9.79,19.11s14.57-8.48,15.31-19-4.27-19.08-11.21-19.11S190.45,107,189.71,117.47Z"/><path class="cls-11" d="M85.18,105.67a26.67,26.67,0,0,1,8.17,16.88"/><path class="cls-11" d="M208.41,105.67a26.67,26.67,0,0,0-8.17,16.88"/><path class="cls-12" d="M197.25,114.64c0,38.44-17.3,79.22-50.46,79.22s-50.46-40.78-50.46-79.22,9.29-71.71,50.46-71.71S197.25,76.2,197.25,114.64Z"/><path class="cls-13" d="M135.53,89.75c-1-1.4-3.77-6.63-11.8-6.43s-15.28,6.23-16,8.13,1.67,3,4.46,2.62,9.36-2.75,12.22-1.9,9.49,2.72,10.75,2S136.93,91.66,135.53,89.75Z"/><path class="cls-8" d="M123.73,83.32c-8,.2-15.28,6.23-16,8.13a1.5,1.5,0,0,0,.11,1.48c3.42-1.84,9.86-4.89,15.31-4.89,4.83,0,9.94,2.6,13.15,4.59a3.41,3.41,0,0,0-.72-2.88C134.51,88.35,131.76,83.12,123.73,83.32Z"/><path class="cls-8" d="M127.83,108.27a5.27,5.27,0,1,1-5.26-5A5.11,5.11,0,0,1,127.83,108.27Z"/><path class="cls-8" d="M165.75,108.27a5.27,5.27,0,1,0,5.27-5A5.11,5.11,0,0,0,165.75,108.27Z"/><path class="cls-13" d="M158.05,89.75c1-1.4,3.77-6.63,11.8-6.43s15.29,6.23,16.06,8.13-1.68,3-4.47,2.62-9.36-2.75-12.22-1.9-9.49,2.72-10.75,2S156.66,91.66,158.05,89.75Z"/><path class="cls-8" d="M169.85,83.32c8,.2,15.29,6.23,16.06,8.13a1.5,1.5,0,0,1-.11,1.48c-3.42-1.84-9.88-4.89-15.32-4.89-4.83,0-9.94,2.6-13.14,4.59a3.37,3.37,0,0,1,.71-2.88C159.07,88.35,161.82,83.12,169.85,83.32Z"/><path class="cls-8" d="M143.92,105.68a22.15,22.15,0,0,1-2.16,9.16,23.08,23.08,0,0,1-5.67,7.42,24.78,24.78,0,0,1-8,4.72,25.86,25.86,0,0,1-9.09,1.63A25.49,25.49,0,0,1,102,122.28a23.32,23.32,0,0,1-5.65-7.44A22.24,22.24,0,0,1,96,96.36a23.72,23.72,0,0,1,5.51-7.79,25.26,25.26,0,0,1,8.11-5.07,26.13,26.13,0,0,1,18.83,0,25.2,25.2,0,0,1,8.1,5.1,23.14,23.14,0,0,1,7.36,17.12Zm-2.14,0a20.06,20.06,0,0,0-2-8.29,21.13,21.13,0,0,0-5.17-6.73,22.83,22.83,0,0,0-7.28-4.3A23.72,23.72,0,0,0,119,84.86a23.39,23.39,0,0,0-15.64,5.77,20.38,20.38,0,0,0-.44,30.55,23.22,23.22,0,0,0,7.42,4.66,24.1,24.1,0,0,0,17.32,0,23,23,0,0,0,7.43-4.68,21,21,0,0,0,6.65-15.55Z"/><path class="cls-8" d="M199.43,105.68a22.17,22.17,0,0,1-2.15,9.16,23.23,23.23,0,0,1-5.67,7.42,24.93,24.93,0,0,1-8,4.72,25.82,25.82,0,0,1-9.09,1.63,25.53,25.53,0,0,1-17.07-6.33,23.44,23.44,0,0,1-5.64-7.44,22.24,22.24,0,0,1-.3-18.48A23.57,23.57,0,0,1,157,88.57a25.22,25.22,0,0,1,8.1-5.07,26.16,26.16,0,0,1,18.84,0,25.3,25.3,0,0,1,8.1,5.1,23.13,23.13,0,0,1,7.35,17.12Zm-2.14,0a19.91,19.91,0,0,0-2-8.29,21.1,21.1,0,0,0-5.16-6.73,22.87,22.87,0,0,0-7.29-4.3,24.06,24.06,0,0,0-24,4.28,20.37,20.37,0,0,0-.43,30.55,23.18,23.18,0,0,0,7.41,4.66,24.12,24.12,0,0,0,17.33,0,23.1,23.1,0,0,0,7.42-4.68,20.92,20.92,0,0,0,6.65-15.55Z"/><path class="cls-14" d="M154.81,93.07a15.64,15.64,0,0,0-16,0"/><path class="cls-15" d="M133.63,162.54a23,23,0,0,0,6.26,4.3,10.88,10.88,0,0,0,7.18.85c2.47-.69,5-1.41,7.38-2.32a16.07,16.07,0,0,0,3.37-1.68,4.27,4.27,0,0,0,2-2.77.39.39,0,0,1,.44-.32.38.38,0,0,1,.32.39,5,5,0,0,1-2.14,3.57,17,17,0,0,1-3.54,2,64.38,64.38,0,0,1-7.52,2.51,11.77,11.77,0,0,1-8-1.08,20.35,20.35,0,0,1-6.3-4.93.39.39,0,0,1,0-.53.38.38,0,0,1,.51,0Z"/><polygon class="cls-16" points="146.79 99.86 131.61 148.4 137.3 148.4 146.79 99.86"/><polygon class="cls-17" points="146.79 99.86 161.97 148.4 156.28 148.4 146.79 99.86"/><path class="cls-18" d="M146.79,154.11c8.39,0,15.18-2.56,15.18-5.71H131.61C131.61,151.55,138.41,154.11,146.79,154.11Z"/><polygon class="cls-19" points="146.79 99.86 137.3 148.4 156.28 148.4 146.79 99.86"/><path class="cls-5" d="M128.73,60c-9.84,15.94-23.47,28.87-30.44,28.87S93.65,75.89,103.49,60,127,31.07,133.94,31.07,138.58,44,128.73,60Z"/><polygon class="cls-20" points="100.64 227.51 118.09 281.5 131.61 271.04 146.79 278.48 102.95 225.5 100.64 227.51"/><polygon class="cls-20" points="192.94 227.51 175.5 281.5 161.97 271.04 146.79 278.48 190.63 225.5 192.94 227.51"/><path class="cls-20" d="M96,138a3.47,3.47,0,1,1-3.47-3.25A3.37,3.37,0,0,1,96,138Z"/><path class="cls-20" d="M204.56,138a3.47,3.47,0,1,1-3.47-3.25A3.37,3.37,0,0,1,204.56,138Z"/><path class="cls-8" d="M174,236.12a28.81,28.81,0,1,1-28.81-28.81A28.81,28.81,0,0,1,174,236.12Z"/><rect class="cls-21" x="116.34" y="259.02" width="28.81" height="43.54"/><rect class="cls-22" x="145.15" y="259.02" width="28.81" height="43.54"/><polygon class="cls-2" points="159.63 311.44 130.68 311.44 128.07 302.56 162.23 302.56 159.63 311.44"/></g></g></svg>