<svg xmlns="http://www.w3.org/2000/svg" xmlns:xlink="http://www.w3.org/1999/xlink" viewBox="0 0 290.31 297.04"><defs><style>.cls-1{isolation:isolate;}.cls-2{fill:#ff971c;}.cls-3{fill:#141b4d;}.cls-4{fill:#a4a4a3;}.cls-5{fill:url(#Degradado_sin_nombre_7);}.cls-6{fill:url(#Degradado_sin_nombre_7-2);}.cls-7{fill:url(#linear-gradient);}.cls-17,.cls-8{fill:none;stroke:#c18072;stroke-linecap:round;stroke-miterlimit:10;}.cls-8{stroke-width:0.52px;}.cls-9{fill:#d7a080;}.cls-10{fill:#1d1d1b;}.cls-11,.cls-22{fill:#683b11;}.cls-12{fill:#422918;}.cls-13{fill:#c18072;}.cls-14{fill:url(#Degradado_sin_nombre_9);}.cls-15{fill:url(#Degradado_sin_nombre_7-3);}.cls-16{fill:#3c3c3b;}.cls-17{stroke-width:0.39px;}.cls-18{fill:#c3332a;}.cls-19{fill:#9b1622;}.cls-20{fill:#cacaca;}.cls-21{fill:#0b1435;}.cls-22{mix-blend-mode:multiply;}.cls-23{fill:#daa100;}</style><linearGradient id="Degradado_sin_nombre_7" x1="145.16" y1="219.56" x2="145.16" y2="191.2" gradientUnits="userSpaceOnUse"><stop offset="0" stop-color="#d8ab90"/><stop offset="1" stop-color="#d28180"/></linearGradient><linearGradient id="Degradado_sin_nombre_7-2" x1="78.86" y1="130.79" x2="93.15" y2="127.93" xlink:href="#Degradado_sin_nombre_7"/><linearGradient id="linear-gradient" x1="214.85" y1="130.88" x2="199.06" y2="128.47" xlink:href="#Degradado_sin_nombre_7"/><linearGradient id="Degradado_sin_nombre_9" x1="140.28" y1="113.76" x2="140.28" y2="149.15" gradientUnits="userSpaceOnUse"><stop offset="0" stop-color="#d9b494"/><stop offset="0.99" stop-color="#d59680"/></linearGradient><linearGradient id="Degradado_sin_nombre_7-3" x1="150.02" y1="112.4" x2="150.02" y2="147.82" xlink:href="#Degradado_sin_nombre_7"/></defs><title>Recurso 12</title><g class="cls-1"><g id="Capa_2" data-name="Capa 2"><g id="Capa_1-2" data-name="Capa 1"><circle class="cls-2" cx="145.15" cy="151.88" r="100.89" transform="translate(-64.88 147.13) rotate(-45)"/><path class="cls-3" d="M145.15,18.73A133.16,133.16,0,0,1,239.31,246,133.16,133.16,0,0,1,51,57.73a132.28,132.28,0,0,1,94.15-39m0-12A145.16,145.16,0,1,0,290.31,151.88,145.16,145.16,0,0,0,145.15,6.73Z"/><path class="cls-3" d="M233.42,297v-54.9s-9.32-2-28.13-14.37c-26.66-18.2-60.14-20.14-60.14-20.14S111.68,209.57,85,227.77c-18.81,12.34-28.13,14.37-28.13,14.37V297Z"/><polygon class="cls-4" points="134.1 297.04 118.12 212.51 172.19 212.51 156.22 297.04 134.1 297.04"/><rect class="cls-5" x="122.78" y="173.66" width="44.76" height="49.67" rx="19.16"/><path class="cls-6" d="M100.3,128.92c.78,11.71-3,21.26-10.23,21.26s-15.23-9.44-16-21.15,4.47-21.23,11.71-21.26S99.52,117.21,100.3,128.92Z"/><path class="cls-7" d="M190,128.92c-.78,11.71,3,21.26,10.23,21.26s15.24-9.44,16-21.15-4.47-21.23-11.71-21.26S190.79,117.21,190,128.92Z"/><path class="cls-8" d="M80.76,115.79a30.26,30.26,0,0,1,8.53,18.78"/><path class="cls-8" d="M209.55,115.79A30.26,30.26,0,0,0,201,134.57"/><path class="cls-9" d="M197.89,125.77c0,42.77-18.08,73.19-52.74,73.19s-52.73-30.42-52.73-73.19S102.13,46,145.15,46,197.89,83,197.89,125.77Z"/><path class="cls-10" d="M125.33,120.81a5.5,5.5,0,1,1-5.49-5.5A5.49,5.49,0,0,1,125.33,120.81Z"/><path class="cls-11" d="M133.38,100.21c-1.06-1.56-3.94-7.37-12.33-7.15s-16,6.93-16.78,9,1.75,3.35,4.67,2.91,9.78-3.06,12.77-2.11,9.92,3,11.24,2.2S134.84,102.34,133.38,100.21Z"/><path class="cls-12" d="M121.05,93.06c-8.39.22-16,6.93-16.78,9a1.79,1.79,0,0,0,.11,1.64c3.58-2,10.32-5.44,16-5.44,5,0,10.39,2.89,13.75,5.1a4,4,0,0,0-.76-3.2C132.32,98.65,129.44,92.84,121.05,93.06Z"/><circle class="cls-10" cx="170.47" cy="120.81" r="5.5"/><path class="cls-11" d="M156.93,100.21c1.06-1.56,3.94-7.37,12.33-7.15s16,6.93,16.78,9-1.75,3.35-4.67,2.91-9.78-3.06-12.77-2.11-9.92,3-11.24,2.2S155.47,102.34,156.93,100.21Z"/><path class="cls-12" d="M169.26,93.06c8.39.22,16,6.93,16.78,9a1.76,1.76,0,0,1-.11,1.64c-3.57-2-10.32-5.44-16-5.44-5,0-10.38,2.89-13.74,5.1a4,4,0,0,1,.76-3.2C158,98.65,160.87,92.84,169.26,93.06Z"/><path class="cls-13" d="M122.09,154.7a38.06,38.06,0,0,0,5.44,3,40.52,40.52,0,0,0,5.82,2.12,29.26,29.26,0,0,0,12.19.92c4.08-.71,8.2-1.48,12.23-2.44a44.56,44.56,0,0,0,5.93-1.79,13,13,0,0,0,2.71-1.38,3.66,3.66,0,0,0,1.71-2.25.26.26,0,1,1,.51.08,4.26,4.26,0,0,1-1.84,2.69,13.79,13.79,0,0,1-2.81,1.55,45.64,45.64,0,0,1-6,1.95c-4.07,1-8.16,1.82-12.3,2.55a29.35,29.35,0,0,1-12.57-1.06,39.07,39.07,0,0,1-11.33-5.47.25.25,0,0,1-.06-.36.26.26,0,0,1,.36-.07Z"/><path class="cls-14" d="M145.15,114.05c-4.32,0-5.49,9.7-5.49,18.78s-12.55,16.44,5.49,16.44Z"/><path class="cls-15" d="M145.15,114.05c4.33,0,5.5,9.7,5.5,18.78s12.55,16.44-5.5,16.44Z"/><path class="cls-12" d="M145.15,61.8c41.38,0,51.94,31,52.69,67.83,0-1.29,0-2.58,0-3.86C197.89,83,188.19,46,145.15,46S92.42,83,92.42,125.77c0,1.28,0,2.57,0,3.86C93.22,92.8,103.78,61.8,145.15,61.8Z"/><path class="cls-16" d="M202.63,96.69a90.17,90.17,0,0,0-25.89-4.2c-13.21,0-17,.65-23.89,3a2,2,0,0,0,.78,3.89,6.65,6.65,0,0,0-.56,2,28,28,0,0,0-6.68-.86h-2.47a28,28,0,0,0-6.68.86,6.4,6.4,0,0,0-.57-2,2,2,0,0,0,.79-3.89c-6.93-2.38-10.68-3-23.89-3a90.17,90.17,0,0,0-25.89,4.2,2,2,0,0,0,.64,3.91,2.05,2.05,0,0,0,.64-.11l.89-.28v20.65c0,4.41,1.78,18.78,24.66,18.78,10.39,0,22.78-3.55,22.78-20.5v-14a21.28,21.28,0,0,1,6.63-1.06h2.47a21.28,21.28,0,0,1,6.63,1.06v14c0,17,12.39,20.5,22.78,20.5,22.88,0,24.66-14.37,24.66-18.78V100.21l.89.28a2,2,0,1,0,1.28-3.8ZM135,119.14c0,12.08-6.89,18.21-20.48,18.21-20.75,0-22.37-12.62-22.37-16.49V99.79a.57.57,0,0,1,.08-.25,85.87,85.87,0,0,1,21.35-3c10.34,0,14.52.43,18.77,1.61a4.82,4.82,0,0,1,2.65,4.11Zm63.18,1.72c0,3.87-1.62,16.49-22.37,16.49-13.59,0-20.49-6.13-20.49-18.21V102.22A4.82,4.82,0,0,1,158,98.11c4.25-1.18,8.44-1.61,18.78-1.61a85.87,85.87,0,0,1,21.35,3,.57.57,0,0,1,.08.25Z"/><path class="cls-12" d="M183.13,38.08c-9.55,3.76-22.79,6.54-38,7.81V59.48H110.63V73c8.67,4.89,20.66,7.93,33.92,7.93,26.45,0,47.88-12,47.88-26.88C192.43,48,189,42.54,183.13,38.08Z"/><path class="cls-17" d="M152.83,186.61a8.52,8.52,0,0,0-8.53-8.53,6.82,6.82,0,0,0-6.82,6.82,5.46,5.46,0,0,0,5.46,5.46A4.37,4.37,0,0,0,147.3,186a3.49,3.49,0,0,0-3.49-3.49,2.79,2.79,0,0,0-2.79,2.79,2.24,2.24,0,0,0,2.23,2.24,1.79,1.79,0,0,0,1.79-1.79,1.44,1.44,0,0,0-1.43-1.44,1.16,1.16,0,0,0-1.15,1.15"/><polygon class="cls-18" points="149.58 233.15 140.73 233.15 137.28 223.4 153.03 223.4 149.58 233.15"/><polygon class="cls-19" points="149.58 233.15 145.15 233.15 140.73 233.15 134.1 297.04 156.22 297.04 149.58 233.15"/><polygon class="cls-20" points="145.16 223.4 133.6 238.49 116.86 211.72 122.78 208.31 145.16 223.4"/><polygon class="cls-20" points="145.16 223.4 156.72 238.49 173.46 211.72 167.46 208.31 145.16 223.4"/><path class="cls-21" d="M121.09,210.57s-25,6-36.06,15.62c17,2.26,20.6,2.71,20.6,2.71l-9.69,8.17,38.16,60-.78-12.5Z"/><path class="cls-21" d="M171.53,210.61s22.66,5.91,33.75,15.58c-17,2.26-20.6,2.71-20.6,2.71l10.47,8.17-38.93,60v-12.5Z"/><path class="cls-21" d="M61.39,297,60,241.17s-6.28,2.1-16.58,6.15c0,0-17.65,11-22.07,33.1-.65,3.29-1,9.1-1.16,16.62Z"/><path class="cls-21" d="M270.14,297c-.14-7.52-.51-13.33-1.17-16.62-4.41-22.07-22.06-33.1-22.06-33.1-10.3-4-16.58-6.15-16.58-6.15L228.92,297Z"/><path class="cls-22" d="M135,119.14c0,12.08-6.89,18.21-20.48,18.21-20.75,0-22.37-12.62-22.37-16.49V99.79a.57.57,0,0,1,.08-.25,85.87,85.87,0,0,1,21.35-3c10.34,0,14.52.43,18.77,1.61a4.82,4.82,0,0,1,2.65,4.11Z"/><path class="cls-22" d="M155.29,102.22A4.81,4.81,0,0,1,158,98.11c4.24-1.18,8.43-1.61,18.76-1.61a86,86,0,0,1,21.36,3,.55.55,0,0,1,.07.25v21.07c0,3.87-1.61,16.49-22.36,16.49-13.6,0-20.49-6.13-20.49-18.21Z"/><path class="cls-3" d="M216,54.1c0,23-30.32,26.27-67.72,26.27S80.53,77.07,80.53,54.1,110.85,0,148.25,0,216,31.14,216,54.1Z"/><rect class="cls-10" x="99.8" y="46.48" width="96.9" height="33.32"/><path class="cls-21" d="M196.58,62.88c-22,4.65-47.19,5.4-48.39,5.43s-26.36-.78-48.39-5.43C88.9,81.61,81.13,95.6,148.19,93.3,215.26,95.6,207.48,81.61,196.58,62.88Z"/><polygon class="cls-23" points="196.58 63.14 99.8 63.14 96.23 69.91 200.15 69.91 196.58 63.14"/></g></g></g></svg>