<svg xmlns="http://www.w3.org/2000/svg" xmlns:xlink="http://www.w3.org/1999/xlink" viewBox="0 0 312.2 301.56"><defs><style>.cls-1{fill:#ff971c;}.cls-2{fill:#141b4d;}.cls-3{fill:#c8c8c8;}.cls-4{fill:#d08072;}.cls-5{fill:url(#Degradado_sin_nombre_7);}.cls-6{fill:url(#linear-gradient);}.cls-7{fill:none;stroke:#c18072;stroke-linecap:round;stroke-miterlimit:10;stroke-width:0.77px;}.cls-8{fill:#d7a080;}.cls-9{fill:#1d1d1b;}.cls-10{fill:#3c3c3b;}.cls-11{fill:#c18072;}.cls-12{fill:url(#Degradado_sin_nombre_9);}.cls-13{fill:url(#Degradado_sin_nombre_7-2);}.cls-14{fill:#daa100;}.cls-15{fill:#80aea2;}</style><linearGradient id="Degradado_sin_nombre_7" x1="92.26" y1="89.18" x2="106.02" y2="86.43" gradientUnits="userSpaceOnUse"><stop offset="0" stop-color="#d8ab90"/><stop offset="1" stop-color="#d28180"/></linearGradient><linearGradient id="linear-gradient" x1="223.21" y1="89.27" x2="208.01" y2="86.94" xlink:href="#Degradado_sin_nombre_7"/><linearGradient id="Degradado_sin_nombre_9" x1="151.41" y1="81.01" x2="151.41" y2="115.08" gradientUnits="userSpaceOnUse"><stop offset="0" stop-color="#d9b494"/><stop offset="0.99" stop-color="#d59680"/></linearGradient><linearGradient id="Degradado_sin_nombre_7-2" x1="160.79" y1="79.69" x2="160.79" y2="113.8" xlink:href="#Degradado_sin_nombre_7"/></defs><title>Recurso 13</title><g id="Capa_2" data-name="Capa 2"><g id="Capa_1-2" data-name="Capa 1"><path class="cls-1" d="M55.21,156.41A100.9,100.9,0,1,1,156.1,257.3,100.89,100.89,0,0,1,55.21,156.41Z"/><path class="cls-2" d="M156.1,23.26a133.15,133.15,0,0,1,94.15,227.3A133.15,133.15,0,1,1,62,62.26a132.28,132.28,0,0,1,94.15-39m0-12A145.15,145.15,0,1,0,301.25,156.41,145.15,145.15,0,0,0,156.1,11.26Z"/><path class="cls-3" d="M228.22,199.43a41.72,41.72,0,0,1-11.14-12c-11.37,25.66-34.4,42.07-61,42.07s-49.6-16.41-61-42.08a41.66,41.66,0,0,1-11.15,12c-30.28,21-75,12.42-84,102.13H312.2C303.19,211.85,258.5,220.41,228.22,199.43Z"/><path class="cls-4" d="M217.08,187.48c-18-28.1-15-79.63-15-79.63l-46-.88-46,.88s3,51.53-15,79.62c11.37,25.67,34.4,42.08,61,42.08S205.71,213.14,217.08,187.48Z"/><path class="cls-5" d="M112.91,87.38c.75,11.27-2.87,20.47-9.85,20.47S88.39,98.76,87.64,87.48,92,67.05,98.92,67,112.16,76.1,112.91,87.38Z"/><path class="cls-6" d="M199.3,87.38c-.76,11.27,2.86,20.47,9.84,20.47s14.67-9.09,15.42-20.37S220.26,67.05,213.28,67,200,76.1,199.3,87.38Z"/><path class="cls-7" d="M94.09,74.73a29.21,29.21,0,0,1,8.22,18.09"/><path class="cls-7" d="M218.11,74.73a29.21,29.21,0,0,0-8.22,18.09"/><path class="cls-8" d="M206.88,84.34c0,41.18-17.41,84.87-50.78,84.87s-50.78-43.69-50.78-84.87S114.67,7.52,156.1,7.52,206.88,43.16,206.88,84.34Z"/><path class="cls-9" d="M137,81.62a5.29,5.29,0,1,1-5.29-5.29A5.29,5.29,0,0,1,137,81.62Z"/><path class="cls-10" d="M144.77,61.79c-1-1.5-3.8-7.1-11.88-6.89s-15.38,6.67-16.16,8.71,1.69,3.24,4.5,2.81,9.41-3,12.29-2,9.56,2.92,10.83,2.13S146.17,63.84,144.77,61.79Z"/><path class="cls-9" d="M132.89,54.9c-8.08.21-15.38,6.67-16.16,8.71a1.75,1.75,0,0,0,.11,1.59c3.44-2,9.94-5.24,15.42-5.24,4.86,0,10,2.78,13.23,4.91a3.85,3.85,0,0,0-.72-3.08C143.74,60.29,141,54.69,132.89,54.9Z"/><path class="cls-9" d="M175.19,81.62a5.29,5.29,0,1,0,5.29-5.29A5.29,5.29,0,0,0,175.19,81.62Z"/><path class="cls-10" d="M167.44,61.79c1-1.5,3.79-7.1,11.87-6.89s15.39,6.67,16.16,8.71-1.69,3.24-4.5,2.81-9.41-3-12.29-2-9.56,2.92-10.82,2.13S166,63.84,167.44,61.79Z"/><path class="cls-9" d="M179.31,54.9c8.08.21,15.39,6.67,16.16,8.71a1.72,1.72,0,0,1-.11,1.59c-3.44-2-9.94-5.24-15.42-5.24-4.85,0-10,2.78-13.23,4.91a3.82,3.82,0,0,1,.73-3.08C168.46,60.29,171.23,54.69,179.31,54.9Z"/><path class="cls-11" d="M135.81,126.66a36.75,36.75,0,0,0,4.81,2.54,35.83,35.83,0,0,0,5.12,1.82,25.67,25.67,0,0,0,10.66.78c3.58-.62,7.23-1.3,10.78-2.13a37.8,37.8,0,0,0,5.22-1.53,11.62,11.62,0,0,0,2.37-1.17,3.14,3.14,0,0,0,1.47-1.86h0a.39.39,0,0,1,.76.12,3.88,3.88,0,0,1-1.67,2.51,13,13,0,0,1-2.51,1.42,41.41,41.41,0,0,1-5.32,1.76c-3.62.93-7.21,1.63-10.89,2.29a26.08,26.08,0,0,1-11.22-1,33.54,33.54,0,0,1-10-4.95.38.38,0,0,1-.09-.53.39.39,0,0,1,.52-.1Z"/><path class="cls-9" d="M156.1,22.75c39.84,0,50,29.85,50.74,65.31,0-1.24,0-2.48,0-3.72,0-41.18-9.34-76.82-50.78-76.82s-50.78,35.64-50.78,76.82c0,1.24,0,2.48.05,3.72C106.09,52.6,116.26,22.75,156.1,22.75Z"/><path class="cls-9" d="M195.61,0s-3.09,22.75-39.51,22.75V7.52S190,11.12,195.61,0Z"/><path class="cls-9" d="M156.1,110.26c-18.19,0-33.88,12.37-41.13,30.22,8.4,16.75,22.19,28.73,41.13,28.73s32.74-12,41.13-28.73C190,122.63,174.3,110.26,156.1,110.26Zm0,47.24c-13.66,0-23.62-8.63-29.67-20.72C131.66,123.9,143,115,156.1,115s24.45,8.92,29.67,21.8C179.71,148.87,169.76,157.5,156.1,157.5Z"/><path class="cls-12" d="M156.1,81.29c-4.17,0-5.29,9.33-5.29,18.08s-12.08,15.83,5.29,15.83Z"/><path class="cls-13" d="M156.1,81.29c4.16,0,5.29,9.33,5.29,18.08s12.08,15.83-5.29,15.83Z"/><path class="cls-3" d="M47.73,216.7c1.88,16.17,5.54,50.78,6.68,84.86H257.8c1.14-34.07,4.79-68.69,6.67-84.85-12.38-5.94-25.26-9.67-36.25-17.28a41.72,41.72,0,0,1-11.14-12c-11.37,25.66-34.4,42.07-61,42.07s-49.6-16.41-61-42.08a41.66,41.66,0,0,1-11.15,12C73,207,60.12,210.77,47.73,216.7Z"/><rect class="cls-14" x="83.48" y="270.08" width="145.24" height="31.48"/><polygon class="cls-15" points="98.2 182.08 90.7 193.46 90.7 270.08 98.2 270.08 98.2 182.08"/><polygon class="cls-15" points="214.13 182.08 221.63 193.46 221.63 270.08 214.13 270.08 214.13 182.08"/></g></g></svg>