<svg xmlns="http://www.w3.org/2000/svg" xmlns:xlink="http://www.w3.org/1999/xlink" viewBox="0 0 290.3 290.3"><defs><style>.cls-1{fill:#ff971c;}.cls-2{fill:#141b4d;}.cls-3{fill:#634e42;}.cls-4{fill:#3691c9;}.cls-5{fill:#fff;}.cls-6{fill:url(#Degradado_sin_nombre_3);}.cls-7{fill:url(#Degradado_sin_nombre_3-2);}.cls-8{fill:none;stroke:#e29172;stroke-linecap:round;stroke-miterlimit:10;stroke-width:0.59px;}.cls-9{fill:url(#Degradado_sin_nombre_3-3);}.cls-10{fill:#f7c2a5;}.cls-11{fill:url(#Degradado_sin_nombre_5);}.cls-12{fill:url(#Degradado_sin_nombre_3-4);}.cls-13{fill:#ea9f81;}.cls-14{fill:url(#Degradado_sin_nombre_3-5);}.cls-15{fill:#f3a486;}.cls-16{fill:#1d1d1b;}.cls-17{fill:#432918;}.cls-18{fill:#90c6e1;}</style><linearGradient id="Degradado_sin_nombre_3" x1="86.5" y1="108.46" x2="99.13" y2="105.93" gradientUnits="userSpaceOnUse"><stop offset="0" stop-color="#f9ccb1"/><stop offset="1" stop-color="#f3a281"/></linearGradient><linearGradient id="Degradado_sin_nombre_3-2" x1="207.26" y1="108.54" x2="193.27" y2="106.41" xlink:href="#Degradado_sin_nombre_3"/><linearGradient id="Degradado_sin_nombre_3-3" x1="145.37" y1="239.98" x2="145.37" y2="149.92" xlink:href="#Degradado_sin_nombre_3"/><linearGradient id="Degradado_sin_nombre_5" x1="140.31" y1="92.03" x2="140.31" y2="125.83" gradientUnits="userSpaceOnUse"><stop offset="0" stop-color="#fad5b5"/><stop offset="0.99" stop-color="#f6b79a"/></linearGradient><linearGradient id="Degradado_sin_nombre_3-4" x1="150.43" y1="92.96" x2="150.43" y2="123.73" xlink:href="#Degradado_sin_nombre_3"/><linearGradient id="Degradado_sin_nombre_3-5" x1="145.37" y1="97.3" x2="145.37" y2="125.13" xlink:href="#Degradado_sin_nombre_3"/></defs><title>Recurso 15</title><g id="Capa_2" data-name="Capa 2"><g id="Capa_1-2" data-name="Capa 1"><circle class="cls-1" cx="145.15" cy="145.15" r="100.89" transform="translate(-60.12 145.15) rotate(-45)"/><path class="cls-2" d="M145.15,12a133.16,133.16,0,0,1,94.16,227.3A133.15,133.15,0,1,1,51,51a132.28,132.28,0,0,1,94.15-39m0-12A145.15,145.15,0,1,0,290.3,145.15,145.16,145.16,0,0,0,145.15,0Z"/><path class="cls-3" d="M160.49,22.15c-13.06-1.83-31.62-14.16-48.81,0C93.58,37.05,83,79.72,76.27,94c-8.34,17.8,3.46,30.16,13.77,49.75s24.63,35.49,20.5,45.46-22.39,48.39,30.27,48.39c56.05,0,45.11-24.71,41.33-53.58s37.61-39.73,33.82-64.89c-4.05-26.95-10.09-30.73-10.78-47.23S190.07,26.29,160.49,22.15Z"/><path class="cls-4" d="M230.54,223.48c-22.43-25.91-81.43-25.34-85.39-25.27s-63-.64-85.38,25.27C36.56,250.3,35.53,290.3,35.53,290.3H254.77S253.74,250.3,230.54,223.48Z"/><path class="cls-5" d="M182.14,217v-15.7a210.81,210.81,0,0,0-37-3.11,210.28,210.28,0,0,0-36.56,3V217a36.78,36.78,0,0,0,73.55,0Z"/><path class="cls-6" d="M105.52,106.81c.69,9.49-2.65,17.24-9.09,17.24S82.9,116.4,82.21,106.9s4-17.21,10.4-17.24S104.83,97.32,105.52,106.81Z"/><path class="cls-7" d="M185.21,106.81c-.69,9.49,2.66,17.24,9.09,17.24s13.54-7.65,14.23-17.15-4-17.21-10.41-17.24S185.9,97.32,185.21,106.81Z"/><path class="cls-8" d="M88.15,96.16a23.89,23.89,0,0,1,7.59,15.23"/><path class="cls-8" d="M202.58,96.16A23.89,23.89,0,0,0,195,111.39"/><path class="cls-9" d="M145.37,245h0a28,28,0,0,1-28-28V161.36a28,28,0,0,1,28-28h0a28,28,0,0,1,28,28V217A28,28,0,0,1,145.37,245Z"/><path class="cls-10" d="M194.7,103c0,38.06-11.18,68.92-49.33,68.92S96,141.06,96,103s10.48-72.43,49.33-72.43S194.7,64.93,194.7,103Z"/><path class="cls-3" d="M159.72,31.32S142.09,26.15,135.56,47s-14,56-54.48,54.15c11.61-41.25,18.18-73.23,38-77.87S159.72,31.32,159.72,31.32Z"/><path class="cls-3" d="M199.85,90.16s-7-2.23-10.48-8.76-3.11-42.06-21.5-47.76C187.21,41,197.55,61.46,199.85,90.16Z"/><polygon class="cls-11" points="145.37 90.43 135.25 125.39 139.04 125.39 145.37 90.43"/><polygon class="cls-12" points="145.37 90.43 155.48 125.39 151.69 125.39 145.37 90.43"/><path class="cls-13" d="M145.37,129.5c5.59,0,10.11-1.84,10.11-4.11H135.25C135.25,127.66,139.78,129.5,145.37,129.5Z"/><polygon class="cls-14" points="145.37 90.43 139.04 125.39 151.69 125.39 145.37 90.43"/><path class="cls-15" d="M129.85,143.55a13,13,0,0,0,3.62,1.49,30,30,0,0,0,3.9.8,59.46,59.46,0,0,0,16,0,30.45,30.45,0,0,0,3.91-.8,13,13,0,0,0,3.6-1.48l0,0a.39.39,0,0,1,.45.64c-2.29,1.8-5.07,2.47-7.75,3a46.14,46.14,0,0,1-16.46,0c-2.69-.57-5.48-1.25-7.75-3a.39.39,0,0,1-.06-.55.39.39,0,0,1,.51-.09Z"/><path class="cls-16" d="M127.87,94.54a5.39,5.39,0,1,1-5.38-5.39A5.38,5.38,0,0,1,127.87,94.54Z"/><path class="cls-16" d="M173.63,94.54a5.39,5.39,0,1,1-5.38-5.39A5.38,5.38,0,0,1,173.63,94.54Z"/><path class="cls-17" d="M107.35,82.5a10.94,10.94,0,0,1,4-4.85,14.52,14.52,0,0,1,5.79-2.41,16,16,0,0,1,6.2.08,13.47,13.47,0,0,1,5.49,2.5,1.26,1.26,0,0,1-.65,2.24h0c-1.88.2-3.57.26-5.19.44a39.19,39.19,0,0,0-4.64.69,45.94,45.94,0,0,0-4.45,1.21c-1.49.47-3.07,1.08-4.71,1.64l-.24.08a1.23,1.23,0,0,1-1.56-.76A1.27,1.27,0,0,1,107.35,82.5Z"/><path class="cls-17" d="M181.6,84c-1.47-.72-3-1.46-4.51-2a31,31,0,0,0-4.55-1.32,30.66,30.66,0,0,0-4.76-.58c-1.65-.1-3.34,0-5.16-.07h0a1.22,1.22,0,0,1-.66-2.24,14.88,14.88,0,0,1,5.51-2.14,16.8,16.8,0,0,1,6.08,0,15.55,15.55,0,0,1,5.69,2.3,12,12,0,0,1,4.17,4.48,1.19,1.19,0,0,1-1.58,1.63Z"/><rect class="cls-18" x="89.84" y="261.3" width="110.63" height="29.01"/><polygon class="cls-18" points="110.78 261.3 103.73 261.3 103.73 202.18 110.78 200.88 110.78 261.3"/><polygon class="cls-18" points="179.84 261.3 186.89 261.3 186.89 202.18 179.84 200.88 179.84 261.3"/></g></g></svg>