<svg xmlns="http://www.w3.org/2000/svg" xmlns:xlink="http://www.w3.org/1999/xlink" viewBox="0 0 290.3 427.06"><defs><style>.cls-1{fill:#ff921c;}.cls-2{fill:#141b4d;}.cls-3{fill:#2f4d80;}.cls-4{fill:url(#Degradado_sin_nombre_14);}.cls-5{fill:url(#Degradado_sin_nombre_14-2);}.cls-6{fill:#634e42;}.cls-7{fill:#368cc4;}.cls-8{fill:url(#Degradado_sin_nombre_8);}.cls-9{fill:url(#Degradado_sin_nombre_8-2);}.cls-10,.cls-29,.cls-36,.cls-38{fill:none;stroke-miterlimit:10;}.cls-10{stroke:#dd8c72;stroke-width:0.52px;}.cls-10,.cls-29,.cls-38{stroke-linecap:round;}.cls-11{fill:url(#Degradado_sin_nombre_8-3);}.cls-12{fill:#f2bda0;}.cls-13{fill:url(#Degradado_sin_nombre_10);}.cls-14{fill:url(#Degradado_sin_nombre_8-4);}.cls-15{fill:#e59a80;}.cls-16{fill:url(#Degradado_sin_nombre_8-5);}.cls-17{fill:#ee9f81;}.cls-18{fill:#1d1d1b;}.cls-19{fill:#432918;}.cls-20{fill:#8bc1dc;}.cls-21{fill:#3c3c3b;}.cls-22{fill:#bdbdbd;}.cls-23{fill:#d0d0d0;}.cls-24{fill:#cb5062;}.cls-25{fill:#ff6d6a;}.cls-26{fill:#fff;}.cls-27{fill:url(#Degradado_sin_nombre_14-3);}.cls-28{fill:url(#Degradado_sin_nombre_14-4);}.cls-29{stroke:#cf8072;stroke-width:1.72px;}.cls-30{fill:url(#Degradado_sin_nombre_14-5);}.cls-31{fill:#e5b59d;}.cls-32{fill:url(#Degradado_sin_nombre_14-6);}.cls-33{opacity:0.4;}.cls-34{fill:#cf8072;}.cls-35{fill:#806037;}.cls-36,.cls-38{stroke:#806037;stroke-width:1.9px;}.cls-37{fill:#b2b2b1;}</style><linearGradient id="Degradado_sin_nombre_14" x1="23.43" y1="273.65" x2="61.22" y2="273.65" gradientUnits="userSpaceOnUse"><stop offset="0" stop-color="#e6b99e"/><stop offset="1" stop-color="#e08f80"/></linearGradient><linearGradient id="Degradado_sin_nombre_14-2" x1="3758.84" y1="273.65" x2="3796.63" y2="273.65" gradientTransform="matrix(-1, 0, 0, 1, 4025.71, 0)" xlink:href="#Degradado_sin_nombre_14"/><linearGradient id="Degradado_sin_nombre_8" x1="93.61" y1="81.75" x2="104.71" y2="79.53" gradientUnits="userSpaceOnUse"><stop offset="0" stop-color="#f4c7ac"/><stop offset="1" stop-color="#ee9d80"/></linearGradient><linearGradient id="Degradado_sin_nombre_8-2" x1="199.72" y1="81.82" x2="187.43" y2="79.94" xlink:href="#Degradado_sin_nombre_8"/><linearGradient id="Degradado_sin_nombre_8-3" x1="145.34" y1="197.32" x2="145.34" y2="118.18" xlink:href="#Degradado_sin_nombre_8"/><linearGradient id="Degradado_sin_nombre_10" x1="140.9" y1="67.31" x2="140.9" y2="97.01" gradientUnits="userSpaceOnUse"><stop offset="0" stop-color="#f5d0b0"/><stop offset="0.99" stop-color="#f1b295"/></linearGradient><linearGradient id="Degradado_sin_nombre_8-4" x1="149.79" y1="68.13" x2="149.79" y2="95.17" xlink:href="#Degradado_sin_nombre_8"/><linearGradient id="Degradado_sin_nombre_8-5" x1="145.34" y1="71.94" x2="145.34" y2="96.39" xlink:href="#Degradado_sin_nombre_8"/><linearGradient id="Degradado_sin_nombre_14-3" x1="123.81" y1="360.76" x2="166.49" y2="360.76" xlink:href="#Degradado_sin_nombre_14"/><linearGradient id="Degradado_sin_nombre_14-4" x1="80.38" y1="302.25" x2="90.91" y2="300.14" xlink:href="#Degradado_sin_nombre_14"/><linearGradient id="Degradado_sin_nombre_14-5" x1="3122.85" y1="302.25" x2="3133.38" y2="300.14" gradientTransform="matrix(-1, 0, 0, 1, 3332.78, 0)" xlink:href="#Degradado_sin_nombre_14"/><linearGradient id="Degradado_sin_nombre_14-6" x1="145.15" y1="302.41" x2="145.15" y2="324.92" xlink:href="#Degradado_sin_nombre_14"/></defs><title>Recurso 3</title><g id="Capa_2" data-name="Capa 2"><g id="Capa_1-2" data-name="Capa 1"><circle class="cls-1" cx="145.15" cy="283.52" r="100.89" transform="translate(-157.97 185.68) rotate(-45)"/><path class="cls-2" d="M145.15,148.77a133.15,133.15,0,1,1-94.15,39,132.25,132.25,0,0,1,94.15-39m0-12A145.15,145.15,0,1,0,290.3,281.92,145.15,145.15,0,0,0,145.15,136.77Z"/><path class="cls-3" d="M82.13,182.82s-29.31,45.45-37.7,86.68C43.76,272.78,31,278,30.6,281.18c-.25,26.33,18.46,26.33,18.46,26.33s22,7.7,27.37-21.09S82.13,182.82,82.13,182.82Z"/><path class="cls-4" d="M61.22,273.65A17.4,17.4,0,0,1,43.82,291c-9.6,0-20.39-7.79-20.39-17.39s10.79-17.4,20.39-17.4A17.4,17.4,0,0,1,61.22,273.65Z"/><path class="cls-3" d="M208.17,182.82s29.32,45.45,37.7,86.68c.67,3.28,13.45,8.47,13.83,11.68.26,26.33-18.46,26.33-18.46,26.33s-22,7.7-27.37-21.09S208.17,182.82,208.17,182.82Z"/><path class="cls-5" d="M229.09,273.65A17.39,17.39,0,0,0,246.48,291c9.6,0,20.39-7.79,20.39-17.39s-10.79-17.4-20.39-17.4A17.39,17.39,0,0,0,229.09,273.65Z"/><path class="cls-6" d="M158.63,5.9c-11.48-1.6-27.79-12.44-42.89,0C99.83,19,90.49,56.49,84.62,69c-7.32,15.64,3,26.5,12.1,43.72s21.65,31.19,18,40-19.67,42.52,26.6,42.52c49.25,0,39.64-21.71,36.31-47.09s33.06-34.9,29.73-57c-3.57-23.67-8.87-27-9.48-41.49S184.62,9.54,158.63,5.9Z"/><path class="cls-7" d="M208.18,182.82c-19.7-22.76-59.55-22.26-63-22.2s-43.32-.56-63,22.2c-20.39,23.56-3.29,145.84-3.29,145.84H211.47S228.57,206.38,208.18,182.82Z"/><path class="cls-3" d="M177.65,177.14l-2-13.79a172.14,172.14,0,0,0-60.68-.07L113,177.14a32.31,32.31,0,0,0,64.62,0Z"/><path class="cls-8" d="M110.33,80.3c.6,8.34-2.33,15.15-8,15.15s-11.89-6.73-12.5-15.07S93.33,65.25,99,65.23,109.72,72,110.33,80.3Z"/><path class="cls-9" d="M180.36,80.3c-.61,8.34,2.32,15.15,8,15.15s11.89-6.73,12.5-15.07-3.49-15.13-9.14-15.15S181,72,180.36,80.3Z"/><path class="cls-10" d="M95.07,70.94a21,21,0,0,1,6.66,13.38"/><path class="cls-10" d="M195.61,70.94A21,21,0,0,0,189,84.32"/><path class="cls-11" d="M145.34,201.76h0a24.62,24.62,0,0,1-24.62-24.62V128.23a24.62,24.62,0,0,1,24.62-24.62h0A24.62,24.62,0,0,1,170,128.23v48.91A24.62,24.62,0,0,1,145.34,201.76Z"/><path class="cls-12" d="M188.69,77c0,33.44-9.82,60.56-43.35,60.56S102,110.39,102,77s9.22-63.65,43.35-63.65S188.69,43.5,188.69,77Z"/><path class="cls-6" d="M158,14s-15.49-4.54-21.22,13.81S124.42,76.93,88.85,75.35c10.2-36.25,16-64.34,33.42-68.42S158,14,158,14Z"/><path class="cls-6" d="M193.22,65.67A17.35,17.35,0,0,1,184,58c-3-5.74-2.74-37-18.89-42C182.11,22.48,191.19,40.45,193.22,65.67Z"/><polygon class="cls-13" points="145.34 65.91 136.45 96.63 139.78 96.63 145.34 65.91"/><polygon class="cls-14" points="145.34 65.91 154.23 96.63 150.9 96.63 145.34 65.91"/><path class="cls-15" d="M145.34,100.24c4.91,0,8.89-1.62,8.89-3.61H136.45C136.45,98.62,140.43,100.24,145.34,100.24Z"/><polygon class="cls-16" points="145.34 65.91 139.78 96.63 150.9 96.63 145.34 65.91"/><path class="cls-17" d="M131.71,112.58a11.06,11.06,0,0,0,3.17,1.31,26.39,26.39,0,0,0,3.43.7,51.72,51.72,0,0,0,14.06,0,24.82,24.82,0,0,0,3.43-.7,11.5,11.5,0,0,0,3.17-1.3h0a.34.34,0,0,1,.39.55,15.84,15.84,0,0,1-6.81,2.68,40.53,40.53,0,0,1-14.46,0,16,16,0,0,1-6.81-2.67.34.34,0,0,1-.05-.48.33.33,0,0,1,.45-.08Z"/><path class="cls-18" d="M130,69.51a4.74,4.74,0,1,1-4.73-4.73A4.74,4.74,0,0,1,130,69.51Z"/><path class="cls-18" d="M170.18,69.51a4.74,4.74,0,1,1-4.73-4.73A4.74,4.74,0,0,1,170.18,69.51Z"/><path class="cls-19" d="M111.93,58.94a9.7,9.7,0,0,1,3.5-4.27,12.7,12.7,0,0,1,5.09-2.11,13.88,13.88,0,0,1,5.45.07,11.9,11.9,0,0,1,4.82,2.19,1.11,1.11,0,0,1,.18,1.56,1.09,1.09,0,0,1-.75.41h0c-1.65.17-3.13.22-4.56.38a34.33,34.33,0,0,0-4.07.6c-1.32.28-2.59.65-3.92,1.06s-2.69.95-4.13,1.45l-.21.07a1.09,1.09,0,0,1-1.36-1.42Z"/><path class="cls-19" d="M177.18,60.29a43.25,43.25,0,0,0-4-1.77,27.93,27.93,0,0,0-4-1.16,27.12,27.12,0,0,0-4.19-.5c-1.44-.09-2.93,0-4.53-.06h0a1.08,1.08,0,0,1-.58-2A13.14,13.14,0,0,1,164.74,53a14.53,14.53,0,0,1,5.34,0,13.66,13.66,0,0,1,5,2,10.56,10.56,0,0,1,3.67,3.94,1.06,1.06,0,0,1-1.4,1.43Z"/><rect class="cls-20" x="96.54" y="216.05" width="97.22" height="112.61"/><polygon class="cls-20" points="114.95 216.05 108.75 216.05 108.75 166.13 114.95 162.96 114.95 216.05"/><polygon class="cls-20" points="175.63 216.05 181.83 216.05 181.83 166.22 175.63 162.96 175.63 216.05"/><path class="cls-21" d="M145,316.5c-33.2,0-64.37-1.49-91.48-4.1v96c27.11-2.61,58.28-4.1,91.48-4.1s64.36,1.49,91.47,4.1v-96C209.34,315,178.17,316.5,145,316.5Z"/><circle class="cls-21" cx="47.45" cy="268.96" r="12.71" transform="translate(-99.32 38.63) rotate(-22.5)"/><circle class="cls-21" cx="242.86" cy="268.96" r="12.71" transform="matrix(0.92, -0.38, 0.38, 0.92, -84.44, 113.41)"/><path class="cls-22" d="M46,265h2.82a5.22,5.22,0,0,1,5.22,5.22V427.06a0,0,0,0,1,0,0H40.82a0,0,0,0,1,0,0V270.21A5.22,5.22,0,0,1,46,265Z"/><path class="cls-22" d="M241.45,265h2.82a5.22,5.22,0,0,1,5.22,5.22V427.06a0,0,0,0,1,0,0H236.23a0,0,0,0,1,0,0V270.21A5.22,5.22,0,0,1,241.45,265Z"/><rect class="cls-23" x="45.57" y="275.71" width="3.75" height="151.35"/><rect class="cls-23" x="240.98" y="275.71" width="3.75" height="151.35"/><path class="cls-24" d="M233.67,427.06c-1.82-44.46-40.74-85.91-88.52-85.91s-86.7,41.45-88.51,85.91Z"/><path class="cls-25" d="M220.45,427.06c-1.54-46-34.65-88.88-75.3-88.88s-73.76,42.89-75.3,88.88Z"/><path class="cls-26" d="M178.1,366.69c-2.72-15.65-32.95-25.54-32.95-25.54S114.92,351,112.2,366.69s16.29,13.24,16.29,13.24-.61,23.91,16.66,23.91,16.66-23.91,16.66-23.91S180.83,382.35,178.1,366.69Z"/><path class="cls-27" d="M166.49,360.76a21.34,21.34,0,1,1-21.34-21.34A21.33,21.33,0,0,1,166.49,360.76Z"/><path class="cls-26" d="M168.28,201.41c0,10.46-10.36,21.58-23.13,21.58S122,211.87,122,201.41s10.36-16.3,23.13-16.3S168.28,191,168.28,201.41Z"/><path class="cls-25" d="M170.38,229.26A25.23,25.23,0,1,1,145.15,204,25.23,25.23,0,0,1,170.38,229.26Z"/><path class="cls-26" d="M206.32,278.49c0,37-27.38,67-61.17,67s-61.17-30-61.17-67,11.11-67,61.17-67S206.32,241.5,206.32,278.49Z"/><path class="cls-28" d="M96.14,300.87c.58,9.1-2.19,16.53-7.51,16.53S77.45,310.06,76.88,301s3.28-16.5,8.6-16.53S95.57,291.77,96.14,300.87Z"/><path class="cls-29" d="M81.79,290.66a24,24,0,0,1,6.27,14.6"/><path class="cls-30" d="M194.16,300.87c-.57,9.1,2.19,16.53,7.51,16.53s11.19-7.34,11.76-16.44-3.28-16.5-8.6-16.53S194.73,291.77,194.16,300.87Z"/><path class="cls-29" d="M208.51,290.66a24,24,0,0,0-6.27,14.6"/><path class="cls-25" d="M209.4,317.4a5.62,5.62,0,1,1-5.62-5.62A5.62,5.62,0,0,1,209.4,317.4Z"/><path class="cls-26" d="M207.12,318a1.75,1.75,0,1,1-1.74-1.74A1.74,1.74,0,0,1,207.12,318Z"/><path class="cls-25" d="M92.14,317.4a5.62,5.62,0,1,1-5.62-5.62A5.62,5.62,0,0,1,92.14,317.4Z"/><path class="cls-26" d="M86.67,318a1.75,1.75,0,1,1-1.74-1.74A1.74,1.74,0,0,1,86.67,318Z"/><path class="cls-31" d="M90,301.64c0-30.44,10.09-73.1,55.13-73.1s55.13,42.66,55.13,73.1-24.68,59.12-55.13,59.12S90,332.09,90,301.64Z"/><path class="cls-31" d="M170.66,344.23c0,11.56-11.42,23.15-25.51,23.15s-25.51-11.59-25.51-23.15,11.42-20.91,25.51-20.91S170.66,332.68,170.66,344.23Z"/><path class="cls-32" d="M129.86,310.61c0-6.07,6.85-6.16,15.29-6.16s15.3.09,15.3,6.16S153.6,324,145.15,324,129.86,316.69,129.86,310.61Z"/><g class="cls-33"><path class="cls-34" d="M126.88,305.26c-.19,3.52-.56,6.94-.93,10.36l-1.18,10.21c-.4,3.39-.78,6.77-1.13,10.17s-.65,6.81-1,10.32A41.6,41.6,0,0,1,121,335.93a68,68,0,0,1,.45-10.49,78,78,0,0,1,1.91-10.29A55.9,55.9,0,0,1,126.88,305.26Z"/></g><g class="cls-33"><path class="cls-34" d="M163.42,305.26a55.11,55.11,0,0,1,3.49,9.89,78,78,0,0,1,1.92,10.29,66.77,66.77,0,0,1,.44,10.49,41.15,41.15,0,0,1-1.62,10.39c-.34-3.51-.62-6.91-1-10.32s-.73-6.78-1.12-10.17l-1.19-10.21C164,312.2,163.62,308.78,163.42,305.26Z"/></g><path class="cls-35" d="M140.34,290.68a22.79,22.79,0,0,1-1.77,8.45,22.41,22.41,0,0,1-4.85,7.1,23,23,0,0,1-15.33,6.59A22.44,22.44,0,0,1,95.23,292.3a20.91,20.91,0,0,1,1-8.54,18.29,18.29,0,0,1,4.71-7.31c4.28-4.06,10.14-5.94,15.82-6.13a25.24,25.24,0,0,1,16.33,4.87,18.9,18.9,0,0,1,5.47,6.9,20.28,20.28,0,0,1,1.78,8.57Zm-3.09,0a17,17,0,0,0-1.57-7.23,15.76,15.76,0,0,0-4.6-5.69,22.11,22.11,0,0,0-14.23-4.31,21.18,21.18,0,0,0-14,5.07,15.64,15.64,0,0,0-4.18,6.14,18.16,18.16,0,0,0-1.07,7.49,20,20,0,0,0,20.72,18.78,19.27,19.27,0,0,0,7.5-1.81,20,20,0,0,0,11.43-18.46Z"/><path class="cls-35" d="M153.05,290.64a20,20,0,0,0,11.44,18.46,19.22,19.22,0,0,0,7.49,1.81,20,20,0,0,0,20.72-18.78,18.33,18.33,0,0,0-1.06-7.49,15.77,15.77,0,0,0-4.19-6.14,21.15,21.15,0,0,0-14-5.07,22.12,22.12,0,0,0-14.24,4.31,15.76,15.76,0,0,0-4.6,5.69,17,17,0,0,0-1.57,7.23Zm-3.08,0a20.13,20.13,0,0,1,1.78-8.57,18.79,18.79,0,0,1,5.47-6.9,25.22,25.22,0,0,1,16.32-4.87,24.14,24.14,0,0,1,15.83,6.13,18.27,18.27,0,0,1,4.7,7.31,20.74,20.74,0,0,1,1,8.54,22.42,22.42,0,0,1-7.51,14.92,22.19,22.19,0,0,1-15.65,5.6,23,23,0,0,1-15.33-6.59,22.22,22.22,0,0,1-4.84-7.1,22.59,22.59,0,0,1-1.77-8.45Z"/><path class="cls-36" d="M154.33,280.87a13,13,0,0,0-18.36,0"/><path class="cls-37" d="M133.38,266a.85.85,0,0,0-.06-.17,3.58,3.58,0,0,0-.56-1.1,11,11,0,0,0-10.3-5.56c-7,.18-13.35,5.39-14,7a1.42,1.42,0,0,0-.11.65.8.8,0,0,0,0,.15,1,1,0,0,0,.15.41.64.64,0,0,0,0,.07h0c.55.83,2.08,1.23,3.79,1,2.44-.34,8.17-2.39,10.67-1.65s8.29,2.35,9.39,1.71a2.11,2.11,0,0,0,1-1.33h0s0-.06,0-.09l0-.26A2.39,2.39,0,0,0,133.38,266Z"/><path class="cls-37" d="M182,266.83a1.54,1.54,0,0,0-.11-.65c-.67-1.65-7-6.86-14-7a11,11,0,0,0-10.3,5.56,3.69,3.69,0,0,0-.56,1.1l-.06.17a2.63,2.63,0,0,0-.06.87,2,2,0,0,0,0,.26.28.28,0,0,0,0,.09h0a2.11,2.11,0,0,0,1,1.33c1.1.64,6.89-1,9.39-1.71s8.24,1.31,10.67,1.65c1.71.23,3.24-.17,3.79-1h0s0,0,0-.07a1.12,1.12,0,0,0,.14-.4A.94.94,0,0,0,182,266.83Z"/><path class="cls-18" d="M121.08,292.55c0,2.62-2.13,1.92-4.75,1.92s-4.75.7-4.75-1.92a4.75,4.75,0,0,1,9.5,0Z"/><path class="cls-18" d="M124.18,289.31c-1.45.19-2.78.25-4.09.3l-3.84.12c-1.26,0-2.5.1-3.76.21s-2.53.26-4,.47a7.62,7.62,0,0,1,3.43-2.63,11.89,11.89,0,0,1,4.22-.88,13.85,13.85,0,0,1,4.21.51A10.58,10.58,0,0,1,124.18,289.31Z"/><path class="cls-18" d="M169.23,292.55c0,2.62,2.12,1.92,4.74,1.92s4.75.7,4.75-1.92a4.75,4.75,0,1,0-9.49,0Z"/><path class="cls-18" d="M166.13,289.31a10.42,10.42,0,0,1,3.81-1.9,13.85,13.85,0,0,1,4.21-.51,11.84,11.84,0,0,1,4.21.88,7.62,7.62,0,0,1,3.43,2.63c-1.45-.21-2.71-.37-4-.47s-2.5-.17-3.76-.21l-3.83-.12C168.9,289.56,167.57,289.5,166.13,289.31Z"/><path class="cls-34" d="M130.87,337.13a50.57,50.57,0,0,0,7.12,2.12,34.84,34.84,0,0,0,7.14.78,34,34,0,0,0,7.18-.79,48.85,48.85,0,0,0,7.12-2.11A19.59,19.59,0,0,1,152.8,341a24.1,24.1,0,0,1-3.75,1c-.64.11-1.29.19-1.94.25s-1.34.09-1.94.1a23.06,23.06,0,0,1-7.67-1.36A19.75,19.75,0,0,1,130.87,337.13Z"/><path class="cls-34" d="M140.92,344.09a12.65,12.65,0,0,1,2.18-.18h2.05a23.64,23.64,0,0,1,4.23.17,6.68,6.68,0,0,1-2,.92,8.08,8.08,0,0,1-2.2.33A8,8,0,0,1,143,345,7,7,0,0,1,140.92,344.09Z"/><path class="cls-34" d="M155.28,337.23a76.73,76.73,0,0,0-10.13.16,76.73,76.73,0,0,0-10.13-.16,44,44,0,0,0,10.13,1.57A44,44,0,0,0,155.28,337.23Z"/><line class="cls-38" x1="90.27" y1="287.01" x2="95.67" y2="287.01"/><line class="cls-38" x1="194.63" y1="287.01" x2="200.03" y2="287.01"/></g></g></svg>