<svg xmlns="http://www.w3.org/2000/svg" xmlns:xlink="http://www.w3.org/1999/xlink" viewBox="0 0 290.3 312.05"><defs><style>.cls-1{fill:#ff971c;}.cls-2{fill:#141b4d;}.cls-3{fill:#77a3b4;}.cls-4{fill:#c5c5c4;}.cls-5{fill:url(#Degradado_sin_nombre_11);}.cls-6{fill:#422918;}.cls-7{fill:url(#Degradado_sin_nombre_11-2);}.cls-8{fill:url(#Degradado_sin_nombre_11-3);}.cls-13,.cls-9{fill:none;stroke-miterlimit:10;}.cls-9{stroke:#7e4e24;stroke-linecap:round;stroke-width:0.79px;}.cls-10{fill:#a07c48;}.cls-11{fill:#a4a49a;}.cls-12{fill:#1d1d1b;}.cls-13{stroke:#1d1d1b;stroke-width:1.18px;}.cls-14{fill:#7e4e24;}.cls-15{fill:url(#Degradado_sin_nombre_4);}.cls-16{fill:url(#Degradado_sin_nombre_4-2);}.cls-17{fill:url(#Degradado_sin_nombre_4-3);}.cls-18{fill:url(#Degradado_sin_nombre_4-4);}.cls-19{fill:#fff;}.cls-20{fill:#ff6d6a;}.cls-21{fill:#d5d5d5;}</style><linearGradient id="Degradado_sin_nombre_11" x1="145.15" y1="265.94" x2="145.15" y2="190.78" gradientUnits="userSpaceOnUse"><stop offset="0" stop-color="#a07c48"/><stop offset="1" stop-color="#905134"/></linearGradient><linearGradient id="Degradado_sin_nombre_11-2" x1="79.15" y1="124.13" x2="93.33" y2="121.29" xlink:href="#Degradado_sin_nombre_11"/><linearGradient id="Degradado_sin_nombre_11-3" x1="214.53" y1="124.22" x2="198.84" y2="121.82" xlink:href="#Degradado_sin_nombre_11"/><linearGradient id="Degradado_sin_nombre_4" x1="137.25" y1="106.24" x2="137.25" y2="155.09" gradientUnits="userSpaceOnUse"><stop offset="0" stop-color="#8f7f49"/><stop offset="1" stop-color="#805f36"/></linearGradient><linearGradient id="Degradado_sin_nombre_4-2" x1="153.05" y1="107.59" x2="153.05" y2="152.06" xlink:href="#Degradado_sin_nombre_4"/><linearGradient id="Degradado_sin_nombre_4-3" x1="129.35" y1="157.43" x2="160.95" y2="157.43" xlink:href="#Degradado_sin_nombre_4"/><linearGradient id="Degradado_sin_nombre_4-4" x1="139.3" y1="129.2" x2="150.91" y2="129.2" xlink:href="#Degradado_sin_nombre_4"/></defs><title>Recurso 4</title><g id="Capa_2" data-name="Capa 2"><g id="Capa_1-2" data-name="Capa 1"><circle class="cls-1" cx="145.15" cy="168.52" r="100.89" transform="translate(-0.74 0.64) rotate(-0.25)"/><path class="cls-2" d="M145.15,33.76a133.15,133.15,0,0,1,94.15,227.3A133.15,133.15,0,1,1,51,72.76a132.27,132.27,0,0,1,94.15-39m0-12A145.15,145.15,0,1,0,290.3,166.91,145.16,145.16,0,0,0,145.15,21.76Z"/><path class="cls-3" d="M252.33,312.05c0-.94.07-1.87.07-2.82,0-53.57-48-97-107.25-97s-107.26,43.42-107.26,97c0,.95,0,1.88.08,2.82Z"/><path class="cls-4" d="M206.44,135.92c0,22.84-27.44,41.36-61.29,41.36s-61.29-18.52-61.29-41.36,27.44-41.36,61.29-41.36S206.44,113.08,206.44,135.92Z"/><path class="cls-5" d="M185.37,214c-.59-.76-1.15-1.54-1.67-2.33-.11-.18-.22-.37-.34-.55-.43-.69-.83-1.41-1.2-2.13-.09-.17-.19-.34-.27-.51a25.86,25.86,0,0,1-2.09-6.18c-2.07-10.41-3.4-33-4.12-48.72a252.84,252.84,0,0,0-61.06,0c-.72,15.76-2.05,38.31-4.12,48.72a25.38,25.38,0,0,1-2.1,6.19c-.07.16-.16.3-.24.45a23.22,23.22,0,0,1-1.26,2.23l-.28.47c-.54.82-1.11,1.62-1.73,2.4a46.31,46.31,0,0,1-5.37,5.71l45.63,55.15,45.63-55.15A46.22,46.22,0,0,1,185.37,214Z"/><path class="cls-4" d="M213.43,93.23c0,36.77-30.57,66.58-68.28,66.58S76.86,130,76.86,93.23s30.58-66.59,68.29-66.59S213.43,56.45,213.43,93.23Z"/><path class="cls-4" d="M198.84,32.35c0,17.85-15.41,32.33-34.43,32.33S130,50.2,130,32.35,145.41,0,164.41,0,198.84,14.48,198.84,32.35Z"/><path class="cls-6" d="M131.16,58.61c0-6.83,5.89-12.36,13.15-12.36s13.17,5.53,13.17,12.36S151.58,71,144.31,71,131.16,65.44,131.16,58.61Z"/><path class="cls-4" d="M104.25,39.79c0-10.39,9-18.82,20-18.82s20,8.43,20,18.82-9,18.82-20,18.82S104.25,50.18,104.25,39.79Z"/><path class="cls-4" d="M118.05,52.78c0,8-6.88,14.44-15.37,14.44S87.31,60.76,87.31,52.78s6.89-14.44,15.37-14.44S118.05,44.81,118.05,52.78Z"/><path class="cls-4" d="M170.8,55.85c0-8.35,7.21-15.11,16.09-15.11S203,47.5,203,55.85,195.78,71,186.89,71,170.8,64.2,170.8,55.85Z"/><path class="cls-4" d="M108.62,139.28c0,5.18-4.48,9.39-10,9.39s-10-4.21-10-9.39,4.48-9.39,10-9.39S108.62,134.09,108.62,139.28Z"/><path class="cls-4" d="M201.67,139.28c0,5.18-4.47,9.39-10,9.39s-10-4.21-10-9.39,4.47-9.39,10-9.39S201.67,134.09,201.67,139.28Z"/><path class="cls-7" d="M100.48,122.27c.78,11-3,19.89-10.18,19.89s-15.18-8.83-16-19.78S78.8,102.52,86,102.49,99.7,111.32,100.48,122.27Z"/><path class="cls-8" d="M189.82,122.27c-.78,11,3,19.89,10.19,19.89s15.16-8.83,15.94-19.78-4.45-19.86-11.67-19.89S190.59,111.32,189.82,122.27Z"/><path class="cls-9" d="M81,110a27.75,27.75,0,0,1,8.5,17.57"/><path class="cls-9" d="M209.28,110a27.75,27.75,0,0,0-8.5,17.57"/><path class="cls-10" d="M197.67,119.32c0,40-18,82.47-52.52,82.47s-52.52-42.46-52.52-82.47,9.67-74.64,52.52-74.64S197.67,79.31,197.67,119.32Z"/><path class="cls-4" d="M133.43,93.41c-1.06-1.45-3.93-6.89-12.28-6.69s-15.92,6.48-16.71,8.47,1.74,3.14,4.65,2.73,9.73-2.87,12.71-2S131.68,98.76,133,98,134.88,95.41,133.43,93.41Z"/><path class="cls-11" d="M121.15,86.72c-8.36.21-15.92,6.48-16.71,8.47a1.59,1.59,0,0,0,.11,1.54c3.56-1.93,10.27-5.09,15.94-5.09,5,0,10.34,2.7,13.69,4.77a3.56,3.56,0,0,0-.75-3C132.37,92,129.5,86.52,121.15,86.72Z"/><path class="cls-12" d="M125.41,112.69a5.48,5.48,0,1,1-5.47-5.15A5.31,5.31,0,0,1,125.41,112.69Z"/><path class="cls-12" d="M164.88,112.69a5.49,5.49,0,1,0,5.48-5.15A5.32,5.32,0,0,0,164.88,112.69Z"/><path class="cls-4" d="M156.87,93.41c1.06-1.45,3.92-6.89,12.28-6.69s15.91,6.48,16.71,8.47-1.75,3.14-4.65,2.73-9.74-2.87-12.71-2-9.89,2.82-11.19,2.06S155.42,95.41,156.87,93.41Z"/><path class="cls-11" d="M169.15,86.72c8.36.21,15.91,6.48,16.71,8.47a1.57,1.57,0,0,1-.1,1.54c-3.57-1.93-10.29-5.09-16-5.09-5,0-10.34,2.7-13.68,4.77a3.53,3.53,0,0,1,.75-3C157.93,92,160.79,86.52,169.15,86.72Z"/><path class="cls-12" d="M142.16,110a23.11,23.11,0,0,1-2.26,9.53,24.16,24.16,0,0,1-5.89,7.73,26,26,0,0,1-8.3,4.91,26.55,26.55,0,0,1-9.46,1.69,26.28,26.28,0,0,1-17.77-6.58,24.62,24.62,0,0,1-5.88-7.75,23.23,23.23,0,0,1-.31-19.24A24.47,24.47,0,0,1,98,92.19a27.18,27.18,0,0,1,18.25-7.13,27.91,27.91,0,0,1,9.79,1.8,26.38,26.38,0,0,1,8.44,5.31,24.85,24.85,0,0,1,5.72,8.12,23.2,23.2,0,0,1,1.93,9.7Zm-2.23,0a21.32,21.32,0,0,0-7.41-15.63,23.79,23.79,0,0,0-7.59-4.48,24.38,24.38,0,0,0-8.69-1.55,24,24,0,0,0-16.26,6,21.2,21.2,0,0,0-.45,31.8,24.91,24.91,0,0,0,16.73,6.55,25.72,25.72,0,0,0,9-1.65,24.19,24.19,0,0,0,7.73-4.88A21.68,21.68,0,0,0,139.93,110Z"/><path class="cls-12" d="M199.94,110a23.11,23.11,0,0,1-2.26,9.53,24.16,24.16,0,0,1-5.89,7.73,26.11,26.11,0,0,1-8.29,4.91,26.64,26.64,0,0,1-9.47,1.69,26.28,26.28,0,0,1-17.77-6.58,24.59,24.59,0,0,1-5.87-7.75,23.13,23.13,0,0,1-.31-19.24,24.33,24.33,0,0,1,5.74-8.1,27.13,27.13,0,0,1,18.24-7.13,27.91,27.91,0,0,1,9.79,1.8,26.38,26.38,0,0,1,8.44,5.31,25,25,0,0,1,5.72,8.12,23.35,23.35,0,0,1,1.93,9.7Zm-2.23,0a21.32,21.32,0,0,0-7.41-15.63,23.79,23.79,0,0,0-7.59-4.48A24.38,24.38,0,0,0,174,88.33a24.08,24.08,0,0,0-16.26,6,21.22,21.22,0,0,0-.45,31.8,24.94,24.94,0,0,0,16.74,6.55,25.71,25.71,0,0,0,9-1.65,24.19,24.19,0,0,0,7.73-4.88A21.64,21.64,0,0,0,197.71,110Z"/><path class="cls-13" d="M153.49,96.88a16.15,16.15,0,0,0-16.68,0"/><path class="cls-14" d="M131.45,169.18a23.6,23.6,0,0,0,6.51,4.47,11.34,11.34,0,0,0,7.48.89c2.57-.71,5.2-1.47,7.68-2.42a16.68,16.68,0,0,0,3.51-1.75,4.41,4.41,0,0,0,2.12-2.88.39.39,0,0,1,.78.08,5.2,5.2,0,0,1-2.23,3.72,17.81,17.81,0,0,1-3.68,2.06A67.65,67.65,0,0,1,145.8,176a12.32,12.32,0,0,1-8.39-1.13,21,21,0,0,1-6.55-5.12.41.41,0,0,1,0-.56.39.39,0,0,1,.53,0Z"/><polygon class="cls-15" points="145.15 103.93 129.35 154.46 135.27 154.46 145.15 103.93"/><polygon class="cls-16" points="145.15 103.93 160.95 154.46 155.03 154.46 145.15 103.93"/><path class="cls-17" d="M145.15,160.4c8.73,0,15.8-2.66,15.8-5.94h-31.6C129.35,157.74,136.42,160.4,145.15,160.4Z"/><polygon class="cls-18" points="145.15 103.93 135.27 154.46 155.03 154.46 145.15 103.93"/><path class="cls-4" d="M126.35,62.4C116.11,79,101.92,92.45,94.66,92.45S89.84,79,100.08,62.4s24.44-30.06,31.69-30.06S136.61,45.8,126.35,62.4Z"/><polygon class="cls-19" points="97.11 221.8 115.27 278 129.35 267.11 145.15 274.86 99.52 219.71 97.11 221.8"/><polygon class="cls-19" points="193.19 221.8 175.03 278 160.95 267.11 145.15 274.86 190.78 219.71 193.19 221.8"/><path class="cls-20" d="M92.24,143.64a3.61,3.61,0,1,1-3.61-3.39A3.51,3.51,0,0,1,92.24,143.64Z"/><path class="cls-20" d="M205.28,143.64a3.62,3.62,0,1,1-3.61-3.39A3.51,3.51,0,0,1,205.28,143.64Z"/><path class="cls-21" d="M177.16,9.15a16.86,16.86,0,0,0-11.48,4.5,17,17,0,0,1,18.81,27.8,17,17,0,0,0-7.33-32.3Z"/></g></g></svg>