<svg xmlns="http://www.w3.org/2000/svg" xmlns:xlink="http://www.w3.org/1999/xlink" viewBox="0 0 323.8 290.29"><defs><style>.cls-1{fill:#ff971c;}.cls-2{fill:#141b4d;}.cls-3{fill:#22416d;}.cls-4{fill:#2f4d80;}.cls-5{fill:#fff;}.cls-6{fill:#e8a88c;}.cls-7{fill:url(#Degradado_sin_nombre_5);}.cls-14,.cls-15,.cls-16,.cls-8{fill:none;stroke-miterlimit:10;}.cls-14,.cls-8{stroke:#d48372;}.cls-14,.cls-15,.cls-8{stroke-linecap:round;}.cls-8{stroke-width:2.22px;}.cls-9{fill:url(#Degradado_sin_nombre_5-2);}.cls-10{fill:#eabaa2;}.cls-11{fill:#b7b7b6;}.cls-12{fill:#d48372;}.cls-13{fill:url(#Degradado_sin_nombre_5-3);}.cls-14,.cls-15{stroke-width:2.49px;}.cls-15{stroke:#683b11;}.cls-16{stroke:#8d8c8c;stroke-width:3.31px;}</style><linearGradient id="Degradado_sin_nombre_5" x1="242.84" y1="90.91" x2="227.5" y2="88.57" gradientUnits="userSpaceOnUse"><stop offset="0" stop-color="#ebbea3"/><stop offset="1" stop-color="#e59480"/></linearGradient><linearGradient id="Degradado_sin_nombre_5-2" x1="81.55" y1="90.82" x2="95.43" y2="88.04" xlink:href="#Degradado_sin_nombre_5"/><linearGradient id="Degradado_sin_nombre_5-3" x1="142.43" y1="107.95" x2="178.66" y2="107.95" xlink:href="#Degradado_sin_nombre_5"/></defs><title>Recurso 5</title><g id="Capa_2" data-name="Capa 2"><g id="Capa_1-2" data-name="Capa 1"><path class="cls-1" d="M61,146.75A100.89,100.89,0,1,1,161.9,247.64,100.89,100.89,0,0,1,61,146.75Z"/><path class="cls-2" d="M161.9,12a133.14,133.14,0,0,1,94.15,227.29A133.14,133.14,0,1,1,67.75,51,132.28,132.28,0,0,1,161.9,12m0-12A145.15,145.15,0,1,0,307.05,145.15,145.15,145.15,0,0,0,161.9,0Z"/><path class="cls-3" d="M323.8,290.29c-15.06-56.49-55.61-127.54-161.9-127.54S15.06,233.8,0,290.29Z"/><path class="cls-4" d="M291.22,290.29C279.8,231.21,248,157.36,161.9,157.36S44,231.21,32.58,290.29Z"/><path class="cls-5" d="M161.9,153.15c-19.17,2.79-35.32,8.34-48.82,16.17l.75.75c15.9,15.7,44.48,42.89,44.76,43.16l3.31,3.15Z"/><path class="cls-5" d="M161.9,153.15c19.17,2.79,35.32,8.34,48.82,16.17l-.75.75c-15.9,15.7-44.47,42.89-44.76,43.16l-3.31,3.15Z"/><path class="cls-6" d="M184.77,94.34H139c2.43,13.1-8.15,55-19.6,73.9,13.41,12,35.56,31.09,42.47,37,6.91-5.95,29.06-25.07,42.46-37C192.92,149.35,182.34,107.44,184.77,94.34Z"/><path class="cls-7" d="M218.71,89c-.75,11.38,2.9,20.65,9.94,20.65s14.8-9.16,15.55-20.54-4.34-20.62-11.38-20.65S219.46,77.63,218.71,89Z"/><path class="cls-8" d="M237.7,76.25a29.37,29.37,0,0,0-8.3,18.24"/><path class="cls-9" d="M102.38,89c.75,11.38-2.9,20.65-9.94,20.65s-14.79-9.16-15.55-20.54,4.34-20.62,11.38-20.65S101.63,77.63,102.38,89Z"/><path class="cls-8" d="M83.4,76.25a29.44,29.44,0,0,1,8.29,18.24"/><path class="cls-10" d="M226.37,93.13c0,36.36,10.17,82.79-65.82,82.79S94.72,129.49,94.72,93.13s8.56-80.37,65.83-80.37S226.37,56.77,226.37,93.13Z"/><path class="cls-11" d="M131.51,19.05S102.16,35.76,95,82.54c1-31.78,13-55.27,25.39-62.94S131.51,19.05,131.51,19.05Z"/><path class="cls-11" d="M219.87,89.14l6.69-7.78c0-30.88,8.88-76.37-66-76.37C119.75,5,103.41,18.27,97.2,36.1c9.25-10.9,26-18.1,56.05-18.1C219.21,18,221.29,56.6,219.87,89.14Z"/><path class="cls-11" d="M160.55,128.75c-7.74,0-14.74-1.63-19.88-4.29a9.31,9.31,0,0,0-1.08,4.29,9.39,9.39,0,0,0,15.2,7.43,9.24,9.24,0,0,0,11.51,0,9.38,9.38,0,0,0,14.12-11.72C175.28,127.12,168.28,128.75,160.55,128.75Z"/><path class="cls-12" d="M176,109.64H145A9.16,9.16,0,0,0,145,128h31a9.16,9.16,0,1,0,0-18.31Z"/><path class="cls-13" d="M178.66,115.73c0,10-8.11,14.23-18.11,14.23s-18.12-4.23-18.12-14.23S150.54,86,160.55,86,178.66,105.72,178.66,115.73Z"/><path class="cls-14" d="M187.83,143.81a31.47,31.47,0,0,1-26.11,13.88"/><path class="cls-11" d="M146.86,74.93a1.87,1.87,0,0,0-.07-.22,4.8,4.8,0,0,0-.64-1.37c-1-1.5-3.83-7.16-12-6.94s-15.52,6.73-16.3,8.79a2,2,0,0,0-.13.81,1.06,1.06,0,0,0,0,.19,1.59,1.59,0,0,0,.17.52s0,.06,0,.08,0,0,0,0c.64,1,2.42,1.54,4.4,1.24,2.84-.42,9.5-3,12.41-2s9.64,2.93,10.91,2.14a2.67,2.67,0,0,0,1.13-1.67l0,0s0-.08,0-.12,0-.21,0-.32A3.39,3.39,0,0,0,146.86,74.93Z"/><path class="cls-11" d="M203.35,76a2,2,0,0,0-.13-.81c-.78-2.06-8.15-8.58-16.3-8.79s-10.94,5.44-12,6.94a4.7,4.7,0,0,0-.64,1.38c0,.07-.05.14-.07.2a3.47,3.47,0,0,0-.07,1.1,3.11,3.11,0,0,0,0,.32.49.49,0,0,1,0,.12l0,0a2.67,2.67,0,0,0,1.13,1.67c1.27.79,8-1.22,10.91-2.14s9.58,1.63,12.41,2c2,.3,3.76-.21,4.4-1.24h0s0-.06,0-.09a2.81,2.81,0,0,0,.21-.7Z"/><path class="cls-15" d="M123.33,86.65c2.57-.28,10.87-1.43,18,0"/><path class="cls-15" d="M179.73,86.65c2.58-.28,10.88-1.43,18,0"/><path class="cls-12" d="M134.88,126.62c-1.54,1.78-3,3.66-4.47,5.57a54.55,54.55,0,0,0-4,6,57.43,57.43,0,0,1,2.9-6.65c1.1-2.17,2.26-4.29,3.53-6.39a1.25,1.25,0,0,1,1.72-.42,1.24,1.24,0,0,1,.42,1.71l-.12.17Z"/><path class="cls-12" d="M188.21,125.15c1.27,2.1,2.44,4.22,3.53,6.39a57.5,57.5,0,0,1,2.91,6.65,57.13,57.13,0,0,0-4-6c-1.42-1.91-2.93-3.79-4.47-5.57h0a1.25,1.25,0,0,1,1.88-1.64Z"/><path class="cls-16" d="M175.1,94.49c-2-5.49-7.72-9.51-14.55-9.51S148,89,146,94.49H112.9a17.6,17.6,0,0,0,35.2,0H148a14,14,0,0,1,25.06,0H173a17.6,17.6,0,1,0,35.2,0Z"/></g></g></svg>