<svg xmlns="http://www.w3.org/2000/svg" xmlns:xlink="http://www.w3.org/1999/xlink" viewBox="0 0 290.3 290.29"><defs><style>.cls-1{fill:#ff971c;}.cls-2{fill:#141b4d;}.cls-3{fill:#ffa91c;}.cls-4{fill:#fff;}.cls-5{fill:url(#Degradado_sin_nombre_5);}.cls-6{fill:url(#Degradado_sin_nombre_5-2);}.cls-14,.cls-7{fill:none;stroke-linecap:round;stroke-miterlimit:10;}.cls-7{stroke:#d48372;stroke-width:2.14px;}.cls-8{fill:url(#Degradado_sin_nombre_5-3);}.cls-9{fill:#eabaa2;}.cls-10{fill:#cdcdc7;}.cls-11{fill:#d48372;}.cls-12{fill:url(#Degradado_sin_nombre_28);}.cls-13{fill:url(#Degradado_sin_nombre_28-2);}.cls-14{stroke:#683b11;stroke-width:2.4px;}.cls-15{fill:#b7b7b6;}.cls-16{opacity:0.4;}.cls-17{fill:url(#Degradado_sin_nombre_5-4);}.cls-18{fill:#db8000;}</style><linearGradient id="Degradado_sin_nombre_5" x1="115.41" y1="208.15" x2="174.97" y2="208.15" gradientUnits="userSpaceOnUse"><stop offset="0" stop-color="#ebbea3"/><stop offset="1" stop-color="#e59480"/></linearGradient><linearGradient id="Degradado_sin_nombre_5-2" x1="71" y1="124.67" x2="84.08" y2="122.05" xlink:href="#Degradado_sin_nombre_5"/><linearGradient id="Degradado_sin_nombre_5-3" x1="222.47" y1="124.75" x2="208.04" y2="122.54" xlink:href="#Degradado_sin_nombre_5"/><linearGradient id="Degradado_sin_nombre_28" x1="104.32" y1="164.42" x2="134.33" y2="164.42" gradientUnits="userSpaceOnUse"><stop offset="0" stop-color="#e59480" stop-opacity="0.5"/><stop offset="1" stop-color="#ebbea3" stop-opacity="0"/></linearGradient><linearGradient id="Degradado_sin_nombre_28-2" x1="-6175.27" y1="164.42" x2="-6145.26" y2="164.42" gradientTransform="matrix(-1, 0, 0, 1, -5991.01, 0)" xlink:href="#Degradado_sin_nombre_28"/><linearGradient id="Degradado_sin_nombre_5-4" x1="114.47" y1="138.5" x2="153.53" y2="138.5" xlink:href="#Degradado_sin_nombre_5"/></defs><title>Recurso 6</title><g id="Capa_2" data-name="Capa 2"><g id="Capa_1-2" data-name="Capa 1"><path class="cls-1" d="M44.26,146.75A100.89,100.89,0,1,1,145.15,247.64,100.89,100.89,0,0,1,44.26,146.75Z"/><path class="cls-2" d="M145.15,12A133.14,133.14,0,0,1,239.3,239.29,133.14,133.14,0,1,1,51,51a132.27,132.27,0,0,1,94.15-39m0-12A145.15,145.15,0,1,0,290.3,145.15,145.15,145.15,0,0,0,145.15,0Z"/><path class="cls-3" d="M145.19,167.48S75.8,179.27,57.82,214.34s-18,76-18,76H145.19Z"/><path class="cls-3" d="M145.11,167.48s69.39,11.79,87.37,46.86,18,76,18,76H145.11Z"/><path class="cls-4" d="M145.19,244.2a36.08,36.08,0,0,1-36-36v-36h72.08v36A36.09,36.09,0,0,1,145.19,244.2Z"/><path class="cls-5" d="M115.41,178.37v29.78a29.78,29.78,0,1,0,59.56,0V178.37Z"/><path class="cls-6" d="M90.58,123c.71,11.31-2.72,20.53-9.33,20.53s-13.9-9.11-14.6-20.42,4.07-20.49,10.68-20.52S89.87,111.65,90.58,123Z"/><path class="cls-7" d="M72.75,110.27a29.91,29.91,0,0,1,7.79,18.14"/><path class="cls-8" d="M199.8,123c-.71,11.31,2.72,20.53,9.33,20.53s13.89-9.11,14.6-20.42-4.07-20.49-10.68-20.52S200.51,111.65,199.8,123Z"/><path class="cls-7" d="M217.62,110.27a29.86,29.86,0,0,0-7.78,18.14"/><path class="cls-9" d="M207.21,124.9c0,42.95-27.77,82.08-62,82.08s-62-39.13-62-82.08,12.89-90.71,62-90.71S207.21,82,207.21,124.9Z"/><path class="cls-10" d="M92.82,69.47s-1.83,43-9.49,61.15c-.17-8.23-.34-14.91-.17-18.58-.41-4.39-.69-6.13-2.62-8.77C81.38,96.94,80.54,81.75,92.82,69.47Z"/><path class="cls-10" d="M197.55,69.47s1.83,43,9.5,61.15c.16-8.23.34-14.91.16-18.58.42-4.39.69-6.13,2.63-8.77C209,96.94,209.84,81.75,197.55,69.47Z"/><path class="cls-11" d="M130.1,175.78a63.8,63.8,0,0,0,7.55,1.77,45.8,45.8,0,0,0,7.54.65,46.69,46.69,0,0,0,7.53-.65,67.49,67.49,0,0,0,7.55-1.77,22.07,22.07,0,0,1-7.11,3.59,26.33,26.33,0,0,1-15.94,0A22.1,22.1,0,0,1,130.1,175.78Z"/><path class="cls-12" d="M126.54,130.62c-5.39,0-14,16.63-21.35,41.67-3.39,9.93,3.6,19.65,12.17,24s17,3.46,17-22.66S131.93,130.62,126.54,130.62Z"/><path class="cls-13" d="M162,130.62c5.38,0,14,16.63,21.35,41.67,3.39,9.93-3.59,19.65-12.17,24s-17,3.46-17-22.66S156.64,130.62,162,130.62Z"/><path class="cls-14" d="M127.51,108.75s-12.83-4.41-23.09,1.52"/><path class="cls-14" d="M162.87,108.75s12.82-4.41,23.09,1.52"/><path class="cls-15" d="M130.57,94.38a1.8,1.8,0,0,0-.08-.21,4.48,4.48,0,0,0-.69-1.36c-1.1-1.5-4.09-7.12-12.79-6.9s-16.59,6.69-17.42,8.73a1.87,1.87,0,0,0-.14.81c0,.07,0,.13,0,.19a1.37,1.37,0,0,0,.19.51s0,.06,0,.08h0c.69,1,2.59,1.53,4.71,1.24,3-.42,10.15-3,13.25-2s10.3,2.92,11.66,2.13a2.62,2.62,0,0,0,1.21-1.65h0a.41.41,0,0,1,0-.11c0-.11,0-.21,0-.32A3.15,3.15,0,0,0,130.57,94.38Z"/><path class="cls-15" d="M190.92,95.45a1.83,1.83,0,0,0-.13-.81c-.83-2-8.71-8.52-17.42-8.73s-11.69,5.4-12.8,6.9a4.77,4.77,0,0,0-.69,1.37c0,.06,0,.13-.07.2a2.92,2.92,0,0,0-.07,1.09,1.75,1.75,0,0,0,0,.32s0,.08,0,.11h0A2.65,2.65,0,0,0,161,97.54c1.36.79,8.56-1.21,11.66-2.13s10.22,1.63,13.25,2c2.12.29,4-.21,4.71-1.24h0s0,0,0-.08a1.5,1.5,0,0,0,.18-.5A.71.71,0,0,0,190.92,95.45Z"/><g class="cls-16"><path class="cls-11" d="M117.38,77A66.5,66.5,0,0,1,131,72.85a71.26,71.26,0,0,1,14.23-1.53,70.36,70.36,0,0,1,14.22,1.53A65.78,65.78,0,0,1,173,77l-14-1.31c-4.63-.36-9.24-.67-13.81-.67s-9.18.3-13.81.67Z"/></g><g class="cls-16"><path class="cls-11" d="M129,117.53a16.49,16.49,0,0,1-5.6,6.55,26.92,26.92,0,0,1-7.77,3.87,31.59,31.59,0,0,1-8.48,1.43,27.58,27.58,0,0,1-8.48-1c2.77-.76,5.46-1.31,8.1-1.94s5.21-1.29,7.73-2.08a63,63,0,0,0,7.4-2.82A43,43,0,0,0,129,117.53Z"/></g><g class="cls-16"><path class="cls-11" d="M161.36,117.53a42.88,42.88,0,0,0,7.09,4,63.63,63.63,0,0,0,7.4,2.82c2.53.79,5.11,1.46,7.74,2.08s5.33,1.18,8.1,1.94a27.62,27.62,0,0,1-8.48,1,31.59,31.59,0,0,1-8.48-1.43,26.92,26.92,0,0,1-7.77-3.87A16.49,16.49,0,0,1,161.36,117.53Z"/></g><path class="cls-17" d="M145.19,108.75h0c-7.55,0-13.86,10.82-11.75,34,1.2,15-8.12,10.18-8.12,17.18s10.59,8.27,19.87,8.27h0Z"/><path class="cls-11" d="M145.19,108.75h0c7.54,0,13.86,10.82,11.75,34-1.2,15,8.11,10.18,8.11,17.18s-10.58,8.27-19.86,8.27h0Z"/><path class="cls-11" d="M193.48,145.46a2.49,2.49,0,1,1-2.49-2.63A2.56,2.56,0,0,1,193.48,145.46Z"/><path class="cls-11" d="M179,134.89a1.58,1.58,0,1,1-1.58-1.66A1.63,1.63,0,0,1,179,134.89Z"/><path class="cls-11" d="M195.66,124.64a1.58,1.58,0,1,1-1.57-1.67A1.62,1.62,0,0,1,195.66,124.64Z"/><path class="cls-11" d="M103.46,152.28a1.58,1.58,0,1,1-1.57-1.67A1.62,1.62,0,0,1,103.46,152.28Z"/><path class="cls-18" d="M63,240.23s-2.53,44.27-2.64,50.06h8.87S63.31,257.67,63,240.23Z"/><path class="cls-18" d="M230.26,240.23s2.54,44.27,2.65,50.06H224S229.92,257.67,230.26,240.23Z"/></g></g></svg>