<svg xmlns="http://www.w3.org/2000/svg" xmlns:xlink="http://www.w3.org/1999/xlink" viewBox="0 0 290.3 304.67"><defs><style>.cls-1{fill:#ff971c;}.cls-2{fill:#141b4d;}.cls-3{fill:#679bae;}.cls-4{fill:#77a3b4;}.cls-5{fill:#fff;}.cls-6{fill:#f6b69a;}.cls-7{fill:url(#Degradado_sin_nombre_1);}.cls-17,.cls-8{fill:none;stroke-miterlimit:10;}.cls-8{stroke:#e29172;stroke-linecap:round;stroke-width:3.16px;}.cls-9{fill:url(#linear-gradient);}.cls-10{fill:#f8c8b0;}.cls-11{fill:#c5c5c4;}.cls-12{fill:#1d1d1b;}.cls-13{fill:#3c3c3b;}.cls-14{fill:#e29172;}.cls-15{fill:url(#Degradado_sin_nombre_2);}.cls-16{fill:url(#Degradado_sin_nombre_1-2);}.cls-17{stroke:#806037;stroke-width:2.36px;}</style><linearGradient id="Degradado_sin_nombre_1" x1="69.46" y1="113.84" x2="86.33" y2="110.47" gradientUnits="userSpaceOnUse"><stop offset="0" stop-color="#f9ccb1"/><stop offset="1" stop-color="#f3a281"/></linearGradient><linearGradient id="linear-gradient" x1="223.09" y1="113.95" x2="204.45" y2="111.1" xlink:href="#Degradado_sin_nombre_1"/><linearGradient id="Degradado_sin_nombre_2" x1="138.52" y1="93.74" x2="138.52" y2="135.52" gradientUnits="userSpaceOnUse"><stop offset="0" stop-color="#fad5b5"/><stop offset="0.99" stop-color="#f6b79a"/></linearGradient><linearGradient id="Degradado_sin_nombre_1-2" x1="150.03" y1="92.13" x2="150.03" y2="133.95" xlink:href="#Degradado_sin_nombre_1"/></defs><title>Recurso 7</title><g id="Capa_2" data-name="Capa 2"><g id="Capa_1-2" data-name="Capa 1"><circle class="cls-1" cx="145.15" cy="161.13" r="100.89" transform="translate(-0.71 0.64) rotate(-0.25)"/><path class="cls-2" d="M145.15,26.38A133.14,133.14,0,0,1,239.3,253.67,133.14,133.14,0,1,1,51,65.38a132.27,132.27,0,0,1,94.15-39m0-12A145.15,145.15,0,1,0,290.3,159.53,145.16,145.16,0,0,0,145.15,14.38Z"/><path class="cls-3" d="M63.36,304.67c-3.41-26.5-8.8-58.06-15.87-66.78C32,248.75,15.15,273,6.5,304.67Z"/><path class="cls-3" d="M283.8,304.67c-6.21-27-18.68-51.45-42.79-66.78-7.1,8.77-9.57,40.41-10.36,66.78Z"/><path class="cls-4" d="M232.8,304.67A563.37,563.37,0,0,1,241,237.89s-23.32-13.6-38.55-18.52-58.18-14.51-58.18-14.51-42.95,9.58-58.19,14.51-38.55,18.52-38.55,18.52a563.37,563.37,0,0,1,8.21,66.78Z"/><path class="cls-5" d="M202.46,219.37c-1.59-.52-3.5-1.08-5.61-1.69-15.29,10.07-35.81,13-55.38,13s-38.59-5.29-55.38-11.34a129.78,129.78,0,0,0-14.39,5.87l10.86,3.91c14.24,5.14,35.84,12,58.91,12,25.69,0,46.25-5,61.09-14.74l6.76-4.45C206.94,221,204.61,220.06,202.46,219.37Z"/><path class="cls-6" d="M86.09,219.37c16.79,6,35.81,11.34,55.38,11.34s40.09-3,55.38-13c-20.76-33.51-26.23-96.44-26.23-96.44h-58.3S106.85,185.85,86.09,219.37Z"/><path class="cls-7" d="M94.78,111.64c.92,13.82-3.52,25.1-12.08,25.1s-18-11.14-18.9-25,5.27-25.07,13.83-25.1S93.86,97.81,94.78,111.64Z"/><path class="cls-8" d="M76.43,100.86A35.73,35.73,0,0,1,86.51,123"/><path class="cls-9" d="M193.77,111.64c-.92,13.82,3.52,25.1,12.08,25.1s18-11.14,18.9-25-5.28-25.07-13.83-25.1S194.68,97.81,193.77,111.64Z"/><path class="cls-8" d="M212.12,100.86A35.73,35.73,0,0,0,202,123"/><path class="cls-10" d="M204,111.32c0,32.2-16.58,78.83-59.76,78.83s-59.77-46.63-59.77-78.83S86,20.63,144.28,20.63,204,79.12,204,111.32Z"/><path class="cls-11" d="M144.28,32.39c46.88,0,58.85,36.6,59.71,80.08,0-1.52,0-3,0-4.56,0-50.49-11-94.19-59.76-94.19s-59.77,43.7-59.77,94.19c0,1.52,0,3,0,4.56C85.42,69,97.39,32.39,144.28,32.39Z"/><path class="cls-11" d="M196.85,0s-11.69,15.19-52.57,13.72C157,26.81,201.45,47.87,196.85,0Z"/><path class="cls-12" d="M120.87,99.54a6.49,6.49,0,1,1-6.49-6.49A6.49,6.49,0,0,1,120.87,99.54Z"/><path class="cls-13" d="M130.38,75.21c-1.26-1.83-4.66-8.7-14.56-8.44S97,75,96,77.46s2.07,4,5.51,3.44,11.55-3.62,15.08-2.5S128.31,82,129.86,81,132.1,77.73,130.38,75.21Z"/><path class="cls-12" d="M115.82,66.77C105.91,67,97,75,96,77.46a2.1,2.1,0,0,0,.13,1.94C100.35,77,108.32,73,115,73c6,0,12.26,3.4,16.23,6a4.73,4.73,0,0,0-.89-3.79C129.12,73.38,125.72,66.51,115.82,66.77Z"/><path class="cls-12" d="M167.68,99.54a6.49,6.49,0,1,0,6.49-6.49A6.49,6.49,0,0,0,167.68,99.54Z"/><path class="cls-13" d="M158.17,75.21c1.26-1.83,4.66-8.7,14.56-8.44S191.6,75,192.55,77.46s-2.07,4-5.51,3.44S175.49,77.28,172,78.4,160.24,82,158.69,81,156.45,77.73,158.17,75.21Z"/><path class="cls-12" d="M172.73,66.77c9.91.26,18.87,8.19,19.82,10.69a2.1,2.1,0,0,1-.13,1.94C188.2,77,180.23,73,173.51,73c-6,0-12.26,3.4-16.22,6a4.72,4.72,0,0,1,.88-3.79C159.43,73.38,162.83,66.51,172.73,66.77Z"/><path class="cls-14" d="M117.78,141a59.41,59.41,0,0,0,13.14,5,35,35,0,0,0,13.46.79l3.53-.62,3.6-.66c2.41-.41,4.78-.88,7.14-1.35a63.51,63.51,0,0,0,6.82-1.71c2.13-.65,4.24-1.71,4.66-2.8l.08-.2a1.57,1.57,0,0,1,3,.68,5.31,5.31,0,0,1-.9,2.53,8.22,8.22,0,0,1-1.6,1.75,18.19,18.19,0,0,1-3.55,2.23,46.66,46.66,0,0,1-7.26,2.69c-2.43.73-4.87,1.28-7.3,1.84l-3.65.74-1.82.36-.92.17c-.33,0-.67.12-1,.16a34.6,34.6,0,0,1-15.77-1.55,42.8,42.8,0,0,1-7.14-3.1,37.69,37.69,0,0,1-6.4-4.36A1.58,1.58,0,0,1,117.7,141Z"/><path class="cls-15" d="M144.28,94.08c-5.11,0-6.49,11.45-6.49,22.17s-14.82,19.41,6.49,19.41Z"/><path class="cls-16" d="M144.28,94.08c5.1,0,6.48,11.45,6.48,22.17s14.82,19.41-6.48,19.41Z"/><path class="cls-11" d="M158.19,136.83h0a8,8,0,0,0-13.87-2.64,8,8,0,0,0-13.88,2.64h0c-5.09,8.91-15.53,4.3-15.53,4.3,10.39,11.5,24.59,6.76,27.5,5a7.69,7.69,0,0,0,1.94-1.82,7.49,7.49,0,0,0,1.93,1.82c2.91,1.75,17.11,6.49,27.5-5C173.71,141.13,163.27,145.74,158.19,136.83Z"/><path class="cls-17" d="M136.41,99.54a26.36,26.36,0,1,1-26.35-26.35A26.35,26.35,0,0,1,136.41,99.54Z"/><path class="cls-17" d="M204.84,99.54a26.35,26.35,0,1,1-26.35-26.35A26.35,26.35,0,0,1,204.84,99.54Z"/><path class="cls-17" d="M155.68,87.38a16.16,16.16,0,0,0-22.81,0"/></g></g></svg>