<svg xmlns="http://www.w3.org/2000/svg" xmlns:xlink="http://www.w3.org/1999/xlink" viewBox="0 0 384.13 293.25"><defs><style>.cls-1,.cls-11,.cls-23,.cls-28{fill:none;}.cls-2{fill:#ff971c;}.cls-3{fill:#141b4d;}.cls-4{fill:#683c11;}.cls-5{fill:url(#linear-gradient);}.cls-6{fill:url(#linear-gradient-2);}.cls-7{clip-path:url(#clip-path);}.cls-8{fill:#f09374;}.cls-9{fill:url(#Degradado_sin_nombre_1);}.cls-10{fill:url(#Degradado_sin_nombre_1-2);}.cls-11{stroke:#c18072;stroke-width:0.56px;}.cls-11,.cls-23,.cls-28{stroke-linecap:round;}.cls-11,.cls-28{stroke-miterlimit:10;}.cls-12{fill:url(#Degradado_sin_nombre_66);}.cls-13{fill:url(#Degradado_sin_nombre_70);}.cls-14{fill:url(#Degradado_sin_nombre_70-2);}.cls-15{fill:url(#Degradado_sin_nombre_70-3);}.cls-16{fill:url(#Degradado_sin_nombre_70-4);}.cls-17{fill:#d28380;}.cls-18{fill:url(#linear-gradient-3);}.cls-19{fill:#778293;}.cls-20{fill:#fff;}.cls-21{fill:#daa100;}.cls-22{fill:#1d1d1b;}.cls-23{stroke:#1d1d1b;stroke-linejoin:round;stroke-width:2.23px;}.cls-24{fill:#3c3c3b;}.cls-25{fill:#b0b0b0;}.cls-26{fill:url(#Degradado_sin_nombre_1-3);}.cls-27{fill:url(#linear-gradient-4);}.cls-28{stroke:#e29172;stroke-width:3.12px;}.cls-29{fill:url(#linear-gradient-5);}.cls-30{fill:url(#Degradado_sin_nombre_2);}.cls-31{fill:url(#Degradado_sin_nombre_1-4);}.cls-32{fill:#ea9f81;}.cls-33{fill:url(#Degradado_sin_nombre_1-5);}.cls-34{fill:#f3a486;}.cls-35{fill:#9b9a9a;}.cls-36{fill:#706f6f;}.cls-37{fill:#575756;}</style><linearGradient id="linear-gradient" x1="200.14" y1="250.93" x2="241.09" y2="250.93" gradientUnits="userSpaceOnUse"><stop offset="0" stop-color="#f6b78e"/><stop offset="1" stop-color="#f8c8b0"/></linearGradient><linearGradient id="linear-gradient-2" x1="59.08" y1="193.9" x2="182.01" y2="193.9" xlink:href="#linear-gradient"/><clipPath id="clip-path"><path class="cls-1" d="M151.28,166.21V153H93.63s19.73,72.56,68.88,32.93C155.44,181.9,151.28,177.18,151.28,166.21Z"/></clipPath><linearGradient id="Degradado_sin_nombre_1" x1="59.82" y1="103.54" x2="72.85" y2="100.93" gradientUnits="userSpaceOnUse"><stop offset="0" stop-color="#f9ccb1"/><stop offset="1" stop-color="#f3a281"/></linearGradient><linearGradient id="Degradado_sin_nombre_1-2" x1="184.39" y1="103.63" x2="169.95" y2="101.42" xlink:href="#Degradado_sin_nombre_1"/><linearGradient id="Degradado_sin_nombre_66" x1="68.6" y1="92.46" x2="172.49" y2="92.46" xlink:href="#linear-gradient"/><linearGradient id="Degradado_sin_nombre_70" x1="107.59" y1="98.47" x2="123.28" y2="98.47" gradientUnits="userSpaceOnUse"><stop offset="0" stop-color="#f6b78e"/><stop offset="1" stop-color="#f09374"/></linearGradient><linearGradient id="Degradado_sin_nombre_70-2" x1="107.61" y1="98.47" x2="123.28" y2="98.47" xlink:href="#Degradado_sin_nombre_70"/><linearGradient id="Degradado_sin_nombre_70-3" x1="110.47" y1="117.93" x2="130.62" y2="117.93" xlink:href="#Degradado_sin_nombre_70"/><linearGradient id="Degradado_sin_nombre_70-4" x1="110.9" y1="98.47" x2="124.82" y2="98.47" xlink:href="#Degradado_sin_nombre_70"/><linearGradient id="linear-gradient-3" x1="0" y1="250.93" x2="40.95" y2="250.93" xlink:href="#linear-gradient"/><linearGradient id="Degradado_sin_nombre_1-3" x1="189.35" y1="138.35" x2="205.89" y2="135.04" xlink:href="#Degradado_sin_nombre_1"/><linearGradient id="linear-gradient-4" x1="347.61" y1="138.46" x2="329.28" y2="135.66" xlink:href="#Degradado_sin_nombre_1"/><linearGradient id="linear-gradient-5" x1="266.49" y1="104.29" x2="266.49" y2="225.33" xlink:href="#linear-gradient"/><linearGradient id="Degradado_sin_nombre_2" x1="259.56" y1="113.02" x2="259.56" y2="158.64" gradientUnits="userSpaceOnUse"><stop offset="0" stop-color="#fad5b5"/><stop offset="0.99" stop-color="#f6b79a"/></linearGradient><linearGradient id="Degradado_sin_nombre_1-4" x1="273.43" y1="114.28" x2="273.43" y2="155.81" xlink:href="#Degradado_sin_nombre_1"/><linearGradient id="Degradado_sin_nombre_1-5" x1="266.49" y1="120.14" x2="266.49" y2="157.69" xlink:href="#Degradado_sin_nombre_1"/></defs><title>Recurso 8</title><g id="Capa_2" data-name="Capa 2"><g id="Capa_1-2" data-name="Capa 1"><circle class="cls-2" cx="226.11" cy="149.71" r="100.89" transform="translate(-0.65 0.99) rotate(-0.25)"/><path class="cls-3" d="M226.11,15a133.15,133.15,0,0,1,94.15,227.3A133.15,133.15,0,1,1,132,54a132.28,132.28,0,0,1,94.15-39m0-12A145.15,145.15,0,1,0,371.26,148.11,145.16,145.16,0,0,0,226.11,3Z"/><path class="cls-4" d="M200.26,96.89c-.26-1-.57-2-.93-3-4.06-11.06-6.71-21.78-9.82-33.06-3.78-13.7-10.83-25.94-19.9-36.82C150.8,1.46,130,.43,120.46,1.19,110.88.43,85.18-5.26,66.38,17.3A73.69,73.69,0,0,0,50.29,53.72C48.34,66.24,48,77.55,43.2,89.54c-5.1,12.75-4,23.22-.6,36.26q1.29,4.94,2.86,9.78c0,.12,0,.23.09.35,16.85,56.6,74.91,82.59,74.91,82.59s55.16-24.7,73.55-78.37C198.45,127.08,203.84,110.74,200.26,96.89Z"/><path class="cls-5" d="M200.14,293.25h37.3a162.64,162.64,0,0,0,3.61-25.43c1.59-41.68-36.88-59.22-36.88-59.22C205.89,219.61,203,257.78,200.14,293.25Z"/><path class="cls-6" d="M151.28,166.21V147.27H89.81v18.94c0,18.94-12.39,19.24-30.73,29.47,32.16,48.4,61.47,44.79,61.47,44.79s29.29,3.61,61.46-44.79C163.67,185.45,151.28,185.15,151.28,166.21Z"/><g class="cls-7"><path class="cls-8" d="M156.57,185.53s-23-4.82-36-14.71C140.87,165.09,152.4,153,152.4,153s-3.42,19.1,3.95,25.07S163.64,186.54,156.57,185.53Z"/></g><path class="cls-9" d="M79.44,101.83c.71,9.8-2.73,17.79-9.37,17.79s-14-7.89-14.68-17.69,4.1-17.75,10.74-17.78S78.73,92,79.44,101.83Z"/><path class="cls-10" d="M161.64,101.83c-.7,9.8,2.74,17.79,9.38,17.79s14-7.89,14.68-17.69S181.6,84.18,175,84.15,162.36,92,161.64,101.83Z"/><path class="cls-11" d="M61.53,90.85s7.12,6,7.82,15.71"/><path class="cls-11" d="M179.56,90.85s-7.13,6-7.83,15.71"/><path class="cls-12" d="M172.49,92.46c0,43.28-21.31,78.36-51.94,78.36S68.6,135.74,68.6,92.46s11.62-78.37,52-78.37S172.49,49.18,172.49,92.46Z"/><polygon class="cls-13" points="120.55 81.06 110.47 115.88 114.24 115.88 120.55 81.06"/><polygon class="cls-14" points="120.55 81.06 130.62 115.88 126.85 115.88 120.55 81.06"/><path class="cls-15" d="M120.55,120c5.56,0,10.07-1.84,10.07-4.1H110.47C110.47,118.14,115,120,120.55,120Z"/><polygon class="cls-16" points="120.55 81.06 114.24 115.88 126.85 115.88 120.55 81.06"/><path class="cls-17" d="M105.08,134a12.68,12.68,0,0,0,3.6,1.49,30.18,30.18,0,0,0,3.89.81,59.09,59.09,0,0,0,15.94,0,30,30,0,0,0,3.9-.81A12.77,12.77,0,0,0,136,134l0,0a.38.38,0,0,1,.52.12.37.37,0,0,1-.09.49c-2.27,1.78-5,2.45-7.71,3a45.75,45.75,0,0,1-16.39,0c-2.67-.56-5.45-1.23-7.71-3a.38.38,0,0,1-.06-.53.37.37,0,0,1,.49-.08Z"/><path class="cls-18" d="M3.65,293.25H41c-2.86-35.47-5.74-73.64-4-84.65,0,0-38.48,17.54-36.87,59.22A160.15,160.15,0,0,0,3.65,293.25Z"/><path class="cls-19" d="M205.67,293.25c2.66-27.6,2.45-70.1-1.25-84.65-5.11-4.51-16.53-11.12-34.78-20-12.07,23.1-31.67,28.49-42.08,29.67l-7,23.19-7-23.19c-10.4-1.18-30-6.57-42.08-29.67-18.24,8.9-29.68,15.51-34.78,20-3.71,14.55-3.91,57-1.25,84.65Z"/><path class="cls-20" d="M169.58,188.58c-12.15,23.1-31.89,28.49-42.36,29.67l-6.67,21.91-6.68-21.91c-10.47-1.18-30.21-6.57-42.36-29.67-2.42,1.17-4.7,2.3-6.88,3.39,11.25,18.53,32.09,29.59,43.22,31.79l12.7,41.7,12.69-41.7c11.13-2.2,32-13.26,43.22-31.79C174.28,190.88,172,189.75,169.58,188.58Z"/><path class="cls-21" d="M115.14,278.87a5.41,5.41,0,1,1,5.41,5.4A5.41,5.41,0,0,1,115.14,278.87Z"/><path class="cls-4" d="M112.13,15.69S100.29,55.74,74.44,71c-4.71,7.86-10.52,28.25-15.36,35.59s-8.45,7.74-8.45,7.74-3-21.22,7.42-45.78S71.67,24.11,84.9,15.29a40.36,40.36,0,0,1,26.26-6.81Z"/><path class="cls-4" d="M114.17,21.76s15.78,31,59.49,49.46c0-18.91-7-40.23-20-50.78S129.8,5.49,111.16,8.57C111.16,16.92,114.17,21.76,114.17,21.76Z"/><path class="cls-22" d="M103.12,85.14a5.37,5.37,0,1,1-5.37-5.36A5.37,5.37,0,0,1,103.12,85.14Z"/><path class="cls-22" d="M148.7,85.14a5.37,5.37,0,1,1-5.37-5.36A5.36,5.36,0,0,1,148.7,85.14Z"/><path class="cls-23" d="M83.56,73.92s7.12-8.32,20.15-4.31"/><path class="cls-23" d="M157.53,73.92s-7.12-8.32-20.15-4.31"/><path class="cls-24" d="M384.13,293.25c-11.14-56.91-49-105.61-117.64-105.61S160,236.34,148.86,293.25Z"/><path class="cls-25" d="M297,132.92c0,16.26-6.31,29.45,29.45,29.45,16.27,0,29.46-4.15,29.46-20.42s-15.77-39.78-32-39.78S297,116.65,297,132.92Z"/><path class="cls-25" d="M308.43,172.42c0,14.22-5.51,25.75,25.74,25.75,14.22,0,25.75-3.63,25.75-17.85s-13.78-34.77-28-34.77S308.43,158.2,308.43,172.42Z"/><path class="cls-25" d="M235.77,132.92c0,16.26,6.3,29.45-29.46,29.45-16.27,0-29.46-4.15-29.46-20.42s15.78-39.78,32-39.78S235.77,116.65,235.77,132.92Z"/><path class="cls-25" d="M224.36,172.42c0,14.22,5.51,25.75-25.75,25.75-14.22,0-25.74-3.63-25.74-17.85s13.78-34.77,28-34.77S224.36,158.2,224.36,172.42Z"/><path class="cls-25" d="M332.24,113.3c0,37.68-29.44,68.24-65.74,68.24S200.75,151,200.75,113.3s29.44-68.25,65.75-68.25S332.24,75.61,332.24,113.3Z"/><path class="cls-26" d="M214.27,136.19c.9,12.26-3.47,22.25-11.91,22.25s-17.74-9.88-18.64-22.14,5.2-22.22,13.64-22.25S213.36,123.93,214.27,136.19Z"/><path class="cls-27" d="M318.72,136.19c-.9,12.26,3.48,22.25,11.91,22.25s17.74-9.88,18.65-22.14-5.21-22.22-13.64-22.25S319.63,123.93,318.72,136.19Z"/><path class="cls-28" d="M191.51,122.44s9.05,7.54,9.94,19.66"/><path class="cls-28" d="M341.48,122.44s-9.05,7.54-9.94,19.66"/><path class="cls-29" d="M329.94,128.16c0,41.13,10.88,80.16-63.44,80.16s-63.45-39-63.45-80.16,28.41-74.47,63.45-74.47S329.94,87,329.94,128.16Z"/><polygon class="cls-30" points="266.49 110.87 252.63 158.06 257.83 158.06 266.49 110.87"/><polygon class="cls-31" points="266.49 110.87 280.36 158.06 275.16 158.06 266.49 110.87"/><path class="cls-32" d="M266.49,163.6c7.66,0,13.87-2.48,13.87-5.54H252.63C252.63,161.12,258.84,163.6,266.49,163.6Z"/><polygon class="cls-33" points="266.49 110.87 257.83 158.06 275.16 158.06 266.49 110.87"/><path class="cls-34" d="M245.52,179.45a18.87,18.87,0,0,0,4.89,1.7,51.51,51.51,0,0,0,5.28.91,96,96,0,0,0,21.61,0,48.92,48.92,0,0,0,5.28-.91,19.45,19.45,0,0,0,4.87-1.68l.05,0a1,1,0,0,1,1.18,1.66,16.48,16.48,0,0,1-5.19,3,35,35,0,0,1-5.58,1.6,58.22,58.22,0,0,1-22.83,0,36.08,36.08,0,0,1-5.58-1.6,16.47,16.47,0,0,1-5.17-3,1,1,0,0,1-.07-1.46A1.05,1.05,0,0,1,245.52,179.45Z"/><path class="cls-8" d="M255.38,134.93c0,5.47-5.88,9.9-13.13,9.9s-13.13-3.65-13.13-9.9S235,125,242.25,125,255.38,129.46,255.38,134.93Z"/><path class="cls-8" d="M277.61,134.93c0,5.47,5.87,9.9,13.13,9.9s13.13-3.65,13.13-9.9S298,125,290.74,125,277.61,129.46,277.61,134.93Z"/><path class="cls-35" d="M272.64,106.34c0-2.45,6.86-4.43,15.32-4.43s15.32.7,15.32,4.43-6.86,4.42-15.32,4.42S272.64,108.78,272.64,106.34Z"/><path class="cls-35" d="M260.35,106.34c0-2.45-6.86-4.43-15.32-4.43s-15.32.7-15.32,4.43,6.86,4.42,15.32,4.42S260.35,108.78,260.35,106.34Z"/><path class="cls-24" d="M322.84,103.44a88.84,88.84,0,0,0-25.38-4.11c-12.95,0-16.63.63-23.42,3a2,2,0,0,0,.76,3.81,6.45,6.45,0,0,0-.55,2,26.65,26.65,0,0,0-6.55-.85h-2.42a26.75,26.75,0,0,0-6.55.85,6.17,6.17,0,0,0-.55-2,2,2,0,0,0,.77-3.81c-6.79-2.34-10.47-3-23.42-3a88.76,88.76,0,0,0-25.38,4.11,2,2,0,1,0,1.26,3.73s.32-.11.87-.27v20.24c0,4.32,1.74,18.41,24.17,18.41,10.19,0,22.34-3.48,22.34-20.1V111.7a20.6,20.6,0,0,1,6.49-1h2.42a20.66,20.66,0,0,1,6.5,1v13.75c0,16.62,12.15,20.1,22.34,20.1,22.43,0,24.17-14.09,24.17-18.41V106.9l.87.27a2,2,0,0,0,.63.11,2,2,0,0,0,.63-3.84Zm-66.3,22c0,11.85-6.76,17.85-20.09,17.85-20.34,0-21.92-12.37-21.92-16.16V106.48a.55.55,0,0,1,.07-.24,84.07,84.07,0,0,1,20.93-3c10.14,0,14.24.41,18.4,1.57a4.72,4.72,0,0,1,2.61,4Zm61.92,1.69c0,3.79-1.58,16.16-21.92,16.16-13.33,0-20.09-6-20.09-17.85V108.87a4.73,4.73,0,0,1,2.6-4c4.17-1.16,8.27-1.57,18.41-1.57a84.07,84.07,0,0,1,20.93,3,.55.55,0,0,1,.07.24Z"/><path class="cls-22" d="M248.82,119.31a3.13,3.13,0,1,1-3.12-3.13A3.13,3.13,0,0,1,248.82,119.31Z"/><path class="cls-22" d="M290.42,119.31a3.13,3.13,0,1,1-3.12-3.13A3.13,3.13,0,0,1,290.42,119.31Z"/><path class="cls-25" d="M318.19,50.9a33.15,33.15,0,1,1-33.14-33.14A33.15,33.15,0,0,1,318.19,50.9Z"/><path class="cls-25" d="M253,77.82a12.67,12.67,0,1,1,12.66,12.67A12.66,12.66,0,0,1,253,77.82Z"/><path class="cls-25" d="M227.12,58.53A19.29,19.29,0,1,1,246.4,77.82,19.29,19.29,0,0,1,227.12,58.53Z"/><path class="cls-25" d="M240.4,71.85a14.8,14.8,0,1,1-14.8-14.8A14.8,14.8,0,0,1,240.4,71.85Z"/><path class="cls-25" d="M291.2,75a15.49,15.49,0,1,1,15.49,15.49A15.49,15.49,0,0,1,291.2,75Z"/><path class="cls-36" d="M230.45,268.69c-.07,4.2-3.8,7.39-8.3,7.24q-9.27-.3-18.55,0c-4.5.15-8.22-3-8.29-7.24-.18-12.17-.35-36.05-.53-48.22-.06-4.2,3.72-7.9,8.43-8.05,6.44-.22,12.9-.22,19.34,0,4.7.15,8.49,3.85,8.42,8.05C230.8,232.64,230.63,256.52,230.45,268.69Z"/><path class="cls-37" d="M337,214.79c3.39,6.84-.7,13.91-9.14,15.3a377,377,0,0,1-122.61,0c-8.44-1.39-12.53-8.46-9.14-15.3L201,204.53c3.4-6.85,11.35-11.35,17.72-10.3a294.19,294.19,0,0,0,95.67,0c6.37-1,14.32,3.45,17.72,10.3Z"/><path class="cls-34" d="M249.72,153.55a52.24,52.24,0,0,1-2.5,5.09q-1.35,2.46-2.8,4.85c-1,1.59-2,3.15-3,4.72s-2,3.12-3.11,4.71a21.55,21.55,0,0,1,1.68-5.47,42.2,42.2,0,0,1,2.62-5,48.22,48.22,0,0,1,3.22-4.66A31.74,31.74,0,0,1,249.72,153.55Z"/><path class="cls-34" d="M283.28,153.55a32.36,32.36,0,0,1,3.84,4.2,49.48,49.48,0,0,1,3.22,4.66,40.78,40.78,0,0,1,2.62,5,21.55,21.55,0,0,1,1.68,5.47c-1.08-1.59-2.1-3.14-3.11-4.71s-2-3.13-3-4.72-1.9-3.21-2.8-4.85A50,50,0,0,1,283.28,153.55Z"/><polygon class="cls-22" points="360.82 293.25 351.05 293.25 351.05 274.63 360.82 293.25"/><polygon class="cls-22" points="178.33 293.25 188.1 293.25 188.1 274.63 178.33 293.25"/></g></g></svg>