<svg xmlns="http://www.w3.org/2000/svg" viewBox="0 0 225.93 181.49"><defs><style>.cls-1{fill:#8fbad8;}.cls-2{fill:#6da0ce;}.cls-3{fill:#c3deff;}.cls-4{fill:#8fbbdb;}.cls-5{fill:#cadeff;}.cls-6{fill:#c4dfff;}.cls-7{fill:#91badd;}.cls-8{fill:#8ebcdd;}.cls-9{fill:#c6deff;}</style></defs><title>Recurso 3</title><g id="Capa_2" data-name="Capa 2"><g id="Capa_1-2" data-name="Capa 1"><rect class="cls-1" x="126.51" y="72.35" width="27.41" height="89.63"/><rect class="cls-2" x="121.32" y="59.01" width="37.78" height="13.33"/><rect class="cls-2" x="121.32" y="161.98" width="37.78" height="6.67"/><rect class="cls-3" x="130.93" y="80.66" width="6.58" height="73.65" rx="2.1"/><rect class="cls-3" x="142.91" y="80.66" width="6.58" height="73.65" rx="2.1"/><rect class="cls-1" x="181" y="72.35" width="27.41" height="89.63"/><rect class="cls-2" x="175.82" y="59.01" width="37.78" height="13.33"/><rect class="cls-2" x="175.82" y="161.98" width="37.78" height="6.67"/><rect class="cls-3" x="185.43" y="80.66" width="6.59" height="73.65" rx="2.1"/><rect class="cls-3" x="197.4" y="80.66" width="6.59" height="73.65" rx="2.1"/><rect class="cls-1" x="72.01" y="72.35" width="27.41" height="89.63"/><rect class="cls-2" x="66.83" y="59.01" width="37.78" height="13.33"/><rect class="cls-2" x="66.83" y="161.98" width="37.78" height="6.67"/><rect class="cls-3" x="76.44" y="80.66" width="6.59" height="73.65" rx="2.1"/><rect class="cls-3" x="88.41" y="80.66" width="6.59" height="73.65" rx="2.1"/><rect class="cls-1" x="17.52" y="72.35" width="27.41" height="89.63"/><rect class="cls-2" x="12.34" y="59.01" width="37.78" height="13.33"/><rect class="cls-2" x="12.34" y="161.98" width="37.78" height="6.67"/><rect class="cls-3" x="21.95" y="80.66" width="6.58" height="73.65" rx="2.1"/><rect class="cls-3" x="33.92" y="80.66" width="6.58" height="73.65" rx="2.1"/><rect class="cls-4" y="49.88" width="225.93" height="9.14"/><rect class="cls-5" y="45.88" width="225.93" height="4"/><rect class="cls-6" y="168.65" width="225.93" height="4.2"/><rect class="cls-7" y="172.84" width="225.93" height="8.64"/><polygon class="cls-8" points="214.33 45.88 11.61 45.88 11.61 31.61 112.97 0 214.33 31.61 214.33 45.88"/><polygon class="cls-9" points="177.49 28.44 113.17 8.56 48.44 28.44 48.44 37.99 177.49 37.99 177.49 28.44"/><path class="cls-2" d="M104.59,29.4a3.58,3.58,0,0,0,.67,1.82,3.93,3.93,0,0,0,3.17,1.1,6.92,6.92,0,0,0,2.18-.29A2.07,2.07,0,0,0,112.19,30a1.51,1.51,0,0,0-.78-1.36,8.14,8.14,0,0,0-2.46-.83L107,27.36A12,12,0,0,1,103.13,26a4.32,4.32,0,0,1-1.8-3.84,5.14,5.14,0,0,1,1.76-4,7.5,7.5,0,0,1,5.16-1.58,7.92,7.92,0,0,1,4.85,1.49,5.32,5.32,0,0,1,2.11,4.32h-3.57a2.55,2.55,0,0,0-1.43-2.27,4.93,4.93,0,0,0-2.22-.45,4.14,4.14,0,0,0-2.34.58,1.81,1.81,0,0,0-.88,1.61,1.54,1.54,0,0,0,.86,1.43A11.34,11.34,0,0,0,108,24l3.12.74a7.83,7.83,0,0,1,3.07,1.29,4.33,4.33,0,0,1,1.59,3.62,5.12,5.12,0,0,1-1.88,4.05,8,8,0,0,1-5.32,1.61,8.67,8.67,0,0,1-5.52-1.59,5.25,5.25,0,0,1-2-4.36Z"/><path class="cls-2" d="M122,16.58h2.86L118,34.89h-2.83Z"/></g></g></svg>