<svg xmlns="http://www.w3.org/2000/svg" viewBox="0 0 131 115.61"><defs><style>.cls-1{fill:#212449;}.cls-2{fill:#ff6d6a;}</style></defs><g id="Capa_2" data-name="Capa 2"><g id="Capa_2-2" data-name="Capa 2"><path class="cls-1" d="M92.63,6a32.37,32.37,0,0,1,23,55.13h0l-.14.14L68.33,108.45a4,4,0,0,1-5.66,0L15.48,61.26A32.37,32.37,0,0,1,61.26,15.48l4.24,4.24,4.24-4.24A32.2,32.2,0,0,1,92.63,6m0-6A38.25,38.25,0,0,0,65.5,11.24h0A38.37,38.37,0,0,0,11.24,65.5l47.19,47.19a10,10,0,0,0,14.14,0l47.17-47.17,0,0A38.37,38.37,0,0,0,92.63,0Z"/><path class="cls-2" d="M20.43,56.31A25.37,25.37,0,0,1,56.31,20.43l9.19,9.19,9.19-9.19a25.37,25.37,0,0,1,36,35.79L65.5,101.38Z"/><path class="cls-1" d="M79.54,85.33h-.12a3,3,0,0,1-2.79-2.27L69.77,55.63l-6.1,18.3a3,3,0,0,1-5.76-.23L50.52,44.14,44.79,55.6a3,3,0,0,1-2.68,1.66H23.39a3,3,0,0,1,0-6H40.25l8.53-17a3,3,0,0,1,5.6.61l6.85,27.43L67.33,44a3,3,0,0,1,5.76.22L80,71.61l6.1-18.3a3,3,0,0,1,2.84-2.05h18.72a3,3,0,0,1,0,6H91.05l-8.67,26A3,3,0,0,1,79.54,85.33Z"/></g></g></svg>