<svg xmlns="http://www.w3.org/2000/svg" viewBox="0 0 137 124.64"><defs><style>.cls-1{fill:#212449;}.cls-2{fill:#ffaf1c;}</style></defs><g id="Capa_2" data-name="Capa 2"><g id="Capa_2-2" data-name="Capa 2"><path class="cls-1" d="M134,52.79a3,3,0,0,1-1.74-.56L68.5,6.69,4.74,52.23a3,3,0,0,1-3.48-4.89L66.76.56a3,3,0,0,1,3.48,0l65.5,46.78A3,3,0,0,1,134,52.79Z"/><path class="cls-1" d="M77.86,93.21a12.73,12.73,0,0,1,12.71,12.72v12.71H46.43V105.93A12.73,12.73,0,0,1,59.14,93.21H77.86m0-6H59.14a18.72,18.72,0,0,0-18.71,18.72v18.71H96.57V105.93A18.72,18.72,0,0,0,77.86,87.21Z"/><path class="cls-2" d="M77.86,97.21H59.14a8.73,8.73,0,0,0-8.71,8.72v8.71H86.57v-8.71a8.73,8.73,0,0,0-8.71-8.72Z"/><path class="cls-1" d="M68.5,52.43A12.72,12.72,0,1,1,55.79,65.14,12.72,12.72,0,0,1,68.5,52.43m0-6A18.72,18.72,0,1,0,87.21,65.14,18.71,18.71,0,0,0,68.5,46.43Z"/><polygon class="cls-1" points="118.64 49.78 118.64 55.78 118.64 73.89 118.64 118.64 18.36 118.64 18.36 73.89 18.36 55.78 18.36 49.78 12.36 49.78 12.36 124.64 124.64 124.64 124.64 49.78 118.64 49.78"/></g></g></svg>