<svg xmlns="http://www.w3.org/2000/svg"  viewBox="0 0 131 112.39"><defs><style>.cls-1{fill:#212449;}.cls-2{fill:#ffaf1c;}</style></defs><g id="Capa_2" data-name="Capa 2"><g id="Capa_2-2" data-name="Capa 2"><path class="cls-1" d="M119,18.39a6,6,0,0,1,6,6v76a6,6,0,0,1-6,6H12a6,6,0,0,1-6-6v-76a6,6,0,0,1,6-6H119m0-6H12a12,12,0,0,0-12,12v76a12,12,0,0,0,12,12H119a12,12,0,0,0,12-12v-76a12,12,0,0,0-12-12Z"/><path class="cls-1" d="M28,28.53a11,11,0,0,1-11-11V10.87A10.75,10.75,0,0,1,26.53,0,10.55,10.55,0,0,1,38,10.59v3.8H32V10.73a4.68,4.68,0,0,0-3.58-4.64A4.54,4.54,0,0,0,23,10.59v6.94a5,5,0,0,0,5,5Z"/><path class="cls-1" d="M65,28.53a11,11,0,0,1-11-11V10.87A10.75,10.75,0,0,1,63.53,0,10.55,10.55,0,0,1,75,10.59v3.8H69V10.73a4.68,4.68,0,0,0-3.58-4.64A4.54,4.54,0,0,0,60,10.59v6.94a5,5,0,0,0,5,5Z"/><path class="cls-1" d="M103,28.53a11,11,0,0,1-11-11V10.87A10.75,10.75,0,0,1,101.53,0,10.55,10.55,0,0,1,113,10.59v3.8h-6V10.73a4.68,4.68,0,0,0-3.58-4.64A4.54,4.54,0,0,0,98,10.59v6.94a5,5,0,0,0,5,5Z"/><rect class="cls-2" x="18" y="37.39" width="94" height="56"/><rect class="cls-1" y="34.39" width="131" height="6"/><path class="cls-1" d="M50.75,73.39a7.19,7.19,0,0,0,.62,3.17,4.21,4.21,0,0,0,4.15,2.31,4.59,4.59,0,0,0,3.22-1.27A4.71,4.71,0,0,0,60.11,74a4.1,4.1,0,0,0-2.54-4.2,12.81,12.81,0,0,0-4.57-.6V64.67a11.78,11.78,0,0,0,4.26-.6c1.39-.61,2.08-1.86,2.08-3.74a4.17,4.17,0,0,0-1.06-3,3.91,3.91,0,0,0-3-1.15A3.78,3.78,0,0,0,52,57.62a6,6,0,0,0-1,3.77H45.16A16,16,0,0,1,46,56.87a10.24,10.24,0,0,1,2.42-3.45,8.56,8.56,0,0,1,2.93-1.72,12.55,12.55,0,0,1,4.16-.59,11,11,0,0,1,7.38,2.36,7.89,7.89,0,0,1,2.8,6.35A7.05,7.05,0,0,1,64,64.58a5.71,5.71,0,0,1-2.2,1.65,4.5,4.5,0,0,1,2.46,1.48,7.87,7.87,0,0,1,2.4,6.07,10.24,10.24,0,0,1-2.8,7.13Q61,84,55.54,84q-6.76,0-9.41-4.43a13,13,0,0,1-1.54-6.16Z"/><path class="cls-1" d="M72,60.39V56.21a26,26,0,0,0,4.17-.41,5.84,5.84,0,0,0,3.09-1.72,5.91,5.91,0,0,0,1.23-2.37,5.25,5.25,0,0,0,.25-1.32H86v33H79v-23Z"/></g></g></svg>