<svg xmlns="http://www.w3.org/2000/svg" viewBox="0 0 131.14 108"><defs><style>.cls-1{fill:#ffaf1c;}.cls-2{fill:#212449;}.cls-3{fill:#fff;}</style></defs><g id="Capa_2" data-name="Capa 2"><g id="Capa_2-2" data-name="Capa 2"><rect class="cls-1" x="38.57" y="30.86" width="15.43" height="15.43"/><rect class="cls-1" x="38.57" y="46.29" width="15.43" height="15.43"/><rect class="cls-1" x="54" y="61.71" width="15.43" height="15.43"/><rect class="cls-1" x="23.14" y="77.27" width="15.43" height="15.43"/><path class="cls-2" d="M79.84,97.59V103H12.73v-5.4H79.84m5-5H7.71V108H84.86V92.57Z"/><path class="cls-2" d="M72.13,82.16v5.4H5v-5.4H72.13m5-5H0V92.57H77.14V77.14Z"/><path class="cls-2" d="M87.56,66.73v5.4H20.44v-5.4H87.56m5-5H15.43V77.14H92.57V61.71Z"/><path class="cls-2" d="M79.84,51.3v5.4H12.73V51.3H79.84m5-5H7.71V61.71H84.86V46.29Z"/><path class="cls-2" d="M87.56,35.87v5.4H20.44v-5.4H87.56m5-5H15.43V46.29H92.57V30.86Z"/><rect class="cls-1" x="38.57" width="15.43" height="15.43"/><path class="cls-2" d="M87.56,5v5.4H20.44V5H87.56m5-5H15.43V15.43H92.57V0Z"/><path class="cls-2" d="M72.13,20.44v5.4H5v-5.4H72.13m5-5H0V30.86H77.14V15.43Z"/><path class="cls-3" d="M92.57,105.49a36.07,36.07,0,1,1,36.07-36.06A36.11,36.11,0,0,1,92.57,105.49Z"/><path class="cls-2" d="M92.57,35.87A33.56,33.56,0,1,1,59,69.43,33.6,33.6,0,0,1,92.57,35.87m0-5a38.57,38.57,0,1,0,38.57,38.57A38.57,38.57,0,0,0,92.57,30.86Z"/><path class="cls-1" d="M120,69.61A27.55,27.55,0,1,1,92.48,42.06,27.54,27.54,0,0,1,120,69.61Z"/><path class="cls-2" d="M81.26,74.22a4.8,4.8,0,0,0,.9,2.44c.83,1,2.24,1.47,4.24,1.47a9.08,9.08,0,0,0,2.92-.39A2.76,2.76,0,0,0,91.44,75a2,2,0,0,0-1-1.82A11.38,11.38,0,0,0,87.1,72l-2.58-.56a16,16,0,0,1-5.22-1.83,5.79,5.79,0,0,1-2.4-5.15,6.83,6.83,0,0,1,2.35-5.31q2.35-2.11,6.91-2.11a10.6,10.6,0,0,1,6.5,2,7.11,7.11,0,0,1,2.82,5.79H90.7a3.41,3.41,0,0,0-1.92-3,6.53,6.53,0,0,0-3-.6,5.65,5.65,0,0,0-3.15.78,2.44,2.44,0,0,0-1.17,2.16,2,2,0,0,0,1.16,1.9,14.37,14.37,0,0,0,3.16,1L90,68a10.63,10.63,0,0,1,4.12,1.73,5.82,5.82,0,0,1,2.13,4.86A6.85,6.85,0,0,1,93.72,80c-1.68,1.43-4.06,2.15-7.12,2.15a11.69,11.69,0,0,1-7.4-2.12,7,7,0,0,1-2.69-5.84Z"/><path class="cls-2" d="M104.62,57h3.83L99.19,81.57h-3.8Z"/></g></g></svg>