<svg xmlns="http://www.w3.org/2000/svg" viewBox="0 0 131 121.17"><defs><style>.cls-1{fill:#212449;}.cls-2{fill:#ffaf1c;}</style></defs><g id="Capa_2" data-name="Capa 2"><g id="Capa_2-2" data-name="Capa 2"><path class="cls-1" d="M120.49,69.37a10,10,0,0,0-3.68.72,10.37,10.37,0,0,0-12.63-2.42l-3.57,2.11a10.4,10.4,0,0,0-12.34-2.11l-15.1,9.24c-3.35-1-7-2.07-10.61-3.08-4.36-1.24-7.94-2.21-10.65-2.89C50.3,70.53,49,70.23,48,70c-.56-.12-1.05-.21-1.49-.27a8,8,0,0,0-2.3,0c-1,.13-2.46.43-4.67.94-3.49.83-7.76,2-10.49,2.7V69.77a6.57,6.57,0,0,0-6.57-6.56H6.56A6.56,6.56,0,0,0,0,69.77v44.84a6.56,6.56,0,0,0,6.56,6.56H22.47A6.57,6.57,0,0,0,29,114.61v-2.52c3.1.68,10.38,2.25,18.15,3.84,6.52,1.34,11.66,2.35,15.7,3.08,2.52.46,4.52.79,6.13,1a31.94,31.94,0,0,0,4.08.42,8.78,8.78,0,0,0,2.45-.39,31.12,31.12,0,0,0,5.1-2.06c5.52-2.69,13.66-7.64,24.87-15.12,6.67-4.45,12.91-8.79,17.47-11.95l3.71-2.58a10.21,10.21,0,0,0,4.3-8.47A10.54,10.54,0,0,0,120.49,69.37ZM73.11,114.55h0a29.4,29.4,0,0,1-3.2-.35c-6-.88-17.17-3.14-25.5-4.88-4.6-.95-8.83-1.86-11.91-2.52L29,106.05V79.45l1.07-.29c2.34-.63,5.77-1.55,8.89-2.32,1.59-.39,3-.73,4.18-1,.57-.12,1.07-.21,1.46-.27a4.2,4.2,0,0,1,.54-.07l.45,0c1.11.17,3.5.72,6.55,1.52,10,2.61,25.86,7.41,28.93,8.34a12.19,12.19,0,0,1,4.66,2.42,4.89,4.89,0,0,1,1.16,1.53,4.11,4.11,0,0,1,.4,1.82,5.36,5.36,0,0,1-5.23,5.36L76.52,96,57.41,93.58a2.95,2.95,0,1,0-.75,5.85l19.19,2.46,6,.58H82A11.28,11.28,0,0,0,93.23,91.22a10.27,10.27,0,0,0-1-4.37,11.61,11.61,0,0,0-4.07-4.57,20,20,0,0,0-5.44-2.51l-2-.6L91,72.9a4.72,4.72,0,0,1,2-.51,4.58,4.58,0,0,1,2.21.58l-4.8,2.85a2.95,2.95,0,0,0,1.51,5.48,2.92,2.92,0,0,0,1.5-.41l13.46-8a4.43,4.43,0,0,1,4.5.21L96.63,81.88a2.95,2.95,0,0,0-1,4,3,3,0,0,0,2.54,1.45,2.93,2.93,0,0,0,1.5-.42l16.89-10a2.36,2.36,0,0,0,.52-.16,2.94,2.94,0,0,0,1-.78l.37-.21a4.45,4.45,0,0,1,5.29.83,4.63,4.63,0,0,1,1.35,3.26,4.39,4.39,0,0,1-1.75,3.61L119.71,86c-5.83,4-14.63,10.17-23.27,15.78-6,3.92-11.07,7-15,9.14a59.68,59.68,0,0,1-5.59,2.76,18.33,18.33,0,0,1-1.89.68A4.18,4.18,0,0,1,73.11,114.55ZM5.9,69.77a.68.68,0,0,1,.66-.66H22.47a.68.68,0,0,1,.67.66v44.84a.68.68,0,0,1-.67.66H6.56a.68.68,0,0,1-.66-.66Z"/><rect class="cls-2" x="8.92" y="72.45" width="10.57" height="39.48"/><rect class="cls-2" x="30.21" y="13.03" width="70.15" height="27.69"/><path class="cls-1" d="M113,6V47.74H17.54V6H113m1.21-6H16.33a4.8,4.8,0,0,0-4.79,4.79V49a4.8,4.8,0,0,0,4.79,4.78h97.91A4.8,4.8,0,0,0,119,49V4.79A4.8,4.8,0,0,0,114.24,0Z"/><path class="cls-1" d="M56.06,30.66a4,4,0,0,0,.75,2,4.31,4.31,0,0,0,3.48,1.21,7.61,7.61,0,0,0,2.4-.32,2.28,2.28,0,0,0,1.75-2.27,1.69,1.69,0,0,0-.86-1.5,9.32,9.32,0,0,0-2.72-.91l-2.11-.47a13.21,13.21,0,0,1-4.29-1.5,4.76,4.76,0,0,1-2-4.23,5.61,5.61,0,0,1,1.93-4.36,8.26,8.26,0,0,1,5.69-1.74,8.71,8.71,0,0,1,5.33,1.64A5.8,5.8,0,0,1,67.75,23H63.82a2.78,2.78,0,0,0-1.57-2.5A5.41,5.41,0,0,0,59.81,20a4.65,4.65,0,0,0-2.58.63,2,2,0,0,0-1,1.78,1.69,1.69,0,0,0,1,1.57,12.61,12.61,0,0,0,2.6.81l3.43.8A8.86,8.86,0,0,1,66.63,27a4.8,4.8,0,0,1,1.74,4,5.59,5.59,0,0,1-2.07,4.45,8.74,8.74,0,0,1-5.85,1.77,9.55,9.55,0,0,1-6.07-1.74,5.79,5.79,0,0,1-2.22-4.8Z"/><path class="cls-1" d="M75.26,16.54h3.15L70.8,36.69H67.68Z"/></g></g></svg>