<svg xmlns="http://www.w3.org/2000/svg" viewBox="0 0 171.13 56.85"><defs><style>.cls-1{fill:#78766a;}</style></defs><title>Recurso 2</title><g id="Capa_2" data-name="Capa 2"><g id="Capa_3" data-name="Capa 3"><path class="cls-1" d="M0,28.43A28.46,28.46,0,0,0,27.09,56.82V0A28.46,28.46,0,0,0,0,28.43"/><path class="cls-1" d="M41,56.85H56.85V41A31.29,31.29,0,0,1,41,56.85"/><path class="cls-1" d="M56.85,15.83V0H41A31.32,31.32,0,0,1,56.85,15.83"/><path class="cls-1" d="M56.85,28.43A28.46,28.46,0,0,0,29.76,0V56.82A28.46,28.46,0,0,0,56.85,28.43"/><path class="cls-1" d="M89.28,28.43v18.5H92.9A23.47,23.47,0,1,0,92.9,0H70.78a31.13,31.13,0,0,1,18.5,28.43"/><path class="cls-1" d="M59.52,0V56.85H86.61V28.43A28.46,28.46,0,0,0,59.52,0"/><path class="cls-1" d="M131.41,7.47a7,7,0,1,1,14,0,7,7,0,1,1-14,0Zm11.75,0a4.69,4.69,0,0,0-4.75-5.05c-2.78,0-4.75,2.08-4.75,5.08s2,5.13,4.71,5.13S143.16,10.44,143.16,7.44Z"/><path class="cls-1" d="M156.55.72h2.19V14.53h-.36L149.72,5.3v9h-2.19V.44h.36l8.66,9.21Z"/><path class="cls-1" d="M166.25.72c3.24,0,4.88,1.67,4.88,4.22s-1.64,4.35-4.82,4.35h-2.5v5H161.6V.72Zm-.05,6.64c1.64,0,2.68-.76,2.68-2.42s-1-2.31-2.72-2.31h-2.35V7.36Z"/><path class="cls-1" d="M134.92,34.55c2.92,0,4.45,1.58,4.45,3.92s-1.54,3.94-4.45,3.94h-2.33V34.55Zm0,6.91c2.12,0,3.3-1,3.3-3s-1.26-3-3.27-3h-1.3v6Z"/><path class="cls-1" d="M145.49,38.38v4h-.81l-.1-.95a2.26,2.26,0,0,1-2,1.13,1.92,1.92,0,0,1-2.13-1.81c0-1.35,1.21-1.8,2.55-1.8.93,0,1.5,0,1.5-.67s-.58-1-1.44-1a3.1,3.1,0,0,0-2.19.91h0l0-1a3.72,3.72,0,0,1,2.26-.86C144.29,36.42,145.49,36.91,145.49,38.38Zm-1,1.64v-.64c-.26.35-.8.43-1.63.43s-1.42.32-1.42.94.66,1,1.29,1A1.67,1.67,0,0,0,144.51,40Z"/><path class="cls-1" d="M150.21,37.44h-1.75v2.92c0,.92.18,1.3.77,1.3a1.72,1.72,0,0,0,.87-.27h0v.81a2,2,0,0,1-1.21.36c-1.51,0-1.51-1.4-1.51-1.83V37.44h-1v-.86h1V35.44l1-.89h0v2h1.75Z"/><path class="cls-1" d="M151.07,39.5a3,3,0,1,1,3,3.09A3,3,0,0,1,151.07,39.5Zm4.88,0a1.91,1.91,0,1,0-3.79,0,1.91,1.91,0,1,0,3.79,0Z"/><path class="cls-1" d="M158,41.89v-1h0a3.37,3.37,0,0,0,2,.78c.78,0,1.26-.32,1.26-.81,0-1.29-3.21-.77-3.21-2.73,0-1.07.83-1.75,2.1-1.75A3.22,3.22,0,0,1,162,37v.93h0a2.81,2.81,0,0,0-1.73-.61c-.73,0-1.16.32-1.16.81,0,1.13,3.22.69,3.22,2.71,0,1.12-.92,1.74-2.15,1.74A3.86,3.86,0,0,1,158,41.89Z"/><rect class="cls-1" x="131.78" y="23.19" width="15.19" height="0.85"/></g></g></svg>