<svg xmlns="http://www.w3.org/2000/svg" viewBox="0 0 188.97 56.85"><defs><style>.cls-1{fill:#141b4d;}.cls-2{fill:#ff6d6a;}.cls-3{fill:#8e9089;}.cls-4{fill:#6f9ba4;}.cls-5{fill:#ffb81c;}</style></defs><g id="Capa_2" data-name="Capa 2"><g id="Capa_3" data-name="Capa 3"><path class="cls-1" d="M0,28.3A28.34,28.34,0,0,0,27,56.57V0A28.34,28.34,0,0,0,0,28.3"/><path class="cls-2" d="M40.84,56.6H56.6V40.84A31.21,31.21,0,0,1,40.84,56.6"/><path class="cls-2" d="M56.6,15.76V0H40.84A31.21,31.21,0,0,1,56.6,15.76"/><path class="cls-3" d="M56.6,28.3A28.34,28.34,0,0,0,29.63,0V56.57a28.34,28.34,0,0,0,27-28.27"/><path class="cls-4" d="M88.88,28.3V46.72h3.61A23.36,23.36,0,0,0,92.49,0h-22A31,31,0,0,1,88.88,28.3"/><path class="cls-5" d="M59.25,0V56.6h27V28.3A28.35,28.35,0,0,0,59.25,0"/><path class="cls-1" d="M144.65,17.55c-.05-.46-.08-.93-.17-1.38a4.91,4.91,0,0,0-5-4.11,4.91,4.91,0,0,0-4.91,3.57,6.6,6.6,0,0,0-.07,3.66,4.9,4.9,0,0,0,2.72,3.41,5.22,5.22,0,0,0,3.07.39,4.76,4.76,0,0,0,3.28-2,6.25,6.25,0,0,0,1.06-3.51m2.94-.14a8.27,8.27,0,0,1-2.45,6.15,7.66,7.66,0,0,1-4.43,2.12,8.47,8.47,0,0,1-5-.8,7.61,7.61,0,0,1-4-4.7,8.35,8.35,0,0,1,.12-5.56,7.52,7.52,0,0,1,5.71-4.95,8.21,8.21,0,0,1,6.4,1.08,7.66,7.66,0,0,1,3.53,5.6c.06.41.07.82.09,1.06"/><path class="cls-1" d="M159.87,19.41V9.82h2.87V25.71h-.46l-9.68-10v9.67h-2.85V9.52h.48l9.64,9.89"/><path class="cls-1" d="M168.61,17.34c1,0,1.9,0,2.83,0a2.53,2.53,0,0,0,2-.9,2.58,2.58,0,0,0,.48-2,2.15,2.15,0,0,0-2-2c-.63-.06-1.27-.07-1.91-.09-.47,0-.94,0-1.43,0Zm0,2.52v5.56H165.7V9.82h5.64a6.7,6.7,0,0,1,3.25.73,4.28,4.28,0,0,1,2.22,3.17,5.89,5.89,0,0,1-.24,3.14,4.39,4.39,0,0,1-3.23,2.8,7.33,7.33,0,0,1-1.93.22c-.82,0-1.64,0-2.47,0Z"/><rect class="cls-1" x="131.32" y="32.39" width="45.6" height="1.41"/><path class="cls-1" d="M135.61,41c5.77,0,8.78,3.08,8.78,7.73s-3,7.78-8.78,7.78h-4.29V41Zm.12,14c4.4,0,6.83-2.18,6.83-6.16,0-4.19-2.6-6.25-6.78-6.25h-2.72V55Z"/><path class="cls-1" d="M156.24,48.52v8h-1.33l-.19-2.06a4.46,4.46,0,0,1-4.1,2.37c-2.22,0-4.08-1.31-4.08-3.51,0-2.64,2.27-3.51,4.87-3.51,1.91,0,3.14-.08,3.14-1.46s-1.26-2.13-3-2.13a5.84,5.84,0,0,0-4.24,2h-.05l.05-1.72a6.74,6.74,0,0,1,4.31-1.74C154,44.74,156.24,45.68,156.24,48.52Zm-1.62,3.17v-1.4c-.46.75-1.52.92-3.35.92s-3,.75-3,2.08,1.45,2.13,2.7,2.13A3.57,3.57,0,0,0,154.62,51.69Z"/><path class="cls-1" d="M165.33,46.46h-3.52v6.3c0,2,.46,2.61,1.57,2.61a3.25,3.25,0,0,0,1.76-.6h0v1.36a3.59,3.59,0,0,1-2.21.7c-2.85,0-2.85-2.69-2.85-3.56V46.46h-2V45h2v-2.3l1.64-1.7h.05v4h3.52Z"/><path class="cls-1" d="M167.09,50.79a5.77,5.77,0,1,1,11.53,0,5.77,5.77,0,1,1-11.53,0Zm9.77,0c0-2.59-1.59-4.55-4-4.55s-4,2-4,4.55,1.59,4.56,4,4.56S176.86,53.41,176.86,50.79Z"/><path class="cls-1" d="M180.64,55.42V53.77h.05a6.42,6.42,0,0,0,4,1.65c1.59,0,2.63-.68,2.63-1.79,0-2.76-6.47-1.74-6.47-5.55,0-2,1.59-3.37,4-3.37a5.91,5.91,0,0,1,3.52,1.19v1.58h0a5.32,5.32,0,0,0-3.45-1.29c-1.5,0-2.41.73-2.41,1.79,0,2.4,6.49,1.6,6.49,5.53,0,2.08-1.69,3.34-4.13,3.34A7,7,0,0,1,180.64,55.42Z"/></g></g></svg>