<svg xmlns="http://www.w3.org/2000/svg" viewBox="0 0 66.72 84.91"><defs><style>.cls-1{fill:#fff;}.cls-2{fill:#ffaf1c;}</style></defs><g id="Capa_2" data-name="Capa 2"><g id="Capa_4" data-name="Capa 4"><path class="cls-1" d="M62.83,3.89V81H3.89V3.89H62.83M63.47,0H3.24A3.25,3.25,0,0,0,0,3.24V81.67a3.25,3.25,0,0,0,3.24,3.24H63.47a3.25,3.25,0,0,0,3.25-3.24V3.24A3.25,3.25,0,0,0,63.47,0Z"/><circle class="cls-2" cx="45.49" cy="21.23" r="9.1"/><path class="cls-1" d="M54.59,38.33H15.16a1.94,1.94,0,0,1,0-3.88H54.59a1.94,1.94,0,0,1,0,3.88Z"/><path class="cls-1" d="M54.59,50.46H15.16a1.94,1.94,0,1,1,0-3.88H54.59a1.94,1.94,0,0,1,0,3.88Z"/><path class="cls-1" d="M54.59,62.6H15.16a1.95,1.95,0,0,1,0-3.89H54.59a1.95,1.95,0,0,1,0,3.89Z"/><path class="cls-1" d="M54.59,74.73H15.16a1.95,1.95,0,0,1,0-3.89H54.59a1.95,1.95,0,0,1,0,3.89Z"/></g></g></svg>