<svg xmlns="http://www.w3.org/2000/svg" viewBox="0 0 84.91 68.87"><defs><style>.cls-1{fill:#fff;}.cls-2{fill:#ffaf1c;}</style></defs><g id="Capa_2" data-name="Capa 2"><g id="Capa_4" data-name="Capa 4"><path class="cls-1" d="M81,12.11v49A3.89,3.89,0,0,1,77.13,65H7.78a3.89,3.89,0,0,1-3.89-3.89v-49H81m3.89-3.89H0V61.09a7.78,7.78,0,0,0,7.78,7.78H77.13a7.78,7.78,0,0,0,7.78-7.78V8.22Z"/><path class="cls-1" d="M40.74,3.89a3.89,3.89,0,0,1,3.89,3.89v.46H3.89V7.78A3.89,3.89,0,0,1,7.78,3.89h33m0-3.89h-33A7.78,7.78,0,0,0,0,7.78v4.35H48.52V7.78A7.78,7.78,0,0,0,40.74,0Z"/><rect class="cls-2" x="12.13" y="20.35" width="60.65" height="36.39"/></g></g></svg>