<svg xmlns="http://www.w3.org/2000/svg" viewBox="0 0 90.19 75.31"><defs><style>.cls-1{fill:#141b4d;}.cls-2{fill:#ffaf1c;}</style></defs><g id="Capa_2" data-name="Capa 2"><g id="Capa_3" data-name="Capa 3"><path class="cls-1" d="M83.31,4.86a2,2,0,0,1,2,2V57.54a2,2,0,0,1-2,2H77.75a2,2,0,0,1-2-2V6.88a2,2,0,0,1,2-2h5.56m0-4.86H77.75a6.88,6.88,0,0,0-6.88,6.88V57.54a6.88,6.88,0,0,0,6.88,6.88h5.56a6.88,6.88,0,0,0,6.88-6.88V6.88A6.88,6.88,0,0,0,83.31,0Z"/><path class="cls-1" d="M70,12.74V51.68L30.63,44.29V20.14L70,12.74m4.86-5.86-49.1,9.23V48.32l49.1,9.22V6.88Z"/><polygon class="cls-2" points="34.72 40.89 34.72 23.53 65.92 17.67 65.92 46.75 34.72 40.89"/><path class="cls-1" d="M25,21v22.5H16.11a11.25,11.25,0,0,1,0-22.5H25m4.86-4.86H16.11a16.11,16.11,0,0,0,0,32.22H29.86V16.1Z"/><path class="cls-1" d="M25.27,49A43.59,43.59,0,0,0,29.42,63.3l-8.14,5.18A52.86,52.86,0,0,1,15.61,49h9.66m4.59-4.86H10.53A57.76,57.76,0,0,0,19.6,75.31L35.91,64.93a38.39,38.39,0,0,1-6-20.75Z"/></g></g></svg>