<svg xmlns="http://www.w3.org/2000/svg" viewBox="0 0 84.91 72.78"><defs><style>.cls-1{fill:#ffaf1c;}.cls-2{fill:#fff;}</style></defs><g id="Capa_2" data-name="Capa 2"><g id="Capa_4" data-name="Capa 4"><rect class="cls-1" x="57.62" width="18.2" height="64.59"/><rect class="cls-1" x="33.36" y="12.13" width="18.2" height="52.46"/><rect class="cls-1" x="9.1" y="24.26" width="18.2" height="40.33"/><path class="cls-2" d="M78.85,64.54a2.18,2.18,0,0,1,0,4.35H6.07a2.18,2.18,0,1,1,0-4.35H78.85m0-3.89H6.07a6.07,6.07,0,1,0,0,12.13H78.85a6.07,6.07,0,0,0,0-12.13Z"/><path class="cls-2" d="M23.4,28.15V60.7H13V28.15H23.4m3.89-3.89H9.1V64.59H27.29V24.26Z"/><path class="cls-2" d="M47.66,16V60.7H37.25V16H47.66m3.89-3.89H33.36V64.59H51.55V12.13Z"/><path class="cls-2" d="M71.92,3.89V60.7H61.51V3.89H71.92M75.81,0H57.62V64.59H75.81V0Z"/></g></g></svg>