<svg xmlns="http://www.w3.org/2000/svg" viewBox="0 0 90.19 83.75"><defs><style>.cls-1{fill:#ffaf1c;}.cls-2{fill:#141b4d;}</style></defs><g id="Capa_2" data-name="Capa 2"><g id="Capa_3" data-name="Capa 3"><rect class="cls-1" x="30.41" y="12.88" width="48.71" height="58.07"/><path class="cls-2" d="M15.55,66.62a1.58,1.58,0,0,1,1.12,2.7L7.56,78.43a1.57,1.57,0,0,1-1.12.46,1.58,1.58,0,0,1-1.12-2.7l9.11-9.11a1.6,1.6,0,0,1,1.12-.46m0-4.86A6.4,6.4,0,0,0,11,63.64L1.89,72.75A6.44,6.44,0,1,0,11,81.86l9.11-9.11a6.44,6.44,0,0,0-4.56-11Z"/><path class="cls-2" d="M85.33,4.86v74H24.19V62.13A4.88,4.88,0,0,0,23,58.92a20.9,20.9,0,0,1,0-27.64,4.89,4.89,0,0,0,1.22-3.22V4.86H85.33M90.19,0H19.33V28.06a25.72,25.72,0,0,0,0,34.07V83.75H90.19V0Z"/><path class="cls-2" d="M36.31,35.06h4.75l7.1,20.08H43.61L42.29,51h-7.4l-1.36,4.13H29.14ZM36,47.55h5.14l-2.54-7.9Z"/><path class="cls-2" d="M38.65,24.19A20.91,20.91,0,1,1,17.74,45.1,20.93,20.93,0,0,1,38.65,24.19m0-4.86A25.77,25.77,0,1,0,64.42,45.1,25.77,25.77,0,0,0,38.65,19.33Z"/></g></g></svg>