<svg xmlns="http://www.w3.org/2000/svg" viewBox="0 0 90.19 73.15"><defs><style>.cls-1{fill:#141b4d;}.cls-2{fill:#ffaf1c;}</style></defs><g id="Capa_2" data-name="Capa 2"><g id="Capa_3" data-name="Capa 3"><path class="cls-1" d="M85.33,13.59v51.3a3.4,3.4,0,0,1-3.4,3.4H8.26a3.4,3.4,0,0,1-3.4-3.4V13.59H85.33m4.86-4.86H0V64.89a8.26,8.26,0,0,0,8.26,8.26H81.93a8.26,8.26,0,0,0,8.26-8.26V8.73Z"/><path class="cls-1" d="M43.28,4.86A3.41,3.41,0,0,1,46.67,8H4.87A3.41,3.41,0,0,1,8.26,4.86h35m0-4.86h-35A8.26,8.26,0,0,0,0,8.26v4.62H51.54V8.26A8.26,8.26,0,0,0,43.28,0Z"/><rect class="cls-2" x="12.88" y="21.61" width="64.42" height="38.65"/></g></g></svg>